<svg width="32" height="32" viewBox="0 0 32 32" fill="none" xmlns="http://www.w3.org/2000/svg">
<circle cx="15.9431" cy="15.9431" r="15.9431" fill="#30A0D0
"/>
<path d="M18.8035 23.507C20.6215 23.507 22.1005 22.028 22.1005 20.21C22.1005 18.4054 20.6429 16.9354 18.8431 16.914V16.9119C18.7195 16.9105 18.5953 16.9171 18.4712 16.9298C18.4669 16.9301 18.4624 16.9306 18.4581 16.9311C18.4102 16.9361 18.3625 16.9423 18.3146 16.9495C18.3031 16.9512 18.2917 16.9531 18.2804 16.955C18.2546 16.9591 18.229 16.9626 18.2035 16.9672C18.1722 16.9617 18.1348 16.9471 18.0925 16.9251C17.5909 16.6631 17.5217 15.9716 17.9474 15.5988C18.0001 15.5526 18.048 15.5155 18.0887 15.4897C18.2421 15.5194 18.399 15.5387 18.5591 15.5462C18.6116 15.5488 18.6638 15.5502 18.7155 15.5502C18.7657 15.5502 18.8155 15.5486 18.8651 15.5464C18.8781 15.5459 18.8914 15.5452 18.9044 15.5445C18.9522 15.5417 18.9996 15.5383 19.0466 15.5335C19.0552 15.5326 19.0638 15.5314 19.0724 15.5306C19.1115 15.5263 19.1503 15.5213 19.1891 15.5156C19.2068 15.5131 19.2245 15.5105 19.242 15.5076C19.2793 15.5016 19.3164 15.495 19.3531 15.4877C19.3756 15.4834 19.398 15.4784 19.4203 15.4736C19.4481 15.4674 19.4759 15.4612 19.5034 15.4543C19.5243 15.4492 19.5453 15.444 19.5661 15.4384C19.5707 15.4372 19.5755 15.4361 19.5803 15.4348C20.98 15.0539 22.0126 13.772 22.0126 12.2531C22.0126 10.4351 20.5335 8.95605 18.7155 8.95605C16.8975 8.95605 15.4185 10.4351 15.4185 12.2531C15.4185 12.7975 15.5519 13.3109 15.7865 13.7637L15.7848 13.7655C15.865 13.9202 15.958 14.0696 16.0635 14.2121C16.0846 14.2868 16.0741 14.4189 16.0403 14.5806C15.9438 15.0408 15.4726 15.3197 15.0206 15.1895C14.9251 15.1621 14.8458 15.1336 14.7881 15.1052C14.3329 13.8288 13.1126 12.9125 11.6818 12.9125C9.8638 12.9125 8.38477 14.3916 8.38477 16.2096C8.38477 18.0276 9.8638 19.5066 11.6818 19.5066C12.6886 19.5066 13.5908 19.0526 14.1962 18.3391C14.1984 18.3415 14.201 18.3437 14.2034 18.3461C14.4163 18.093 14.5911 17.8076 14.7216 17.4953C14.7706 17.4434 14.8748 17.3895 15.0127 17.3393C15.4389 17.1841 15.9086 17.4042 16.0616 17.8313C16.1193 17.9926 16.1579 18.1329 16.168 18.2283C16.0389 18.4016 15.9285 18.5817 15.839 18.7655C15.8296 18.7849 15.8212 18.8046 15.8121 18.8242C15.616 19.2456 15.5064 19.7153 15.5064 20.21C15.5064 22.028 16.9854 23.507 18.8035 23.507ZM18.5593 18.6909C18.5651 18.6901 18.5708 18.6891 18.5766 18.6882C18.6506 18.6772 18.7263 18.6714 18.8035 18.6714C19.6519 18.6714 20.3421 19.3615 20.3421 20.21C20.3421 21.0585 19.6519 21.7486 18.8035 21.7486C17.9551 21.7486 17.2648 21.0585 17.2648 20.21C17.2648 19.4446 17.8265 18.8082 18.5593 18.6909ZM18.7155 10.7145C19.564 10.7145 20.2542 11.4046 20.2542 12.2531C20.2542 12.9137 19.8355 13.4783 19.2498 13.6959C19.2362 13.7009 19.2225 13.7055 19.2089 13.7102C19.2001 13.7131 19.1914 13.7162 19.1824 13.7191C19.1697 13.7232 19.1569 13.7268 19.144 13.7306C19.1338 13.7335 19.1237 13.7366 19.1134 13.7394C19.1012 13.7426 19.0889 13.7455 19.0765 13.7486C19.0652 13.7512 19.054 13.754 19.0425 13.7564C19.0308 13.7589 19.019 13.7613 19.0071 13.7637C18.9947 13.766 18.9824 13.7682 18.9698 13.7703C18.9587 13.7722 18.9474 13.774 18.9362 13.7758C18.9226 13.7777 18.9089 13.7794 18.8952 13.7809C18.8847 13.7821 18.8742 13.7835 18.8637 13.7845C18.8479 13.7859 18.832 13.7871 18.8162 13.7881C18.8074 13.7886 18.7988 13.7895 18.7902 13.7898C18.7655 13.791 18.7406 13.7917 18.7155 13.7917C18.686 13.7917 18.6563 13.7909 18.6262 13.789L18.624 13.7888C18.5424 13.7837 18.4581 13.7711 18.3697 13.7521C17.9615 13.658 17.6148 13.4012 17.402 13.0537C17.401 13.052 17.3998 13.0501 17.3988 13.0482C17.3867 13.0286 17.3754 13.0089 17.3644 12.9886C17.3631 12.986 17.3615 12.9833 17.3601 12.9807C17.2434 12.7638 17.1769 12.5162 17.1769 12.2531C17.1769 11.4046 17.8671 10.7145 18.7155 10.7145ZM11.6818 17.7482C10.8333 17.7482 10.1432 17.058 10.1432 16.2096C10.1432 15.3611 10.8333 14.6709 11.6818 14.6709C11.9432 14.6709 12.1894 14.7365 12.4051 14.8521C12.4024 14.8557 12.3993 14.8593 12.3965 14.8629C12.6386 14.9902 12.8502 15.1825 13.0005 15.4341C13.0614 15.5361 13.1114 15.6487 13.1533 15.7786C13.1602 15.7998 13.1677 15.8206 13.1756 15.8411C13.2046 15.9592 13.2204 16.0825 13.2204 16.2096C13.2204 17.058 12.5303 17.7482 11.6818 17.7482Z" fill="white"/>
<defs>
<linearGradient id="paint0_linear" x1="15.9431" y1="0" x2="15.9431" y2="31.8862" gradientUnits="userSpaceOnUse">
<stop stop-color="#30A0D0"/>
<stop offset="1" stop-color="#00D1FF"/>
</linearGradient>
</defs>
</svg>
