<svg width="32" height="32" viewBox="0 0 32 32" fill="none" xmlns="http://www.w3.org/2000/svg">
<circle cx="15.9431" cy="15.9431" r="15.9431" fill="url(#paint0_linear)"/>
<path d="M12.2631 21.7093C12.649 22.2094 13.2325 22.4962 13.8641 22.4962H20.4716C20.9572 22.4962 21.3508 22.1026 21.3508 21.6169C21.3508 21.1313 20.9572 20.7377 20.4716 20.7377H13.8641C13.7513 20.7377 13.6848 20.6733 13.6553 20.635C13.6257 20.5967 13.5804 20.5162 13.6089 20.4072L14.6935 16.2704L17.26 15.3197C17.7155 15.1511 17.9478 14.6452 17.7792 14.19C17.6105 13.7346 17.1048 13.5021 16.6494 13.6709L15.238 14.1936L16.3106 10.1023C16.4337 9.63266 16.1528 9.15202 15.6831 9.02889C15.2133 8.90594 14.7328 9.1867 14.6097 9.65653L13.2246 14.9392L10.7147 15.8689C10.2593 16.0375 10.027 16.5434 10.1956 16.9987C10.327 17.3534 10.6629 17.5727 11.0202 17.5727C11.1215 17.5727 11.2247 17.555 11.3254 17.5178L12.6801 17.0162L11.908 19.9612C11.7478 20.5722 11.8773 21.2093 12.2631 21.7093Z" fill="white"/>
<defs>
<linearGradient id="paint0_linear" x1="15.9431" y1="0" x2="15.9431" y2="31.8862" gradientUnits="userSpaceOnUse">
<stop stop-color="#666666"/>
<stop offset="1" stop-color="#A2A2A2"/>
</linearGradient>
</defs>
</svg>
