<svg width="32" height="32" viewBox="0 0 32 32" fill="none" xmlns="http://www.w3.org/2000/svg">
<circle cx="15.9431" cy="15.9431" r="15.9431" fill="url(#paint0_linear)"/>
<path d="M21.7253 16.9841C21.3331 16.477 20.7413 16.1286 19.9499 15.9393C20.9577 15.4252 21.4006 14.5528 21.279 13.3217C21.2384 12.8753 21.115 12.4884 20.9086 12.1605C20.7021 11.8325 20.4234 11.5688 20.0715 11.3693C19.7199 11.1696 19.3374 11.0175 18.9251 10.9127C18.5126 10.8079 18.039 10.7318 17.5047 10.6845V8.12793H15.9425V10.6134C15.672 10.6134 15.2595 10.6202 14.7049 10.6337V8.12793H13.1426V10.6845C12.9193 10.6913 12.5913 10.6947 12.1585 10.6947L10.0078 10.6845V12.3483H11.1338C11.6478 12.3483 11.9488 12.5783 12.0367 13.0381V15.9498C12.1045 15.9498 12.1585 15.9533 12.1991 15.96H12.0367V20.0381C11.9827 20.383 11.7866 20.5556 11.4484 20.5556H10.3224L10.0079 22.4121H12.0369C12.1654 22.4121 12.3513 22.4138 12.5949 22.4169C12.8383 22.4203 13.0209 22.422 13.1426 22.422V25.0089H14.7053V22.4524C14.9893 22.4594 15.4018 22.4627 15.9429 22.4627V25.0089H17.5051V22.422C18.0598 22.395 18.5518 22.3446 18.9811 22.2699C19.4105 22.1952 19.8215 22.0788 20.2137 21.9197C20.6058 21.7609 20.9338 21.5629 21.1975 21.3262C21.4614 21.0897 21.6793 20.7886 21.8521 20.4233C22.0243 20.058 22.1343 19.6353 22.1815 19.155C22.2698 18.2152 22.1176 17.4914 21.7253 16.9841ZM14.7353 12.4596C14.7827 12.4596 14.9163 12.4579 15.1361 12.4545C15.356 12.451 15.5385 12.4476 15.6839 12.4442C15.8294 12.4409 16.0255 12.4493 16.2725 12.4696C16.5193 12.4899 16.7273 12.517 16.8963 12.5508C17.0653 12.5845 17.2515 12.6404 17.4542 12.7181C17.6573 12.7959 17.8195 12.8906 17.9411 13.0022C18.0629 13.1137 18.166 13.2558 18.2504 13.4283C18.3351 13.6008 18.3773 13.7986 18.3773 14.0217C18.3773 14.2111 18.347 14.3836 18.2862 14.5393C18.2255 14.6948 18.1339 14.825 18.0123 14.9298C17.8907 15.0347 17.7654 15.1261 17.6368 15.2038C17.5084 15.2815 17.3443 15.3441 17.1448 15.3914C16.9454 15.4388 16.7713 15.476 16.6226 15.503C16.4738 15.5301 16.2878 15.5487 16.0646 15.5588C15.8413 15.5689 15.6722 15.5758 15.5573 15.5791C15.4423 15.5825 15.2851 15.5825 15.0855 15.5791C14.8858 15.5758 14.7693 15.574 14.7354 15.574L14.7353 12.4596ZM19.0014 19.3682C18.937 19.5238 18.8543 19.6592 18.7529 19.7742C18.6514 19.889 18.5177 19.9906 18.3521 20.0784C18.1865 20.1664 18.0257 20.2373 17.8703 20.2914C17.7147 20.3457 17.5269 20.3928 17.3073 20.4335C17.0872 20.4742 16.8946 20.5027 16.7287 20.5197C16.5631 20.5367 16.3654 20.5502 16.1353 20.5604C15.9055 20.5703 15.7261 20.5755 15.5977 20.5755C15.4692 20.5755 15.3068 20.5737 15.1107 20.5703C14.9144 20.5672 14.7894 20.5655 14.7353 20.5655V17.1363C14.7893 17.1363 14.95 17.133 15.2172 17.1261C15.4844 17.1193 15.7024 17.1162 15.8715 17.1162C16.0406 17.1162 16.274 17.1261 16.5717 17.1466C16.8691 17.1667 17.1194 17.197 17.3224 17.2376C17.5253 17.2783 17.7466 17.3407 17.9869 17.4254C18.2269 17.5099 18.4214 17.613 18.5703 17.7347C18.7191 17.8567 18.8441 18.012 18.9456 18.2014C19.0472 18.3907 19.0979 18.6072 19.0979 18.8508C19.0979 19.0403 19.0658 19.2125 19.0014 19.3682Z" fill="white"/>
<defs>
<linearGradient id="paint0_linear" x1="15.9431" y1="0" x2="15.9431" y2="31.8862" gradientUnits="userSpaceOnUse">
<stop stop-color="#FFB628"/>
<stop offset="1" stop-color="#FFD028"/>
</linearGradient>
</defs>
</svg>
