<svg width="977" height="478" viewBox="0 0 977 478" fill="none" xmlns="http://www.w3.org/2000/svg">
<path d="M85.8438 287.517H102.555V297.663H109.696V473.283H85.8438V287.517Z" fill="#DBDBDB"/>
<path d="M209.39 346.105H98.5547V454.706H209.39V346.105Z" fill="#DBDBDB"/>
<path d="M235.677 220.069H148.551V454.278H235.677V220.069Z" fill="#DBDBDB"/>
<path d="M277.096 303.807H206.824V458.707H277.096V303.807Z" fill="#DBDBDB"/>
<path d="M368.502 258.937H298.23V458.707H368.502V258.937Z" fill="#DBDBDB"/>
<path d="M48.9961 322.527L91.2735 317.525V473.283H48.9961V322.527Z" fill="#DBDBDB"/>
<path d="M0 283.659L10.5694 278.8L18.8534 282.515V473.283H0V283.659Z" fill="#DBDBDB"/>
<path d="M53.8447 259.509H18.8516V473.283H53.8447V259.509Z" fill="#DBDBDB"/>
<path d="M865.678 272.37H769.84V477.713H865.678V272.37Z" fill="#DBDBDB"/>
<path d="M720.429 177.772H619.449V477.713H720.429V177.772Z" fill="#DBDBDB"/>
<path d="M927.515 336.102H844.531V453.992H927.515V336.102Z" fill="#DBDBDB"/>
<path d="M795.557 213.067H709.859V463.995H795.557V213.067Z" fill="#DBDBDB"/>
<path d="M647.004 245.505H575.59V464.852H647.004V245.505Z" fill="#DBDBDB"/>
<path d="M512.74 323.813H417.473V464.852H512.74V323.813Z" fill="#DBDBDB"/>
<path d="M444.193 352.392H269.941V473.426H444.193V352.392Z" fill="#DBDBDB"/>
<path d="M577.45 224.642H466.043V464.709H577.45V224.642Z" fill="#DBDBDB"/>
<path d="M898.387 305.522L937.522 266.797L976.943 304.236V459.708H898.387V305.522Z" fill="#DBDBDB"/>
<path d="M140.551 445.561V278.086L109.414 335.53L98.2734 445.561H140.551Z" fill="#F9CA78"/>
<path d="M182.261 445.561L174.548 293.947L140.555 278.086V445.561H182.261Z" fill="#2168A3"/>
<path d="M171.831 296.091L178.544 441.274H171.831L166.832 295.233L171.831 296.091Z" fill="#10457A"/>
<path d="M163.115 292.947L156.688 289.374L161.401 440.702H167.828L163.115 292.947Z" fill="#10457A"/>
<path d="M153.128 288.231L147.844 285.23L151.843 440.702H157.556L153.128 288.231Z" fill="#10457A"/>
<path d="M145.405 284.659L147.833 439.702L142.691 440.702V282.801L145.405 284.659Z" fill="#10457A"/>
<path d="M137.697 291.232L110.988 336.816V342.675L137.697 309.237V291.232Z" fill="#F9C04C"/>
<path d="M137.695 317.382L110.558 348.962L109.844 355.964L137.695 330.815V317.382Z" fill="#F9C04C"/>
<path d="M137.702 338.102L109.279 362.252L108.422 368.111L137.702 351.82V338.102Z" fill="#F9C04C"/>
<path d="M137.698 358.394L108.133 372.969L107.133 382.4L137.698 370.254V358.394Z" fill="#F9C04C"/>
<path d="M137.696 375.684L106.273 387.545V395.261L137.696 386.973V375.684Z" fill="#F9C04C"/>
<path d="M137.695 393.404L105.416 399.691L104.559 409.694L137.695 404.121V393.404Z" fill="#F9C04C"/>
<path d="M137.699 408.836L103.991 414.409L103.277 422.84L137.699 422.126V408.836Z" fill="#F9C04C"/>
<path d="M137.693 427.985L103.414 427.413L102.414 439.131L137.693 439.702V427.985Z" fill="#F9C04C"/>
<path d="M171.258 448.133L174.114 258.366L195.539 249.077L215.535 306.093L220.105 448.133H171.258Z" fill="#2168A3"/>
<path d="M212.254 253.793L195.543 249.077L215.539 306.093L245.533 316.525L212.254 253.793Z" fill="#F9CA78"/>
<path d="M220.106 448.133L215.535 306.093L245.529 316.525L243.101 448.133H220.106Z" fill="#2168A3"/>
<path d="M177.687 261.938L193.541 255.079L210.395 306.093L213.68 442.56H175.688L177.687 261.938Z" fill="#10457A"/>
<path d="M175.688 266.654L191.399 260.938L193.256 266.654L175.688 270.941V266.654Z" fill="#2168A3"/>
<path d="M175.688 274.942L194.684 270.226L195.684 275.799L175.688 279.086V274.942Z" fill="#2168A3"/>
<path d="M175.688 283.801L196.683 279.086L198.397 284.802L175.688 287.945V283.801Z" fill="#2168A3"/>
<path d="M175.688 293.233L199.254 289.375L201.111 295.805L175.688 298.377V293.233Z" fill="#2168A3"/>
<path d="M175.688 302.235L203.111 299.234L204.539 303.807L175.688 306.093V302.235Z" fill="#2168A3"/>
<path d="M175.688 310.38L204.539 308.666V313.81H175.688V310.38Z" fill="#2168A3"/>
<path d="M175.688 317.668H204.539V323.241L175.688 322.527V317.668Z" fill="#2168A3"/>
<path d="M183.402 324.813V328.957L213.682 331.243L213.111 327.957L183.402 324.813Z" fill="#2168A3"/>
<path d="M175.691 333.958H205.399V336.959H174.977L175.691 333.958Z" fill="#2168A3"/>
<path d="M213.676 339.817L178.254 338.96V341.675L213.676 342.818V339.817Z" fill="#2168A3"/>
<path d="M174.977 345.39L206.685 346.39V350.534H174.977V345.39Z" fill="#2168A3"/>
<path d="M213.674 354.107H181.109V358.251H213.674V354.107Z" fill="#2168A3"/>
<path d="M206.673 362.252H173.965V366.539H206.673V362.252Z" fill="#2168A3"/>
<path d="M213.674 371.397H181.109V375.827L213.674 374.97V371.397Z" fill="#2168A3"/>
<path d="M173.965 380.543L207.958 378.971V382.543L173.965 383.829V380.543Z" fill="#2168A3"/>
<path d="M215.531 385.401L181.109 386.687V390.403L215.531 389.402V385.401Z" fill="#2168A3"/>
<path d="M173.965 395.404L208.815 393.546V398.119H173.965V395.404Z" fill="#2168A3"/>
<path d="M215.531 403.263L181.109 402.12V406.693L215.531 407.407V403.263Z" fill="#2168A3"/>
<path d="M173.965 410.265L207.958 411.266V415.124L173.965 413.838V410.265Z" fill="#2168A3"/>
<path d="M216.529 420.125L181.107 417.553L180.25 422.697L216.529 424.126V420.125Z" fill="#2168A3"/>
<path d="M207.958 428.985H173.965V433.129H207.958V428.985Z" fill="#2168A3"/>
<path d="M220.109 313.81L223.823 443.275H227.679L223.823 316.525L220.109 313.81Z" fill="#1E80C6"/>
<path d="M230.536 442.56L227.68 317.668H232.679V442.56H230.536Z" fill="#1E80C6"/>
<path d="M236.539 442.56V318.954L241.538 320.526L239.11 443.275L236.539 442.56Z" fill="#1E80C6"/>
<path d="M201.113 255.079L218.11 304.093L222.823 306.093L204.541 256.365L201.113 255.079Z" fill="#F9C04C"/>
<path d="M206.68 256.651L225.819 306.093L230.532 308.666L208.822 256.651H206.68Z" fill="#F9C04C"/>
<path d="M211.953 257.794L234.377 308.666L239.091 311.238L211.953 257.794Z" fill="#F9C04C"/>
<path d="M848.551 449.276L865.119 314.524L815.843 276.085L802.988 449.276H848.551Z" fill="#2168A3"/>
<path d="M756.999 449.276L747.43 320.812L815.845 276.085L802.99 449.276H756.999Z" fill="#F9CA78"/>
<g opacity="0.68">
<path opacity="0.68" d="M863.839 324.241L814.706 291.089L814.277 296.805L863.268 329.671L863.839 324.241Z" fill="#1E80C6"/>
<path opacity="0.68" d="M862.266 337.102L814.275 303.521L813.418 309.094L861.694 341.961L862.266 337.102Z" fill="#1E80C6"/>
<path opacity="0.68" d="M860.702 349.677L812.426 321.812V326.956L859.988 356.25L860.702 349.677Z" fill="#1E80C6"/>
<path opacity="0.68" d="M859.265 362.109L811.417 334.816L810.988 340.389L858.693 366.968L859.265 362.109Z" fill="#1E80C6"/>
<path opacity="0.68" d="M857.845 373.255L810.426 349.82V354.25L857.131 379.114L857.845 373.255Z" fill="#1E80C6"/>
<path opacity="0.68" d="M856.415 384.687L809.281 364.538V370.397L855.986 388.688L856.415 384.687Z" fill="#1E80C6"/>
<path opacity="0.68" d="M855.125 395.976L807.991 381.686L807.562 387.259L854.41 401.691L855.125 395.976Z" fill="#1E80C6"/>
<path opacity="0.68" d="M853.843 406.55L806.995 395.69L806.566 401.12L853.129 411.837L853.843 406.55Z" fill="#1E80C6"/>
<path opacity="0.68" d="M852.271 418.696L805.852 410.694V414.695L851.843 422.84L852.271 418.696Z" fill="#1E80C6"/>
</g>
<path d="M794.712 442.989L805.852 291.089L800.282 293.947L789.855 442.989H794.712Z" fill="#F9C04C"/>
<path d="M784.425 443.56L793.852 297.805L784.425 303.521L781.426 444.561L784.425 443.56Z" fill="#F9C04C"/>
<path d="M777.002 444.561L778.287 307.094L771.574 311.095V444.132L777.002 444.561Z" fill="#F9C04C"/>
<path d="M767.425 444.418L763.997 315.81L758.141 319.383L764.568 444.561L767.425 444.418Z" fill="#F9C04C"/>
<path d="M878.681 449.419L880.966 311.666L861.541 265.511L853.543 304.093C853.543 304.093 855.543 450.276 856.257 449.562C857.114 448.705 878.681 449.419 878.681 449.419Z" fill="#2168A3"/>
<path d="M844.124 449.562L837.125 312.952L861.549 265.511L853.55 304.093L856.407 449.419L844.124 449.562Z" fill="#7DD8FC"/>
<path d="M853.543 304.093L861.541 265.511L880.966 311.666V311.809L853.686 304.807C853.543 304.379 853.543 304.093 853.543 304.093Z" fill="#1E80C6"/>
<path d="M837.125 312.952L861.549 265.511L853.693 303.95L837.125 313.524V312.952Z" fill="#F9CA78"/>
<g opacity="0.33">
<path opacity="0.33" d="M880.827 318.811L853.832 313.524V316.096L880.827 322.955V318.811Z" fill="#10457A"/>
<path opacity="0.33" d="M880.539 330.1L853.973 325.099L854.115 328.528L880.539 333.958V330.1Z" fill="#10457A"/>
<path opacity="0.33" d="M880.403 341.675L854.266 338.388V340.96L880.403 344.961V341.675Z" fill="#10457A"/>
<path opacity="0.33" d="M880.262 350.534L854.41 347.962L854.553 350.963L880.262 354.107V350.534Z" fill="#10457A"/>
<path opacity="0.33" d="M880.111 359.537L854.688 357.822V361.109L880.111 362.966V359.537Z" fill="#10457A"/>
<path opacity="0.33" d="M879.97 369.683L854.832 368.111V370.969L879.827 373.969L879.97 369.683Z" fill="#10457A"/>
<path opacity="0.33" d="M879.829 380.543L854.977 379.257L855.119 382.972L879.829 384.973V380.543Z" fill="#10457A"/>
<path opacity="0.33" d="M879.539 391.546L855.258 390.117V392.689L879.539 394.69V391.546Z" fill="#10457A"/>
<path opacity="0.33" d="M879.405 400.548L855.41 399.834L855.553 403.263L879.405 404.121V400.548Z" fill="#10457A"/>
<path opacity="0.33" d="M879.263 410.122L855.696 409.265L855.41 412.409L879.263 413.838V410.122Z" fill="#10457A"/>
<path opacity="0.33" d="M879.113 420.554L855.832 419.554V423.412L878.97 424.698L879.113 420.554Z" fill="#10457A"/>
</g>
<path d="M853.833 313.524V316.096L837.694 322.955L837.551 319.954L853.833 313.524Z" fill="#2168A3"/>
<path d="M853.981 325.099L837.984 329.529L838.127 332.815L854.124 328.528L853.981 325.099Z" fill="#2168A3"/>
<path d="M854.258 338.388L838.547 341.675L838.833 345.676L854.258 340.96V338.388Z" fill="#2168A3"/>
<path d="M854.4 347.962L839.117 352.392L839.26 355.25L854.543 350.963L854.4 347.962Z" fill="#2168A3"/>
<path d="M854.694 357.822L839.555 361.537L839.698 364.252L854.694 361.109V357.822Z" fill="#2168A3"/>
<path d="M854.832 368.111L840.121 370.54L840.264 373.684L854.832 370.969V368.111Z" fill="#2168A3"/>
<path d="M854.974 379.257L840.691 382.115L840.834 385.258L855.117 382.972L854.974 379.257Z" fill="#2168A3"/>
<path d="M855.263 390.117L841.266 392.975L841.408 395.976L855.263 392.689V390.117Z" fill="#2168A3"/>
<path d="M855.411 399.834L841.699 402.978L841.842 405.835L855.554 403.263L855.411 399.834Z" fill="#2168A3"/>
<path d="M855.694 409.265L842.125 412.123L842.268 415.124L855.408 412.409L855.694 409.265Z" fill="#2168A3"/>
<path d="M855.828 419.554L842.688 421.697L842.83 425.412L855.828 423.412V419.554Z" fill="#2168A3"/>
<path d="M837.845 420.983C841.415 419.268 848.843 419.982 854.127 415.124C859.412 410.265 860.554 402.835 857.841 398.548C855.127 394.261 853.27 392.117 853.27 392.117C853.27 392.117 863.411 384.973 860.983 376.827C858.412 368.682 855.413 364.967 842.415 363.109C829.418 361.252 819.134 370.254 814.278 377.828C809.422 385.401 808.993 390.546 813.849 393.546C818.706 396.547 821.277 400.12 820.134 404.121C818.991 408.122 811.707 399.262 807.279 405.264C802.852 411.266 804.423 415.552 809.707 420.554C814.992 425.555 817.706 429.413 824.276 428.556C830.846 427.984 831.989 423.84 837.845 420.983Z" fill="#DBDBDB"/>
<path opacity="0.86" d="M807.135 405.408C811.562 399.407 818.847 408.266 819.989 404.265C821.132 400.264 818.561 396.549 813.705 393.691C808.849 390.69 809.277 385.546 814.133 377.972C818.99 370.398 829.273 361.539 842.271 363.254C849.984 364.254 854.268 366.112 856.982 369.112C854.697 368.255 851.698 367.541 847.984 366.969C834.987 365.111 824.703 374.114 819.847 381.687C814.99 389.261 814.562 394.405 819.418 397.406C824.274 400.407 826.845 403.979 825.703 407.98C824.56 411.981 817.276 403.122 812.848 409.124C808.42 415.125 809.991 419.412 815.276 424.413C816.847 425.842 818.133 427.129 819.275 428.415C815.705 427.271 813.276 424.271 809.563 420.698C804.278 415.84 802.707 411.41 807.135 405.408Z" fill="white"/>
<path d="M837.267 451.134L838.266 415.695L836.695 387.83L837.981 399.548L839.552 412.409L843.837 402.835L840.694 415.267L842.123 451.705L837.267 451.134Z" fill="white"/>
<path d="M828.273 385.115L837.414 400.262L838.414 402.977L828.273 385.115Z" fill="white"/>
<path d="M826.125 394.404L836.123 398.262L836.694 400.12L826.125 394.404Z" fill="white"/>
<path d="M837.98 402.12L838.98 415.553C838.98 415.553 837.98 425.698 837.98 425.555C837.98 425.412 838.266 415.695 838.266 415.695L837.98 402.12Z" fill="white"/>
<path d="M204.532 400.548C204.532 400.548 195.962 393.546 190.391 400.548C184.821 407.55 184.821 420.983 174.109 416.839C163.254 412.837 160.683 403.835 162.254 395.976C163.825 387.973 167.253 385.258 172.109 383.401C174.252 382.543 177.823 382.972 176.251 379.828C174.68 376.542 170.11 365.11 176.537 361.252C182.964 357.393 189.82 357.822 194.534 360.394C199.247 362.966 200.675 367.253 204.532 366.11C208.388 364.967 213.815 355.393 220.243 359.966C226.67 364.538 221.814 375.827 221.814 375.827C221.814 375.827 228.812 382.4 228.241 391.689C227.813 400.977 223.385 407.979 217.815 408.265C212.53 408.265 209.816 404.121 204.532 400.548Z" fill="#DBDBDB"/>
<path d="M207.101 368.539C204.388 369.397 202.817 367.539 200.531 365.396C201.531 366.11 202.674 366.396 204.102 365.967C207.958 364.824 213.386 355.25 219.813 359.823C220.527 360.394 221.241 360.966 221.67 361.68C215.671 358.965 210.672 367.539 207.101 368.539Z" fill="white"/>
<path d="M161.822 395.976C163.393 387.973 166.821 385.258 171.677 383.401C173.82 382.543 177.391 382.972 175.82 379.828C174.248 376.542 169.678 365.11 176.105 361.252C182.532 357.394 189.388 357.822 194.102 360.394C195.958 361.395 197.387 362.824 198.529 363.824C198.101 363.538 197.53 363.109 196.958 362.824C192.245 360.251 185.532 359.68 178.962 363.681C172.534 367.539 176.962 379.114 178.676 382.258C180.247 385.544 176.676 385.115 174.534 385.83C169.821 387.688 166.393 390.403 164.679 398.405C163.536 403.835 164.393 409.837 168.678 414.266C162.108 409.694 160.537 402.549 161.822 395.976Z" fill="white"/>
<path d="M185.672 385.258L197.67 442.417C197.67 442.417 195.67 442.846 195.67 442.417C195.67 441.988 185.672 385.258 185.672 385.258Z" fill="white"/>
<path d="M204.673 441.56C204.673 441.56 200.816 371.683 200.816 372.112C200.816 372.54 202.816 442.56 202.816 442.56L204.673 441.56Z" fill="white"/>
<path d="M211.242 393.118C211.385 394.118 203.672 420.983 203.672 420.983L203.387 416.553L211.242 393.118Z" fill="white"/>
<path d="M230.674 452.134C230.388 452.134 230.102 452.134 229.96 451.991C228.674 451.563 228.103 450.134 228.531 448.991L313.657 205.351C314.086 204.065 315.514 203.494 316.657 203.922C317.942 204.351 318.514 205.78 318.085 206.923L232.959 450.562C232.673 451.42 231.674 452.134 230.674 452.134Z" fill="#062054"/>
<path d="M379.645 208.495H315.944C314.658 208.495 313.516 207.494 313.516 206.065C313.516 204.637 314.515 203.636 315.944 203.636H379.645C380.931 203.636 382.074 204.637 382.074 206.065C382.074 207.494 380.931 208.495 379.645 208.495Z" fill="#062054"/>
<path d="M397.503 260.366H297.952C296.666 260.366 295.523 259.366 295.523 257.937C295.523 256.651 296.523 255.508 297.952 255.508H397.503C398.789 255.508 399.932 256.508 399.932 257.937C399.932 259.223 398.789 260.366 397.503 260.366Z" fill="#062054"/>
<path d="M414.346 318.097H277.944C276.658 318.097 275.516 317.096 275.516 315.667C275.516 314.381 276.515 313.238 277.944 313.238H414.346C415.631 313.238 416.774 314.239 416.774 315.667C416.631 316.954 415.631 318.097 414.346 318.097Z" fill="#062054"/>
<path d="M440.346 382.257H255.811C254.525 382.257 253.383 381.257 253.383 379.828C253.383 378.542 254.383 377.399 255.811 377.399H440.346C441.632 377.399 442.774 378.399 442.774 379.828C442.774 381.257 441.632 382.257 440.346 382.257Z" fill="#062054"/>
<path d="M230.677 450.562C230.391 450.562 230.106 450.419 229.963 449.991C229.82 449.562 230.106 449.133 230.534 448.99L440.207 379.114C440.636 378.971 441.064 379.257 441.207 379.685C441.35 380.114 441.064 380.543 440.636 380.686L230.963 450.562C230.963 450.562 230.82 450.562 230.677 450.562Z" fill="#062054"/>
<path d="M462.77 450.562C462.627 450.562 462.627 450.562 462.484 450.562L255.525 380.686C255.097 380.543 254.954 380.114 255.097 379.685C255.239 379.257 255.668 379.114 256.096 379.257L463.056 449.133C463.484 449.276 463.627 449.705 463.484 450.133C463.484 450.276 463.056 450.562 462.77 450.562Z" fill="#062054"/>
<path d="M440.34 380.686C440.197 380.686 440.197 380.686 440.055 380.686L277.658 316.525C277.229 316.382 277.087 315.953 277.229 315.525C277.372 315.096 277.801 314.953 278.229 315.096L440.626 379.257C441.054 379.399 441.197 379.828 441.054 380.257C440.911 380.543 440.626 380.686 440.34 380.686Z" fill="#062054"/>
<path d="M255.811 380.686C255.525 380.686 255.239 380.543 255.097 380.114C254.954 379.685 255.097 379.257 255.525 379.114L417.493 315.81C417.922 315.667 418.35 315.81 418.493 316.239C418.636 316.668 418.493 317.096 418.065 317.239L256.096 380.543C255.954 380.686 255.954 380.686 255.811 380.686Z" fill="#062054"/>
<path d="M277.943 316.525C277.658 316.525 277.372 316.382 277.229 316.096C277.087 315.667 277.229 315.239 277.658 315.096L396.492 258.08C396.92 257.937 397.349 258.08 397.491 258.509C397.634 258.937 397.491 259.366 397.063 259.509L278.229 316.525C278.229 316.525 278.086 316.525 277.943 316.525Z" fill="#062054"/>
<path d="M417.769 317.382C417.626 317.382 417.484 317.382 417.484 317.239L297.65 258.652C297.222 258.509 297.079 257.937 297.222 257.651C297.364 257.223 297.936 257.08 298.221 257.223L418.055 315.81C418.483 315.953 418.626 316.525 418.483 316.811C418.341 317.239 418.055 317.382 417.769 317.382Z" fill="#062054"/>
<path d="M299.082 255.508C298.796 255.508 298.51 255.365 298.367 255.079C298.082 254.65 298.225 254.222 298.653 253.936L379.209 205.351C379.637 205.065 380.066 205.208 380.351 205.637C380.637 206.066 380.494 206.494 380.066 206.78L299.51 255.365C299.367 255.508 299.224 255.508 299.082 255.508Z" fill="#062054"/>
<path d="M396.784 259.509C396.641 259.509 396.498 259.509 396.355 259.366L315.371 206.78C314.943 206.494 314.943 206.066 315.085 205.637C315.371 205.208 315.8 205.208 316.228 205.351L397.212 257.937C397.641 258.223 397.641 258.652 397.498 259.08C397.355 259.366 397.069 259.509 396.784 259.509Z" fill="#062054"/>
<path d="M462.764 452.134C461.764 452.134 460.907 451.562 460.479 450.562L377.352 206.923C376.924 205.637 377.638 204.351 378.781 203.922C380.066 203.493 381.351 204.208 381.78 205.351L464.907 448.99C465.335 450.276 464.621 451.562 463.478 451.991C463.335 451.991 463.05 452.134 462.764 452.134Z" fill="#062054"/>
<path d="M976.951 443.274H0V477.855H976.951V443.274Z" fill="#062054"/>
<path d="M935.838 464.852C935.695 464.995 935.552 464.995 935.409 464.995C935.266 464.995 935.124 464.709 935.124 464.566C938.551 446.99 938.837 431.557 935.981 417.41C930.125 388.974 910.7 363.681 893.56 341.389C893.417 341.246 893.417 340.96 893.56 340.817C893.703 340.674 893.989 340.674 894.132 340.817C911.271 363.252 930.839 388.545 936.695 417.267C939.551 431.414 939.266 446.99 935.838 464.709C935.838 464.852 935.838 464.852 935.838 464.852Z" fill="white"/>
<path d="M906.554 343.532C905.983 347.676 902.983 349.677 901.841 350.249C901.555 350.391 901.269 350.249 901.126 350.106C900.269 349.248 897.984 346.247 898.555 342.103C899.127 338.102 902.269 334.244 903.554 332.815C903.84 332.529 904.269 332.672 904.554 332.958C905.268 334.816 907.125 339.531 906.554 343.532Z" fill="white"/>
<path d="M915.267 355.107C913.839 358.965 910.411 360.394 909.268 360.68C908.983 360.823 908.697 360.68 908.554 360.394C907.84 359.394 906.269 356.107 907.697 352.249C909.125 348.534 912.982 345.39 914.553 344.104C914.839 343.818 915.41 344.104 915.41 344.39C915.838 346.39 916.695 351.392 915.267 355.107Z" fill="white"/>
<path d="M894.412 346.247C898.84 347.391 900.84 350.391 901.554 351.392C901.697 351.678 901.554 351.82 901.411 351.963C900.411 352.678 897.269 354.393 892.841 353.392C888.556 352.392 884.414 348.963 882.843 347.676C882.558 347.391 882.7 346.962 882.986 346.819C884.986 346.247 890.128 345.247 894.412 346.247Z" fill="white"/>
<path d="M899.838 357.965C904.266 357.679 907.265 359.966 908.265 360.823C908.408 360.966 908.551 361.252 908.408 361.537C907.694 362.538 905.408 365.11 900.981 365.396C896.696 365.681 891.697 363.681 889.697 362.823C889.269 362.681 889.269 362.109 889.555 361.966C891.126 360.823 895.553 358.251 899.838 357.965Z" fill="white"/>
<path d="M907.838 369.54C912.266 369.254 915.265 371.54 916.265 372.398C916.408 372.54 916.551 372.826 916.408 373.112C915.694 374.112 913.409 376.685 908.981 376.97C904.696 377.256 899.697 375.256 897.697 374.398C897.269 374.255 897.269 373.684 897.555 373.541C899.269 372.54 903.553 369.825 907.838 369.54Z" fill="white"/>
<path d="M913.694 379.257C918.121 378.971 921.121 381.257 922.121 382.115C922.263 382.257 922.406 382.543 922.263 382.829C921.549 383.829 919.264 386.401 914.836 386.687C910.551 386.973 905.552 384.973 903.553 384.115C903.124 383.972 903.124 383.401 903.41 383.258C905.124 382.115 909.409 379.542 913.694 379.257Z" fill="white"/>
<path d="M919.971 390.831C924.399 390.545 927.398 392.832 928.398 393.689C928.541 393.832 928.684 394.118 928.541 394.404C927.827 395.404 925.541 397.976 921.114 398.262C916.829 398.548 911.83 396.547 909.83 395.69C909.402 395.547 909.402 394.975 909.687 394.832C911.258 393.689 915.686 391.117 919.971 390.831Z" fill="white"/>
<path d="M926.834 403.406C931.262 404.549 933.262 407.55 933.833 408.693C933.976 408.979 933.833 409.122 933.69 409.265C932.69 409.979 929.548 411.694 925.12 410.551C920.835 409.408 916.836 406.121 915.265 404.692C914.979 404.407 915.122 403.978 915.408 403.835C917.408 403.406 922.549 402.263 926.834 403.406Z" fill="white"/>
<path d="M929.405 413.409C933.832 414.552 935.832 417.553 936.403 418.696C936.546 418.982 936.403 419.125 936.26 419.268C935.261 419.982 932.118 421.697 927.691 420.554C923.406 419.411 919.407 416.124 917.835 414.695C917.55 414.409 917.693 413.981 917.978 413.838C919.978 413.266 925.12 412.266 929.405 413.409Z" fill="white"/>
<path d="M932.265 424.841C936.264 426.841 937.549 430.271 937.978 431.414C937.978 431.7 937.978 431.843 937.692 431.986C936.549 432.414 932.979 433.415 928.837 431.414C924.98 429.413 921.695 425.269 920.552 423.698C920.267 423.412 920.552 422.983 920.981 422.983C922.981 422.84 928.408 422.983 932.265 424.841Z" fill="white"/>
<path d="M932.694 435.129C936.693 437.13 937.979 440.559 938.407 441.703C938.407 441.988 938.407 442.131 938.122 442.274C936.979 442.703 933.408 443.703 929.266 441.703C925.41 439.702 922.125 435.558 920.982 433.986C920.697 433.7 920.982 433.272 921.411 433.272C923.41 433.129 928.838 433.129 932.694 435.129Z" fill="white"/>
<path d="M933.404 446.132C936.832 449.133 936.975 452.563 936.975 453.706C936.975 453.992 936.832 454.135 936.547 454.135C935.261 454.278 931.548 454.277 928.12 451.42C924.835 448.562 922.978 443.846 922.264 441.988C922.121 441.56 922.406 441.274 922.835 441.417C924.977 441.988 930.119 443.417 933.404 446.132Z" fill="white"/>
<path d="M945.836 418.696C942.123 420.697 938.409 419.839 937.124 419.411C936.838 419.268 936.695 419.125 936.695 418.839C936.838 417.696 937.695 414.266 941.409 412.266C944.979 410.265 950.407 410.122 952.407 410.122C952.835 410.122 953.121 410.551 952.978 410.837C951.978 412.552 949.407 416.696 945.836 418.696Z" fill="white"/>
<path d="M942.686 405.407C939.972 408.551 936.259 408.836 934.973 408.836C934.688 408.836 934.402 408.693 934.402 408.408C934.116 407.264 933.545 403.692 936.259 400.548C938.83 397.547 943.686 395.69 945.686 394.975C946.114 394.832 946.543 395.118 946.4 395.547C946.257 397.405 945.4 402.263 942.686 405.407Z" fill="white"/>
<path d="M936.549 390.403C933.836 393.546 930.122 393.832 928.837 393.832C928.551 393.832 928.265 393.689 928.265 393.403C927.98 392.26 927.408 388.688 930.122 385.544C932.693 382.543 937.549 380.686 939.549 379.971C939.977 379.828 940.406 380.114 940.263 380.543C940.12 382.543 939.12 387.259 936.549 390.403Z" fill="white"/>
<path d="M930.545 378.542C927.832 381.686 924.118 381.972 922.833 381.972C922.547 381.972 922.261 381.829 922.261 381.543C921.976 380.4 921.404 376.827 924.118 373.684C926.689 370.683 931.545 368.825 933.545 368.111C933.973 367.968 934.402 368.254 934.259 368.682C933.973 370.683 933.116 375.541 930.545 378.542Z" fill="white"/>
<path d="M925.545 368.825C922.832 371.969 919.118 372.255 917.833 372.255C917.547 372.255 917.261 372.112 917.261 371.826C916.976 370.683 916.404 367.11 919.118 363.967C921.689 360.966 926.545 359.108 928.545 358.394C928.973 358.251 929.402 358.537 929.259 358.965C928.973 360.966 928.116 365.824 925.545 368.825Z" fill="white"/>
<path d="M893.131 333.815C895.702 337.388 895.13 340.817 894.845 341.961C894.845 342.246 894.559 342.389 894.273 342.246C892.988 342.103 889.274 341.246 886.561 337.816C883.99 334.387 883.276 329.529 883.133 327.528C883.133 327.099 883.561 326.813 883.847 327.099C885.847 327.957 890.703 330.386 893.131 333.815Z" fill="white"/>
<path d="M134.97 424.555C135.113 424.412 135.255 424.126 135.113 423.841C134.97 423.698 134.684 423.555 134.398 423.698C113.974 439.559 91.5496 456.993 74.4102 477.856H75.6956C92.8351 457.421 114.831 440.274 134.97 424.555Z" fill="#2168A3"/>
<path d="M118.264 422.983C117.693 428.27 120.835 431.843 121.978 432.843C122.263 433.129 122.549 433.129 122.835 432.986C124.263 432.129 128.119 429.271 128.691 423.841C129.262 418.696 126.691 412.837 125.548 410.551C125.263 410.122 124.691 409.98 124.263 410.408C122.692 412.552 118.835 417.839 118.264 422.983Z" fill="#2168A3"/>
<path d="M103.558 434.558C104.13 439.845 107.986 442.703 109.272 443.56C109.557 443.703 109.986 443.703 110.129 443.417C111.271 442.274 114.413 438.845 113.842 433.415C113.271 428.27 109.414 422.983 107.843 420.983C107.558 420.554 106.843 420.697 106.558 421.125C105.558 423.555 102.987 429.414 103.558 434.558Z" fill="#2168A3"/>
<path d="M132.553 430.271C126.697 430.128 123.126 433.272 121.984 434.415C121.698 434.701 121.698 434.987 121.984 435.272C122.984 436.415 126.411 439.702 132.267 439.845C137.981 439.988 144.122 437.13 146.55 435.844C146.979 435.558 147.122 434.987 146.55 434.701C144.265 433.415 138.266 430.414 132.553 430.271Z" fill="#2168A3"/>
<path d="M121.834 443.275C116.407 441.417 111.836 443.417 110.408 444.132C110.122 444.275 109.98 444.561 110.122 444.846C110.694 446.275 112.693 450.419 118.264 452.134C123.548 453.849 130.404 452.992 133.118 452.563C133.689 452.42 133.832 451.848 133.546 451.563C131.832 449.705 127.119 444.989 121.834 443.275Z" fill="#2168A3"/>
<path d="M107.987 455.135C102.559 453.277 97.9887 455.278 96.5604 455.992C96.2748 456.135 96.132 456.421 96.2748 456.707C96.8461 458.136 98.8457 462.28 104.416 463.995C109.701 465.709 116.557 464.852 119.27 464.423C119.842 464.28 119.984 463.709 119.699 463.423C117.842 461.565 113.271 456.993 107.987 455.135Z" fill="#2168A3"/>
<path d="M97.5493 465.281C92.1218 463.423 87.5512 465.424 86.1229 466.138C85.8373 466.281 85.6945 466.567 85.8373 466.852C86.4086 468.281 88.4082 472.425 93.9785 474.14C99.2632 475.855 106.119 474.998 108.833 474.569C109.404 474.426 109.547 473.854 109.261 473.569C107.404 471.711 102.834 466.995 97.5493 465.281Z" fill="#2168A3"/>
<path d="M76.1289 477.856H86.2698C86.1269 477.856 86.1269 477.713 85.9841 477.713C81.8421 476.427 78.2713 477.141 76.1289 477.856Z" fill="#2168A3"/>
<path d="M51.1372 474.998C50.9944 475.712 50.9944 476.712 50.8516 477.856H56.7076C54.9936 476.284 53.2797 475.141 52.2799 474.569C51.8514 474.283 51.2801 474.569 51.1372 474.998Z" fill="#2168A3"/>
<path d="M74.861 467.853C72.5757 463.137 67.1482 459.279 64.8629 457.85C64.4345 457.564 63.8631 457.85 63.7203 458.279C63.4347 460.708 62.8633 467.138 65.1486 471.854C66.8626 475.283 69.5763 476.998 71.5759 477.998H74.7182C75.718 476.141 77.1463 472.283 74.861 467.853Z" fill="#2168A3"/>
<path d="M76.6925 458.993C79.1206 463.852 83.6911 465.423 85.2622 465.852C85.5479 465.995 85.9764 465.852 86.1192 465.566C86.8333 464.137 88.6901 459.993 86.262 455.135C83.9768 450.419 78.5492 446.561 76.264 445.132C75.8355 444.846 75.2642 445.132 75.1213 445.561C74.9785 447.99 74.4072 454.278 76.6925 458.993Z" fill="#2168A3"/>
<path d="M86.2748 448.562C88.7029 453.42 93.2734 454.992 94.8446 455.421C95.1302 455.564 95.5587 455.421 95.7015 455.135C96.4157 453.706 98.2725 449.562 95.8444 444.703C93.5591 439.988 88.1316 436.13 85.8463 434.701C85.4178 434.415 84.8465 434.701 84.7037 435.129C84.418 437.559 83.9896 443.846 86.2748 448.562Z" fill="#2168A3"/>
<path d="M138.118 415.124C133.691 418.696 133.262 423.269 133.405 424.698C133.405 424.984 133.691 425.269 133.976 425.269C135.69 425.412 140.547 425.698 144.974 422.126C149.259 418.696 151.83 412.695 152.687 410.408C152.83 409.98 152.401 409.408 151.83 409.551C149.116 410.122 142.403 411.694 138.118 415.124Z" fill="#2168A3"/>
<path d="M853.114 385.689C853.114 385.689 843.973 429.558 855.399 477.857H974.09C938.811 403.551 853.114 385.689 853.114 385.689Z" fill="#2168A3"/>
<path d="M937.093 429.271C936.808 429.556 936.522 429.985 936.522 430.414L931.809 477.998H935.665L940.235 432.128C939.093 431.128 938.093 430.128 937.093 429.271Z" fill="white"/>
<path d="M964.522 460.851C964.093 461.137 963.808 461.708 963.665 462.28L962.094 477.856H965.95L967.236 465.138C966.236 463.709 965.379 462.28 964.522 460.851Z" fill="white"/>
<path d="M911.382 460.708L913.953 411.837C912.81 411.123 911.667 410.408 910.668 409.694C910.525 409.979 910.239 410.265 910.239 410.551L907.811 455.278C891.671 431.271 874.389 408.265 855.964 386.259C854.107 385.83 853.108 385.544 853.108 385.544C853.108 385.544 852.965 386.544 852.536 388.402C870.818 410.265 887.958 433.129 903.955 456.85L850.537 435.701C850.251 435.558 849.965 435.701 849.68 435.701C849.68 437.13 849.822 438.416 849.822 439.845L907.811 462.851C911.096 467.853 914.381 472.854 917.524 477.855H922.237C918.809 472.14 915.095 466.424 911.382 460.708Z" fill="white"/>
<path d="M976.963 406.694C961.681 392.833 947.826 386.117 947.826 386.117C947.826 386.117 925.831 431.415 936.543 478H976.963V406.694Z" fill="#F95F5F"/>
<path d="M934.255 452.42C934.112 452.277 933.826 452.42 933.684 452.42C933.684 453.42 933.684 454.278 933.684 455.278L976.961 474.283V471.139L934.255 452.42Z" fill="white"/>
<path d="M949.689 386.973C948.547 386.402 947.833 385.973 947.833 385.973C947.833 385.973 947.547 386.544 946.976 387.83C955.688 405.836 963.401 424.269 970.257 443.132L937.549 419.554C937.406 419.411 937.12 419.411 936.978 419.411C936.835 420.411 936.549 421.268 936.406 422.269L971.828 447.847C973.542 452.849 975.256 457.85 976.827 462.851V454.135C975.97 451.705 975.256 449.419 974.399 446.99L976.827 439.131V430.128L972.971 442.703C966.258 423.698 958.402 405.121 949.689 386.973Z" fill="white"/>
<path d="M84.1341 366.969C84.1341 366.969 35.7151 378.115 0.0078125 413.839V478H67.2803C97.9886 426.557 84.1341 366.969 84.1341 366.969Z" fill="#F95F5F"/>
<path d="M27.5737 468.996L79.5635 450.848C79.992 449.705 80.2776 448.562 80.7061 447.418C80.4205 447.276 79.992 447.276 79.7063 447.418L30.7159 464.566C36.4291 456.135 41.8566 447.561 47.2841 438.845L85.7051 423.412C85.848 422.269 85.9908 421.125 86.1336 420.125C85.848 420.125 85.5623 419.982 85.2766 420.125L49.855 434.272C62.5668 413.123 74.2788 391.546 84.7053 369.397C84.4197 367.825 84.134 366.825 84.134 366.825C84.134 366.825 83.277 366.967 81.7059 367.396C71.4222 389.545 59.9959 410.98 47.2841 431.843L44.4275 382.829C44.4275 382.543 44.2847 382.4 44.1419 382.257C43.1421 382.829 42.1423 383.258 40.9996 383.829L43.999 436.987C38.5715 445.99 32.8584 454.849 26.8595 463.566L11.0055 404.835C11.0055 404.549 10.7199 404.406 10.577 404.264C9.72006 404.978 8.72026 405.693 7.86328 406.55L24.5743 467.424C22.1462 470.854 19.7181 474.426 17.29 477.855H21.432C23.4317 474.998 25.4313 471.997 27.5737 468.996Z" fill="white"/>
<path d="M640.023 126.901C638.452 121.613 641.451 116.04 646.878 114.469L656.448 111.611C662.018 110.039 665.161 104.18 663.589 98.7499C662.018 93.1769 656.162 90.0332 650.735 91.6051L624.311 99.3215C619.17 100.893 613.742 97.8925 612.171 92.7483C610.6 87.604 613.599 82.1739 618.741 80.602L652.163 70.7421C653.877 70.1705 654.877 68.4558 654.448 66.5981C653.877 64.8833 652.163 63.8831 650.306 64.3118L586.319 83.1741C581.891 84.4602 577.321 81.8881 576.035 77.6012C574.75 73.1714 577.321 68.5987 581.606 67.3126L807.133 1.15131L830.557 81.3165L652.592 133.617C647.021 135.332 641.451 132.331 640.023 126.901Z" fill="#FAC261"/>
<path d="M857.836 30.0165C856.836 26.7299 855.408 23.4432 853.694 20.4424C847.981 10.8683 838.982 4.00926 828.127 1.29422C817.272 -1.42082 806.132 0.151044 796.562 5.86692C780.137 15.5839 772.424 35.1608 777.851 53.4516C778.851 56.7382 780.28 60.0249 781.994 63.0257C787.707 72.5998 796.705 79.4589 807.56 82.1739C818.415 84.8889 829.556 83.3171 839.125 77.6012C855.408 67.8842 863.12 48.3073 857.836 30.0165Z" fill="#FAC261"/>
<path d="M816.989 77.6012C836.867 77.6012 852.982 61.4789 852.982 41.5911C852.982 21.7034 836.867 5.58112 816.989 5.58112C797.111 5.58112 780.996 21.7034 780.996 41.5911C780.996 61.4789 797.111 77.6012 816.989 77.6012Z" fill="#FF6417"/>
<path d="M724.436 100.608C723.579 97.8925 725.151 95.0346 728.007 94.1772L764.286 83.6028C766.857 82.8883 768.428 80.0304 767.571 77.4582C766.857 74.8861 764 73.3142 761.429 74.1716L686.301 96.1777C683.587 97.0351 680.731 95.4632 679.874 92.6053C679.017 89.8903 680.588 87.0323 683.444 86.1749L724.008 74.3145C726.579 73.6 728.15 70.7421 727.293 68.1699C726.436 65.312 723.579 63.7401 720.723 64.5975L672.161 78.7443C669.447 79.6017 666.591 78.0298 665.734 75.1719C664.877 72.4568 666.448 69.5989 669.304 68.7415L735.006 49.4504C737.862 48.5931 739.433 45.7351 738.576 42.8772C737.862 40.305 735.006 38.7332 732.435 39.5905L697.013 49.8791C694.299 50.7365 691.443 49.1646 690.586 46.3067C689.729 43.5917 691.3 40.7337 694.157 39.8763L808.991 6.29556L829.13 75.3148L731.006 103.894C728.15 104.894 725.293 103.323 724.436 100.608Z" fill="#F95050"/>
<path d="M816.565 72.314C833.288 72.314 846.845 58.7508 846.845 42.0198C846.845 25.2888 833.288 11.7256 816.565 11.7256C799.842 11.7256 786.285 25.2888 786.285 42.0198C786.285 58.7508 799.842 72.314 816.565 72.314Z" fill="#F24141"/>
<path d="M761.29 86.0321L785.856 78.7443C787.856 78.1727 789.856 79.3159 790.427 81.3165C790.998 83.317 789.856 85.3176 787.856 85.8892L763.289 93.1769C761.29 93.7485 759.29 92.6053 758.719 90.6048C758.29 88.7471 759.433 86.6037 761.29 86.0321Z" fill="#F24141"/>
<path d="M809.425 24.0148L807.425 17.1558L803.426 18.2989L805.426 25.158L772.718 34.7321C771.004 35.3037 769.862 37.1613 770.433 38.8761C771.004 40.5909 772.861 41.734 774.575 41.1625L800.712 33.5889L802.712 40.1622L744.724 57.024C742.153 57.7385 740.582 60.4535 741.438 63.1686C742.153 65.7407 744.866 67.3126 747.58 66.4552L805.569 49.5934L808.282 58.5959L781.288 66.5981C779.574 67.1697 778.431 69.0274 779.003 70.7421C779.574 72.4569 781.431 73.6001 783.145 73.0285L816.567 63.3115L818.281 69.1703L822.28 68.0271L820.566 62.1683L822.708 61.5967C823.994 61.3109 824.993 60.8822 826.136 60.4535L827.85 66.3123L831.849 65.1691L829.85 58.7388C830.564 58.453 831.135 58.0243 831.706 57.7385C833.706 56.4524 835.277 54.7377 836.134 52.4513C836.991 50.3079 837.134 47.8786 836.42 45.3065C835.134 40.8767 831.992 38.5903 826.993 38.1616C830.135 35.5895 831.135 32.4457 829.992 28.7304C829.278 26.4441 827.993 24.5864 826.136 23.3003C824.279 22.0143 822.28 21.2998 820.28 21.4427C819.852 21.4427 819.423 21.4427 818.995 21.5856L816.852 14.2978L812.853 15.441L814.853 22.4429C813.853 22.7287 812.71 23.0145 811.425 23.3003L809.425 24.0148ZM817.852 44.8778C820.28 44.1633 821.994 44.0204 823.422 44.592C824.708 45.0207 825.708 46.3067 826.279 48.1644C826.85 50.0221 826.707 51.451 825.85 52.4513C824.993 53.4516 823.422 54.309 820.851 55.0235L817.995 55.8808L814.995 45.7352L817.852 44.8778ZM813.139 29.8736C815.281 29.1591 816.995 29.1591 817.995 29.4449C818.995 29.8736 819.852 30.731 820.28 32.3028C820.709 34.0176 820.709 35.3037 819.994 36.1611C819.28 37.0184 817.995 37.8758 815.995 38.4474L813.139 39.3048L810.568 30.731L813.139 29.8736Z" fill="white"/>
<path d="M718.01 45.3064L732.578 41.0195C734.435 40.4479 736.434 41.5911 737.006 43.4488C737.577 45.3064 736.434 47.307 734.578 47.8786L720.009 52.1655C718.152 52.7371 716.153 51.5939 715.581 49.7362C715.01 47.8786 716.153 45.878 718.01 45.3064Z" fill="#F7B452"/>
<path d="M722.159 73.3143C724.21 73.3143 725.873 71.6509 725.873 69.599C725.873 67.547 724.21 65.8836 722.159 65.8836C720.108 65.8836 718.445 67.547 718.445 69.599C718.445 71.6509 720.108 73.3143 722.159 73.3143Z" fill="#F7B452"/>
<path d="M672.734 98.8929C675.101 98.8929 677.019 96.9736 677.019 94.606C677.019 92.2384 675.101 90.3191 672.734 90.3191C670.368 90.3191 668.449 92.2384 668.449 94.606C668.449 96.9736 670.368 98.8929 672.734 98.8929Z" fill="#F7B452"/>
<path d="M628.035 135.332C630.56 135.332 632.606 133.284 632.606 130.759C632.606 128.233 630.56 126.186 628.035 126.186C625.511 126.186 623.465 128.233 623.465 130.759C623.465 133.284 625.511 135.332 628.035 135.332Z" fill="#FAC261"/>
<path d="M657.3 50.7365L678.01 44.592C680.724 43.7346 683.438 45.3064 684.295 48.0215C685.152 50.7365 683.58 53.4516 680.867 54.309L660.156 60.4535C657.443 61.3109 654.729 59.739 653.872 57.024C653.158 54.309 654.729 51.5939 657.3 50.7365Z" fill="#F7B452"/>
<path d="M663.446 118.184C662.732 115.755 664.16 113.183 666.588 112.468L708.437 100.179C710.865 99.4644 713.436 100.893 714.15 103.323C714.864 105.752 713.436 108.324 711.008 109.039L669.159 121.328C666.731 122.042 664.16 120.613 663.446 118.184Z" fill="#F7B452"/>
<path d="M603.18 110.467L627.461 103.18C631.603 102.037 635.888 104.323 637.03 108.467C638.173 112.611 635.888 116.898 631.745 118.041L607.464 125.329C603.322 126.472 599.038 124.186 597.895 120.042C596.752 116.04 599.038 111.754 603.18 110.467Z" fill="#FAC261"/>
<path d="M568.325 109.753C567.182 105.609 569.467 101.322 573.609 100.179C577.751 99.0358 582.036 101.322 583.179 105.466C584.321 109.61 582.036 113.897 577.894 115.04C573.895 116.326 569.61 113.897 568.325 109.753Z" fill="#FAC261"/>
<path d="M645.171 82.031C644.171 78.4586 646.171 74.7432 649.742 73.743C653.312 72.7427 657.026 74.7432 658.026 78.3157C659.025 81.8881 657.026 85.6034 653.455 86.6037C649.884 87.604 646.171 85.6034 645.171 82.031Z" fill="#F7B452"/>
<path d="M735.56 233.645C735.989 231.215 738.417 230.787 738.417 230.787C741.844 238.074 742.559 259.652 742.273 261.652C741.13 269.798 736.845 269.083 734.417 261.51C732.418 255.508 734.989 236.931 735.56 233.645Z" fill="#F95050"/>
<path d="M738.706 226.928C739.277 227.643 740.134 231.787 739.135 234.073C737.278 236.646 735.992 236.074 735.278 234.502C734.707 233.359 732.707 232.073 733.85 228.215C733.993 227.786 734.85 228.643 734.85 228.643C734.85 228.643 732.85 223.642 733.564 223.356C734.707 223.213 738.135 226.071 738.706 226.928Z" fill="white"/>
<path d="M739.418 443.56C739.846 443.56 740.275 443.703 740.56 444.132C741.274 445.275 742.56 446.275 743.702 446.418C749.273 447.276 753.129 449.133 754.843 450.276C755.843 450.991 755.414 452.706 754.129 452.706H736.133C735.561 452.706 734.99 452.277 734.847 451.705C734.276 448.99 734.419 446.418 734.561 445.132C734.561 444.56 735.133 443.989 735.704 443.989L739.418 443.56Z" fill="#F53B4A"/>
<path d="M693.005 443.703C693.434 443.703 693.862 443.846 694.148 444.275C694.862 445.418 695.147 448.705 696.719 449.848C697.718 450.562 697.576 452.848 696.29 452.848H688.72C688.149 452.848 687.577 452.42 687.435 451.848C686.863 449.133 687.72 446.704 687.72 445.418C687.72 444.846 688.292 444.275 688.863 444.275L693.005 443.703Z" fill="#F53B4A"/>
<path d="M735.423 260.795C732.709 261.51 720.855 276.085 718.712 279.086C713.142 286.659 721.14 298.949 724.997 292.661C726.853 289.803 740.136 268.797 740.993 265.939C742.279 261.367 738.994 260.081 735.423 260.795Z" fill="#F95050"/>
<path d="M705.145 269.798C705.145 269.798 705.716 269.369 709.144 269.083C712.572 268.797 715.286 272.227 715.286 272.227L715.572 275.799L704.859 276.228L705.145 269.798Z" fill="#DBDBDB"/>
<path d="M707.848 361.252L722.131 401.977C722.131 401.977 721.559 406.121 722.131 410.837C723.13 418.982 733.7 445.847 733.7 445.847C733.7 445.847 737.556 447.419 741.841 444.989L720.559 329.671L714.275 327.528L707.848 361.252Z" fill="#062054"/>
<path d="M697.283 331.243C693.141 344.247 691.856 393.689 691.57 396.404C691.284 398.976 688.713 407.122 688.713 411.266C688.713 418.125 687.285 444.989 687.285 444.989C687.285 444.989 690.427 446.561 694.855 445.275C694.855 445.275 714.851 351.678 714.994 350.106C715.28 348.534 717.136 333.101 716.851 330.672C716.708 328.1 697.283 331.243 697.283 331.243Z" fill="#032A5B"/>
<path d="M705.427 275.656C705.427 275.656 693.858 277.657 692.715 279.229C691.573 280.801 694.858 311.095 695.715 318.24C696.286 323.956 697.571 328.671 697.286 331.243C697 332.815 720.281 336.388 720.71 329.671C721.138 322.812 725.28 298.52 724.995 288.374C724.709 280.515 723.995 279.8 722.567 278.8C721.138 277.8 716.139 275.799 716.139 275.799L705.427 275.656Z" fill="#F95050"/>
<path d="M714.575 269.655C714.717 268.083 715.574 261.224 715.574 261.224C715.574 261.224 707.862 260.081 707.576 261.795C706.719 267.654 705.434 275.656 705.434 275.656L715.574 282.087C715.574 282.087 714.289 271.227 714.575 269.655Z" fill="#F4F4F4"/>
<path d="M707.281 266.511C706.853 266.94 706.139 267.083 705.567 266.797C699.283 263.081 693.427 258.509 694.569 252.221C695.855 245.505 704.568 233.788 704.568 233.788L707.424 236.503L708.71 233.788C708.71 233.788 713.851 235.931 715.423 242.79C716.994 249.649 707.567 261.938 707.567 261.938L707.281 266.511Z" fill="#062054"/>
<path d="M705.144 269.798L709.714 273.656L715.57 282.087L703.43 276.514L705.144 269.798Z" fill="#1E80C6"/>
<path d="M715.572 282.087L718 273.656L714.43 271.369L715.572 282.087Z" fill="#7DD8FC"/>
<path d="M707.705 260.366C708.991 257.08 705.135 252.221 706.42 250.078C708.705 246.362 713.133 245.648 716.847 252.078C719.989 257.651 722.131 266.225 719.703 268.511C717.561 270.512 711.562 267.511 707.848 263.796C706.848 263.367 704.42 262.939 703.563 261.51C701.707 258.794 704.278 258.08 707.705 260.366Z" fill="white"/>
<path d="M709.707 273.656L708.136 280.801L702.137 277.085L705.136 269.798L709.707 273.656Z" fill="#7DD8FC"/>
<path d="M717.992 273.656L720.277 279.229L716.992 277.085L717.992 273.656Z" fill="#1E80C6"/>
<path d="M687.002 231.787C688.145 229.643 690.859 233.502 690.859 233.502C689.716 241.361 679.861 258.509 678.576 259.938C673.719 265.654 669.577 259.366 672.72 252.078C674.576 247.791 684.289 236.788 687.002 231.787Z" fill="#F95050"/>
<path d="M689.571 285.23C688 281.801 673.575 264.796 672.289 260.081C672.718 256.508 676.145 254.651 680.145 257.366C682.573 259.08 698.427 274.656 698.57 281.229C698.57 292.09 697.855 304.093 689.571 285.23Z" fill="#F95050"/>
<path d="M691.574 223.356C689.575 224.356 687.718 226.071 687.432 231.644C685.433 238.075 691.146 234.073 692.431 232.216C693.717 230.501 692.003 228.072 693.717 225.642C695.431 223.07 694.002 222.213 691.574 223.356Z" fill="white"/>
<path d="M660.45 236.931C660.735 234.645 656.593 235.931 656.593 235.931C652.88 242.504 651.451 248.649 649.166 255.222C648.595 256.937 645.738 263.51 645.738 265.225C646.167 273.084 649.452 275.228 652.308 268.226C654.594 262.796 659.593 242.218 660.45 236.931Z" fill="#FAC261"/>
<path d="M600.324 444.989C600.753 446.418 601.61 450.705 601.039 452.42C600.896 452.849 600.467 453.134 600.039 453.134H594.04C593.469 453.134 593.04 452.706 593.04 452.134C592.612 448.704 595.754 444.275 595.754 444.275H599.182C599.753 444.275 600.182 444.56 600.324 444.989Z" fill="#F95050"/>
<path d="M602.037 335.387C597.895 348.391 597.324 396.118 597.038 398.833C596.753 401.406 595.324 409.265 595.324 413.266C595.324 420.125 596.753 437.273 595.896 444.275C595.753 445.561 596.61 453.134 600.323 444.989C600.323 444.989 600.466 439.13 602.466 428.842C604.322 419.125 607.322 406.836 607.036 398.976C606.893 396.833 623.319 337.102 623.033 334.816C622.89 332.243 602.037 335.387 602.037 335.387Z" fill="white"/>
<path d="M642.89 441.703C641.747 442.846 640.319 445.275 641.89 447.561L643.318 452.706H644.318C644.318 452.706 643.604 448.99 644.461 449.133C647.889 449.705 649.603 453.134 650.745 453.134C651.888 453.134 658.03 453.134 658.03 453.134C658.03 453.134 658.315 451.705 656.173 450.276C650.317 446.132 646.175 442.131 646.175 442.131L642.89 441.703Z" fill="#F95050"/>
<path d="M627.887 401.549C624.745 410.694 640.599 432.7 643.027 441.845C643.741 444.275 653.453 448.99 650.311 445.561C649.168 444.418 648.169 443.56 647.74 442.703C645.026 437.559 637.457 399.691 637.457 399.691L627.887 401.549Z" fill="white"/>
<path d="M604.039 333.101C588.328 350.249 596.612 401.834 596.183 404.264C595.898 406.693 639.603 408.693 639.032 405.55C637.032 392.403 632.89 341.246 624.463 332.243C622.035 329.671 604.039 333.101 604.039 333.101Z" fill="#F95050"/>
<path d="M642.6 299.949C637.744 293.09 634.602 292.947 634.173 284.659C633.459 269.655 630.031 255.365 613.892 256.365C613.892 256.365 609.321 254.365 604.179 256.937C596.324 260.938 594.467 271.084 596.181 279.943C597.609 287.66 598.609 294.805 598.323 303.093C598.038 312.095 593.896 318.525 603.037 325.384C618.034 336.673 656.455 319.526 642.6 299.949Z" fill="#062054"/>
<path d="M609.177 289.803C602.179 292.518 600.465 293.376 600.465 293.376C605.035 303.664 601.036 306.236 601.608 309.666C602.179 313.667 604.893 314.953 604.893 314.953C604.893 314.953 608.035 327.814 604.036 333.244C599.322 339.531 629.031 339.96 625.889 333.815C623.175 328.671 625.746 315.81 625.746 315.81C625.746 315.81 629.174 314.81 630.031 310.523C630.602 306.808 628.317 293.661 631.745 286.374C631.745 286.374 626.603 288.374 622.032 288.231C617.176 287.946 609.177 289.803 609.177 289.803Z" fill="#FAC261"/>
<path d="M611.892 277.514C611.892 281.086 611.892 287.946 609.178 289.803C606.75 291.518 616.605 301.664 616.605 301.664C616.605 301.664 624.032 289.517 621.89 288.088C619.604 286.802 619.604 279.943 619.604 277.085C619.89 263.081 611.892 277.514 611.892 277.514Z" fill="#F4F4F4"/>
<path d="M623.317 269.083C622.888 267.083 622.031 263.939 618.746 262.51C613.176 260.223 607.606 265.368 608.605 270.369C609.034 272.798 609.605 274.37 611.176 277.371C614.176 282.801 618.461 284.373 620.746 283.659C623.174 282.801 624.174 278.657 623.888 273.227C623.888 271.655 623.603 270.083 623.317 269.083Z" fill="white"/>
<path d="M658.453 237.36C659.167 237.503 659.881 237.36 660.452 236.788C661.452 236.074 662.166 235.788 662.309 234.788C662.88 231.93 662.023 228.929 661.166 228.5C659.595 227.643 657.739 231.93 657.31 232.359C656.882 232.787 656.596 233.645 656.453 234.502C656.453 235.931 657.167 237.074 658.453 237.36Z" fill="white"/>
<path d="M629.886 303.95C632.742 300.092 651.453 273.656 652.881 266.082C653.881 260.795 648.168 259.652 645.74 263.51C643.74 266.797 631.171 285.23 628.029 287.374C621.316 292.089 618.031 319.954 629.886 303.95Z" fill="#FAC261"/>
<path d="M565.335 268.654C564.763 266.368 569.334 268.226 569.334 268.226C573.619 274.084 578.475 287.945 580.046 289.803C585.473 296.091 576.761 300.377 573.333 293.947C570.619 288.946 566.62 274.084 565.335 268.654Z" fill="#FAC261"/>
<path d="M601.318 307.237C599.032 303.807 578.179 301.664 574.037 295.233C571.038 290.66 576.894 286.802 580.036 289.946C583.75 293.518 597.89 293.376 601.603 293.518C609.602 294.09 611.744 323.098 601.318 307.237Z" fill="#FAC261"/>
<path fill-rule="evenodd" clip-rule="evenodd" d="M567.042 262.51C567.042 262.938 566.614 262.081 566.042 260.366C563.471 252.078 562.614 258.794 562.757 261.652C562.757 262.51 563.186 266.082 563.471 266.654C563.757 267.082 565.042 268.511 566.042 269.512C566.614 270.083 567.471 270.226 568.185 269.94C568.899 269.655 569.327 269.083 569.47 268.226C569.613 266.94 569.756 264.796 568.756 262.796C568.47 262.367 566.614 256.508 567.042 262.51Z" fill="white"/>
<path d="M561.31 300.949C563.452 300.377 563.452 303.521 563.452 303.521C551.598 312.381 544.456 314.667 542.885 315.382C540.457 316.382 536.458 310.523 542.028 308.38C544.456 307.379 547.884 304.522 561.31 300.949Z" fill="#2168A3"/>
<path d="M544.026 308.523C541.027 306.093 535.028 288.803 532.886 285.945C527.315 278.8 513.889 282.944 518.603 288.088C520.888 290.518 538.313 313.381 540.598 314.953C544.598 317.525 543.741 311.952 544.026 308.523Z" fill="#2168A3"/>
<path d="M460.045 379.542C458.903 378.971 458.188 379.971 457.617 380.971C453.618 386.973 451.618 391.26 450.476 389.259C448.19 384.972 452.475 374.398 452.475 374.398C452.618 372.969 453.904 371.969 455.332 372.112C458.188 372.54 460.188 374.541 460.188 374.541L460.045 379.542Z" fill="#F53B4A"/>
<path d="M537.457 439.702C537.457 440.417 537.886 441.988 538.743 442.846C545.599 448.99 547.456 452.991 545.17 453.42C540.885 454.135 535.601 449.991 532.316 447.704C531.173 446.99 530.459 445.275 532.744 439.702H537.457Z" fill="#F53B4A"/>
<path d="M526.883 329.386C525.74 350.963 538.595 382.4 539.166 389.831C540.166 401.263 537.881 432.414 537.452 440.274C537.452 440.274 535.881 440.559 535.024 440.417C533.31 440.417 532.596 439.416 532.596 439.416C532.596 439.416 529.597 416.41 528.026 405.835C527.026 399.119 529.026 394.261 529.026 394.261C514.743 360.823 505.602 338.531 505.602 338.531C507.744 331.243 527.312 322.241 526.883 329.386Z" fill="#062054"/>
<path d="M521.607 275.085C522.892 271.369 520.464 266.654 521.036 262.653C521.321 260.938 522.321 260.081 522.749 258.509C524.606 252.507 514.037 247.506 505.039 255.365C500.468 259.366 500.754 265.082 499.326 270.369C497.04 278.943 485.614 280.086 482.186 287.66C477.758 297.662 497.183 312.095 510.181 297.948C515.465 292.232 511.18 288.374 517.179 281.086C518.607 279.372 520.893 277.228 521.607 275.085Z" fill="#F24141"/>
<path d="M517.606 264.51C514.035 261.652 513.035 258.937 513.464 256.794C513.892 254.651 516.749 249.792 522.034 251.793C527.318 253.793 524.89 261.795 524.89 261.795L517.606 264.51Z" fill="#7DD8FC"/>
<path d="M524.886 277.514C518.458 272.513 513.459 266.511 514.174 262.653C514.888 258.794 520.172 250.221 529.742 253.65C539.312 257.08 534.884 271.512 534.884 271.512L524.886 277.514Z" fill="#F95050"/>
<path d="M496.177 382.4C496.177 382.4 496.891 371.54 497.748 354.821C497.748 354.821 492.463 335.959 510.031 327.957C513.887 326.242 525.885 329.243 525.885 329.243C525.885 329.243 518.458 351.106 518.172 351.82C510.602 371.254 509.745 401.977 497.462 396.833C486.75 392.403 467.182 382.4 459.755 379.4C457.756 378.542 459.327 374.541 460.041 374.541C460.041 374.541 482.179 377.256 488.607 379.4C492.463 380.971 496.177 382.4 496.177 382.4Z" fill="#032A5B"/>
<path d="M519.172 281.658C519.886 281.801 530.884 283.373 531.741 284.802C531.741 284.802 533.169 289.946 535.454 295.233C538.597 302.664 536.169 304.379 532.026 308.666C532.026 308.666 527.17 321.669 527.027 328.528C526.885 334.959 506.032 332.958 508.174 328.814C509.888 325.384 510.745 320.383 510.888 311.238C511.031 299.949 508.317 290.375 509.459 284.373C509.745 282.372 516.458 281.372 519.172 281.658Z" fill="#1E80C6"/>
<path d="M491.042 242.361L489.328 241.647C489.328 241.647 491.185 238.503 490.328 236.788C489.614 235.074 485.9 238.932 485.186 240.218C484.043 241.933 485.614 247.791 485.614 247.791L488.614 246.791C490.185 244.791 491.042 242.361 491.042 242.361Z" fill="white"/>
<path d="M514.321 281.944C504.466 279.515 495.896 269.083 495.896 269.083C495.896 269.083 490.612 255.222 489.326 247.22C489.326 246.934 489.183 246.648 488.898 246.505C487.898 246.362 485.327 245.934 484.756 246.791C483.613 248.935 488.041 272.798 490.183 276.228C491.469 278.371 507.894 291.947 509.751 296.091C513.464 304.522 520.177 283.373 514.321 281.944Z" fill="#1E80C6"/>
<path d="M561.31 300.949C562.596 299.52 565.595 296.948 567.166 297.377C568.594 297.805 571.308 298.663 571.451 299.091C571.451 299.52 567.452 300.52 566.452 300.663C565.452 300.806 567.737 302.807 567.023 303.235C566.309 303.664 562.167 303.521 561.453 303.378C560.739 303.235 561.31 300.949 561.31 300.949Z" fill="white"/>
<path d="M519.18 281.658C519.18 281.658 524.607 282.087 524.607 271.798C524.607 270.083 531.32 271.084 531.32 271.084C531.32 271.084 531.177 281.515 531.606 284.945C532.034 287.517 533.891 292.375 532.463 291.661C529.749 290.232 519.18 281.658 519.18 281.658Z" fill="#F4F4F4"/>
<path d="M523.461 266.368C523.176 263.653 524.033 261.652 525.747 259.938C528.746 256.937 534.174 257.508 536.316 264.367C538.173 270.369 538.173 278.8 535.459 280.515C533.031 281.944 529.46 278.657 526.746 274.656C524.89 273.513 523.461 272.084 522.747 270.798C520.462 266.511 521.89 265.939 523.461 266.368Z" fill="white"/>
<path d="M382.212 92.7483C382.212 92.7483 382.212 92.4625 382.212 91.8909C382.212 91.1764 382.212 90.6048 382.355 89.6045C382.498 88.6043 382.783 87.4611 383.355 86.175C383.926 84.8889 384.64 83.6029 385.783 82.6026C386.925 81.4594 388.354 80.602 390.068 80.3162C391.782 80.0304 393.638 80.1733 395.209 81.0307C395.924 81.4594 396.495 82.031 396.923 82.7455C397.066 83.0313 397.209 83.46 397.352 83.8887L397.495 84.3174V84.6031C397.495 84.746 397.495 85.0318 397.495 85.3176C397.637 87.3182 397.066 89.4616 396.066 91.748C394.21 96.1778 391.353 100.322 388.496 103.894C387.068 105.752 385.64 107.467 384.212 109.181C382.783 110.896 381.355 112.611 380.212 114.326C379.07 116.04 378.07 117.898 377.499 119.613C376.927 121.328 376.499 122.9 376.356 124.186C376.213 125.472 376.213 126.472 376.07 127.044C376.07 127.758 376.07 128.044 376.07 128.044C376.07 129.759 377.356 131.188 379.07 131.188C380.784 131.188 382.212 129.901 382.212 128.187V128.044C382.212 128.044 382.212 127.758 382.212 127.186C382.212 126.615 382.212 125.9 382.355 124.9C382.498 123.9 382.64 122.757 383.069 121.613C383.497 120.327 384.212 119.041 385.069 117.612C386.068 116.04 387.211 114.611 388.496 112.897C389.925 111.182 391.353 109.324 392.781 107.324C395.638 103.323 398.637 98.8928 400.637 93.6057C401.637 91.0335 402.351 88.1756 402.208 85.0318C402.208 84.6031 402.208 84.3173 402.065 83.8887L401.922 83.3171L401.779 82.8884C401.494 82.031 401.208 81.3165 400.78 80.602C399.923 79.1731 398.637 78.0299 397.209 77.3154C394.495 75.7435 391.353 75.7435 388.782 76.3151C386.211 76.8867 383.926 78.3157 382.355 79.8875C380.641 81.4594 379.641 83.3171 378.927 84.8889C378.213 86.6037 377.927 88.0327 377.641 89.3187C377.499 90.6048 377.356 91.6051 377.356 92.1767C377.356 92.7483 377.356 93.0341 377.356 93.0341C377.356 94.3201 378.213 95.3204 379.498 95.3204C381.212 94.8917 382.212 94.0343 382.212 92.7483Z" fill="#FAC261"/>
<g opacity="0.3">
<path opacity="0.3" d="M376.363 126.901C376.363 126.186 376.506 125.329 376.649 124.043C376.792 122.757 377.077 121.185 377.792 119.47C378.363 117.755 379.363 115.897 380.505 114.183C381.648 112.468 383.076 110.753 384.505 109.038C385.933 107.324 387.361 105.609 388.789 103.751C391.646 100.036 394.503 95.8919 396.359 91.605C397.216 89.4616 397.788 87.1752 397.788 85.1747C397.788 84.8889 397.788 84.6031 397.788 84.4602V84.1744L397.645 83.7457C397.502 83.4599 397.359 83.0312 397.216 82.6025C396.788 81.888 396.217 81.3164 395.502 80.8877C394.074 80.0304 392.074 79.8875 390.361 80.1733C389.504 80.3162 388.789 80.6019 388.075 81.0306C392.074 78.0298 398.787 80.8877 399.93 84.4602C402.501 93.7485 384.647 107.895 381.362 115.612C378.791 121.756 380.505 124.614 382.791 125.043C382.648 125.9 382.648 126.615 382.648 127.043C382.648 127.615 382.648 127.901 382.648 127.901V128.044C382.648 129.758 381.219 131.187 379.506 131.045C377.792 131.045 376.363 129.616 376.506 127.901C376.363 127.901 376.363 127.615 376.363 126.901Z" fill="#F7B452"/>
<path opacity="0.3" d="M381.226 87.6039C380.512 91.3192 381.369 92.1766 382.369 91.8908C382.369 92.4624 382.369 92.7482 382.369 92.7482C382.369 94.0343 381.226 94.8916 380.084 94.8916C378.798 94.8916 377.941 93.7485 377.941 92.6053C377.941 92.6053 377.941 92.3195 377.941 91.7479C377.941 91.1763 378.084 90.0331 378.227 88.89C378.37 87.6039 378.798 86.1749 379.513 84.4602C380.227 82.7454 381.226 81.0306 382.94 79.4588C384.083 78.3156 385.511 77.3153 387.225 76.6008C384.226 79.0301 381.941 83.0312 381.226 87.6039Z" fill="#F7B452"/>
</g>
<path d="M348.654 161.196C354.728 161.196 359.652 155.31 359.652 148.049C359.652 140.789 354.728 134.903 348.654 134.903C342.58 134.903 337.656 140.789 337.656 148.049C337.656 155.31 342.58 161.196 348.654 161.196Z" fill="#FAC261"/>
<path d="M348.65 134.903C347.794 134.903 346.937 135.046 346.222 135.189C348.793 137.618 350.507 141.333 350.507 145.62C350.507 151.908 346.794 157.052 341.938 158.481C343.794 160.196 346.08 161.196 348.65 161.196C354.649 161.196 359.648 155.337 359.648 148.049C359.648 140.762 354.792 134.903 348.65 134.903Z" fill="#F7B452"/>
<path d="M348.665 191.49C353.713 191.49 357.806 183.813 357.806 174.342C357.806 164.872 353.713 157.195 348.665 157.195C343.616 157.195 339.523 164.872 339.523 174.342C339.523 183.813 343.616 191.49 348.665 191.49Z" fill="#FAC261"/>
<path d="M349.074 157.195C350.359 160.196 351.073 163.768 351.073 167.912C351.073 177.343 346.931 185.06 341.932 185.06C341.79 185.06 341.647 185.06 341.504 185.06C343.218 189.061 345.789 191.633 348.645 191.633C353.644 191.633 357.786 183.917 357.786 174.485C357.786 165.054 353.93 157.623 349.074 157.195Z" fill="#F7B452"/>
<path d="M348.646 186.489C334.791 186.489 323.508 194.205 323.508 203.636H373.926C373.926 194.205 362.643 186.489 348.646 186.489Z" fill="#FAC261"/>
<path opacity="0.3" d="M352.074 186.632C357.787 189.775 361.5 194.634 361.5 200.064H324.079C323.651 201.207 323.508 202.493 323.508 203.636H373.926C373.926 194.92 364.357 187.775 352.074 186.632Z" fill="#F7B452"/>
<path d="M315.092 92.7482C315.092 92.7482 315.092 92.4624 315.092 91.8909C315.092 91.1764 315.092 90.6048 314.95 89.6045C314.807 88.6042 314.521 87.461 313.95 86.175C313.378 84.8889 312.664 83.6028 311.522 82.6026C310.379 81.4594 308.951 80.602 307.237 80.3162C305.523 80.0304 303.666 80.1733 302.095 81.0307C301.381 81.4594 300.809 82.031 300.381 82.7455C300.238 83.0313 300.095 83.4599 299.953 83.8886L299.81 84.3173V84.6031C299.81 84.746 299.81 85.0318 299.81 85.3176C299.667 87.3182 300.238 89.4616 301.238 91.748C303.095 96.1778 305.951 100.322 308.808 103.894C310.236 105.752 311.665 107.467 313.093 109.181C314.521 110.896 315.949 112.611 317.092 114.326C318.235 116.04 319.234 117.898 319.806 119.613C320.377 121.328 320.806 122.899 320.948 124.186C321.091 125.472 321.091 126.472 321.234 127.043C321.234 127.758 321.234 128.044 321.234 128.044C321.234 129.759 319.949 131.188 318.235 131.188C316.521 131.188 315.092 129.901 315.092 128.187V128.044C315.092 128.044 315.092 127.758 315.092 127.186C315.092 126.615 315.092 125.9 314.95 124.9C314.807 123.9 314.664 122.757 314.235 121.613C313.807 120.327 313.093 119.041 312.236 117.612C311.236 116.04 310.093 114.611 308.808 112.897C307.38 111.182 305.951 109.324 304.523 107.324C301.666 103.323 298.667 98.8928 296.667 93.6056C295.668 91.0335 294.953 88.1755 295.096 85.0318C295.096 84.6031 295.096 84.3173 295.239 83.8886L295.382 83.317L295.525 82.8884C295.81 82.031 296.096 81.3165 296.525 80.602C297.382 79.173 298.667 78.0299 300.095 77.3154C302.809 75.7435 305.951 75.7435 308.522 76.3151C311.093 76.8867 313.378 78.3157 314.95 79.8875C316.664 81.4594 317.663 83.317 318.377 84.8889C319.092 86.6037 319.377 88.0326 319.663 89.3187C319.806 90.6048 319.949 91.6051 319.949 92.1767C319.949 92.7482 319.949 93.034 319.949 93.034C319.949 94.3201 319.092 95.3204 317.806 95.3204C316.235 94.8917 315.092 94.0343 315.092 92.7482Z" fill="#FAC261"/>
<g opacity="0.3">
<path opacity="0.3" d="M321.089 126.901C321.089 126.186 320.946 125.329 320.803 124.043C320.66 122.757 320.374 121.185 319.66 119.47C319.089 117.755 318.089 115.898 316.947 114.183C315.804 112.468 314.376 110.753 312.947 109.038C311.519 107.324 310.091 105.609 308.662 103.751C305.806 100.036 302.949 95.892 301.092 91.6051C300.236 89.4616 299.664 87.1753 299.664 85.1747C299.664 84.8889 299.664 84.6031 299.664 84.4602V84.1744L299.807 83.7457C299.95 83.4599 300.093 83.0313 300.236 82.6026C300.664 81.8881 301.235 81.3165 301.949 80.8878C303.378 80.0304 305.377 79.8875 307.091 80.1733C307.948 80.3162 308.662 80.602 309.377 81.0307C305.377 78.0299 298.664 80.8878 297.522 84.4602C294.951 93.7485 312.804 107.895 316.09 115.612C318.66 121.756 316.947 124.614 314.661 125.043C314.804 125.9 314.804 126.615 314.804 127.044C314.804 127.615 314.804 127.901 314.804 127.901V128.044C314.804 129.759 316.232 131.188 317.946 131.045C319.66 131.045 321.089 129.616 320.946 127.901C321.089 127.901 321.089 127.615 321.089 126.901Z" fill="#F7B452"/>
<path opacity="0.3" d="M316.233 87.6039C316.947 91.3193 316.09 92.1766 315.091 91.8909C315.091 92.4624 315.091 92.7482 315.091 92.7482C315.091 94.0343 316.233 94.8917 317.376 94.8917C318.661 94.8917 319.518 93.7485 319.518 92.6053C319.518 92.6053 319.518 92.3195 319.518 91.748C319.518 91.1764 319.375 90.0332 319.233 88.89C319.09 87.6039 318.661 86.175 317.947 84.4602C317.233 82.7455 316.233 81.0307 314.519 79.4588C313.377 78.3157 311.948 77.3154 310.234 76.6009C313.091 79.0301 315.376 83.0312 316.233 87.6039Z" fill="#F7B452"/>
</g>
<path d="M391.927 57.8814C391.927 57.1669 391.356 56.4525 390.499 56.4525H306.944C306.23 56.4525 305.516 57.024 305.516 57.8814C305.516 58.5959 306.087 59.3104 306.944 59.3104H306.515C312.514 59.3104 317.228 63.5973 317.228 69.0274V119.184C317.228 136.475 331.225 150.622 348.65 150.622C365.932 150.622 380.072 136.618 380.072 119.184V69.0274C380.072 63.7402 384.929 59.3104 390.785 59.3104H390.356C391.213 59.3104 391.927 58.7388 391.927 57.8814Z" fill="#FFC239"/>
<path d="M390.791 59.3105H390.362H306.807H306.379C312.378 59.3105 317.091 63.5974 317.091 69.0274H361.939L326.089 141.19C331.802 147.049 339.801 150.622 348.514 150.622C365.796 150.622 379.936 136.618 379.936 119.184V69.0274C380.079 63.5974 384.935 59.3105 390.791 59.3105Z" fill="#F7B452"/>
<path d="M348.654 130.179C364.662 130.179 377.64 117.195 377.64 101.179C377.64 85.1632 364.662 72.1797 348.654 72.1797C332.645 72.1797 319.668 85.1632 319.668 101.179C319.668 117.195 332.645 130.179 348.654 130.179Z" fill="white"/>
<path d="M348.656 126.652C362.717 126.652 374.116 115.247 374.116 101.179C374.116 87.1111 362.717 75.7066 348.656 75.7066C334.594 75.7066 323.195 87.1111 323.195 101.179C323.195 115.247 334.594 126.652 348.656 126.652Z" fill="#F7B452"/>
<path d="M348.655 124.888C361.743 124.888 372.353 114.273 372.353 101.179C372.353 88.0851 361.743 77.4702 348.655 77.4702C335.567 77.4702 324.957 88.0851 324.957 101.179C324.957 114.273 335.567 124.888 348.655 124.888Z" fill="white"/>
<path d="M409.504 225.5L410.075 253.936L423.644 256.508L416.645 231.215L409.504 225.5Z" fill="#062054"/>
<path d="M396.49 198.349C394.205 200.636 379.065 227.214 373.923 230.93C373.923 230.93 361.212 230.358 348.928 233.645C346.643 234.216 347.786 238.646 347.786 238.646C350.071 239.504 376.066 242.219 381.922 238.075C385.493 235.502 411.059 211.067 408.916 202.636C406.917 195.063 400.775 194.062 396.49 198.349Z" fill="#032A5B"/>
<path d="M418.637 183.631C431.063 189.633 437.49 200.921 442.489 219.784C447.345 238.503 455.487 251.078 455.487 251.078C455.487 251.078 438.061 262.224 431.491 252.936C424.921 243.505 418.637 183.631 418.637 183.631Z" fill="#062054"/>
<path d="M459.772 152.193C458.344 147.621 457.773 143.048 458.773 141.476C459.772 139.761 460.487 144.62 460.487 144.62C460.487 144.62 461.486 138.475 463.343 136.475C465.2 134.617 467.771 139.19 467.2 143.334C466.771 146.478 465.2 150.907 464.486 153.051C464.343 153.48 458.773 160.053 459.772 152.193Z" fill="#1E80C6"/>
<path d="M418.351 182.059C422.636 179.201 440.632 175.914 446.488 174.343C446.488 174.343 449.774 163.768 459.343 152.622C460.486 151.193 461.485 154.051 464.771 152.908C463.628 159.053 456.344 177.486 453.773 180.773C449.631 186.203 427.635 191.776 427.206 195.491C426.064 205.208 413.352 185.488 418.351 182.059Z" fill="#062054"/>
<path d="M364.499 279.658C363.785 280.229 361.071 282.23 359.642 282.087C350.073 280.515 345.788 281.087 346.502 283.659L366.641 290.375C369.212 286.374 369.926 281.944 369.926 281.944L364.499 279.658Z" fill="#062054"/>
<path d="M436.068 367.396C435.639 368.254 436.21 371.254 434.782 371.54C425.213 373.112 421.356 375.113 422.785 377.256H443.495C445.209 372.398 441.781 367.968 441.781 367.968L436.068 367.396Z" fill="#062054"/>
<path d="M379.209 229.072C379.923 228.072 387.35 223.785 390.349 225.214C399.062 229.215 405.775 233.645 424.2 248.792C427.771 251.793 445.196 254.508 445.196 254.508C448.338 279.515 427.628 285.231 389.778 243.362C389.635 243.933 389.778 243.362 389.778 243.362C387.921 249.363 371.639 281.658 370.21 282.087C367.211 282.801 361.641 280.515 361.641 280.515C361.641 280.515 376.638 232.787 379.209 229.072Z" fill="#10457A"/>
<path d="M443.347 322.384C440.348 297.805 457.487 264.653 442.061 245.076L422.637 245.934C422.637 245.934 429.35 319.097 429.635 323.956C429.921 328.814 434.92 370.969 434.92 370.969C440.776 371.969 443.347 369.683 443.347 369.683C443.347 369.683 444.49 353.392 445.347 338.531C446.061 328.671 443.775 325.67 443.347 322.384Z" fill="#2168A3"/>
<path d="M395.494 199.921C395.637 197.206 401.922 190.919 412.777 187.06C412.777 187.06 415.205 186.346 419.061 185.488C420.061 185.203 424.917 188.346 427.631 191.776C432.487 197.778 438.057 212.496 439.771 224.499C440.486 229.358 441.628 236.36 442.057 239.646C442.342 242.361 442.2 245.076 442.2 245.076C437.772 249.506 422.918 252.507 419.061 244.934C417.204 241.218 395.066 206.351 395.494 199.921Z" fill="#FAC261"/>
<path d="M408.062 155.48C409.49 148.621 407.49 141.19 401.92 140.476C395.636 139.619 401.063 146.049 392.351 151.336C388.066 153.908 391.922 168.77 392.636 171.77C393.207 174.057 409.062 179.773 410.49 176.915C413.632 169.913 414.203 160.339 408.062 155.48Z" fill="#F95050"/>
<path d="M414.495 173.056L419.637 185.488L420.066 198.492L409.496 190.204L410.782 188.632L408.211 172.628L414.495 173.056Z" fill="#1E80C6"/>
<path d="M400.351 169.484C399.637 167.341 401.494 166.34 403.494 166.34C410.207 170.627 405.922 159.481 404.636 156.052C404.351 155.48 405.208 153.48 405.779 153.765C407.636 154.337 411.635 156.48 415.92 161.482C417.634 162.625 419.919 163.482 420.919 163.911C421.204 164.054 421.347 164.34 421.204 164.626L419.919 167.341C422.49 172.485 422.918 177.058 421.49 177.629C419.919 178.201 414.777 177.486 410.064 174.2C405.208 173.771 401.208 172.199 400.351 169.484Z" fill="#1E80C6"/>
<path d="M417.07 152.479L419.213 157.766L520.621 126.329L512.623 106.181L417.07 152.479Z" fill="#7DD8FC"/>
<path d="M524.188 129.759C521.76 130.759 519.189 129.473 518.189 127.186L510.191 107.038C509.191 104.752 510.476 102.037 512.762 101.036C515.047 100.036 517.761 101.322 518.76 103.608L526.759 123.757C527.759 126.186 526.616 128.901 524.188 129.759Z" fill="#F95050"/>
<path d="M420.206 160.339C419.064 160.767 417.636 160.196 417.207 159.052L414.779 152.908C414.35 151.765 414.922 150.336 416.064 149.907C417.207 149.478 418.635 150.05 419.064 151.193L421.492 157.338C422.063 158.481 421.492 159.91 420.206 160.339Z" fill="#F95050"/>
<path d="M465.768 145.191C464.768 145.62 463.768 145.049 463.34 144.191L458.626 132.188C458.198 131.188 458.769 130.187 459.626 129.759C460.626 129.33 461.626 129.901 462.054 130.759L466.767 142.762C467.053 143.762 466.625 144.906 465.768 145.191Z" fill="#F95050"/>
<path d="M418.203 182.202C421.917 184.06 424.916 186.203 426.487 188.489C428.058 190.776 437.628 203.636 437.771 215.354C437.771 215.354 430.201 195.92 425.487 190.633C420.774 185.346 419.489 185.488 419.489 185.488L418.203 182.202Z" fill="#10457A"/>
<path d="M348.934 233.645C345.363 230.501 341.221 228.5 339.364 228.786C337.365 229.072 341.507 231.644 341.507 231.644C341.507 231.644 335.365 230.072 332.937 230.93C330.509 231.787 333.508 236.074 337.65 237.217C340.65 238.075 345.363 238.503 347.648 238.646C348.077 238.789 356.361 235.931 348.934 233.645Z" fill="#1E80C6"/>
<path d="M409.924 182.774L412.067 188.919L420.065 198.493L411.067 192.634L408.782 197.064L405.211 190.348L409.924 182.774Z" fill="#FAC261"/>
<path d="M417.781 181.059L422.78 187.632L419.638 185.488L420.067 198.492L417.781 181.059Z" fill="#FAC261"/>
<path d="M412.058 188.918L411.059 192.633L420.057 198.492L412.058 188.918Z" fill="#F7B452"/>
<path d="M419.207 184.488L420.064 198.492L420.778 187.06L422.778 187.632L419.207 184.488Z" fill="#F7B452"/>
<path d="M403.931 191.204C397.361 194.777 395.218 197.063 395.076 198.778C394.933 200.635 395.218 200.207 394.933 200.635C394.79 200.921 399.646 213.353 405.788 224.499C411.787 235.359 418.928 244.934 418.928 244.934C418.928 244.934 422.07 243.076 420.214 232.073C418.357 221.07 411.644 204.637 411.644 204.637L403.931 191.204Z" fill="#032A5B"/>
<path d="M407.21 187.06C406.211 189.49 415.495 204.779 416.494 210.067C417.351 215.354 420.208 232.073 420.208 232.073C420.208 232.073 410.924 211.639 411.067 211.21C411.21 210.781 412.352 209.066 412.352 209.066L408.639 206.637C408.639 206.637 403.354 192.347 403.783 191.061C404.354 190.061 407.21 187.06 407.21 187.06Z" fill="#10457A"/>
<path d="M336.723 97.1937L348.907 88.0082C349.62 87.4709 350.603 87.4709 351.315 88.0082L363.5 97.1937" stroke="url(#paint0_linear)" stroke-width="4" stroke-linecap="round"/>
<path d="M337.967 114.981C337.874 114.981 337.78 114.945 337.709 114.874C337.566 114.731 337.566 114.499 337.709 114.356L340.708 111.357C340.85 111.215 341.082 111.215 341.225 111.357C341.368 111.5 341.368 111.732 341.225 111.875L338.226 114.874C338.154 114.945 338.061 114.981 337.967 114.981Z" fill="#FF002E"/>
<path d="M340.756 115.376C340.663 115.376 340.569 115.341 340.498 115.269C340.355 115.126 340.355 114.895 340.498 114.752L343.691 111.559C343.834 111.416 344.065 111.416 344.208 111.559C344.351 111.702 344.351 111.933 344.208 112.076L341.015 115.269C340.944 115.341 340.85 115.376 340.756 115.376Z" fill="#FF002E"/>
<path d="M337.518 112.242C337.425 112.242 337.331 112.207 337.259 112.135C337.117 111.992 337.117 111.761 337.259 111.618L340.258 108.619C340.401 108.476 340.633 108.476 340.776 108.619C340.918 108.762 340.918 108.993 340.776 109.136L337.777 112.135C337.705 112.206 337.612 112.242 337.518 112.242Z" fill="#FF002E"/>
<path d="M350.105 111.263C354.97 111.263 358.914 107.319 358.914 102.454C358.914 97.5895 354.97 93.6458 350.105 93.6458C345.241 93.6458 341.297 97.5895 341.297 102.454C341.297 107.319 345.241 111.263 350.105 111.263Z" fill="url(#paint1_linear)"/>
<path d="M355.043 95.1622C356 96.5715 356.56 98.2727 356.56 100.105C356.56 104.969 352.616 108.913 347.751 108.913C345.919 108.913 344.218 108.354 342.809 107.397C344.393 109.73 347.068 111.263 350.101 111.263C354.966 111.263 358.909 107.319 358.909 102.454C358.91 99.4214 357.377 96.7467 355.043 95.1622Z" fill="#FF002E"/>
<path d="M350.096 111.629C345.037 111.629 340.922 107.513 340.922 102.454C340.922 97.3955 345.037 93.28 350.096 93.28C355.155 93.28 359.271 97.3956 359.271 102.454C359.271 107.513 355.155 111.629 350.096 111.629ZM350.096 94.0114C345.441 94.0114 341.653 97.7989 341.653 102.454C341.653 107.11 345.441 110.897 350.096 110.897C354.752 110.897 358.539 107.11 358.539 102.454C358.539 97.7989 354.752 94.0114 350.096 94.0114Z" fill="#FFECCF"/>
<path d="M344.495 117.143L343.422 116.07C343.224 115.872 343.224 115.552 343.422 115.354L348.761 110.015C349.073 109.703 349.488 109.531 349.929 109.531C350.371 109.531 350.786 109.703 351.098 110.015L353.146 112.063L359.219 105.991L361.008 107.78L354.315 114.472C353.671 115.117 352.622 115.116 351.978 114.472L349.93 112.424L345.21 117.143C345.013 117.34 344.693 117.34 344.495 117.143Z" fill="#00B2FF"/>
<path d="M354.315 113.358C353.671 114.002 352.622 114.002 351.978 113.358L349.929 111.309L345.21 116.028C345.013 116.226 344.692 116.226 344.495 116.028L343.621 115.155L343.422 115.354C343.224 115.552 343.224 115.872 343.422 116.07L344.495 117.143C344.693 117.341 345.013 117.341 345.21 117.143L349.93 112.424L351.978 114.472C352.622 115.117 353.671 115.117 354.315 114.472L361.008 107.78L360.45 107.222L354.315 113.358Z" fill="#585EF9"/>
<path d="M361.23 112.084H359.712C359.432 112.084 359.206 111.857 359.206 111.578V108.271C359.206 107.991 358.979 107.765 358.7 107.765H355.393C355.113 107.765 354.887 107.538 354.887 107.259V105.741C354.887 105.462 355.113 105.235 355.393 105.235H361.23C361.509 105.235 361.736 105.462 361.736 105.741V111.578C361.736 111.857 361.509 112.084 361.23 112.084Z" fill="#00B2FF"/>
<path d="M361.231 105.235H361.031V110.872C361.031 111.152 360.804 111.378 360.525 111.378H359.207V111.578C359.207 111.857 359.434 112.084 359.713 112.084H361.231C361.51 112.084 361.737 111.857 361.737 111.578V105.741C361.737 105.462 361.51 105.235 361.231 105.235Z" fill="#585EF9"/>
<path fill-rule="evenodd" clip-rule="evenodd" d="M348.749 99.1113H349.092V100.141H348.749V99.1113ZM350.2 100.283C350.896 100.283 351.446 100.432 351.85 100.728C352.254 101.025 352.455 101.442 352.455 101.98C352.455 102.18 352.417 102.359 352.341 102.518C352.271 102.677 352.177 102.814 352.059 102.932C351.947 103.042 351.819 103.135 351.672 103.211C351.533 103.287 351.391 103.342 351.244 103.377C351.439 103.411 351.62 103.47 351.787 103.552C351.961 103.628 352.111 103.732 352.236 103.863C352.368 103.994 352.469 104.152 352.539 104.339C352.616 104.518 352.654 104.725 352.654 104.959C352.654 105.228 352.595 105.477 352.476 105.704C352.358 105.925 352.187 106.118 351.965 106.283C351.749 106.449 351.485 106.577 351.171 106.666C350.865 106.756 350.524 106.801 350.148 106.801H350.125V107.687H349.781V106.801H349.092V107.687H348.749V106.801H347.852V100.283H350.2ZM349.282 102.89H349.96C350.274 102.89 350.521 102.825 350.702 102.694C350.889 102.556 350.983 102.352 350.983 102.083C350.983 101.842 350.896 101.663 350.722 101.545C350.555 101.421 350.312 101.359 349.992 101.359H349.282V102.89ZM349.282 105.725H349.96C350.315 105.725 350.608 105.659 350.837 105.528C351.067 105.39 351.182 105.156 351.182 104.825C351.182 104.514 351.06 104.294 350.816 104.163C350.573 104.025 350.274 103.956 349.919 103.956H349.282V105.725ZM349.781 99.1113H350.125V100.141H349.781V99.1113Z" fill="white"/>
<path d="M360.891 90.5337C360.891 90.5337 360.891 86.9634 364.461 86.9634C364.461 86.9634 360.891 86.9634 360.891 83.393C360.891 83.393 360.891 86.9634 357.32 86.9634C357.32 86.9634 360.891 86.9634 360.891 90.5337Z" fill="url(#paint2_linear)"/>
<path d="M336.93 91.6323C336.93 91.6323 336.93 89.3665 339.196 89.3665C339.196 89.3665 336.93 89.3665 336.93 87.1007C336.93 87.1007 336.93 89.3665 334.664 89.3665C334.664 89.3665 336.93 89.3665 336.93 91.6323Z" fill="url(#paint3_linear)"/>
<defs>
<linearGradient id="paint0_linear" x1="336.723" y1="92.2182" x2="363.5" y2="92.2182" gradientUnits="userSpaceOnUse">
<stop stop-color="#FF002E"/>
<stop offset="1" stop-color="#FF7A00"/>
</linearGradient>
<linearGradient id="paint1_linear" x1="341.297" y1="102.578" x2="358.914" y2="102.578" gradientUnits="userSpaceOnUse">
<stop stop-color="#FF002E"/>
<stop offset="1" stop-color="#FF7A00"/>
</linearGradient>
<linearGradient id="paint2_linear" x1="357.32" y1="86.9131" x2="364.461" y2="86.9131" gradientUnits="userSpaceOnUse">
<stop stop-color="#FF002E"/>
<stop offset="1" stop-color="#FF7A00"/>
</linearGradient>
<linearGradient id="paint3_linear" x1="334.664" y1="89.3346" x2="339.196" y2="89.3346" gradientUnits="userSpaceOnUse">
<stop stop-color="#FF002E"/>
<stop offset="1" stop-color="#FF7A00"/>
</linearGradient>
</defs>
</svg>
