<svg width="642" height="530" viewBox="0 0 642 530" fill="none" xmlns="http://www.w3.org/2000/svg">
<g clip-path="url(#clip0)">
<path d="M571.888 506.05C539.928 481.677 485.161 421.379 557.246 326.706C646.365 209.492 539.647 161.451 437.434 166.523C355.213 170.609 262.573 67.0599 170.215 85.5155C47.4469 109.888 127.134 215.55 43.9272 272.467C-26.8899 321.071 3.52059 468.998 95.7377 506.05H571.888Z" fill="#DCEDF9"/>
<path d="M629.612 291.204C629.049 273.875 612.999 267.113 602.158 279.652C595.963 286.837 590.05 297.262 588.924 311.068C586.39 342.063 613.562 333.046 623.699 316.422C628.063 309.378 629.894 299.939 629.612 291.204Z" fill="#DCEDF9"/>
<path d="M331.701 79.3167C314.665 76.0764 304.669 90.4464 314.525 103.689C320.297 111.297 329.026 119.327 342.401 123.272C372.107 132.288 369.151 103.971 355.072 90.4464C349.018 84.6702 340.289 80.8664 331.701 79.3167Z" fill="#DCEDF9"/>
<path d="M49.5588 238.373C56.3167 222.453 44.4903 209.492 29.4259 216.395C20.8377 220.34 11.1232 227.243 4.22455 239.359C-10.9807 266.409 17.318 269.649 33.5088 258.801C40.5482 254.293 46.1798 246.544 49.5588 238.373Z" fill="#DCEDF9"/>
<path d="M321.564 530C483.141 530 614.125 521.358 614.125 510.699C614.125 500.039 483.141 491.398 321.564 491.398C159.988 491.398 29.0039 500.039 29.0039 510.699C29.0039 521.358 159.988 530 321.564 530Z" fill="#DCEDF9"/>
<path d="M606.099 352.629C588.219 370.521 608.211 372.071 594.977 385.595C583.009 397.993 565.27 385.877 566.537 416.026C566.819 422.647 562.032 427.437 555.274 429.973C544.152 434.059 533.452 430.255 526.694 422.647C526.13 422.084 525.567 421.379 525.145 420.675C520.077 413.772 518.246 404.473 522.048 395.175C525.145 387.708 530.495 380.242 540.069 377.283C562.454 370.38 550.065 340.654 568.93 339.386C591.738 337.836 592.583 329.383 608.774 318.113C625.95 306.278 630.455 328.397 606.099 352.629Z" fill="#0077EB"/>
<path d="M598.073 342.908C597.51 343.471 555.977 386.3 526.693 422.788C526.13 422.225 525.567 421.52 525.145 420.816C554.57 384.186 595.821 341.64 596.243 341.076C596.666 340.654 597.51 340.654 597.933 341.076C598.637 341.64 598.637 342.344 598.073 342.908Z" fill="#0059D3"/>
<path d="M610.745 412.504C582.728 428.987 607.084 437.299 586.388 449.979C567.522 461.531 549.361 440.821 541.195 478.719C539.365 487.031 531.903 491.539 522.751 492.525C507.687 494.075 495.438 485.904 489.525 474.351C489.103 473.365 488.68 472.52 488.258 471.534C484.175 461.249 484.879 448.992 492.622 438.708C498.817 430.255 507.968 422.788 520.78 422.225C550.909 420.816 544.996 379.819 568.93 384.327C597.792 389.681 601.593 379.537 625.387 370.662C650.307 361.082 648.758 390.103 610.745 412.504Z" fill="#008EFF"/>
<path d="M603.846 397.711C603.001 398.134 537.534 438.144 489.384 474.21C488.962 473.224 488.54 472.379 488.117 471.393C536.408 435.327 601.593 395.598 602.297 395.175C603.001 394.753 603.987 395.034 604.409 395.739C604.832 396.443 604.691 397.288 603.846 397.711Z" fill="#0077EB"/>
<path d="M63.4955 147.926C73.0692 171.313 54.0626 165.114 60.9613 182.584C67.2968 198.644 88.1337 194.277 75.4626 221.608C72.6468 227.525 75.1811 234.006 80.5311 238.796C89.1192 246.826 100.664 247.53 109.674 243.163C110.378 242.74 111.082 242.459 111.786 242.036C119.107 237.669 124.457 229.638 124.598 219.636C124.739 211.464 122.627 202.589 114.884 196.249C96.8626 181.175 119.811 158.634 102.776 150.181C82.3613 139.896 84.7547 131.866 74.1955 115.242C63.0732 97.6314 50.5429 116.228 63.4955 147.926Z" fill="#0077EB"/>
<path d="M74.7583 142.009C75.0399 142.714 96.8622 198.221 109.815 243.304C110.519 242.881 111.223 242.599 111.927 242.177C98.8333 197.094 77.2925 141.868 77.0109 141.164C76.7293 140.601 76.0254 140.178 75.4622 140.46C74.7583 140.741 74.4767 141.446 74.7583 142.009Z" fill="#0059D3"/>
<path d="M36.183 209.21C56.4567 234.71 30.6922 233.724 45.6159 252.884C59.1317 270.353 83.4883 257.533 77.5751 295.853C76.308 304.165 81.658 311.209 89.9646 315.295C103.48 322.198 117.841 318.817 127.555 310.082C128.4 309.378 129.104 308.673 129.808 307.828C137.27 299.798 140.93 288.105 137.551 275.707C134.736 265.704 128.963 255.42 117.137 250.207C89.5422 238.091 109.675 202.025 85.7409 197.658C56.7383 192.304 57.0199 181.597 37.8725 164.832C17.458 147.081 8.58828 174.694 36.183 209.21Z" fill="#008EFF"/>
<path d="M47.8691 197.799C48.4323 198.503 95.3152 259.224 127.556 310.223C128.401 309.519 129.105 308.814 129.809 307.969C97.5678 256.97 50.9665 196.672 50.4034 195.967C49.8402 195.263 48.8547 195.122 48.2915 195.686C47.4468 196.249 47.306 197.235 47.8691 197.799Z" fill="#0077EB"/>
<path d="M173.031 187.092C181.196 181.456 201.752 195.263 212.452 212.169L203.019 185.542C199.64 182.584 193.586 178.357 184.153 174.976C169.511 169.763 154.869 161.592 163.035 156.098C170.778 150.885 189.221 162.719 200.344 178.075L188.095 143.841C185.842 142.15 182.323 140.037 177.395 138.206C168.103 134.965 158.952 129.753 164.161 126.231C168.666 123.131 178.944 129.33 185.983 137.924L182.041 126.794C180.211 123.554 177.677 118.905 173.594 114.819C164.161 105.098 157.121 94.1093 164.302 92.5596C171.623 91.0099 183.449 110.029 185.279 127.217L187.25 132.852C185.702 120.313 190.207 105.098 196.402 104.676C202.596 104.112 198.795 113.974 193.727 122.286C189.925 128.626 188.799 133.697 188.517 136.374L198.091 163.283C195.698 143.418 202.737 119.468 212.733 118.623C222.589 117.778 216.394 133.416 208.369 146.659C202.315 156.661 200.625 164.691 200.062 168.918L211.607 201.18C209.495 181.597 216.535 157.788 226.39 157.647C233.992 157.647 231.599 168.214 222.589 183.288C216.535 193.572 214.563 202.73 213.86 207.52L219.35 222.735C218.506 223.439 217.52 223.721 216.535 223.721L214.423 217.663C211.325 214.705 204.99 209.633 194.149 205.829C179.507 200.757 164.865 192.586 173.031 187.092Z" fill="#008EFF"/>
<path d="M101.087 412.786C92.6398 417.998 97.2858 442.371 108.408 458.854L87.7122 439.553C86.3043 435.186 84.8964 428.001 85.6003 417.998C86.7266 402.501 85.0372 385.736 76.5898 391.09C68.7056 396.021 72.2253 417.716 81.9398 434.059L55.4714 409.264C54.7674 406.446 54.2043 402.501 54.4858 397.288C55.1898 387.568 54.0635 377.001 48.8543 380.383C44.2082 383.341 45.7569 395.175 50.9661 405.178L42.3779 397.148C40.1253 394.189 36.8871 389.963 34.7753 384.609C29.5661 372.071 22.3858 361.223 18.0214 367.281C13.6569 373.338 26.4687 391.794 41.5332 400.388L45.8977 404.474C35.0569 397.993 19.2885 396.161 16.3319 401.656C13.3753 407.15 23.9345 407.432 33.649 406.164C40.97 405.178 46.0385 406.164 48.5727 407.009L69.4095 426.592C52.2332 416.448 27.4543 413.49 22.6674 422.225C18.0214 430.959 34.7753 431.523 50.1214 429.41C61.8069 427.86 69.6911 429.41 73.774 430.678L98.8345 454.064C81.6582 444.343 57.02 441.385 53.0779 450.26C49.9806 457.164 60.6806 459.277 78.1385 457.023C89.9648 455.473 99.1161 457.304 103.762 458.713L115.588 469.702C116.574 469.139 117.278 468.434 117.56 467.589L112.913 463.221C111.365 459.277 109.394 451.387 110.098 439.835C111.083 424.197 109.535 407.432 101.087 412.786Z" fill="#008EFF"/>
<path d="M524.582 194.981H76.7305V504.5H524.582V194.981Z" fill="#FFAA01"/>
<path d="M524.582 194.981V214.846L300.727 413.49L76.7305 214.846V194.981L300.586 394.33L524.582 194.981Z" fill="#F88800"/>
<path d="M257.504 355.165L89.6831 504.5H76.7305V496.611L247.93 344.317L257.504 355.165Z" fill="#F88800"/>
<path d="M524.582 497.738V504.5H510.362L342.682 355.165L352.255 344.317L524.582 497.738Z" fill="#F88800"/>
<path d="M76.7305 194.981L300.586 394.33L524.582 194.981H76.7305Z" fill="#FDCC50"/>
<path d="M400.97 167.086L406.742 179.343L394.634 179.484L389.988 168.354L400.97 167.086Z" fill="#F9AF8B"/>
<path d="M402.941 178.639C402.941 178.639 405.475 175.258 407.446 175.399C409.417 175.539 424.623 187.655 429.832 188.641C435.041 189.628 434.619 194.981 432.366 194.981C426.031 194.981 391.396 194.981 391.396 194.981C391.396 194.981 390.411 182.584 391.678 178.921C392.945 175.258 398.858 179.484 402.941 178.639Z" fill="#008EFF"/>
<path d="M411.388 187.092C411.247 187.092 410.966 187.092 410.825 187.092C410.543 186.951 410.403 186.387 410.544 186.106C410.544 185.965 412.233 183.288 414.345 182.161C417.161 180.752 419.413 182.302 419.554 182.443C419.836 182.724 419.976 183.147 419.695 183.429C419.413 183.711 418.991 183.852 418.709 183.57C418.709 183.57 417.161 182.443 415.049 183.429C413.359 184.274 411.811 186.81 411.811 186.81C411.67 186.81 411.529 186.951 411.388 187.092Z" fill="white"/>
<path d="M409.136 184.979C408.996 184.979 408.714 184.979 408.573 184.979C408.292 184.838 408.151 184.274 408.292 183.992C408.292 183.852 409.981 181.175 412.093 180.048C414.909 178.639 417.161 180.189 417.302 180.329C417.584 180.611 417.725 181.034 417.443 181.316C417.161 181.597 416.739 181.738 416.457 181.456C416.457 181.456 414.909 180.329 412.797 181.316C411.107 182.161 409.559 184.697 409.559 184.697C409.559 184.838 409.277 184.979 409.136 184.979Z" fill="white"/>
<path d="M414.345 188.641C414.204 188.641 413.923 188.641 413.782 188.641C413.501 188.501 413.36 187.937 413.501 187.655C413.501 187.514 415.19 184.838 417.302 183.711C420.118 182.302 422.37 183.851 422.511 183.992C422.793 184.274 422.933 184.697 422.652 184.979C422.37 185.26 421.948 185.401 421.666 185.119C421.666 185.119 420.118 183.992 418.006 184.979C416.316 185.824 414.768 188.36 414.768 188.36C414.627 188.501 414.486 188.641 414.345 188.641Z" fill="white"/>
<path d="M404.489 171.172L399.139 172.863L396.183 173.004L391.114 173.285C384.357 167.932 366.195 151.871 362.534 142.291C362.534 142.291 339.022 196.813 306.641 196.813C304.529 196.813 310.161 169.622 315.37 163.987C315.37 163.987 345.217 108.198 364.646 114.115C373.234 117.073 382.104 129.612 404.489 171.172Z" fill="#2E3052"/>
<path d="M399.139 172.863L396.182 173.004C376.331 157.929 367.039 145.109 362.815 136.938C362.674 136.656 362.393 136.515 362.252 136.515C362.111 136.515 361.97 136.656 361.97 136.797C352.397 159.197 340.993 172.722 333.109 180.048C324.52 188.078 318.185 190.755 317.903 190.755L317.481 189.909L317.059 189.064C317.059 189.064 323.394 186.387 331.701 178.639C339.444 171.454 350.707 158.211 359.999 136.092C360.422 135.247 361.126 134.683 361.97 134.683C362.956 134.683 363.801 135.247 364.223 136.092C368.728 144.404 378.302 157.366 399.139 172.863Z" fill="#001030"/>
<path d="M385.623 169.622C386.468 171.172 387.876 173.426 389.284 174.553C389.284 174.553 400.688 173.99 406.319 171.172L403.785 165.396C403.926 165.396 394.774 168.777 385.623 169.622Z" fill="#524E84"/>
<path d="M400.689 91.4326C384.358 98.054 371.405 101.435 360.283 102.844C360.142 102.844 357.467 103.126 356.481 102.985C353.525 102.844 349.442 102.14 345.359 100.308C342.403 98.8993 338.32 95.3773 333.955 91.2917C328.605 86.079 322.833 79.8802 318.891 75.372C315.793 71.8499 313.822 69.4549 313.822 69.4549C316.497 65.3693 322.551 61.7064 327.76 59.734C327.76 59.734 338.742 77.9078 355.214 86.9243C356.059 87.347 357.045 87.9105 358.03 88.3332C361.831 87.7696 371.968 87.2061 376.474 86.9243C388.441 86.079 398.296 83.9658 398.296 83.9658L400.689 91.4326Z" fill="#0077EB"/>
<path d="M397.875 83.2614C397.875 83.2614 400.128 77.4852 403.225 75.9355C406.322 74.2449 415.051 68.6096 417.022 70.3002C418.853 71.9908 418.571 80.3028 410.687 87.2061C405.618 91.5734 400.691 91.4326 400.691 91.4326L397.875 83.2614Z" fill="#F9AF8B"/>
<path d="M417.444 75.5128L404.491 87.6287C404.069 88.0514 403.083 88.1923 402.52 87.9105L394.636 84.1067C394.354 83.9658 394.213 83.8249 394.213 83.684L393.791 82.4161L395.903 81.5708L416.317 73.8223L417.444 73.3996L417.866 74.8084V74.9493C417.866 75.0902 417.725 75.372 417.444 75.5128Z" fill="#001030"/>
<path d="M416.178 73.6814L395.764 81.4299L407.308 70.5819C407.731 70.1593 408.716 70.0184 409.279 70.3002L416.178 73.6814Z" fill="#1F2232"/>
<path d="M402.098 86.6426L394.214 82.8387C393.651 82.557 393.51 81.9934 394.073 81.4299L407.026 69.314C407.448 68.8914 408.434 68.7505 408.997 69.0322L416.881 72.8361C417.444 73.1178 417.585 73.6814 417.022 74.2449L404.069 86.3608C403.647 86.7834 402.802 86.9243 402.098 86.6426Z" fill="#2E3052"/>
<path d="M403.085 84.3884L396.89 81.4299C396.327 81.1481 396.186 80.5846 396.749 80.0211L406.886 70.5819C407.308 70.1593 408.294 70.0184 408.857 70.3002L415.052 73.2587C415.615 73.5405 415.756 74.104 415.193 74.6675L405.056 84.1067C404.633 84.5293 403.648 84.6702 403.085 84.3884Z" fill="#2E3052"/>
<path d="M402.943 73.1178C402.943 73.1178 404.773 73.3996 404.914 74.9493C405.055 76.499 403.365 75.9355 402.239 75.5128C401.113 75.2311 400.127 75.5128 399.986 75.6537C399.564 76.2173 399.705 72.5543 402.943 73.1178Z" fill="#F9AF8B"/>
<path d="M411.25 81.7117C411.25 81.7117 414.207 76.9217 416.318 74.3858C417.867 72.6952 418.571 75.2311 417.585 76.9217C416.459 78.6123 414.488 82.1343 411.25 81.7117Z" fill="#F9AF8B"/>
<path d="M276.231 167.509L269.754 126.09L269.332 123.695V121.863L270.74 63.2561L287.071 57.7616L287.916 57.4799L291.577 56.2119L294.533 55.2258L311.71 57.6208L314.525 58.0434L315.511 58.1843L327.76 59.8749C327.9 98.7585 324.099 107.211 331.279 138.769C335.081 150.603 321.706 192.868 276.231 167.509Z" fill="#000349"/>
<path d="M285.382 156.943C298.194 153.28 307.627 144.404 313.258 137.642C319.312 130.316 322.41 123.695 322.41 123.554C322.55 123.272 322.41 122.849 322.128 122.708C321.847 122.568 321.424 122.708 321.283 122.99C321.283 122.99 318.186 129.612 312.273 136.797C306.782 143.418 297.631 152.153 285.1 155.675C284.819 155.816 284.537 156.098 284.678 156.52C284.678 156.802 285.1 157.084 285.382 156.943Z" fill="#0077EB"/>
<path d="M300.024 157.647C311.146 154.548 320.579 145.109 321.001 144.686C321.283 144.404 321.283 143.982 321.001 143.841C320.72 143.559 320.297 143.559 320.157 143.841C320.016 143.982 309.034 155.111 297.067 157.084C296.645 157.084 296.504 157.506 296.504 157.788C296.504 158.07 296.926 158.352 297.208 158.352C298.053 158.07 299.038 157.929 300.024 157.647Z" fill="#0077EB"/>
<path d="M292.139 74.9493C303.261 71.8499 312.694 62.4108 313.116 61.9881C313.398 61.7064 313.398 61.2837 313.116 61.1428C312.835 60.8611 312.413 60.8611 312.272 61.1428C312.131 61.2837 301.149 72.4134 289.182 74.3858C288.76 74.3858 288.619 74.8084 288.619 75.0902C288.619 75.372 289.042 75.6537 289.323 75.6537C290.168 75.372 291.153 75.2311 292.139 74.9493Z" fill="#0077EB"/>
<path d="M390.129 274.721L394.634 284.723L385.342 288.668L379.992 278.384L390.129 274.721Z" fill="#F9AF8B"/>
<path d="M392.522 284.582C392.522 284.582 393.507 280.497 395.338 279.933C397.168 279.229 416.034 284.301 421.102 283.174C426.311 282.047 426.875 285.991 426.734 288.105C426.593 290.218 388.298 304.024 388.298 304.024C388.298 304.024 382.385 293.317 382.244 289.513C382.103 285.428 389.143 286.977 392.522 284.582Z" fill="#008EFF"/>
<path d="M403.644 288.95C403.503 289.091 403.362 289.091 403.081 289.091C402.659 289.091 402.377 288.668 402.377 288.245C402.377 288.105 402.799 285.005 404.348 283.033C406.319 280.638 408.994 281.201 409.135 281.201C409.557 281.342 409.839 281.624 409.698 282.047C409.557 282.469 409.276 282.751 408.853 282.61C408.712 282.61 406.882 282.187 405.474 284.019C404.207 285.569 403.926 288.386 403.926 288.386C403.926 288.668 403.785 288.809 403.644 288.95Z" fill="white"/>
<path d="M400.828 287.964C400.687 288.105 400.546 288.105 400.265 288.105C399.842 288.105 399.561 287.682 399.561 287.259C399.561 287.118 399.983 284.019 401.532 282.047C403.503 279.652 406.178 280.215 406.319 280.215C406.741 280.356 407.022 280.638 406.882 281.06C406.741 281.483 406.459 281.765 406.037 281.624C405.896 281.624 404.066 281.201 402.658 283.033C401.391 284.582 401.109 287.4 401.109 287.4C401.109 287.682 400.968 287.823 400.828 287.964Z" fill="white"/>
<path d="M407.023 289.232C406.882 289.372 406.741 289.372 406.46 289.372C406.037 289.372 405.756 288.95 405.756 288.527C405.756 288.386 406.178 285.287 407.727 283.315C409.698 280.92 412.373 281.483 412.514 281.483C412.936 281.624 413.218 281.906 413.077 282.328C412.936 282.751 412.654 283.033 412.232 282.892C412.091 282.892 410.261 282.469 408.853 284.301C407.586 285.85 407.305 288.668 407.305 288.668C407.305 288.95 407.164 289.232 407.023 289.232Z" fill="white"/>
<path d="M392.381 276.693C391.396 277.82 388.439 279.37 385.201 280.92C384.638 281.201 384.075 281.483 383.371 281.624C382.385 282.047 381.259 282.469 380.273 282.751C380.273 282.751 358.451 242.459 350.004 213.155C350.004 213.155 275.948 203.998 273.414 178.075C273.273 177.23 273.273 176.385 273.414 175.399C273.696 172.863 274.541 170.327 276.089 167.509C277.779 164.551 303.121 167.368 316.777 171.313C316.777 171.313 353.946 185.824 367.602 200.757C374.783 208.224 392.381 276.693 392.381 276.693Z" fill="#2E3052"/>
<path d="M385.342 280.92C384.779 281.201 384.215 281.483 383.511 281.624C372.389 263.309 357.043 220.481 353.664 210.197C353.382 209.492 352.819 208.929 352.115 208.788C316.073 202.025 295.377 192.586 284.396 185.824C279.468 182.865 276.089 180.189 273.555 177.934C273.414 177.089 273.414 176.244 273.555 175.258C275.948 177.512 279.75 180.752 285.522 184.274C296.503 190.896 316.918 200.194 352.397 206.815C353.805 207.097 354.931 208.083 355.353 209.492C358.873 219.917 374.36 262.887 385.342 280.92Z" fill="#001030"/>
<path d="M376.473 278.525L379.992 284.16C379.992 284.16 388.721 282.61 394.634 276.693L392.523 271.762C392.382 271.762 381.823 276.975 376.473 278.525Z" fill="#524E84"/>
<path d="M258.632 182.865C258.632 182.865 263.7 189.769 263.278 193.291C262.856 196.813 258.35 203.434 254.69 203.857C251.029 204.139 258.913 195.263 257.083 195.545C254.831 195.827 239.766 208.365 236.528 208.365C233.29 208.365 240.329 202.589 243.004 201.18C243.004 201.18 235.824 204.42 234.134 206.111C232.445 207.802 231.319 204.139 239.625 199.208C239.625 199.208 232.023 203.575 231.459 203.575C229.77 203.857 234.557 198.081 238.781 196.108C238.781 196.108 232.727 199.067 232.023 199.067C231.178 199.067 233.008 197.094 237.513 194.559C241.596 192.304 248.354 181.879 248.354 181.879L258.632 182.865Z" fill="#F9AF8B"/>
<path d="M270.88 63.1152C270.88 63.1152 253.985 95.659 250.043 129.753L248.213 181.597C248.213 181.597 249.902 185.26 258.631 182.865L266.938 131.161L273.273 107.493C273.414 107.493 276.371 78.3305 270.88 63.1152Z" fill="#0077EB"/>
<path d="M304.53 43.3916C314.871 43.3916 323.255 35.0026 323.255 24.6543C323.255 14.3059 314.871 5.91689 304.53 5.91689C294.188 5.91689 285.805 14.3059 285.805 24.6543C285.805 35.0026 294.188 43.3916 304.53 43.3916Z" fill="#2E3052"/>
<path d="M323.254 24.5134C323.254 24.5134 328.745 23.9498 328.886 18.7372C329.026 14.3698 323.536 16.2013 324.521 12.961C325.507 9.72071 327.055 6.76218 322.832 5.21247C319.171 3.80365 318.608 6.33953 314.244 1.69041C309.175 -3.80401 302.699 5.776 297.349 5.07159C289.465 4.08541 287.775 8.45277 286.367 11.8339C284.959 15.2151 287.494 18.1737 287.494 18.1737L323.254 24.5134Z" fill="#2E3052"/>
<path d="M319.031 32.5437C319.031 32.5437 322.691 29.1625 324.24 32.8254C325.788 36.4884 321.142 45.364 316.215 42.1237L319.031 32.5437Z" fill="#FC8664"/>
<path d="M317.764 39.306C317.905 39.306 318.187 39.306 318.187 39.0243C319.594 36.2066 322.833 35.6431 322.833 35.5022C323.114 35.5022 323.255 35.2204 323.255 34.9387C323.255 34.6569 322.973 34.516 322.692 34.516C322.551 34.516 318.89 35.2204 317.342 38.4607C317.342 38.8834 317.483 39.1652 317.764 39.306Z" fill="#FD664D"/>
<path d="M321.143 38.4607C321.284 38.4607 321.284 38.4607 321.425 38.4607C321.706 38.3199 321.706 38.0381 321.706 37.8972C321.706 37.8972 321.284 36.911 320.298 36.2066C320.158 36.0657 319.876 36.0657 319.594 36.3475C319.454 36.4884 319.454 36.7701 319.735 37.0519C320.58 37.6154 320.862 38.3199 320.862 38.3199C320.862 38.3199 321.002 38.4607 321.143 38.4607Z" fill="#FD664D"/>
<path d="M294.674 46.6319L292.984 56.0711C292.984 56.0711 296.082 61.0019 299.883 61.9881C303.684 62.9743 306.782 58.8887 306.782 58.8887L308.33 49.7313L294.674 46.6319Z" fill="#F9AF8B"/>
<path d="M294.675 46.6319L293.971 50.8584C296.083 54.0987 300.447 55.6484 307.346 55.9302L308.472 49.8722L294.675 46.6319Z" fill="#FC8664"/>
<path d="M288.902 20.5687C288.48 24.2316 287.916 28.8807 288.057 32.6846C288.057 33.6707 288.057 34.516 288.198 35.3613C288.902 42.6872 291.859 55.5075 306.641 52.9716C313.259 51.8446 317.201 45.5049 319.735 38.7425C321.424 34.0934 322.41 29.4443 322.973 25.9222C323.536 22.4001 322.128 18.8781 319.453 16.624C311.991 10.566 302.981 10.7069 296.927 11.8339C292.703 12.8201 289.465 16.2013 288.902 20.5687Z" fill="#F9AF8B"/>
<path d="M313.177 30.982C312.564 30.8736 311.925 31.5932 311.749 32.5892C311.573 33.5853 311.927 34.4806 312.539 34.5889C313.152 34.6973 313.791 33.9777 313.967 32.9817C314.143 31.9857 313.789 31.0904 313.177 30.982Z" fill="#2E3052"/>
<path d="M299.589 28.5675C298.976 28.4592 298.337 29.1787 298.161 30.1748C297.985 31.1708 298.339 32.0661 298.951 32.1744C299.564 32.2828 300.203 31.5632 300.379 30.5672C300.555 29.5712 300.201 28.6759 299.589 28.5675Z" fill="#2E3052"/>
<path d="M317.623 27.7537C317.623 27.7537 313.118 24.936 309.176 25.9222V27.7537C309.176 27.7537 313.399 27.6128 317.06 29.726C317.482 29.0216 317.905 28.7399 317.623 27.7537Z" fill="#2E3052"/>
<path d="M295.518 23.809C295.518 23.809 300.727 22.6819 304.106 25.0769L303.543 26.7675C303.543 26.7675 299.601 25.2178 295.518 25.9222C295.377 25.0769 295.096 24.6543 295.518 23.809Z" fill="#2E3052"/>
<path d="M303.966 38.6016C303.262 38.4607 302.558 38.0381 302.417 38.0381C302.135 37.8972 302.135 37.6154 302.276 37.4746C302.417 37.1928 302.698 37.1928 302.839 37.3337C303.262 37.6154 304.106 38.0381 304.669 37.7563C304.81 37.7563 304.951 37.6154 304.951 37.3337C305.373 35.784 305.937 30.4304 305.937 30.4304C305.937 30.1487 306.218 30.0078 306.5 30.0078C306.781 30.0078 306.922 30.2896 306.922 30.5713C306.922 30.8531 306.359 36.0657 305.937 37.6154C305.796 38.179 305.373 38.4607 305.092 38.6016C304.67 38.6016 304.388 38.6016 303.966 38.6016Z" fill="#FC8664"/>
<path d="M309.175 42.4055C308.471 44.2369 306.641 47.3363 302.558 46.6319C298.475 45.9275 297.771 42.5463 297.771 40.4331L309.175 42.4055Z" fill="white"/>
<path d="M302.276 49.0269C301.15 48.886 300.164 48.0407 300.164 48.0407C300.023 47.8999 300.023 47.6181 300.164 47.3363C300.305 47.1955 300.587 47.1955 300.868 47.3363C300.868 47.3363 301.572 47.8999 302.558 48.1816C303.402 48.3225 304.247 48.0407 304.247 48.0407C304.529 47.8999 304.81 48.0407 304.81 48.3225C304.951 48.6043 304.81 48.886 304.529 48.886C304.388 48.7452 303.262 49.1678 302.276 49.0269Z" fill="#FC8664"/>
<path d="M318.89 35.6431C319.593 33.8116 320.297 31.5575 320.297 30.2896C320.297 28.0354 318.608 26.4857 319.593 24.5134C320.579 22.541 318.749 19.8643 317.2 19.1598C315.651 18.4554 311.709 18.5963 308.19 16.2013C304.951 13.8063 298.475 13.9472 297.067 16.0604C295.378 18.5963 296.926 19.1598 293.125 21.5548C291.576 22.541 292.562 25.9222 292.421 28.0354C292.421 29.0216 292.28 29.4443 292.14 30.4304L291.999 30.994L288.057 30.2896C288.197 27.0493 288.479 23.5272 288.901 20.7095C289.465 16.4831 292.703 12.961 296.926 12.1157C302.98 10.9887 311.991 10.7069 319.453 16.9057C322.128 19.1598 323.536 22.6819 322.972 26.204C322.55 28.8807 321.846 32.5437 320.72 36.2066L318.89 35.6431Z" fill="#2E3052"/>
<path d="M289.606 32.2619C289.746 31.2757 289.887 30.1487 289.887 29.0216C289.887 27.6128 289.746 26.204 288.338 25.3587C287.212 24.6543 286.086 24.5134 284.959 25.6404C282.284 28.4581 282.848 38.8834 288.62 37.6154L289.606 32.2619Z" fill="#F9AF8B"/>
<path d="M288.056 34.516C287.915 34.3751 287.774 34.2343 287.774 34.0934C288.056 30.994 285.662 28.7398 285.662 28.7398C285.521 28.599 285.521 28.3172 285.662 28.0354C285.803 27.8946 286.085 27.8946 286.366 28.0354C286.507 28.1763 289.182 30.5713 288.76 34.2343C288.619 34.3751 288.478 34.516 288.056 34.516Z" fill="#FC8664"/>
<path d="M285.663 31.9801C285.522 31.9801 285.522 31.8393 285.522 31.8393C285.381 31.6984 285.381 31.4166 285.663 31.1349C285.663 31.1349 286.508 30.5713 287.775 30.4304C288.056 30.4304 288.197 30.5713 288.197 30.8531C288.197 31.1349 288.056 31.2757 287.775 31.2757C286.789 31.2757 286.226 31.6984 286.226 31.6984C285.945 31.9801 285.804 31.9801 285.663 31.9801Z" fill="#FC8664"/>
<path d="M501.071 248.798C501.071 248.798 494.876 260.492 487.696 269.79C485.584 272.467 483.331 275.002 481.079 276.975C477.559 280.074 474.039 281.765 471.223 280.356C460.664 275.143 437.293 233.724 437.293 233.724L443.065 226.962C443.065 226.962 453.484 238.796 461.086 245.84C468.126 252.32 473.476 257.251 473.476 257.251C474.461 255.842 475.447 254.152 476.573 252.461C477.7 250.63 478.967 248.798 480.093 246.826C488.822 232.738 499.522 217.241 499.522 217.241L501.071 248.798Z" fill="#F9AF8B"/>
<path d="M444.472 231.188C444.472 231.188 446.866 227.243 445.88 223.721C444.895 220.199 444.05 212.31 440.249 212.451C438.841 212.592 440.953 215.832 439.967 218.931C439.967 218.931 435.884 216.959 433.069 214.987C430.675 213.155 425.607 210.337 423.354 208.929C422.65 208.506 421.946 209.21 422.369 209.915C422.932 210.901 424.48 212.451 427.718 214.564C427.718 214.564 419.412 209.915 418.004 210.901C416.596 211.887 427.155 217.663 427.155 217.663C427.155 217.663 418.567 214.282 417.863 215.409C417.441 216.114 425.747 221.044 425.747 221.044C425.747 221.044 417.441 218.509 418.99 220.481C419.412 221.044 435.18 228.229 438.559 236.542C438.841 236.542 443.346 234.006 444.472 231.188Z" fill="#F9AF8B"/>
<path d="M487.695 269.79C485.583 272.467 483.33 275.002 481.078 276.975L476.572 252.602C477.699 250.771 478.966 248.939 480.092 246.967L487.695 269.79Z" fill="#FC8664"/>
<path d="M499.803 216.254L477.559 248.376L484.598 276.975L502.056 249.08C502.197 249.08 505.435 230.484 499.803 216.254Z" fill="#00B2FF"/>
<path d="M511.348 490.834V500.978L520.78 500.837L521.344 490.13L511.348 490.834Z" fill="#F9AF8B"/>
<path d="M535.282 342.767C535.282 344.035 534.86 349.811 534.437 357.841C533.17 379.96 530.636 419.266 529.087 428.142C527.539 437.158 528.243 466.884 528.806 482.522C528.947 485.199 527.82 487.594 526.131 489.285C525.427 489.989 524.723 490.553 523.878 490.975C522.47 491.821 520.781 492.243 519.091 492.243H511.911C506.42 492.243 502.056 487.876 502.337 482.522C502.76 469.42 503.182 445.329 502.337 426.733C501.493 409.123 502.76 377.847 503.745 358.405C504.168 350.656 504.449 344.739 504.59 342.344L535.282 342.767Z" fill="#2E3052"/>
<path d="M504.589 342.485L535.281 342.908C535.281 344.176 534.859 349.952 534.436 357.982C524.018 359.25 513.177 359.814 503.744 358.546C504.167 350.656 504.448 344.88 504.589 342.485Z" fill="#001030"/>
<path d="M525.989 454.769C526.271 464.771 526.552 475.056 526.412 483.368C526.412 485.763 526.271 487.735 526.13 489.426C525.426 490.13 524.722 490.694 523.877 491.116C524.018 489.144 524.159 486.608 524.3 483.368C524.441 475.056 524.159 464.912 523.877 454.909C523.596 442.794 523.173 431.241 523.877 426.451C525.285 415.744 528.664 357.841 529.509 342.344L531.621 342.485C530.776 357.982 527.397 415.885 525.989 426.733C525.285 431.382 525.708 442.794 525.989 454.769Z" fill="#001030"/>
<path d="M513.741 500.555C513.741 500.555 511.77 497.879 510.221 497.879C508.672 498.019 496.001 507.318 491.778 508.022C487.554 508.727 488.258 511.826 488.962 513.376C489.666 514.925 522.751 513.517 522.751 513.517C522.751 513.517 523.878 503.937 522.892 500.978C521.766 498.019 516.979 501.401 513.741 500.555Z" fill="#008EFF"/>
<path d="M506.7 507.177C506.841 507.177 506.981 507.177 507.122 507.177C507.404 507.036 507.545 506.613 507.404 506.332C507.404 506.191 506.137 504.077 504.447 503.091C502.195 501.964 500.364 503.091 500.223 503.232C499.942 503.373 499.942 503.796 500.083 504.077C500.224 504.359 500.646 504.359 500.927 504.218C500.927 504.218 502.195 503.373 503.884 504.218C505.292 504.923 506.418 506.895 506.418 506.895C506.418 507.036 506.559 507.177 506.7 507.177Z" fill="white"/>
<path d="M508.532 505.486C508.673 505.486 508.813 505.486 508.954 505.486C509.236 505.345 509.377 504.923 509.236 504.641C509.236 504.5 507.969 502.387 506.279 501.401C504.027 500.274 502.196 501.401 502.056 501.542C501.774 501.682 501.774 502.105 501.915 502.387C502.056 502.669 502.478 502.669 502.759 502.528C502.759 502.528 504.027 501.682 505.716 502.528C507.124 503.232 508.25 505.204 508.25 505.204C508.25 505.345 508.391 505.486 508.532 505.486Z" fill="white"/>
<path d="M504.307 508.445C504.448 508.445 504.589 508.445 504.73 508.445C505.011 508.304 505.152 507.881 505.011 507.599C505.011 507.459 503.744 505.345 502.055 504.359C499.802 503.232 497.972 504.359 497.831 504.5C497.549 504.641 497.549 505.064 497.69 505.345C497.831 505.627 498.253 505.627 498.535 505.486C498.535 505.486 499.802 504.641 501.491 505.486C502.899 506.191 504.026 508.163 504.026 508.163C504.026 508.304 504.166 508.445 504.307 508.445Z" fill="white"/>
<path d="M557.244 490.834L558.37 500.978L566.818 500.837L567.381 490.13L557.244 490.834Z" fill="#F9AF8B"/>
<path d="M574.702 426.874C573.717 445.47 574.28 469.42 574.702 482.663C574.843 488.017 570.478 492.384 565.128 492.384H557.948C556.4 492.384 554.851 491.961 553.584 491.398C552.739 490.975 552.035 490.412 551.472 489.848C549.501 488.017 548.375 485.481 548.515 482.663C548.938 467.166 549.642 437.299 548.234 428.283C546.685 419.266 544.151 378.692 542.884 356.855C542.461 349.529 542.18 344.317 542.039 343.049L572.731 343.471C572.872 345.021 573.013 347.416 573.154 350.516C573.717 367.844 575.688 406.446 574.702 426.874Z" fill="#2E3052"/>
<path d="M572.732 350.375C566.959 351.924 555.414 354.742 542.462 356.855C542.04 349.529 541.758 344.317 541.617 343.049L572.309 343.471C572.45 344.88 572.591 347.275 572.732 350.375Z" fill="#001030"/>
<path d="M553.02 483.368C553.161 486.749 553.302 489.285 553.443 491.257C552.598 490.834 551.894 490.271 551.19 489.707C551.049 487.876 550.908 485.763 550.908 483.368C550.768 475.056 551.049 464.771 551.331 454.769C551.612 442.653 551.894 431.382 551.331 426.592C549.782 415.885 546.544 357.841 545.699 342.344L547.811 342.203C548.656 357.701 551.894 415.603 553.443 426.31C554.147 431.241 553.865 442.653 553.443 454.769C553.02 464.771 552.739 475.056 553.02 483.368Z" fill="#001030"/>
<path d="M561.609 499.428C561.609 499.428 565.973 498.301 567.1 498.301C568.226 498.301 576.251 507.036 578.926 507.599C583.854 508.586 583.854 515.912 580.897 516.334C572.309 517.461 557.667 513.798 557.667 513.798C557.667 513.798 556.259 504.218 556.963 501.26C557.526 498.301 559.215 500.274 561.609 499.428Z" fill="#008EFF"/>
<path d="M568.648 507.599C568.507 507.599 568.366 507.599 568.225 507.459C567.944 507.318 567.944 506.895 568.085 506.613C568.085 506.472 569.633 504.359 571.464 503.655C573.857 502.669 575.547 504.077 575.687 504.218C575.969 504.359 575.969 504.782 575.687 505.064C575.406 505.345 575.124 505.345 574.843 505.064C574.843 505.064 573.575 504.077 571.886 504.782C570.478 505.345 569.07 507.318 569.07 507.318C568.929 507.459 568.789 507.459 568.648 507.599Z" fill="white"/>
<path d="M567.099 505.768C566.958 505.768 566.817 505.768 566.677 505.627C566.395 505.486 566.395 505.064 566.536 504.782C566.536 504.641 568.085 502.528 569.915 501.823C572.308 500.837 573.998 502.246 574.139 502.387C574.42 502.528 574.42 502.95 574.139 503.232C573.857 503.514 573.575 503.514 573.294 503.232C573.294 503.232 572.027 502.246 570.337 502.95C568.929 503.514 567.521 505.486 567.521 505.486C567.381 505.627 567.24 505.768 567.099 505.768Z" fill="white"/>
<path d="M571.042 509.008C570.902 509.008 570.761 509.008 570.62 508.867C570.338 508.727 570.338 508.304 570.479 508.022C570.479 507.881 572.028 505.768 573.858 505.064C576.252 504.077 577.941 505.486 578.082 505.627C578.363 505.768 578.363 506.191 578.082 506.472C577.8 506.754 577.519 506.754 577.237 506.472C577.237 506.472 575.97 505.486 574.28 506.191C572.873 506.754 571.465 508.727 571.465 508.727C571.324 508.867 571.183 509.008 571.042 509.008Z" fill="white"/>
<path d="M579.348 346.007C551.612 352.911 523.877 352.911 496.282 346.007C496.141 335.864 496.001 295.29 496.845 262.041C496.845 261.337 496.845 260.773 496.845 260.069C496.845 259.787 496.845 259.365 496.845 259.083C496.845 258.66 496.845 258.237 496.845 257.815C497.409 235.837 498.535 217.945 500.224 215.55C504.307 210.056 525.144 201.039 530.916 197.094C531.339 197.799 534.155 202.025 537.956 202.307C542.039 202.589 545.699 197.94 545.699 197.94V197.094C551.472 201.039 570.337 209.351 574.42 214.846C578.785 220.904 579.489 328.679 579.348 346.007Z" fill="#000349"/>
<path d="M505.153 246.403C502.759 249.503 499.239 256.688 497.691 260.069C497.409 260.492 497.268 260.914 497.128 261.196C496.987 261.619 496.846 261.76 496.846 261.76C496.846 261.9 496.705 261.9 496.564 262.041C496.564 261.337 496.564 260.773 496.564 260.069C496.564 259.787 496.564 259.365 496.564 259.083C496.846 258.378 497.268 257.674 497.691 256.688C499.521 253.025 502.055 248.235 503.885 245.558C504.026 245.276 504.449 245.276 504.73 245.417C505.293 245.699 505.434 246.122 505.153 246.403Z" fill="#00B2FF"/>
<path d="M558.37 221.89C558.37 221.89 558.23 221.89 558.37 221.89C547.389 221.608 538.801 217.1 533.591 213.296C527.96 209.21 525.003 205.406 524.862 205.266C524.581 204.984 524.722 204.561 525.003 204.42C525.285 204.279 525.707 204.279 525.848 204.561C525.989 204.702 537.815 220.058 558.37 220.622C558.793 220.622 558.934 220.904 558.934 221.326C558.934 221.608 558.652 221.89 558.37 221.89Z" fill="#00B2FF"/>
<path d="M521.202 324.734C520.92 324.734 520.639 324.452 520.498 324.17C520.498 323.889 520.78 323.466 521.061 323.466C539.082 322.339 549.923 313.323 555.836 305.997C562.172 297.966 564.284 290.218 564.284 290.077C564.424 289.795 564.706 289.513 565.128 289.654C565.41 289.795 565.691 290.077 565.551 290.359C565.41 290.64 563.298 298.53 556.822 306.701C550.909 314.309 539.786 323.607 521.202 324.734Z" fill="#00B2FF"/>
<path d="M530.917 313.463C530.635 313.463 530.354 313.323 530.354 313.041C530.213 312.759 530.495 312.336 530.776 312.336C546.545 308.11 549.501 295.29 549.501 295.149C549.642 294.867 549.924 294.585 550.205 294.726C550.487 294.867 550.768 295.149 550.627 295.43C550.627 295.571 549.783 298.952 546.967 302.897C544.433 306.56 539.505 311.35 530.917 313.604C531.058 313.463 530.917 313.463 530.917 313.463Z" fill="#00B2FF"/>
<path d="M599.764 344.88C599.341 350.375 595.962 354.46 595.962 358.123C595.962 361.786 591.739 359.391 593.71 352.206C595.681 345.021 592.724 338.118 591.176 338.118C589.627 338.118 591.739 346.148 590.049 348.825C588.36 351.502 587.093 345.866 585.685 342.485C584.136 338.963 584.981 331.496 586.389 326.143C587.797 320.93 581.039 287.682 582.024 278.243L579.631 266.127L578.223 259.083L577.941 251.616L590.753 246.685C591.176 249.08 591.739 251.475 592.161 254.011C592.443 255.138 592.583 256.265 592.865 257.251C594.555 266.127 596.103 274.862 596.807 280.497C598.497 295.994 595.681 327.552 595.681 327.552C595.681 327.552 600.045 339.668 599.764 344.88Z" fill="#F9AF8B"/>
<path d="M592.724 257.251C589.768 260.492 585.263 264.577 579.49 266.127L578.082 259.083L577.801 251.616L590.613 246.685C591.035 249.08 591.598 251.475 592.021 254.011C592.302 255.138 592.584 256.124 592.724 257.251Z" fill="#FC8664"/>
<path d="M596.385 250.207C596.385 250.207 594.836 252.039 592.161 254.011C588.923 256.406 583.995 259.083 578.082 259.083C577.378 238.514 576.392 221.185 574.844 216.114C577.519 219.354 590.471 235.555 596.385 250.207Z" fill="#00B2FF"/>
<path d="M569.211 244.29C571.605 247.39 575.124 254.575 576.673 257.956C576.955 258.378 577.095 258.801 577.236 259.083C577.377 259.505 577.518 259.646 577.518 259.646C577.659 259.928 577.799 260.069 578.081 260.069C578.081 259.787 578.081 259.365 578.081 259.083C578.222 259.083 578.503 259.083 578.644 259.083C578.503 258.942 578.363 258.378 578.081 257.815C577.659 256.97 577.236 255.842 576.532 254.715C574.702 251.052 572.168 246.122 570.337 243.586C570.056 243.304 569.774 243.304 569.493 243.445C569.07 243.586 569.07 244.008 569.211 244.29Z" fill="#0077EB"/>
<path d="M557.667 164.128C557.667 175.258 550.628 182.865 539.364 182.865C527.96 182.865 520.076 174.694 520.076 163.564C520.076 152.435 526.834 143.982 538.097 143.982C551.754 144.123 557.667 152.998 557.667 164.128Z" fill="#2E3052"/>
<path d="M555.132 168.918C555.132 168.918 558.23 164.832 560.623 168.214C563.017 171.595 559.638 181.738 553.865 179.202L555.132 168.918Z" fill="#FC8664"/>
<path d="M555.131 176.103C555.413 176.103 555.554 175.962 555.554 175.821C556.399 172.722 559.778 171.454 559.778 171.454C560.059 171.313 560.2 171.031 560.059 170.89C559.918 170.609 559.637 170.468 559.496 170.609C559.355 170.609 555.695 172.017 554.709 175.68C554.568 175.821 554.709 176.103 555.131 176.103C554.991 176.103 555.131 176.103 555.131 176.103Z" fill="#FD664D"/>
<path d="M558.511 174.553C558.652 174.553 558.652 174.553 558.792 174.412C559.074 174.271 559.074 173.99 558.933 173.708C558.933 173.708 558.37 172.863 557.103 172.299C556.821 172.158 556.54 172.299 556.399 172.581C556.258 172.863 556.399 173.144 556.681 173.144C557.666 173.567 558.088 174.271 558.088 174.271C558.088 174.553 558.229 174.553 558.511 174.553Z" fill="#FD664D"/>
<path d="M522.61 168.918C522.61 168.918 519.513 164.832 517.119 168.214C514.726 171.595 518.105 181.738 523.877 179.202L522.61 168.918Z" fill="#FC8664"/>
<path d="M522.61 176.103C522.328 176.103 522.187 175.962 522.187 175.821C521.343 172.722 517.964 171.454 517.964 171.454C517.682 171.313 517.541 171.031 517.682 170.89C517.823 170.609 518.105 170.468 518.245 170.609C518.386 170.609 522.047 172.017 523.032 175.68C523.173 175.821 523.032 176.103 522.61 176.103C522.751 176.103 522.61 176.103 522.61 176.103Z" fill="#FD664D"/>
<path d="M519.232 174.553C519.091 174.553 519.091 174.553 518.95 174.412C518.668 174.271 518.668 173.99 518.809 173.708C518.809 173.708 519.372 172.863 520.64 172.299C520.921 172.158 521.203 172.299 521.343 172.581C521.484 172.863 521.343 173.144 521.062 173.144C520.076 173.567 519.654 174.271 519.654 174.271C519.654 174.553 519.513 174.553 519.232 174.553Z" fill="#FD664D"/>
<path d="M531.059 187.796V197.799C531.059 197.799 534.156 202.871 538.239 203.293C542.322 203.575 545.982 198.926 545.982 198.926V188.641L531.059 187.796Z" fill="#F9AF8B"/>
<path d="M531.059 187.796V192.164C533.874 195.122 538.661 195.967 545.982 194.84V188.36L531.059 187.796Z" fill="#FC8664"/>
<path d="M556.822 168.636C556.681 170.749 556.4 173.004 555.977 175.258C554.569 182.584 551.472 189.909 544.855 192.164C529.79 197.376 524.44 184.838 522.328 177.371C522.047 176.526 521.906 175.68 521.625 174.694C521.343 173.004 521.061 171.031 520.78 169.059C520.498 166.664 520.357 164.269 520.217 162.156C519.935 157.647 522.751 153.562 526.975 152.012C533.169 149.758 542.461 147.786 551.331 152.716C554.569 154.548 556.681 157.929 556.681 161.592C556.963 163.564 556.963 165.959 556.822 168.636Z" fill="#F9AF8B"/>
<path d="M554.85 169.059C554.287 169.904 551.471 178.498 550.767 179.625C548.937 175.821 540.349 178.639 540.349 178.639C539.786 178.78 539.223 178.921 538.659 178.921C538.096 178.921 537.533 178.78 537.111 178.639C537.111 178.639 528.382 175.962 526.692 180.048C525.848 178.921 523.454 170.468 523.032 169.059H520.92C521.061 171.031 521.342 173.004 521.765 174.694C521.905 175.68 522.187 176.526 522.469 177.371C524.58 184.697 529.93 197.376 544.995 192.164C551.612 189.769 554.709 182.584 556.117 175.258C556.54 173.004 556.821 170.749 556.962 168.636L554.85 169.059ZM546.825 184.556C546.121 185.119 545.417 185.683 544.854 186.106C541.053 188.078 540.63 187.796 539.082 187.937C537.533 188.078 535.421 187.514 533.309 186.387C532.605 185.965 531.62 185.26 530.494 184.274C530.494 184.274 528.945 179.061 538.8 180.329C548.655 178.78 546.966 183.57 546.825 184.556Z" fill="#2E3052"/>
<path d="M546.544 172.158C547.244 172.158 547.812 171.275 547.812 170.186C547.812 169.097 547.244 168.214 546.544 168.214C545.845 168.214 545.277 169.097 545.277 170.186C545.277 171.275 545.845 172.158 546.544 172.158Z" fill="#2E3052"/>
<path d="M531.761 172.158C532.461 172.158 533.028 171.275 533.028 170.186C533.028 169.097 532.461 168.214 531.761 168.214C531.061 168.214 530.494 169.097 530.494 170.186C530.494 171.275 531.061 172.158 531.761 172.158Z" fill="#2E3052"/>
<path d="M551.473 164.832C551.473 164.832 546.686 163.001 543.025 164.551L543.448 166.523C543.448 166.523 548.938 166.1 551.613 167.227C551.754 166.382 551.895 165.537 551.473 164.832Z" fill="#2E3052"/>
<path d="M527.679 164.832C527.679 164.832 532.465 163.001 536.126 164.551L535.704 166.523C535.704 166.523 530.213 166.1 527.538 167.227C527.397 166.382 527.397 165.537 527.679 164.832Z" fill="#2E3052"/>
<path d="M538.659 177.794C537.814 177.794 536.97 177.512 536.97 177.371C536.688 177.23 536.547 176.948 536.688 176.807C536.829 176.526 537.11 176.385 537.251 176.526C537.674 176.667 538.8 176.948 539.222 176.667C539.363 176.667 539.363 176.526 539.504 176.244C539.645 174.553 539.222 169.059 539.222 168.918C539.222 168.636 539.363 168.495 539.645 168.354C539.926 168.354 540.208 168.495 540.208 168.777C540.208 169.059 540.63 174.412 540.489 176.244C540.489 176.948 540.067 177.23 539.785 177.371C539.504 177.653 539.081 177.794 538.659 177.794Z" fill="#FC8664"/>
<path d="M545.276 181.175C544.854 183.147 543.587 186.669 539.081 186.669C534.576 186.669 533.45 183.429 533.027 181.175H545.276Z" fill="white"/>
<path d="M520.921 169.059H523.173C522.892 166.946 522.61 163.142 524.441 162.578C530.213 160.888 522.751 156.943 525.285 154.971C527.82 152.998 534.296 153.844 538.801 153.703C543.306 153.562 550.487 153.562 552.317 153.984C554.006 154.407 553.162 157.225 552.458 159.479C551.754 161.733 554.57 164.128 555.133 166.382C555.273 167.086 555.273 168.073 555.133 169.059H556.963C557.245 166.241 557.245 163.705 557.104 161.592C556.963 157.929 554.992 154.548 551.754 152.716C542.884 147.786 533.592 149.617 527.397 152.012C523.173 153.562 520.358 157.788 520.639 162.156C520.498 164.269 520.639 166.664 520.921 169.059Z" fill="#2E3052"/>
<path d="M198.937 412.363H87.4316C89.2619 401.233 98.1316 393.062 108.55 393.062L143.184 393.203L177.819 393.062C188.237 393.062 197.107 401.092 198.937 412.363Z" fill="white"/>
<path d="M102.355 410.672H96.3008V514.644H102.355V410.672Z" fill="white"/>
<path d="M190.208 410.672H184.154V514.644H190.208V410.672Z" fill="white"/>
<path d="M184.154 439.835H102.355V445.752H184.154V439.835Z" fill="#DCEDF9"/>
<path d="M115.872 272.326C115.872 272.326 97.2877 297.121 94.7535 318.817C93.064 334.173 115.872 356.996 115.872 356.996L123.756 353.051L115.872 335.3C113.056 326.706 109.677 323.325 112.211 314.59L117.843 302.334L115.872 272.326Z" fill="#0077EB"/>
<path d="M174.579 272.044C174.579 272.044 192.882 298.53 194.431 320.226C195.698 338.963 173.312 356.996 173.312 356.996L166.836 353.756L175.846 335.864C178.662 327.27 179.929 322.057 176.128 312.618L171.341 302.334L174.579 272.044Z" fill="#0077EB"/>
<path d="M119.673 328.96L107.283 368.267C107.283 368.267 160.642 375.029 176.974 370.662L168.667 327.833L174.44 272.044C166.415 268.663 157.967 266.55 149.379 265.845C136.708 265 128.824 266.972 115.871 272.326L119.673 328.96Z" fill="#000349"/>
<path d="M133.047 284.16C144.874 282.751 155.855 274.721 156.278 274.298C156.559 274.016 156.559 273.735 156.418 273.312C156.137 273.03 155.855 273.03 155.433 273.171C155.292 273.312 142.34 282.751 129.95 282.892C129.528 282.892 129.246 283.174 129.246 283.596C129.246 284.019 129.528 284.301 129.95 284.301C131.076 284.442 132.062 284.301 133.047 284.16Z" fill="#0077EB"/>
<path d="M142.479 494.638L143.464 503.373L152.756 503.514L153.46 496.329L142.479 494.638Z" fill="#F9AF8B"/>
<path d="M141.071 357.137C141.071 357.137 117.137 355.869 109.112 362.49C101.087 369.112 102.636 388.131 110.943 393.344C119.249 398.556 133.187 408.7 133.187 408.7L142.057 497.597L153.883 498.019C153.883 498.019 164.724 408.841 159.233 391.512C153.743 374.043 141.071 357.137 141.071 357.137Z" fill="#001030"/>
<path d="M155.009 493.511C155.713 495.624 155.29 497.597 154.727 499.569L141.211 499.287C140.789 497.315 140.648 495.343 140.93 493.37L155.009 493.511Z" fill="#2E3052"/>
<path d="M174.862 356.433H112.21L106.438 322.621C105.875 319.662 108.128 316.985 111.225 316.985H175.988C178.945 316.985 181.197 319.662 180.775 322.621L174.862 356.433Z" fill="white"/>
<path d="M169.794 363.899H117.279C114.464 363.899 112.211 361.645 112.211 358.828V356.433H174.862V358.687C175.003 361.504 172.61 363.899 169.794 363.899Z" fill="#DCEDF9"/>
<path d="M143.747 343.612C146.779 343.612 149.237 341.152 149.237 338.118C149.237 335.083 146.779 332.623 143.747 332.623C140.714 332.623 138.256 335.083 138.256 338.118C138.256 341.152 140.714 343.612 143.747 343.612Z" fill="#DCEDF9"/>
<path d="M103.34 470.266L101.369 478.859L109.676 480.409L113.055 472.802L103.34 470.266Z" fill="#F9AF8B"/>
<path d="M153.18 355.728C153.18 355.728 137.13 350.234 127.838 361.786C118.546 373.338 102.777 471.111 102.777 471.111L113.477 475.619L148.112 388.836C148.112 388.836 176.269 404.896 179.648 382.073C182.464 363.899 153.18 355.728 153.18 355.728Z" fill="#2E3052"/>
<path d="M116.012 471.111C116.012 473.365 115.027 475.197 113.76 477.028L100.525 472.379C100.666 470.266 101.229 468.293 102.215 466.462L116.012 471.111Z" fill="#524E84"/>
<path d="M107.705 477.451C107.705 477.451 102.637 474.915 101.229 474.633C99.8209 474.351 87.5722 482.945 84.0525 482.945C77.8577 482.804 75.7459 491.961 79.4064 493.229C89.684 496.892 108.691 496.47 108.691 496.47C108.691 496.47 112.914 485.058 113.055 481.114C113.055 477.169 110.38 479.141 107.705 477.451Z" fill="#008EFF"/>
<path d="M96.7242 485.622C96.865 485.763 97.1466 485.763 97.2874 485.622C97.7098 485.481 97.8506 485.058 97.7098 484.636C97.7098 484.495 96.4427 481.536 94.3308 480.127C91.6558 478.296 89.1216 479.564 88.9808 479.564C88.5584 479.705 88.4176 480.268 88.6992 480.55C88.84 480.973 89.4032 480.973 89.6848 480.832C89.6848 480.832 91.515 479.987 93.3453 481.254C95.0348 482.382 96.1611 485.058 96.1611 485.058C96.4427 485.34 96.5834 485.481 96.7242 485.622Z" fill="white"/>
<path d="M99.2574 483.79C99.3982 483.931 99.6798 483.931 99.8206 483.79C100.243 483.649 100.384 483.227 100.243 482.804C100.243 482.663 98.9759 479.705 96.864 478.296C94.189 476.464 91.6548 477.732 91.514 477.732C91.0916 477.873 90.9509 478.437 91.2324 478.719C91.3732 479.141 91.9364 479.141 92.218 479C92.218 479 94.0482 478.155 95.8785 479.423C97.568 480.55 98.6943 483.227 98.6943 483.227C98.9759 483.649 99.1166 483.79 99.2574 483.79Z" fill="white"/>
<path d="M93.4859 486.89C93.6267 487.031 93.9083 487.031 94.0491 486.89C94.4715 486.749 94.6123 486.326 94.4715 485.904C94.4715 485.763 93.2044 482.804 91.0925 481.395C88.4175 479.564 85.8833 480.832 85.7425 480.832C85.3202 480.973 85.1794 481.536 85.4609 481.818C85.6017 482.241 86.1649 482.241 86.4465 482.1C86.4465 482.1 88.2767 481.254 90.107 482.522C91.7965 483.649 92.9228 486.326 92.9228 486.326C93.2044 486.608 93.3452 486.749 93.4859 486.89Z" fill="white"/>
<path d="M147.126 502.95C147.126 502.95 152.194 501.401 153.743 501.401C155.151 501.401 165.147 511.544 168.385 511.967C174.298 512.812 174.58 521.829 171.06 522.392C160.782 524.083 142.902 520.561 142.902 520.561C142.902 520.561 140.79 509.149 141.353 505.486C142.057 501.823 144.169 504.077 147.126 502.95Z" fill="#008EFF"/>
<path d="M155.994 512.39C155.853 512.39 155.571 512.39 155.431 512.249C155.149 512.108 155.008 511.544 155.149 511.262C155.149 511.122 156.838 508.586 158.95 507.6C161.766 506.332 163.878 507.881 164.019 508.022C164.3 508.304 164.441 508.727 164.16 509.008C163.878 509.29 163.456 509.431 163.174 509.149C163.174 509.149 161.625 508.022 159.654 508.867C157.965 509.713 156.416 511.967 156.416 511.967C156.275 512.249 156.135 512.39 155.994 512.39Z" fill="white"/>
<path d="M153.882 510.417C153.742 510.417 153.46 510.417 153.319 510.276C153.038 510.135 152.897 509.572 153.038 509.29C153.038 509.149 154.727 506.613 156.839 505.627C159.655 504.359 161.767 505.909 161.907 506.05C162.189 506.332 162.33 506.754 162.048 507.036C161.767 507.318 161.344 507.459 161.063 507.177C161.063 507.177 159.514 506.05 157.543 506.895C155.853 507.74 154.305 509.995 154.305 509.995C154.305 510.276 154.164 510.417 153.882 510.417Z" fill="white"/>
<path d="M158.81 514.08C158.669 514.08 158.388 514.08 158.247 513.939C157.965 513.798 157.825 513.235 157.965 512.953C157.965 512.812 159.655 510.276 161.767 509.29C164.582 508.022 166.694 509.572 166.835 509.713C167.117 509.994 167.257 510.417 166.976 510.699C166.694 510.981 166.272 511.122 165.99 510.84C165.99 510.84 164.442 509.713 162.471 510.558C160.781 511.403 159.232 513.657 159.232 513.657C159.092 513.939 158.951 514.08 158.81 514.08Z" fill="white"/>
<path d="M161.065 216.395C161.065 216.395 168.668 228.229 167.823 240.486C166.978 252.743 168.95 266.972 157.968 266.268C146.986 265.704 127.417 270.635 121.222 261.055C115.027 251.475 161.065 216.395 161.065 216.395Z" fill="#2E3052"/>
<path d="M163.88 237.95C163.88 237.95 165.851 255.702 157.404 260.632C148.956 265.563 142.902 260.069 142.902 260.069C142.902 260.069 160.642 235.274 163.88 237.95Z" fill="#000B29"/>
<path d="M128.824 237.95C128.824 237.95 125.867 233.865 123.615 237.246C121.362 240.627 124.6 250.489 130.091 248.094L128.824 237.95Z" fill="#FC8664"/>
<path d="M128.824 244.994C128.684 244.994 128.402 244.854 128.402 244.713C127.557 241.613 124.46 240.486 124.319 240.486C124.038 240.345 123.897 240.064 124.038 239.923C124.178 239.641 124.46 239.5 124.601 239.641C124.742 239.641 128.261 241.05 129.247 244.572C129.247 244.572 129.106 244.854 128.824 244.994Z" fill="#FD664D"/>
<path d="M125.585 243.445C125.444 243.445 125.444 243.445 125.304 243.304C125.022 243.163 125.022 242.881 125.163 242.599C125.163 242.599 125.726 241.754 126.852 241.191C127.134 241.05 127.415 241.191 127.415 241.472C127.556 241.754 127.415 242.036 127.134 242.036C126.289 242.459 125.726 243.163 125.726 243.163C125.867 243.304 125.726 243.445 125.585 243.445Z" fill="#FD664D"/>
<path d="M159.939 237.95C159.939 237.95 162.896 233.865 165.148 237.246C167.401 240.627 164.163 250.489 158.672 248.094L159.939 237.95Z" fill="#FC8664"/>
<path d="M160.079 244.994C160.219 244.994 160.501 244.854 160.501 244.713C161.346 241.613 164.443 240.486 164.584 240.486C164.866 240.345 165.006 240.064 164.866 239.923C164.725 239.641 164.443 239.5 164.302 239.641C164.162 239.641 160.642 241.05 159.656 244.572C159.516 244.572 159.656 244.854 160.079 244.994C159.938 244.994 159.938 244.994 160.079 244.994Z" fill="#FD664D"/>
<path d="M163.177 243.445C163.317 243.445 163.317 243.445 163.458 243.304C163.74 243.163 163.74 242.881 163.599 242.599C163.599 242.599 163.036 241.754 161.909 241.191C161.628 241.05 161.346 241.191 161.346 241.472C161.205 241.754 161.346 242.036 161.628 242.036C162.473 242.459 163.036 243.163 163.036 243.163C162.895 243.304 163.036 243.445 163.177 243.445Z" fill="#FD664D"/>
<path d="M151.913 256.406V266.268C151.913 266.268 148.957 271.199 145.015 271.621C141.072 271.903 137.553 267.254 137.553 267.254V257.11L151.913 256.406Z" fill="#F9AF8B"/>
<path d="M151.913 256.406V260.773C149.238 263.732 144.592 264.718 137.553 263.732V257.11L151.913 256.406Z" fill="#FC8664"/>
<path d="M162.191 231.188C162.051 234.992 161.628 239.782 160.924 243.586C160.784 244.572 160.502 245.417 160.361 246.262C158.249 253.447 153.181 265.845 138.68 260.773C132.344 258.519 129.388 251.334 127.98 244.149C127.135 239.218 126.994 234.287 126.994 230.765C126.994 227.102 129.106 223.862 132.203 222.031C140.792 217.241 149.661 218.931 155.715 221.326C159.798 222.735 162.332 226.821 162.191 231.188Z" fill="#F9AF8B"/>
<path d="M136.849 241.191C137.549 241.191 138.116 240.371 138.116 239.359C138.116 238.348 137.549 237.528 136.849 237.528C136.149 237.528 135.582 238.348 135.582 239.359C135.582 240.371 136.149 241.191 136.849 241.191Z" fill="#2E3052"/>
<path d="M151.773 241.191C152.473 241.191 153.04 240.371 153.04 239.359C153.04 238.348 152.473 237.528 151.773 237.528C151.073 237.528 150.506 238.348 150.506 239.359C150.506 240.371 151.073 241.191 151.773 241.191Z" fill="#2E3052"/>
<path d="M134.455 233.16C135.441 232.879 137.412 232.456 139.665 232.456C140.228 232.456 140.65 233.019 140.509 233.442C140.369 233.865 140.087 234.147 139.524 234.147C138.116 234.147 134.315 234.287 132.484 234.992C132.484 234.71 132.625 234.287 132.907 234.006C133.329 233.583 133.892 233.301 134.455 233.16Z" fill="#2E3052"/>
<path d="M153.884 233.16C152.898 232.879 150.927 232.456 148.675 232.456C148.112 232.456 147.689 233.019 147.83 233.442C147.971 233.865 148.252 234.147 148.816 234.147C150.223 234.147 154.025 234.287 155.855 234.992C155.855 234.71 155.714 234.287 155.433 234.006C155.01 233.583 154.447 233.301 153.884 233.16Z" fill="#2E3052"/>
<path d="M144.591 247.108C144.169 247.108 143.887 247.108 143.606 246.826C143.324 246.685 143.043 246.403 142.902 245.699C142.761 244.008 143.183 238.655 143.183 238.373C143.183 238.091 143.465 237.95 143.747 237.95C144.028 237.95 144.169 238.232 144.169 238.514C144.169 238.514 143.747 244.008 143.887 245.699C143.887 245.981 144.028 246.122 144.169 246.122C144.591 246.403 145.577 246.122 145.999 245.981C146.281 245.84 146.562 245.981 146.562 246.262C146.703 246.544 146.562 246.826 146.281 246.826C146.14 246.826 145.295 247.108 144.591 247.108Z" fill="#FC8664"/>
<path d="M138.68 250.066C139.102 251.898 140.228 255.138 144.17 255.138C148.113 255.138 149.239 252.18 149.661 250.066H138.68Z" fill="white"/>
<path d="M144.029 257.815C142.903 257.815 141.917 257.251 141.776 257.11C141.495 256.969 141.495 256.688 141.635 256.406C141.776 256.124 142.058 256.124 142.339 256.265C142.339 256.265 143.184 256.829 144.029 256.829C145.014 256.829 145.859 256.265 145.859 256.265C146.141 256.124 146.422 256.265 146.563 256.406C146.704 256.688 146.563 256.969 146.422 257.11C146.282 257.251 145.296 257.815 144.029 257.815Z" fill="#FC8664"/>
<path d="M164.021 230.484C163.881 230.906 163.458 231.188 162.895 231.329C162.895 232.315 162.895 233.583 162.754 234.71C162.191 241.472 160.502 242.599 160.079 240.909C159.798 239.782 159.798 233.442 159.938 231.329C158.671 231.188 157.404 231.047 157.404 231.047L155.855 224.567L155.292 231.047C152.899 231.892 147.549 230.624 147.549 230.624L145.719 224.144L144.592 230.343C141.073 232.033 136.708 230.906 136.708 230.906L135.723 224.285L133.329 230.906C133.329 230.906 125.867 233.583 125.727 230.906C125.727 229.357 126.853 224.989 127.838 221.467C128.824 217.804 131.358 214.564 134.596 212.873C143.888 207.942 153.744 210.478 157.123 212.592C164.303 216.818 164.021 230.484 164.021 230.484Z" fill="#2E3052"/>
<path d="M129.95 216.818C129.95 216.818 123.756 224.144 121.785 237.246C119.813 250.348 116.998 260.069 124.882 264.436C133.47 269.085 132.625 259.505 132.625 256.969C132.485 254.293 125.163 247.249 130.091 227.102C131.499 220.481 129.95 216.818 129.95 216.818Z" fill="#2E3052"/>
<path d="M128.543 243.867C128.543 243.867 128.543 244.008 128.543 243.867C128.543 244.008 128.543 244.572 128.543 245.276C128.543 245.84 128.543 246.403 128.684 247.108C128.965 251.475 129.81 259.224 132.344 261.76C133.33 262.746 135.301 263.309 137.553 263.591V260.069C135.16 258.942 133.33 257.11 131.922 254.856C131.077 252.884 129.528 249.925 128.825 245.135L128.543 243.867Z" fill="#000B29"/>
<path d="M161.204 249.362C161.826 249.362 162.331 248.857 162.331 248.235C162.331 247.612 161.826 247.108 161.204 247.108C160.582 247.108 160.078 247.612 160.078 248.235C160.078 248.857 160.582 249.362 161.204 249.362Z" fill="white"/>
<path d="M491.075 154.266H464.325C462.213 154.266 460.664 152.576 460.664 150.603V123.836C460.664 121.722 462.354 120.173 464.325 120.173H491.075C493.186 120.173 494.735 121.863 494.735 123.836V150.603C494.735 152.576 493.046 154.266 491.075 154.266Z" fill="#FFAA01"/>
<path d="M489.244 137.078C489.244 139.896 488.259 142.432 486.569 144.545C484.457 147.081 481.219 148.772 477.559 148.772C473.898 148.772 470.66 147.081 468.548 144.545C466.859 142.573 465.873 139.896 465.873 137.078C465.873 130.598 471.082 125.385 477.559 125.385C484.035 125.385 489.244 130.598 489.244 137.078Z" fill="#FDCC50"/>
<path d="M486.57 144.545C484.458 147.081 481.22 148.772 477.559 148.772C473.899 148.772 470.661 147.081 468.549 144.545L468.69 144.263C468.971 143.7 469.253 143.277 469.675 142.996C470.098 142.573 470.52 142.432 471.083 142.15C472.913 141.587 474.744 141.023 475.729 139.333C474.462 138.769 473.758 137.642 473.336 136.797C472.069 137.078 471.083 134.683 471.787 133.979C472.069 133.697 472.35 133.697 472.632 133.697C472.913 131.161 474.884 129.048 477.419 129.048C479.953 129.048 482.065 131.302 482.205 133.697C482.487 133.697 482.769 133.697 483.05 133.979C483.754 134.683 482.769 137.078 481.501 136.797C481.22 137.642 480.234 138.769 479.39 139.192C480.375 140.882 481.924 141.587 483.895 142.15C484.458 142.291 484.88 142.573 485.303 142.996C485.725 143.418 486.007 143.841 486.288 144.263L486.57 144.545Z" fill="white"/>
<path d="M46.6019 336.145H19.8519C17.7401 336.145 16.1914 334.455 16.1914 332.483V305.715C16.1914 303.602 17.8809 302.052 19.8519 302.052H46.6019C48.7138 302.052 50.2625 303.742 50.2625 305.715V332.483C50.4033 334.455 48.7138 336.145 46.6019 336.145Z" fill="#FFAA01"/>
<path d="M33.7906 307.687C29.4262 307.405 25.7656 310.927 25.7656 315.154C25.7656 316.563 26.188 317.831 26.7512 318.958C27.7367 320.648 28.7222 322.339 29.7077 324.03L33.2275 330.369L38.5775 320.648C38.859 320.085 39.2814 319.521 39.563 318.958C40.2669 317.831 40.6893 316.422 40.5485 315.013C40.6893 311.209 37.5919 307.969 33.7906 307.687ZM33.2275 317.408C31.538 317.408 30.1301 315.999 30.1301 314.309C30.1301 312.618 31.538 311.209 33.2275 311.209C34.9169 311.209 36.3248 312.618 36.3248 314.309C36.4656 315.999 35.0577 317.408 33.2275 317.408Z" fill="white"/>
<path d="M608.634 165.537C612.858 165.537 616.237 168.918 616.237 173.144C616.237 177.371 612.858 180.752 608.634 180.752C604.41 180.752 601.031 177.371 601.031 173.144C601.031 168.918 604.41 165.537 608.634 165.537ZM608.634 178.357C611.59 178.357 613.843 175.962 613.843 173.144C613.843 170.327 611.45 167.932 608.634 167.932C605.677 167.932 603.425 170.327 603.425 173.144C603.425 175.962 605.677 178.357 608.634 178.357Z" fill="#008EFF"/>
<path d="M581.179 138.628C585.403 138.628 588.782 142.009 588.782 146.236C588.782 150.462 585.403 153.844 581.179 153.844C576.955 153.844 573.576 150.462 573.576 146.236C573.436 142.15 576.955 138.628 581.179 138.628ZM581.179 151.589C584.136 151.589 586.388 149.194 586.388 146.377C586.388 143.418 583.995 141.164 581.179 141.164C578.222 141.164 575.97 143.559 575.97 146.377C575.829 149.194 578.222 151.589 581.179 151.589Z" fill="#FFAA01"/>
<path d="M571.748 113.833C572.452 113.833 573.015 114.396 573.015 115.101V120.454C573.015 121.159 572.452 121.722 571.748 121.722C571.044 121.722 570.48 121.159 570.48 120.454V115.101C570.48 114.396 571.044 113.833 571.748 113.833Z" fill="#008EFF"/>
<path d="M571.748 104.676C572.452 104.676 573.015 105.239 573.015 105.943V111.297C573.015 112.001 572.452 112.565 571.748 112.565C571.044 112.565 570.48 112.001 570.48 111.297V105.943C570.48 105.098 571.044 104.676 571.748 104.676Z" fill="#008EFF"/>
<path d="M564.285 111.861H569.072C569.775 111.861 570.339 112.424 570.339 113.128C570.339 113.833 569.775 114.396 569.072 114.396H564.285C563.581 114.396 563.018 113.833 563.018 113.128C563.018 112.424 563.581 111.861 564.285 111.861Z" fill="#008EFF"/>
<path d="M574.421 111.861H579.208C579.912 111.861 580.475 112.424 580.475 113.128C580.475 113.833 579.912 114.396 579.208 114.396H574.421C573.717 114.396 573.154 113.833 573.154 113.128C573.154 112.424 573.717 111.861 574.421 111.861Z" fill="#008EFF"/>
<path d="M613.843 143.418C614.547 143.418 615.11 143.982 615.11 144.686V150.04C615.11 150.744 614.547 151.308 613.843 151.308C613.139 151.308 612.576 150.744 612.576 150.04V144.686C612.576 143.982 613.139 143.418 613.843 143.418Z" fill="#FFAA01"/>
<path d="M613.843 134.261C614.547 134.261 615.11 134.824 615.11 135.529V140.882C615.11 141.587 614.547 142.15 613.843 142.15C613.139 142.15 612.576 141.587 612.576 140.882V135.529C612.576 134.824 613.139 134.261 613.843 134.261Z" fill="#FFAA01"/>
<path d="M606.38 141.446H611.167C611.871 141.446 612.434 142.009 612.434 142.714C612.434 143.418 611.871 143.982 611.167 143.982H606.38C605.676 143.982 605.113 143.418 605.113 142.714C605.254 142.009 605.817 141.446 606.38 141.446Z" fill="#FFAA01"/>
<path d="M616.517 141.446H621.304C622.008 141.446 622.571 142.009 622.571 142.714C622.571 143.418 622.008 143.982 621.304 143.982H616.517C615.813 143.982 615.25 143.418 615.25 142.714C615.25 142.009 615.813 141.446 616.517 141.446Z" fill="#FFAA01"/>
<path d="M135.863 67.9052C140.086 67.9052 143.465 71.2864 143.465 75.5128C143.465 79.7393 140.086 83.1205 135.863 83.1205C131.639 83.1205 128.26 79.7393 128.26 75.5128C128.119 71.4272 131.639 67.9052 135.863 67.9052ZM135.863 70.3002C132.906 70.3002 130.653 72.6952 130.653 75.5128C130.653 78.4714 133.047 80.7255 135.863 80.7255C138.819 80.7255 141.072 78.3305 141.072 75.5128C141.072 72.6952 138.678 70.3002 135.863 70.3002Z" fill="#008EFF"/>
<path d="M107.985 42.6872C112.209 42.6872 115.588 46.0684 115.588 50.2949C115.588 54.5213 112.209 57.9025 107.985 57.9025C103.762 57.9025 100.383 54.5213 100.383 50.2949C100.383 46.0684 103.762 42.6872 107.985 42.6872ZM107.985 45.0822C105.029 45.0822 102.776 47.4772 102.776 50.2949C102.776 53.2534 105.17 55.5075 107.985 55.5075C110.942 55.5075 113.195 53.1125 113.195 50.2949C113.195 47.4772 110.942 45.0822 107.985 45.0822Z" fill="#FFAA01"/>
<path d="M97.9902 86.3608C97.9902 87.0652 98.5534 87.6287 99.2573 87.6287H104.607C105.311 87.6287 105.874 87.0652 105.874 86.3608C105.874 85.6564 105.311 85.0928 104.607 85.0928H99.2573C98.4126 85.2337 97.9902 85.6564 97.9902 86.3608Z" fill="#008EFF"/>
<path d="M88.6973 86.3608C88.6973 87.0652 89.2604 87.6287 89.9644 87.6287H95.3144C96.0183 87.6287 96.5815 87.0652 96.5815 86.3608C96.5815 85.6564 96.0183 85.0928 95.3144 85.0928H89.9644C89.2604 85.2337 88.6973 85.6564 88.6973 86.3608Z" fill="#008EFF"/>
<path d="M96.0176 78.894V83.684C96.0176 84.3884 96.5807 84.952 97.2847 84.952C97.9886 84.952 98.5518 84.3884 98.5518 83.684V78.894C98.5518 78.1896 97.9886 77.6261 97.2847 77.6261C96.5807 77.6261 96.0176 78.3305 96.0176 78.894Z" fill="#008EFF"/>
<path d="M96.0176 89.0376V93.8276C96.0176 94.532 96.5807 95.0955 97.2847 95.0955C97.9886 95.0955 98.5518 94.532 98.5518 93.8276V89.0376C98.5518 88.3331 97.9886 87.7696 97.2847 87.7696C96.5807 87.7696 96.0176 88.3331 96.0176 89.0376Z" fill="#008EFF"/>
<path d="M153.883 45.0822C153.883 45.7866 154.446 46.3502 155.15 46.3502H160.5C161.204 46.3502 161.767 45.7866 161.767 45.0822C161.767 44.3778 161.204 43.8143 160.5 43.8143H155.15C154.446 43.9552 153.883 44.3778 153.883 45.0822Z" fill="#FFAA01"/>
<path d="M144.59 45.0822C144.59 45.7866 145.153 46.3502 145.857 46.3502H151.207C151.911 46.3502 152.474 45.7866 152.474 45.0822C152.474 44.3778 151.911 43.8143 151.207 43.8143H145.857C145.153 43.9552 144.59 44.3778 144.59 45.0822Z" fill="#FFAA01"/>
<path d="M151.91 37.6154V42.4055C151.91 43.1099 152.473 43.6734 153.177 43.6734C153.881 43.6734 154.444 43.1099 154.444 42.4055V37.6154C154.444 36.911 153.881 36.3475 153.177 36.3475C152.473 36.4884 151.91 37.0519 151.91 37.6154Z" fill="#FFAA01"/>
<path d="M151.91 47.759V52.549C151.91 53.2534 152.473 53.8169 153.177 53.8169C153.881 53.8169 154.444 53.2534 154.444 52.549V47.759C154.444 47.0546 153.881 46.491 153.177 46.491C152.473 46.6319 151.91 47.0546 151.91 47.759Z" fill="#FFAA01"/>
<path d="M472.209 81.9934C472.35 81.9934 472.491 81.9934 472.772 81.9934C474.603 81.5708 475.588 81.4299 475.588 81.4299C476.151 81.289 476.433 80.8664 476.433 80.3028C476.292 79.7393 475.87 79.4576 475.307 79.5984C475.307 79.5984 474.18 79.7393 472.35 80.3028C471.787 80.4437 471.505 81.0073 471.646 81.4299C471.505 81.7117 471.787 81.8526 472.209 81.9934Z" fill="#DCEDF9"/>
<path d="M413.499 125.526C412.514 127.076 411.669 128.766 410.824 130.457C410.684 130.88 410.12 131.021 409.698 131.021H409.557C408.994 130.739 408.853 130.175 409.135 129.753C409.98 128.062 410.965 126.371 411.951 124.681C412.232 124.258 412.795 124.117 413.359 124.258C413.64 124.399 413.781 124.963 413.499 125.526Z" fill="#DCEDF9"/>
<path d="M408.432 135.529C407.728 137.219 407.024 139.051 406.32 140.741C406.179 141.164 405.616 141.446 405.053 141.305C405.053 141.305 405.053 141.305 404.912 141.305C404.349 141.164 404.067 140.601 404.349 140.037C405.053 138.206 405.757 136.374 406.461 134.683C406.601 134.261 407.305 133.979 407.728 134.12C408.432 134.543 408.713 135.106 408.432 135.529Z" fill="#DCEDF9"/>
<path d="M399.843 163.283C399.421 163.142 398.998 162.719 399.139 162.296C399.421 160.465 399.702 158.493 399.984 156.661C400.124 156.098 400.547 155.816 401.11 155.957C401.673 156.098 402.096 156.52 401.955 157.084C401.673 158.915 401.251 160.747 401.11 162.578C401.11 163.001 400.547 163.424 399.843 163.283C399.984 163.283 399.984 163.283 399.843 163.283Z" fill="#DCEDF9"/>
<path d="M403.926 144.968C404.489 145.109 404.77 145.672 404.63 146.095C404.348 146.94 404.207 147.786 403.926 148.631C403.644 149.617 403.363 150.603 403.222 151.589C403.081 152.153 402.518 152.435 401.955 152.294C401.392 152.153 401.11 151.73 401.251 151.167C401.532 150.181 401.673 149.194 401.955 148.208C402.236 147.363 402.377 146.518 402.659 145.672C402.799 145.109 403.363 144.827 403.926 144.968Z" fill="#DCEDF9"/>
<path d="M416.596 120.595C416.314 121.018 415.892 121.159 415.469 121.018C415.329 121.018 415.329 121.018 415.188 120.877C414.765 120.595 414.625 120.032 414.906 119.609C416.033 118.059 417.159 116.369 418.285 114.96C418.567 114.537 419.271 114.396 419.693 114.678C420.115 114.96 420.256 115.523 419.975 115.946C418.708 117.496 417.581 119.046 416.596 120.595Z" fill="#DCEDF9"/>
<path d="M466.999 83.5431C465.169 84.1067 463.339 84.8111 461.508 85.5155C461.368 85.6564 461.086 85.6564 460.945 85.5155C460.664 85.3746 460.382 85.2337 460.241 84.952C459.96 84.5293 460.241 83.9658 460.804 83.684C462.635 82.9796 464.606 82.2752 466.436 81.7117C466.999 81.5708 467.562 81.8526 467.703 82.2752C467.844 82.8387 467.562 83.4023 466.999 83.5431Z" fill="#DCEDF9"/>
<path d="M450.808 90.4464C450.527 90.5873 450.245 90.5873 450.105 90.5873C449.823 90.5873 449.541 90.3055 449.401 90.1646C449.119 89.742 449.26 89.1784 449.823 88.8967C451.512 87.9105 453.343 87.0652 455.173 86.2199C455.736 85.9381 456.299 86.2199 456.581 86.6426C456.862 87.0652 456.581 87.6287 456.158 87.9105C454.328 88.6149 452.498 89.4602 450.808 90.4464Z" fill="#DCEDF9"/>
<path d="M431.662 103.548C431.381 103.83 431.099 103.83 430.677 103.83C430.536 103.83 430.395 103.689 430.254 103.548C429.832 103.126 429.832 102.562 430.254 102.14C431.662 100.872 433.211 99.6038 434.759 98.3358C435.182 98.054 435.886 98.054 436.167 98.4767C436.59 98.8993 436.449 99.4629 436.027 99.7446C434.619 101.013 433.07 102.281 431.662 103.548Z" fill="#DCEDF9"/>
<path d="M440.814 96.3635C440.532 96.5043 440.25 96.6452 439.969 96.5043C439.687 96.5043 439.546 96.3635 439.406 96.0817C439.124 95.659 439.124 95.0955 439.687 94.8138C441.377 93.6867 442.925 92.5596 444.756 91.5734C445.178 91.2917 445.882 91.4326 446.164 91.8552C446.445 92.2779 446.304 92.8414 445.882 93.1232C444.052 94.2502 442.362 95.3773 440.814 96.3635Z" fill="#DCEDF9"/>
<path d="M423.495 111.579C423.213 111.861 422.791 112.001 422.509 111.861C422.369 111.861 422.228 111.72 422.087 111.72C421.665 111.438 421.665 110.733 421.946 110.452C423.213 109.043 424.621 107.493 425.888 106.225C426.311 105.803 426.874 105.803 427.296 106.225C427.719 106.648 427.719 107.211 427.296 107.634C426.029 108.761 424.762 110.17 423.495 111.579Z" fill="#DCEDF9"/>
<path d="M473.194 75.5128L471.223 59.734L524.723 67.4825L473.194 75.5128Z" fill="#008EFF"/>
<path d="M524.723 67.4825L475.306 79.5984H475.165L472.631 82.4161L473.194 75.5128L524.723 67.4825Z" fill="#0077EB"/>
<path d="M472.631 82.4161H477.136L475.165 79.5984L472.631 82.4161Z" fill="#0059D3"/>
<path d="M481.359 78.0487L475.164 79.5984L485.301 94.1093L524.722 67.4825L481.359 78.0487Z" fill="#008EFF"/>
<path d="M519.549 250.056L536.422 237.337C537.134 236.799 538.117 236.799 538.83 237.337L555.702 250.056" stroke="url(#paint0_linear)" stroke-width="4" stroke-linecap="round"/>
<path d="M521.213 274.071C521.086 274.071 520.96 274.023 520.863 273.927C520.671 273.734 520.671 273.421 520.863 273.228L524.912 269.179C525.105 268.987 525.418 268.987 525.611 269.179C525.804 269.372 525.804 269.685 525.611 269.878L521.562 273.927C521.465 274.023 521.339 274.071 521.213 274.071Z" fill="#FF002E"/>
<path d="M524.978 274.606C524.852 274.606 524.725 274.557 524.629 274.461C524.436 274.268 524.436 273.955 524.629 273.763L528.94 269.451C529.133 269.258 529.446 269.258 529.639 269.451C529.832 269.644 529.832 269.957 529.639 270.15L525.327 274.461C525.231 274.557 525.105 274.606 524.978 274.606Z" fill="#FF002E"/>
<path d="M520.599 270.374C520.473 270.374 520.347 270.326 520.25 270.23C520.057 270.037 520.057 269.724 520.25 269.531L524.299 265.482C524.492 265.289 524.804 265.289 524.997 265.482C525.19 265.675 525.19 265.988 524.997 266.181L520.948 270.23C520.852 270.326 520.726 270.374 520.599 270.374Z" fill="#FF002E"/>
<path d="M537.592 269.052C544.16 269.052 549.485 263.727 549.485 257.159C549.485 250.591 544.16 245.266 537.592 245.266C531.024 245.266 525.699 250.591 525.699 257.159C525.699 263.727 531.024 269.052 537.592 269.052Z" fill="url(#paint1_linear)"/>
<path d="M544.265 247.313C545.557 249.216 546.312 251.513 546.312 253.986C546.312 260.555 540.987 265.879 534.419 265.879C531.946 265.879 529.649 265.124 527.746 263.832C529.885 266.982 533.497 269.052 537.592 269.052C544.16 269.052 549.485 263.727 549.485 257.159C549.485 253.064 547.415 249.453 544.265 247.313Z" fill="#FF002E"/>
<path d="M537.592 269.546C530.762 269.546 525.205 263.989 525.205 257.159C525.205 250.329 530.762 244.772 537.592 244.772C544.422 244.772 549.979 250.329 549.979 257.159C549.979 263.989 544.422 269.546 537.592 269.546ZM537.592 245.76C531.306 245.76 526.193 250.873 526.193 257.159C526.193 263.444 531.306 268.558 537.592 268.558C543.877 268.558 548.991 263.444 548.991 257.159C548.991 250.873 543.877 245.76 537.592 245.76Z" fill="#FFECCF"/>
<path d="M530.032 276.991L528.583 275.542C528.316 275.275 528.316 274.842 528.583 274.575L535.792 267.367C536.213 266.945 536.773 266.713 537.369 266.713C537.966 266.713 538.526 266.945 538.947 267.367L541.713 270.132L549.911 261.934L552.327 264.349L543.291 273.385C542.421 274.255 541.005 274.255 540.135 273.385L537.369 270.619L530.998 276.991C530.731 277.257 530.299 277.257 530.032 276.991Z" fill="#00B2FF"/>
<path d="M543.291 271.88C542.42 272.75 541.005 272.75 540.135 271.88L537.369 269.114L530.998 275.486C530.731 275.753 530.299 275.753 530.032 275.486L528.852 274.306L528.583 274.576C528.316 274.842 528.316 275.275 528.583 275.542L530.032 276.991C530.299 277.258 530.731 277.258 530.998 276.991L537.369 270.619L540.135 273.385C541.005 274.255 542.421 274.255 543.291 273.385L552.327 264.349L551.574 263.597L543.291 271.88Z" fill="#585EF9"/>
<path d="M552.628 270.16H550.579C550.202 270.16 549.896 269.854 549.896 269.477V265.012C549.896 264.634 549.59 264.329 549.213 264.329H544.748C544.37 264.329 544.064 264.023 544.064 263.646V261.596C544.064 261.219 544.37 260.913 544.748 260.913H552.628C553.006 260.913 553.312 261.219 553.312 261.596V269.477C553.312 269.854 553.006 270.16 552.628 270.16Z" fill="#00B2FF"/>
<path d="M552.629 260.913H552.359V268.524C552.359 268.901 552.053 269.207 551.676 269.207H549.896V269.477C549.896 269.854 550.202 270.16 550.58 270.16H552.629C553.006 270.16 553.312 269.854 553.312 269.477V261.596C553.312 261.219 553.006 260.913 552.629 260.913Z" fill="#585EF9"/>
<path fill-rule="evenodd" clip-rule="evenodd" d="M535.783 252.645H536.246V254.035H535.783V252.645ZM537.738 254.228C538.677 254.228 539.42 254.428 539.965 254.828C540.51 255.229 540.782 255.792 540.782 256.518C540.782 256.789 540.731 257.031 540.627 257.245C540.533 257.459 540.406 257.645 540.247 257.803C540.096 257.952 539.923 258.078 539.725 258.181C539.537 258.283 539.345 258.357 539.147 258.404C539.41 258.451 539.655 258.53 539.88 258.641C540.115 258.744 540.317 258.884 540.486 259.061C540.665 259.237 540.801 259.452 540.895 259.703C540.998 259.945 541.05 260.224 541.05 260.541C541.05 260.904 540.97 261.239 540.811 261.547C540.651 261.845 540.421 262.105 540.12 262.329C539.829 262.552 539.471 262.725 539.049 262.846C538.635 262.967 538.175 263.027 537.667 263.027H537.634V264.223H537.171V263.027H536.246V264.223H535.783V263.027H534.566V254.228H537.738ZM536.497 257.748H537.414C537.836 257.748 538.17 257.659 538.414 257.482C538.668 257.296 538.795 257.021 538.795 256.658C538.795 256.332 538.677 256.09 538.443 255.932C538.217 255.764 537.888 255.68 537.456 255.68H536.497V257.748ZM536.497 261.575H537.414C537.893 261.575 538.287 261.486 538.598 261.309C538.908 261.123 539.063 260.806 539.063 260.359C539.063 259.94 538.898 259.642 538.569 259.466C538.241 259.279 537.836 259.186 537.357 259.186H536.497V261.575ZM537.171 252.645H537.634V254.035H537.171V252.645Z" fill="white"/>
<path d="M552.18 241.064C552.18 241.064 552.18 236.244 557 236.244C557 236.244 552.18 236.244 552.18 231.423C552.18 231.423 552.18 236.244 547.359 236.244C547.359 236.244 552.18 236.244 552.18 241.064Z" fill="url(#paint2_linear)"/>
<path d="M519.827 242.548C519.827 242.548 519.827 239.488 522.886 239.488C522.886 239.488 519.827 239.488 519.827 236.429C519.827 236.429 519.827 239.488 516.768 239.488C516.768 239.488 519.827 239.488 519.827 242.548Z" fill="url(#paint3_linear)"/>
<path d="M255.051 282.943L306.18 244.399C306.893 243.862 307.875 243.862 308.588 244.399L359.717 282.943" stroke="url(#paint4_linear)" stroke-width="4" stroke-linecap="round"/>
<path d="M259.867 352.468C259.501 352.468 259.135 352.328 258.856 352.049C258.298 351.491 258.298 350.585 258.856 350.027L270.578 338.305C271.137 337.747 272.042 337.747 272.6 338.305C273.158 338.863 273.158 339.769 272.6 340.327L260.878 352.049C260.599 352.328 260.233 352.468 259.867 352.468Z" fill="#FF002E"/>
<path d="M270.771 354.014C270.406 354.014 270.04 353.875 269.76 353.595C269.202 353.037 269.202 352.132 269.76 351.574L282.242 339.092C282.8 338.534 283.706 338.534 284.264 339.092C284.822 339.65 284.822 340.556 284.264 341.114L271.782 353.595C271.503 353.875 271.137 354.014 270.771 354.014Z" fill="#FF002E"/>
<path d="M258.092 341.764C257.726 341.764 257.36 341.624 257.081 341.345C256.523 340.787 256.523 339.882 257.081 339.323L268.803 327.602C269.361 327.043 270.266 327.043 270.824 327.602C271.383 328.16 271.383 329.065 270.824 329.623L259.103 341.345C258.823 341.624 258.457 341.764 258.092 341.764Z" fill="#FF002E"/>
<path d="M307.286 337.936C326.301 337.936 341.716 322.521 341.716 303.506C341.716 284.49 326.301 269.075 307.286 269.075C288.271 269.075 272.855 284.49 272.855 303.506C272.855 322.521 288.271 337.936 307.286 337.936Z" fill="url(#paint5_linear)"/>
<path d="M326.607 275.002C330.348 280.511 332.534 287.16 332.534 294.321C332.534 313.336 317.119 328.751 298.103 328.751C290.943 328.751 284.294 326.565 278.785 322.824C284.979 331.944 295.433 337.936 307.288 337.936C326.304 337.936 341.719 322.521 341.719 303.506C341.719 291.65 335.727 281.196 326.607 275.002Z" fill="#FF002E"/>
<path d="M307.286 339.366C287.512 339.366 271.426 323.279 271.426 303.505C271.426 283.732 287.512 267.646 307.286 267.646C327.059 267.646 343.146 283.732 343.146 303.506C343.146 323.279 327.059 339.366 307.286 339.366ZM307.286 270.504C289.089 270.504 274.285 285.309 274.285 303.505C274.285 321.702 289.089 336.507 307.286 336.507C325.483 336.507 340.287 321.702 340.287 303.505C340.287 285.309 325.483 270.504 307.286 270.504Z" fill="#FFECCF"/>
<path d="M285.404 360.919L281.208 356.724C280.436 355.951 280.436 354.699 281.208 353.927L302.078 333.057C303.298 331.837 304.92 331.165 306.645 331.165C308.371 331.165 309.994 331.837 311.214 333.058L319.22 341.064L342.955 317.329L349.947 324.321L323.788 350.48C321.269 352.999 317.171 352.998 314.652 350.48L306.646 342.473L288.2 360.919C287.428 361.691 286.176 361.691 285.404 360.919Z" fill="#00B2FF"/>
<path d="M323.788 346.124C321.269 348.642 317.171 348.642 314.652 346.124L306.645 338.117L288.2 356.562C287.428 357.335 286.176 357.335 285.403 356.562L281.988 353.147L281.208 353.927C280.436 354.699 280.436 355.952 281.208 356.724L285.404 360.919C286.176 361.692 287.428 361.692 288.2 360.919L306.646 342.474L314.652 350.48C317.171 352.999 321.269 352.999 323.788 350.48L349.947 324.321L347.769 322.143L323.788 346.124Z" fill="#585EF9"/>
<path d="M350.817 341.144H344.884C343.792 341.144 342.906 340.259 342.906 339.167V326.239C342.906 325.147 342.021 324.262 340.929 324.262H328.001C326.909 324.262 326.023 323.377 326.023 322.284V316.351C326.023 315.259 326.909 314.374 328.001 314.374H350.817C351.909 314.374 352.794 315.259 352.794 316.351V339.167C352.794 340.259 351.909 341.144 350.817 341.144Z" fill="#00B2FF"/>
<path d="M350.819 314.374H350.037V336.408C350.037 337.5 349.152 338.386 348.06 338.386H342.908V339.167C342.908 340.259 343.794 341.144 344.886 341.144H350.819C351.911 341.144 352.796 340.259 352.796 339.167V316.351C352.796 315.259 351.911 314.374 350.819 314.374Z" fill="#585EF9"/>
<path fill-rule="evenodd" clip-rule="evenodd" d="M302.05 290.438H303.391V294.461H302.05V290.438ZM307.711 295.02C310.431 295.02 312.58 295.599 314.158 296.758C315.736 297.918 316.525 299.549 316.525 301.651C316.525 302.433 316.375 303.134 316.076 303.754C315.804 304.374 315.436 304.913 314.974 305.371C314.539 305.803 314.035 306.166 313.464 306.463C312.92 306.76 312.362 306.975 311.791 307.11C312.553 307.245 313.26 307.474 313.913 307.797C314.593 308.094 315.178 308.498 315.668 309.01C316.185 309.523 316.579 310.143 316.851 310.87C317.15 311.571 317.3 312.38 317.3 313.297C317.3 314.348 317.069 315.318 316.606 316.208C316.144 317.071 315.477 317.825 314.607 318.472C313.763 319.119 312.73 319.618 311.506 319.969C310.309 320.319 308.976 320.494 307.507 320.494H307.408V323.957H306.068V320.494H303.391V323.957H302.05V320.494H298.529V295.02H307.711ZM304.12 305.21H306.772C307.996 305.21 308.962 304.953 309.669 304.441C310.404 303.902 310.771 303.107 310.771 302.056C310.771 301.112 310.431 300.411 309.751 299.953C309.098 299.468 308.146 299.225 306.894 299.225H304.12V305.21ZM304.12 316.289H306.772C308.159 316.289 309.302 316.033 310.2 315.521C311.097 314.981 311.546 314.065 311.546 312.771C311.546 311.558 311.07 310.695 310.118 310.183C309.166 309.644 307.996 309.374 306.609 309.374H304.12V316.289ZM306.068 290.438H307.408V294.461H306.068V290.438Z" fill="white"/>
<path d="M349.522 256.911C349.522 256.911 349.522 242.955 363.477 242.955C363.477 242.955 349.522 242.955 349.522 229C349.522 229 349.522 242.955 335.566 242.955C335.566 242.955 349.522 242.955 349.522 256.911Z" fill="url(#paint6_linear)"/>
<path d="M255.856 261.205C255.856 261.205 255.856 252.348 264.713 252.348C264.713 252.348 255.856 252.348 255.856 243.492C255.856 243.492 255.856 252.348 247 252.348C247 252.348 255.856 252.348 255.856 261.205Z" fill="url(#paint7_linear)"/>
<path d="M292.09 94.0014L304.47 84.669C305.182 84.1317 306.165 84.1317 306.877 84.669L319.257 94.0014" stroke="url(#paint8_linear)" stroke-width="4" stroke-linecap="round"/>
<path d="M293.34 112.047C293.245 112.047 293.15 112.011 293.077 111.939C292.933 111.794 292.933 111.559 293.077 111.414L296.12 108.371C296.265 108.226 296.5 108.226 296.645 108.371C296.79 108.516 296.79 108.751 296.645 108.896L293.602 111.939C293.53 112.011 293.435 112.047 293.34 112.047Z" fill="#FF002E"/>
<path d="M296.17 112.449C296.075 112.449 295.98 112.413 295.907 112.34C295.763 112.195 295.763 111.96 295.907 111.815L299.147 108.576C299.292 108.431 299.527 108.431 299.672 108.576C299.817 108.721 299.817 108.955 299.672 109.1L296.432 112.34C296.36 112.413 296.265 112.449 296.17 112.449Z" fill="#FF002E"/>
<path d="M292.879 109.269C292.784 109.269 292.689 109.233 292.616 109.16C292.472 109.016 292.472 108.781 292.616 108.636L295.659 105.593C295.804 105.448 296.039 105.448 296.184 105.593C296.329 105.738 296.329 105.973 296.184 106.118L293.141 109.16C293.069 109.233 292.974 109.269 292.879 109.269Z" fill="#FF002E"/>
<path d="M305.648 108.276C310.583 108.276 314.585 104.274 314.585 99.3387C314.585 94.403 310.583 90.4019 305.648 90.4019C300.712 90.4019 296.711 94.403 296.711 99.3387C296.711 104.274 300.712 108.276 305.648 108.276Z" fill="url(#paint9_linear)"/>
<path d="M310.663 91.9403C311.634 93.3702 312.201 95.0961 312.201 96.9546C312.201 101.89 308.2 105.891 303.264 105.891C301.406 105.891 299.68 105.324 298.25 104.353C299.858 106.72 302.571 108.276 305.648 108.276C310.584 108.276 314.585 104.274 314.585 99.3387C314.585 96.2616 313.03 93.5479 310.663 91.9403Z" fill="#FF002E"/>
<path d="M305.648 108.647C300.515 108.647 296.34 104.471 296.34 99.3387C296.34 94.2062 300.515 90.0308 305.648 90.0308C310.78 90.0308 314.956 94.2063 314.956 99.3387C314.956 104.471 310.78 108.647 305.648 108.647ZM305.648 90.7729C300.925 90.7729 297.082 94.6155 297.082 99.3387C297.082 104.062 300.925 107.905 305.648 107.905C310.371 107.905 314.214 104.062 314.214 99.3387C314.214 94.6155 310.371 90.7729 305.648 90.7729Z" fill="#FFECCF"/>
<path d="M299.968 114.241L298.879 113.152C298.678 112.952 298.678 112.627 298.879 112.426L304.296 107.009C304.613 106.693 305.034 106.518 305.481 106.518C305.929 106.518 306.35 106.693 306.667 107.009L308.745 109.088L314.906 102.927L316.721 104.742L309.931 111.532C309.277 112.185 308.213 112.185 307.56 111.532L305.481 109.453L300.694 114.241C300.493 114.442 300.168 114.442 299.968 114.241Z" fill="#00B2FF"/>
<path d="M309.931 110.401C309.277 111.054 308.213 111.054 307.56 110.401L305.481 108.322L300.694 113.11C300.493 113.311 300.168 113.311 299.968 113.11L299.081 112.224L298.879 112.426C298.678 112.627 298.678 112.952 298.879 113.152L299.968 114.241C300.168 114.442 300.493 114.442 300.694 114.241L305.481 109.453L307.56 111.532C308.213 112.185 309.277 112.185 309.931 111.532L316.721 104.742L316.155 104.176L309.931 110.401Z" fill="#585EF9"/>
<path d="M316.947 109.108H315.407C315.124 109.108 314.894 108.879 314.894 108.595V105.24C314.894 104.956 314.664 104.726 314.381 104.726H311.025C310.742 104.726 310.512 104.496 310.512 104.213V102.673C310.512 102.39 310.742 102.16 311.025 102.16H316.947C317.231 102.16 317.46 102.39 317.46 102.673V108.595C317.46 108.879 317.231 109.108 316.947 109.108Z" fill="#00B2FF"/>
<path d="M316.948 102.16H316.745V107.879C316.745 108.162 316.515 108.392 316.232 108.392H314.895V108.595C314.895 108.879 315.124 109.108 315.408 109.108H316.948C317.231 109.108 317.461 108.879 317.461 108.595V102.673C317.461 102.39 317.231 102.16 316.948 102.16Z" fill="#585EF9"/>
<path fill-rule="evenodd" clip-rule="evenodd" d="M304.289 95.9469H304.637V96.991H304.289V95.9469ZM305.758 97.1361C306.464 97.1361 307.022 97.2866 307.432 97.5874C307.841 97.8883 308.046 98.3116 308.046 98.8574C308.046 99.0603 308.007 99.2422 307.929 99.4032C307.859 99.5641 307.763 99.704 307.643 99.823C307.53 99.9349 307.4 100.029 307.252 100.106C307.11 100.183 306.966 100.239 306.817 100.274C307.015 100.309 307.199 100.369 307.368 100.453C307.545 100.53 307.696 100.635 307.823 100.768C307.958 100.901 308.06 101.061 308.131 101.25C308.208 101.432 308.247 101.642 308.247 101.88C308.247 102.153 308.187 102.405 308.067 102.636C307.947 102.86 307.774 103.056 307.548 103.224C307.329 103.391 307.061 103.521 306.743 103.612C306.432 103.703 306.086 103.748 305.705 103.748H305.681V104.647H305.333V103.748H304.637V104.647H304.289V103.748H303.375V97.1361H305.758ZM304.826 99.781H305.515C305.832 99.781 306.083 99.7145 306.267 99.5816C306.457 99.4416 306.552 99.2352 306.552 98.9623C306.552 98.7174 306.464 98.5355 306.288 98.4166C306.118 98.2906 305.871 98.2277 305.546 98.2277H304.826V99.781ZM304.826 102.657H305.515C305.875 102.657 306.171 102.59 306.404 102.457C306.637 102.317 306.754 102.08 306.754 101.744C306.754 101.429 306.63 101.205 306.383 101.072C306.136 100.932 305.832 100.862 305.472 100.862H304.826V102.657ZM305.333 95.9469H305.681V96.991H305.333V95.9469Z" fill="white"/>
<path d="M316.611 87.2444C316.611 87.2444 316.611 83.6221 320.233 83.6221C320.233 83.6221 316.611 83.6221 316.611 79.9998C316.611 79.9998 316.611 83.6221 312.988 83.6221C312.988 83.6221 316.611 83.6221 316.611 87.2444Z" fill="url(#paint10_linear)"/>
<path d="M292.299 88.359C292.299 88.359 292.299 86.0602 294.598 86.0602C294.598 86.0602 292.299 86.0602 292.299 83.7614C292.299 83.7614 292.299 86.0602 290 86.0602C290 86.0602 292.299 86.0602 292.299 88.359Z" fill="url(#paint11_linear)"/>
<path d="M134.643 294.007L144.118 286.865C144.83 286.327 145.813 286.327 146.525 286.865L156.001 294.007" stroke="url(#paint12_linear)" stroke-width="4" stroke-linecap="round"/>
<path d="M135.626 308.194C135.551 308.194 135.476 308.166 135.419 308.109C135.306 307.995 135.306 307.81 135.419 307.696L137.811 305.305C137.925 305.191 138.11 305.191 138.224 305.305C138.338 305.418 138.338 305.603 138.224 305.717L135.832 308.109C135.775 308.166 135.7 308.194 135.626 308.194Z" fill="#FF002E"/>
<path d="M137.85 308.51C137.776 308.51 137.701 308.482 137.644 308.425C137.53 308.311 137.53 308.126 137.644 308.012L140.191 305.465C140.305 305.351 140.49 305.351 140.604 305.465C140.717 305.579 140.717 305.764 140.604 305.878L138.057 308.425C138 308.482 137.925 308.51 137.85 308.51Z" fill="#FF002E"/>
<path d="M135.262 306.01C135.188 306.01 135.113 305.982 135.056 305.925C134.942 305.811 134.942 305.626 135.056 305.512L137.448 303.12C137.562 303.006 137.747 303.006 137.861 303.12C137.975 303.234 137.975 303.419 137.861 303.533L135.469 305.925C135.412 305.982 135.337 306.01 135.262 306.01Z" fill="#FF002E"/>
<path d="M145.301 305.229C149.181 305.229 152.327 302.084 152.327 298.203C152.327 294.323 149.181 291.178 145.301 291.178C141.421 291.178 138.275 294.323 138.275 298.203C138.275 302.084 141.421 305.229 145.301 305.229Z" fill="url(#paint13_linear)"/>
<path d="M149.245 292.387C150.008 293.511 150.454 294.868 150.454 296.329C150.454 300.209 147.309 303.355 143.428 303.355C141.967 303.355 140.61 302.909 139.486 302.145C140.75 304.006 142.884 305.229 145.303 305.229C149.183 305.229 152.329 302.084 152.329 298.203C152.329 295.784 151.106 293.651 149.245 292.387Z" fill="#FF002E"/>
<path d="M145.302 305.521C141.267 305.521 137.984 302.238 137.984 298.203C137.984 294.168 141.267 290.886 145.302 290.886C149.337 290.886 152.619 294.168 152.619 298.203C152.619 302.238 149.337 305.521 145.302 305.521ZM145.302 291.469C141.589 291.469 138.568 294.49 138.568 298.203C138.568 301.917 141.589 304.937 145.302 304.937C149.015 304.937 152.036 301.917 152.036 298.203C152.036 294.49 149.015 291.469 145.302 291.469Z" fill="#FFECCF"/>
<path d="M140.836 309.919L139.98 309.063C139.822 308.905 139.822 308.65 139.98 308.492L144.238 304.234C144.487 303.985 144.818 303.848 145.17 303.848C145.522 303.848 145.853 303.985 146.102 304.234L147.736 305.868L152.579 301.024L154.006 302.451L148.668 307.789C148.154 308.303 147.318 308.303 146.804 307.789L145.17 306.155L141.406 309.919C141.249 310.077 140.993 310.077 140.836 309.919Z" fill="#00B2FF"/>
<path d="M148.668 306.9C148.154 307.414 147.318 307.414 146.804 306.9L145.17 305.266L141.406 309.03C141.249 309.188 140.993 309.188 140.836 309.03L140.139 308.333L139.98 308.492C139.822 308.65 139.822 308.905 139.98 309.063L140.836 309.919C140.993 310.077 141.249 310.077 141.406 309.919L145.17 306.155L146.804 307.789C147.318 308.303 148.154 308.303 148.668 307.789L154.006 302.451L153.562 302.006L148.668 306.9Z" fill="#585EF9"/>
<path d="M154.184 305.884H152.974C152.751 305.884 152.57 305.703 152.57 305.48V302.842C152.57 302.619 152.389 302.439 152.167 302.439H149.529C149.306 302.439 149.125 302.258 149.125 302.035V300.825C149.125 300.602 149.306 300.421 149.529 300.421H154.184C154.407 300.421 154.588 300.602 154.588 300.825V305.48C154.588 305.703 154.407 305.884 154.184 305.884Z" fill="#00B2FF"/>
<path d="M154.184 300.421H154.025V304.917C154.025 305.14 153.844 305.321 153.622 305.321H152.57V305.48C152.57 305.703 152.751 305.884 152.974 305.884H154.184C154.407 305.884 154.588 305.703 154.588 305.48V300.825C154.588 300.602 154.407 300.421 154.184 300.421Z" fill="#585EF9"/>
<path fill-rule="evenodd" clip-rule="evenodd" d="M144.234 295.537H144.508V296.358H144.234V295.537ZM145.389 296.472C145.944 296.472 146.383 296.59 146.705 296.827C147.027 297.063 147.188 297.396 147.188 297.825C147.188 297.984 147.157 298.127 147.096 298.254C147.041 298.381 146.966 298.491 146.871 298.584C146.782 298.672 146.68 298.746 146.563 298.807C146.452 298.867 146.338 298.911 146.222 298.939C146.377 298.966 146.522 299.013 146.655 299.079C146.794 299.14 146.913 299.222 147.013 299.327C147.118 299.431 147.199 299.558 147.254 299.706C147.315 299.849 147.346 300.014 147.346 300.201C147.346 300.416 147.299 300.614 147.204 300.795C147.11 300.971 146.974 301.125 146.796 301.257C146.624 301.389 146.413 301.491 146.164 301.563C145.919 301.634 145.647 301.67 145.348 301.67H145.328V302.377H145.054V301.67H144.508V302.377H144.234V301.67H143.516V296.472H145.389ZM144.656 298.551H145.198C145.447 298.551 145.644 298.499 145.789 298.394C145.939 298.284 146.014 298.122 146.014 297.907C146.014 297.715 145.944 297.572 145.805 297.478C145.672 297.379 145.478 297.33 145.223 297.33H144.656V298.551ZM144.656 300.812H145.198C145.481 300.812 145.714 300.76 145.897 300.655C146.08 300.545 146.172 300.358 146.172 300.094C146.172 299.846 146.075 299.67 145.88 299.566C145.686 299.456 145.447 299.401 145.164 299.401H144.656V300.812ZM145.054 295.537H145.328V296.358H145.054V295.537Z" fill="white"/>
<path d="M153.92 288.695C153.92 288.695 153.92 285.848 156.768 285.848C156.768 285.848 153.92 285.848 153.92 283C153.92 283 153.92 285.848 151.072 285.848C151.072 285.848 153.92 285.848 153.92 288.695Z" fill="url(#paint14_linear)"/>
<path d="M134.807 289.571C134.807 289.571 134.807 287.764 136.614 287.764C136.614 287.764 134.807 287.764 134.807 285.957C134.807 285.957 134.807 287.764 133 287.764C133 287.764 134.807 287.764 134.807 289.571Z" fill="url(#paint15_linear)"/>
</g>
<defs>
<linearGradient id="paint0_linear" x1="519.549" y1="243.339" x2="555.702" y2="243.339" gradientUnits="userSpaceOnUse">
<stop stop-color="#FF002E"/>
<stop offset="1" stop-color="#FF7A00"/>
</linearGradient>
<linearGradient id="paint1_linear" x1="525.699" y1="257.327" x2="549.485" y2="257.327" gradientUnits="userSpaceOnUse">
<stop stop-color="#FF002E"/>
<stop offset="1" stop-color="#FF7A00"/>
</linearGradient>
<linearGradient id="paint2_linear" x1="547.359" y1="236.176" x2="557" y2="236.176" gradientUnits="userSpaceOnUse">
<stop stop-color="#FF002E"/>
<stop offset="1" stop-color="#FF7A00"/>
</linearGradient>
<linearGradient id="paint3_linear" x1="516.768" y1="239.445" x2="522.886" y2="239.445" gradientUnits="userSpaceOnUse">
<stop stop-color="#FF002E"/>
<stop offset="1" stop-color="#FF7A00"/>
</linearGradient>
<linearGradient id="paint4_linear" x1="255.051" y1="263.495" x2="359.717" y2="263.495" gradientUnits="userSpaceOnUse">
<stop stop-color="#FF002E"/>
<stop offset="1" stop-color="#FF7A00"/>
</linearGradient>
<linearGradient id="paint5_linear" x1="272.855" y1="303.991" x2="341.716" y2="303.991" gradientUnits="userSpaceOnUse">
<stop stop-color="#FF002E"/>
<stop offset="1" stop-color="#FF7A00"/>
</linearGradient>
<linearGradient id="paint6_linear" x1="335.566" y1="242.759" x2="363.477" y2="242.759" gradientUnits="userSpaceOnUse">
<stop stop-color="#FF002E"/>
<stop offset="1" stop-color="#FF7A00"/>
</linearGradient>
<linearGradient id="paint7_linear" x1="247" y1="252.224" x2="264.713" y2="252.224" gradientUnits="userSpaceOnUse">
<stop stop-color="#FF002E"/>
<stop offset="1" stop-color="#FF7A00"/>
</linearGradient>
<linearGradient id="paint8_linear" x1="292.09" y1="88.9535" x2="319.257" y2="88.9535" gradientUnits="userSpaceOnUse">
<stop stop-color="#FF002E"/>
<stop offset="1" stop-color="#FF7A00"/>
</linearGradient>
<linearGradient id="paint9_linear" x1="296.711" y1="99.4646" x2="314.585" y2="99.4646" gradientUnits="userSpaceOnUse">
<stop stop-color="#FF002E"/>
<stop offset="1" stop-color="#FF7A00"/>
</linearGradient>
<linearGradient id="paint10_linear" x1="312.988" y1="83.5711" x2="320.233" y2="83.5711" gradientUnits="userSpaceOnUse">
<stop stop-color="#FF002E"/>
<stop offset="1" stop-color="#FF7A00"/>
</linearGradient>
<linearGradient id="paint11_linear" x1="290" y1="86.0278" x2="294.598" y2="86.0278" gradientUnits="userSpaceOnUse">
<stop stop-color="#FF002E"/>
<stop offset="1" stop-color="#FF7A00"/>
</linearGradient>
<linearGradient id="paint12_linear" x1="134.643" y1="290.039" x2="156.001" y2="290.039" gradientUnits="userSpaceOnUse">
<stop stop-color="#FF002E"/>
<stop offset="1" stop-color="#FF7A00"/>
</linearGradient>
<linearGradient id="paint13_linear" x1="138.275" y1="298.302" x2="152.327" y2="298.302" gradientUnits="userSpaceOnUse">
<stop stop-color="#FF002E"/>
<stop offset="1" stop-color="#FF7A00"/>
</linearGradient>
<linearGradient id="paint14_linear" x1="151.072" y1="285.807" x2="156.768" y2="285.807" gradientUnits="userSpaceOnUse">
<stop stop-color="#FF002E"/>
<stop offset="1" stop-color="#FF7A00"/>
</linearGradient>
<linearGradient id="paint15_linear" x1="133" y1="287.739" x2="136.614" y2="287.739" gradientUnits="userSpaceOnUse">
<stop stop-color="#FF002E"/>
<stop offset="1" stop-color="#FF7A00"/>
</linearGradient>
<clipPath id="clip0">
<rect width="642" height="530" fill="white" transform="translate(0 -0.000183105)"/>
</clipPath>
</defs>
</svg>
