<svg width="157" height="140" viewBox="0 0 157 140" fill="none" xmlns="http://www.w3.org/2000/svg">
<path d="M74.6381 56.4167C75.7048 56.15 76.2381 56.6167 76.2381 57.8167C76.3714 58.2167 76.2381 58.6167 75.8381 59.0167C75.5714 59.2833 75.2381 59.4167 74.8381 59.4167C67.7714 60.0833 60.5714 61.6167 53.2381 64.0167C45.9048 66.2833 39.0381 68.95 32.6381 72.0167C26.2381 82.15 20.5714 91.8833 15.6381 101.217C17.5048 102.817 18.9714 104.483 20.0381 106.217C20.9714 107.95 21.7048 109.617 22.2381 111.217C22.7714 112.95 23.1048 114.483 23.2381 115.817C23.2381 117.283 23.2381 118.483 23.2381 119.417C22.9714 124.083 21.4381 128.283 18.6381 132.017C15.8381 135.75 12.4381 138.083 8.43809 139.017C7.90476 139.15 7.17143 139.217 6.2381 139.217C4.77143 139.217 3.70476 138.883 3.0381 138.217C2.23809 137.683 1.70476 137.083 1.4381 136.417C0.238095 133.883 0.638095 129.55 2.63809 123.417C4.50476 117.417 7.50476 110.283 11.6381 102.017C9.50476 100.417 6.77143 99.0167 3.43809 97.8167C0.904761 97.0167 -0.228572 95.4833 0.0380954 93.2167C0.171429 91.8833 1.10476 90.2833 2.8381 88.4167C4.43809 86.55 6.57143 84.55 9.2381 82.4167C11.9048 80.2833 15.0381 78.15 18.6381 76.0167C22.2381 73.75 26.1714 71.6167 30.4381 69.6167C34.9714 62.4167 39.6381 55.2833 44.4381 48.2167C49.3714 41.0167 54.1714 34.35 58.8381 28.2167C63.6381 22.0833 68.1048 16.6167 72.2381 11.8167C76.3714 6.88333 80.0381 3.08333 83.2381 0.41667C84.1714 -0.25 84.9048 -0.116668 85.4381 0.816665C86.1048 1.35 86.1048 2.08333 85.4381 3.01667C82.2381 5.68333 78.6381 9.28334 74.6381 13.8167C70.7714 18.2167 66.6381 23.2833 62.2381 29.0167C57.8381 34.6167 53.3714 40.6833 48.8381 47.2167C44.3048 53.75 39.9048 60.35 35.6381 67.0167C41.9048 64.35 48.3714 62.0833 55.0381 60.2167C61.7048 58.2167 68.2381 56.95 74.6381 56.4167ZM20.2381 119.217C20.5048 116.283 20.1048 113.55 19.0381 111.017C17.8381 108.483 16.2381 106.217 14.2381 104.217C10.3714 111.817 7.50476 118.35 5.63809 123.817C3.63809 129.283 3.17143 133.017 4.23809 135.017C4.37143 135.283 4.63809 135.55 5.03809 135.817C5.43809 136.217 6.37143 136.217 7.83809 135.817C11.0381 135.15 13.8381 133.217 16.2381 130.017C18.6381 126.817 19.9714 123.217 20.2381 119.217ZM13.2381 99.2167C15.2381 95.35 17.4381 91.35 19.8381 87.2167C22.1048 83.2167 24.5714 79.0833 27.2381 74.8167C20.4381 78.4167 14.8381 81.95 10.4381 85.4167C6.03809 88.8833 3.70476 91.6167 3.43809 93.6167C3.17143 94.2833 3.50476 94.75 4.4381 95.0167C7.77143 96.0833 10.7048 97.4833 13.2381 99.2167Z" fill="white"/>
<path d="M72.1897 78.0167C70.5897 78.0167 69.1897 77.75 67.9897 77.2167C65.1897 76.0167 63.923 73.75 64.1897 70.4167C64.323 67.75 65.523 64.95 67.7897 62.0167C69.923 58.95 72.6563 56.8833 75.9897 55.8167C76.123 55.2833 76.2563 54.8167 76.3897 54.4167C76.523 53.8833 76.6563 53.35 76.7897 52.8167C77.4563 50.6833 78.4563 48.6833 79.7897 46.8167C81.2563 44.8167 82.8563 43.15 84.5897 41.8167C86.4563 40.35 88.3897 39.35 90.3897 38.8167C92.523 38.2833 94.6563 38.2833 96.7897 38.8167C99.4563 39.6167 100.99 41.35 101.39 44.0167C102.056 46.6833 101.523 49.8167 99.7897 53.4167C98.1897 57.0167 96.0563 60.55 93.3897 64.0167C98.0563 63.75 103.056 62.95 108.39 61.6167C113.723 60.15 118.323 58.35 122.19 56.2167C123.256 55.6833 123.99 55.8833 124.39 56.8167C124.79 57.75 124.523 58.4167 123.59 58.8167C121.323 60.0167 118.79 61.15 115.99 62.2167C113.323 63.2833 110.523 64.2167 107.59 65.0167C104.656 65.6833 101.723 66.2167 98.7897 66.6167C95.8563 67.0167 93.123 67.2833 90.5897 67.4167C89.6563 68.35 88.723 69.2833 87.7897 70.2167C86.9897 71.0167 86.0563 71.8167 84.9897 72.6167C80.5897 76.2167 76.323 78.0167 72.1897 78.0167ZM75.9897 59.2167C73.4563 60.2833 71.4563 61.95 69.9897 64.2167C68.3897 66.4833 67.523 68.55 67.3897 70.4167C67.2563 72.4167 67.923 73.6833 69.3897 74.2167C71.6563 75.2833 74.123 75.2167 76.7897 74.0167C79.4563 72.6833 81.523 71.35 82.9897 70.0167C84.1897 69.2167 85.323 68.2833 86.3897 67.2167C84.6563 67.0833 83.0563 66.75 81.5897 66.2167C78.2563 65.0167 76.3897 62.6833 75.9897 59.2167ZM93.3897 41.6167C90.5897 41.6167 87.8563 42.8833 85.1897 45.4167C82.6563 47.8167 80.8563 50.6167 79.7897 53.8167C79.523 54.35 79.323 55.0833 79.1897 56.0167C79.0563 56.8167 78.9897 57.6833 78.9897 58.6167C79.123 59.55 79.4563 60.4833 79.9897 61.4167C80.523 62.2167 81.3897 62.8833 82.5897 63.4167C83.3897 63.6833 84.323 63.8833 85.3897 64.0167C86.5897 64.15 87.8563 64.2167 89.1897 64.2167C92.2563 60.75 94.6563 57.2167 96.3897 53.6167C98.123 49.8833 98.7897 46.8833 98.3897 44.6167C97.9897 43.2833 97.123 42.35 95.7897 41.8167C95.523 41.6833 95.123 41.6167 94.5897 41.6167C94.1897 41.6167 93.7897 41.6167 93.3897 41.6167Z" fill="white"/>
<path d="M110.632 84.6167C110.499 84.6167 110.365 84.6167 110.232 84.6167C110.099 84.4833 109.965 84.4167 109.832 84.4167C109.032 83.75 108.832 83.0167 109.232 82.2167L122.232 57.0167C122.765 56.0833 123.432 55.8833 124.232 56.4167C125.299 56.8167 125.565 57.55 125.032 58.6167L118.232 72.0167C120.232 69.75 122.499 67.4167 125.032 65.0167C127.565 62.4833 130.165 60.2167 132.832 58.2167C135.632 56.0833 138.365 54.35 141.032 53.0167C143.699 51.6833 146.232 50.95 148.632 50.8167C151.699 50.55 154.165 51.55 156.032 53.8167C156.699 54.6167 156.699 55.35 156.032 56.0167C155.232 56.8167 154.432 56.8167 153.632 56.0167C152.432 54.55 150.765 53.8833 148.632 54.0167C145.299 54.15 141.499 55.75 137.232 58.8167C133.099 61.8833 129.165 65.2833 125.432 69.0167C121.699 72.75 118.565 76.15 116.032 79.2167C113.365 82.2833 111.965 83.8833 111.832 84.0167C111.565 84.4167 111.165 84.6167 110.632 84.6167Z" fill="white"/>
</svg>
