<svg width="242" height="62" viewBox="0 0 242 62" fill="none" xmlns="http://www.w3.org/2000/svg">
<path d="M65.54 40.0994C66.552 40.0994 67.41 40.0114 68.114 39.8354C68.818 39.6594 69.423 39.4174 69.929 39.1094L70.853 42.4094C70.325 42.7174 69.577 42.9924 68.609 43.2344C67.641 43.4764 66.464 43.5974 65.078 43.5974C63.516 43.5974 62.075 43.3554 60.755 42.8714C59.435 42.3654 58.291 41.6504 57.323 40.7264C56.377 39.7804 55.64 38.6474 55.112 37.3274C54.584 35.9854 54.32 34.4784 54.32 32.8064C54.32 31.1784 54.573 29.7044 55.079 28.3844C55.607 27.0644 56.333 25.9424 57.257 25.0184C58.203 24.0724 59.347 23.3464 60.689 22.8404C62.031 22.3344 63.527 22.0814 65.177 22.0814C66.585 22.0814 67.74 22.2134 68.642 22.4774C69.566 22.7414 70.314 23.0274 70.886 23.3354L69.863 26.6684C69.291 26.3604 68.653 26.1074 67.949 25.9094C67.267 25.6894 66.497 25.5794 65.639 25.5794C64.737 25.5794 63.89 25.7114 63.098 25.9754C62.306 26.2394 61.613 26.6684 61.019 27.2624C60.425 27.8344 59.952 28.5824 59.6 29.5064C59.27 30.4084 59.105 31.5084 59.105 32.8064C59.105 34.0604 59.27 35.1494 59.6 36.0734C59.93 36.9754 60.381 37.7234 60.953 38.3174C61.547 38.9114 62.229 39.3624 62.999 39.6704C63.791 39.9564 64.638 40.0994 65.54 40.0994ZM73.8003 43.2344V27.4934H77.1993L77.6943 30.3314C78.0683 29.4954 78.6623 28.7584 79.4763 28.1204C80.2903 27.4824 81.3133 27.1634 82.5453 27.1634C83.0513 27.1634 83.5023 27.2184 83.8983 27.3284C84.2943 27.4384 84.6243 27.5704 84.8883 27.7244L84.1623 31.1894C83.9203 31.0574 83.6123 30.9474 83.2383 30.8594C82.8643 30.7494 82.4243 30.6944 81.9183 30.6944C80.8403 30.6944 79.9383 31.0574 79.2123 31.7834C78.5083 32.4874 78.1563 33.6534 78.1563 35.2814V43.2344H73.8003ZM85.5542 27.4934H90.3392L93.1442 34.9844L94.2002 38.8124H94.3322L95.3552 34.9514L97.7972 27.4934H102.285L96.5102 43.7954C96.1802 44.6974 95.8062 45.5554 95.3882 46.3694C94.9922 47.2054 94.4972 47.9754 93.9032 48.6794C93.3312 49.3834 92.6492 50.0104 91.8572 50.5604C91.0652 51.1104 90.1302 51.5614 89.0522 51.9134L87.2372 48.5144C88.4692 48.0744 89.5032 47.4364 90.3392 46.6004C91.1752 45.7644 91.7472 44.7634 92.0552 43.5974L92.1872 43.1684L85.5542 27.4934ZM111.873 43.5974C111.301 43.5974 110.729 43.5204 110.157 43.3664C109.607 43.2344 109.145 43.0584 108.771 42.8384V50.8244H104.415V27.4274H107.748L108.21 29.1764C108.848 28.5604 109.574 28.0764 110.388 27.7244C111.202 27.3504 112.115 27.1634 113.127 27.1634C115.195 27.1634 116.823 27.8674 118.011 29.2754C119.221 30.6614 119.826 32.5864 119.826 35.0504C119.826 36.4364 119.617 37.6684 119.199 38.7464C118.781 39.8024 118.209 40.6934 117.483 41.4194C116.757 42.1454 115.91 42.6954 114.942 43.0694C113.974 43.4214 112.951 43.5974 111.873 43.5974ZM111.939 30.4634C111.213 30.4634 110.575 30.6394 110.025 30.9914C109.475 31.3214 109.057 31.6624 108.771 32.0144V39.5384C109.453 40.0884 110.3 40.3634 111.312 40.3634C111.796 40.3634 112.269 40.2754 112.731 40.0994C113.215 39.9014 113.644 39.6044 114.018 39.2084C114.414 38.7904 114.722 38.2514 114.942 37.5914C115.184 36.9314 115.305 36.1284 115.305 35.1824C115.305 34.5004 115.228 33.8734 115.074 33.3014C114.942 32.7294 114.733 32.2344 114.447 31.8164C114.161 31.3984 113.809 31.0684 113.391 30.8264C112.973 30.5844 112.489 30.4634 111.939 30.4634ZM132.319 30.6614H128.128V37.9214C128.128 38.6694 128.293 39.1864 128.623 39.4724C128.975 39.7364 129.437 39.8684 130.009 39.8684C130.449 39.8684 130.9 39.8244 131.362 39.7364C131.824 39.6484 132.198 39.5274 132.484 39.3734L133.144 42.4424C132.77 42.6184 132.209 42.7944 131.461 42.9704C130.713 43.1464 129.921 43.2344 129.085 43.2344C127.171 43.2344 125.807 42.8604 124.993 42.1124C124.179 41.3424 123.772 40.1984 123.772 38.6804V30.6614H121.33V27.4934H123.772V22.6424H128.128V27.4934H132.319V30.6614ZM150.826 35.2484C150.826 36.5464 150.617 37.7124 150.199 38.7464C149.781 39.7804 149.198 40.6604 148.45 41.3864C147.724 42.0904 146.866 42.6404 145.876 43.0364C144.886 43.4104 143.819 43.5974 142.675 43.5974C141.531 43.5974 140.464 43.4214 139.474 43.0694C138.506 42.7174 137.659 42.2004 136.933 41.5184C136.229 40.8364 135.668 40.0004 135.25 39.0104C134.854 37.9984 134.656 36.8544 134.656 35.5784C134.656 34.2364 134.865 33.0484 135.283 32.0144C135.701 30.9584 136.273 30.0784 136.999 29.3744C137.747 28.6484 138.616 28.0984 139.606 27.7244C140.596 27.3504 141.663 27.1634 142.807 27.1634C143.951 27.1634 145.007 27.3394 145.975 27.6914C146.965 28.0434 147.812 28.5604 148.516 29.2424C149.242 29.9024 149.803 30.7384 150.199 31.7504C150.617 32.7624 150.826 33.9284 150.826 35.2484ZM146.305 35.4134C146.305 34.5114 146.206 33.7414 146.008 33.1034C145.81 32.4654 145.546 31.9484 145.216 31.5524C144.886 31.1564 144.501 30.8704 144.061 30.6944C143.621 30.4964 143.17 30.3974 142.708 30.3974C142.246 30.3974 141.806 30.4854 141.388 30.6614C140.97 30.8154 140.596 31.0904 140.266 31.4864C139.936 31.8604 139.672 32.3664 139.474 33.0044C139.276 33.6424 139.177 34.4454 139.177 35.4134C139.177 36.2714 139.276 37.0194 139.474 37.6574C139.672 38.2734 139.936 38.7794 140.266 39.1754C140.618 39.5714 141.003 39.8684 141.421 40.0664C141.861 40.2644 142.312 40.3634 142.774 40.3634C143.236 40.3634 143.676 40.2864 144.094 40.1324C144.512 39.9564 144.886 39.6704 145.216 39.2744C145.546 38.8784 145.81 38.3724 146.008 37.7564C146.206 37.1184 146.305 36.3374 146.305 35.4134ZM154.245 43.2344V22.4444H158.766V30.6944H166.653V22.4444H171.174V43.2344H166.653V34.2584H158.766V43.2344H154.245ZM190.787 35.2484C190.787 36.5464 190.578 37.7124 190.16 38.7464C189.742 39.7804 189.159 40.6604 188.411 41.3864C187.685 42.0904 186.827 42.6404 185.837 43.0364C184.847 43.4104 183.78 43.5974 182.636 43.5974C181.492 43.5974 180.425 43.4214 179.435 43.0694C178.467 42.7174 177.62 42.2004 176.894 41.5184C176.19 40.8364 175.629 40.0004 175.211 39.0104C174.815 37.9984 174.617 36.8544 174.617 35.5784C174.617 34.2364 174.826 33.0484 175.244 32.0144C175.662 30.9584 176.234 30.0784 176.96 29.3744C177.708 28.6484 178.577 28.0984 179.567 27.7244C180.557 27.3504 181.624 27.1634 182.768 27.1634C183.912 27.1634 184.968 27.3394 185.936 27.6914C186.926 28.0434 187.773 28.5604 188.477 29.2424C189.203 29.9024 189.764 30.7384 190.16 31.7504C190.578 32.7624 190.787 33.9284 190.787 35.2484ZM186.266 35.4134C186.266 34.5114 186.167 33.7414 185.969 33.1034C185.771 32.4654 185.507 31.9484 185.177 31.5524C184.847 31.1564 184.462 30.8704 184.022 30.6944C183.582 30.4964 183.131 30.3974 182.669 30.3974C182.207 30.3974 181.767 30.4854 181.349 30.6614C180.931 30.8154 180.557 31.0904 180.227 31.4864C179.897 31.8604 179.633 32.3664 179.435 33.0044C179.237 33.6424 179.138 34.4454 179.138 35.4134C179.138 36.2714 179.237 37.0194 179.435 37.6574C179.633 38.2734 179.897 38.7794 180.227 39.1754C180.579 39.5714 180.964 39.8684 181.382 40.0664C181.822 40.2644 182.273 40.3634 182.735 40.3634C183.197 40.3634 183.637 40.2864 184.055 40.1324C184.473 39.9564 184.847 39.6704 185.177 39.2744C185.507 38.8784 185.771 38.3724 185.969 37.7564C186.167 37.1184 186.266 36.3374 186.266 35.4134ZM204.073 27.4934H208.462V43.2344H205.195L204.733 41.4524H204.601C204.359 41.6944 204.073 41.9474 203.743 42.2114C203.435 42.4534 203.061 42.6844 202.621 42.9044C202.203 43.1024 201.719 43.2674 201.169 43.3994C200.641 43.5314 200.047 43.5974 199.387 43.5974C197.693 43.5974 196.351 43.1244 195.361 42.1784C194.393 41.2324 193.909 39.8354 193.909 37.9874V27.4934H198.298V37.6244C198.298 38.5704 198.518 39.2524 198.958 39.6704C199.42 40.0884 200.003 40.2974 200.707 40.2974C201.499 40.2974 202.17 40.1324 202.72 39.8024C203.292 39.4724 203.743 39.0874 204.073 38.6474V27.4934ZM221.911 31.2554C220.613 30.6394 219.359 30.3314 218.149 30.3314C217.445 30.3314 216.895 30.4524 216.499 30.6944C216.125 30.9364 215.938 31.2664 215.938 31.6844C215.938 32.1024 216.103 32.4434 216.433 32.7074C216.785 32.9714 217.478 33.2574 218.512 33.5654L219.502 33.8624C220.866 34.2584 221.9 34.8304 222.604 35.5784C223.308 36.3264 223.66 37.2944 223.66 38.4824C223.66 40.0444 223.055 41.2874 221.845 42.2114C220.657 43.1354 219.04 43.5974 216.994 43.5974C214.904 43.5974 213.111 43.2234 211.615 42.4754L212.605 39.2414C213.243 39.5714 213.914 39.8464 214.618 40.0664C215.322 40.2644 216.037 40.3634 216.763 40.3634C217.643 40.3634 218.281 40.2314 218.677 39.9674C219.095 39.6814 219.304 39.3184 219.304 38.8784C219.304 38.4164 219.106 38.0644 218.71 37.8224C218.314 37.5584 217.566 37.2724 216.466 36.9644L215.443 36.6674C214.123 36.2274 213.155 35.6444 212.539 34.9184C211.923 34.1924 211.615 33.2244 211.615 32.0144C211.615 30.5844 212.154 29.4184 213.232 28.5164C214.31 27.6144 215.817 27.1634 217.753 27.1634C219.667 27.1634 221.361 27.5044 222.835 28.1864L221.911 31.2554ZM240.611 36.5024H230.15V36.6344C230.15 37.8884 230.59 38.8234 231.47 39.4394C232.35 40.0554 233.483 40.3634 234.869 40.3634C235.749 40.3634 236.519 40.2754 237.179 40.0994C237.861 39.9234 238.477 39.7144 239.027 39.4724L239.819 42.5414C239.225 42.8274 238.477 43.0694 237.575 43.2674C236.673 43.4874 235.606 43.5974 234.374 43.5974C233.186 43.5974 232.064 43.4434 231.008 43.1354C229.974 42.8054 229.061 42.3104 228.269 41.6504C227.499 40.9904 226.883 40.1544 226.421 39.1424C225.959 38.1304 225.728 36.9204 225.728 35.5124C225.728 34.2584 225.915 33.1254 226.289 32.1134C226.663 31.0794 227.191 30.1994 227.873 29.4734C228.577 28.7474 229.413 28.1864 230.381 27.7904C231.349 27.3724 232.427 27.1634 233.615 27.1634C235.749 27.1634 237.443 27.8124 238.697 29.1104C239.973 30.4084 240.611 32.2234 240.611 34.5554V36.5024ZM236.123 33.4994C236.123 33.0814 236.068 32.6744 235.958 32.2784C235.87 31.8824 235.716 31.5414 235.496 31.2554C235.276 30.9474 235.001 30.7054 234.671 30.5294C234.341 30.3534 233.934 30.2654 233.45 30.2654C232.57 30.2654 231.844 30.5624 231.272 31.1564C230.7 31.7504 230.359 32.5534 230.249 33.5654L236.123 33.4994Z" fill="#0D1930"/>
<path d="M3.43945 23.8343L24.5966 7.88512C25.3093 7.34784 26.2917 7.34784 27.0044 7.88512L48.1616 23.8343" stroke="#3F72AF" stroke-width="4" stroke-linecap="round"/>
<path d="M5.49756 53.5408C5.34119 53.5408 5.18491 53.4812 5.06561 53.3619C4.82709 53.1234 4.82709 52.7366 5.06561 52.4981L10.0742 47.4895C10.3129 47.2509 10.6996 47.2509 10.9381 47.4895C11.1766 47.728 11.1766 48.1148 10.9381 48.3533L5.92951 53.3619C5.81013 53.4812 5.65376 53.5408 5.49756 53.5408Z" fill="#3F72AF"/>
<path d="M10.1577 54.2013C10.0014 54.2013 9.84506 54.1417 9.72576 54.0224C9.48725 53.7839 9.48725 53.3971 9.72576 53.1586L15.059 47.8254C15.2976 47.5869 15.6843 47.5869 15.9229 47.8254C16.1614 48.0639 16.1614 48.4507 15.9229 48.6892L10.5897 54.0224C10.4704 54.1417 10.314 54.2013 10.1577 54.2013Z" fill="#3F72AF"/>
<path d="M4.73975 48.9675C4.58346 48.9675 4.4271 48.9079 4.3078 48.7886C4.06928 48.5501 4.06928 48.1633 4.3078 47.9248L9.31631 42.9162C9.5549 42.6777 9.94161 42.6777 10.1802 42.9162C10.4187 43.1547 10.4187 43.5415 10.1802 43.78L5.1717 48.7886C5.0524 48.9078 4.89603 48.9675 4.73975 48.9675Z" fill="#3F72AF"/>
<path d="M25.7585 47.3324C33.8835 47.3324 40.4701 40.7458 40.4701 32.6208C40.4701 24.4958 33.8835 17.9092 25.7585 17.9092C17.6335 17.9092 11.0469 24.4958 11.0469 32.6208C11.0469 40.7458 17.6335 47.3324 25.7585 47.3324Z" fill="#3F72AF"/>
<path d="M34.0136 20.4414C35.6119 22.7952 36.5461 25.6363 36.5461 28.6958C36.5461 36.8208 29.9595 43.4074 21.8345 43.4074C18.775 43.4074 15.9338 42.4731 13.5801 40.8748C16.2264 44.7718 20.6936 47.332 25.7591 47.332C33.8841 47.332 40.4707 40.7454 40.4707 32.6204C40.4708 27.5549 37.9105 23.0877 34.0136 20.4414Z" fill="#3F72AF"/>
<path d="M25.758 47.9427C17.3091 47.9427 10.4355 41.0691 10.4355 32.6202C10.4355 24.1714 17.3091 17.2979 25.758 17.2979C34.2068 17.2979 41.0804 24.1714 41.0804 32.6203C41.0804 41.0692 34.2068 47.9427 25.758 47.9427ZM25.758 18.5194C17.9827 18.5194 11.6571 24.845 11.6571 32.6202C11.6571 40.3954 17.9827 46.721 25.758 46.721C33.5333 46.721 39.8588 40.3954 39.8588 32.6202C39.8588 24.845 33.5332 18.5194 25.758 18.5194Z" fill="#FFECCF"/>
<path d="M16.4093 57.1518L14.6166 55.3591C14.2866 55.0291 14.2866 54.4941 14.6166 54.1641L23.5339 45.2469C24.0554 44.7255 24.7484 44.4385 25.4856 44.4385C26.223 44.4385 26.9162 44.7256 27.4376 45.2472L30.8583 48.6681L41 38.5264L43.9877 41.5139L32.8102 52.6914C31.7339 53.7675 29.9829 53.7673 28.9068 52.6914L25.4857 49.2703L17.6043 57.1518C17.2743 57.4817 16.7392 57.4817 16.4093 57.1518Z" fill="#00B2FF"/>
<path d="M32.8101 50.8306C31.7338 51.9068 29.9828 51.9066 28.9067 50.8306L25.4856 47.4095L17.6042 55.291C17.2742 55.621 16.7392 55.621 16.4092 55.291L14.9499 53.8317L14.6166 54.165C14.2866 54.495 14.2866 55.03 14.6166 55.36L16.4093 57.1526C16.7392 57.4826 17.2743 57.4826 17.6043 57.1526L25.4857 49.2711L28.9068 52.6922C29.9829 53.7682 31.7339 53.7684 32.8102 52.6922L43.9877 41.5148L43.0568 40.584L32.8101 50.8306Z" fill="#585EF9"/>
<path d="M44.3613 48.7032H41.8263C41.3596 48.7032 40.9813 48.325 40.9813 47.8583V42.3345C40.9813 41.8678 40.6031 41.4896 40.1364 41.4896H34.6125C34.1459 41.4896 33.7676 41.1113 33.7676 40.6446V38.1096C33.7676 37.6429 34.1459 37.2646 34.6125 37.2646H44.3613C44.828 37.2646 45.2063 37.6429 45.2063 38.1096V47.8583C45.2063 48.325 44.8279 48.7032 44.3613 48.7032Z" fill="#3F72AF"/>
<path d="M44.3604 37.2646H44.0266V46.6795C44.0266 47.1462 43.6483 47.5244 43.1816 47.5244H40.9805V47.8583C40.9805 48.325 41.3588 48.7032 41.8254 48.7032H44.3604C44.8271 48.7032 45.2055 48.325 45.2055 47.8583V38.1096C45.2055 37.6429 44.8271 37.2646 44.3604 37.2646Z" fill="#585EF9"/>
<path fill-rule="evenodd" clip-rule="evenodd" d="M23.5215 27.0371H24.0944V28.7558H23.5215V27.0371ZM25.9406 28.9947C27.103 28.9947 28.0212 29.2424 28.6954 29.7376C29.3696 30.2329 29.7067 30.9298 29.7067 31.8282C29.7067 32.1622 29.6428 32.4617 29.5149 32.7266C29.3987 32.9916 29.2417 33.2219 29.0441 33.4177C28.8581 33.602 28.6431 33.7575 28.399 33.8842C28.1665 34.0109 27.9282 34.1031 27.6842 34.1607C28.0096 34.2183 28.3118 34.3162 28.5908 34.4544C28.8814 34.5811 29.1313 34.7539 29.3405 34.9727C29.5614 35.1916 29.7299 35.4565 29.8462 35.7675C29.974 36.067 30.038 36.4125 30.038 36.8041C30.038 37.2533 29.9392 37.668 29.7416 38.0481C29.5439 38.4167 29.2592 38.7392 28.8872 39.0156C28.5269 39.2921 28.0852 39.5052 27.5621 39.6549C27.0507 39.8046 26.4811 39.8795 25.8534 39.8795H25.8131V41.3592H25.2403V39.8795H24.0944V41.3592H23.5215V39.8795H22.0176V28.9947H25.9406ZM24.4063 33.3486H25.5396C26.0626 33.3486 26.4753 33.2392 26.7775 33.0204C27.0913 32.79 27.2483 32.4502 27.2483 32.001C27.2483 31.5978 27.103 31.2984 26.8124 31.1026C26.5334 30.8952 26.1266 30.7916 25.5919 30.7916H24.4063V33.3486ZM24.4063 38.0827H25.5396C26.1324 38.0827 26.6206 37.9732 27.0042 37.7544C27.3877 37.524 27.5795 37.1324 27.5795 36.5795C27.5795 36.0612 27.3761 35.6926 26.9693 35.4738C26.5625 35.2434 26.0626 35.1282 25.4698 35.1282H24.4063V38.0827ZM25.2403 27.0371H25.8131V28.7558H25.2403V27.0371Z" fill="white"/>
<path d="M43.8047 12.7109C43.8047 12.7109 43.8047 6.74799 49.7677 6.74799C49.7677 6.74799 43.8047 6.74799 43.8047 0.785042C43.8047 0.785042 43.8047 6.74799 37.8418 6.74799C37.8418 6.74799 43.8047 6.74799 43.8047 12.7109Z" fill="#3F72AF"/>
<path d="M3.78418 14.5459C3.78418 14.5459 3.78418 10.7617 7.56836 10.7617C7.56836 10.7617 3.78418 10.7617 3.78418 6.97754C3.78418 6.97754 3.78418 10.7617 0 10.7617C0 10.7617 3.78418 10.7617 3.78418 14.5459Z" fill="#3F72AF"/>
</svg>
