<svg id="banner-animi" width="476" height="878" viewBox="0 0 476 878" fill="none" xmlns="http://www.w3.org/2000/svg">
<path id="dash-animi" opacity="0.3" fill-rule="evenodd" clip-rule="evenodd" d="M-0.860207 179.648L-0.860207 181.572L49.1139 231.412L35.679 244.806L-0.860208 208.339L-0.860208 210.427L18.3685 229.626L-0.860209 229.626L-0.860209 230.667L19.402 230.667L34.6456 245.848L16.56 263.856L-0.860211 263.856L-0.860211 265.046L15.2681 265.046L2.60823 277.697L23.5358 298.533L4.67516 317.434L-0.860213 317.434L-0.860213 318.475L3.64171 318.475L-0.860213 322.962L-0.860213 325.344L24.8277 299.723L45.2385 319.964L-0.860245 365.917L-0.860246 367.87L46.2719 320.857L65.6493 340.204L-0.860247 406.611L-0.860247 408.764L40.8463 367.142L40.8463 396.014L-0.860249 437.614L-0.860249 439.458L42.3964 396.312L42.3964 365.356L66.4244 341.395L118.097 392.889L103.371 407.623L64.8742 407.623L27.6696 444.83C25.8611 443.49 23.2774 443.639 21.4689 445.276C19.6603 447.062 19.6603 450.187 21.4689 451.973C23.2774 453.759 26.3778 453.759 28.1864 451.973C29.7366 450.336 29.9949 447.657 28.7031 445.871L65.9077 408.665L102.337 408.665L62.8073 448.401L62.8073 467.154L62.8073 467.302L85.285 489.775C83.9932 491.561 83.9932 494.24 85.8018 495.877C87.6103 497.663 90.7107 497.663 92.5192 495.877C94.3278 494.091 94.3278 490.966 92.5192 489.18C90.9691 487.543 88.1271 487.394 86.3185 488.733L64.6158 467.005L64.6158 448.699L119.389 394.079L129.465 404.051L161.244 372.351L176.23 387.233L176.23 409.706L160.211 425.78C158.402 424.44 155.819 424.738 154.269 426.375C152.46 428.161 152.46 431.286 154.269 433.072C156.077 434.858 159.177 434.858 160.986 433.072C162.795 431.435 162.795 428.756 161.503 426.97L178.296 410.153L178.296 389.317L216.276 427.119L127.14 516.118L127.14 580.113L127.14 580.262L163.311 616.278C162.019 618.064 162.019 620.743 163.828 622.38C165.637 624.166 168.737 624.166 170.545 622.38C172.354 620.594 172.354 617.469 170.545 615.683C168.995 614.046 166.153 613.897 164.345 615.236L128.949 579.816L128.949 516.267L197.674 447.657L197.674 476.976L168.995 505.7C167.187 504.36 164.603 504.509 162.795 506.146C160.986 507.932 160.986 511.058 162.795 512.843C164.603 514.629 167.703 514.629 169.512 512.843C171.062 511.206 171.321 508.527 170.029 506.742L199.482 477.274L199.482 445.722L217.31 428.012L262.523 473.256L262.523 617.767L149.618 729.684C147.809 728.345 145.226 728.494 143.417 730.131C141.609 731.917 141.609 735.042 143.417 736.828C145.226 738.614 148.326 738.614 150.135 736.828C151.685 735.191 151.943 732.512 150.651 730.726L263.815 617.767L263.815 474.893L281.901 492.752L281.901 599.758L281.901 599.907L334.866 652.592C333.574 654.378 333.574 657.057 335.382 658.694C337.191 660.48 340.291 660.48 342.1 658.694C343.908 656.908 343.908 653.783 342.1 651.997C340.55 650.36 337.708 650.211 335.899 651.55L283.709 599.461L283.709 492.454L283.709 492.305L162.278 371.16L175.713 357.766L303.345 485.162L303.345 578.327L303.345 578.476L416.251 690.989L416.251 846.96L386.022 877.023L388.089 877.023L418.059 847.109L418.059 690.692L418.059 690.543L347.267 619.85L389.122 619.85L435.886 666.433C434.595 668.219 434.595 670.898 436.403 672.535C438.212 674.321 441.312 674.321 443.121 672.535C444.929 670.749 444.929 667.624 443.121 665.838C441.57 664.201 438.728 664.052 436.92 665.391L390.156 618.808L346.492 618.808L346.492 619.106L305.412 578.03L305.412 484.864L305.412 484.715L177.005 356.724L192.248 341.395L441.312 589.936L475.002 589.936L475.002 588.894L442.346 588.894L193.282 340.353L212.142 321.452L340.55 449.592L363.544 449.592L386.28 472.363L438.987 472.363L475.002 508.274L475.002 506.201L440.02 471.321L387.314 471.321L365.611 449.592L450.097 449.592L463.015 436.793L475.002 448.818L475.002 446.737L464.048 435.751L475.002 424.765L475.002 422.637L449.063 448.55L341.583 448.55L213.176 320.41L230.486 303.146L321.172 393.931C319.881 395.717 319.881 398.396 321.689 400.033C323.498 401.819 326.598 401.819 328.407 400.033C330.215 398.247 330.215 395.121 328.407 393.335C326.856 391.698 324.273 391.549 322.206 392.889L231.261 302.253L247.797 285.585L356.568 394.08L356.568 423.547C355.793 423.696 354.76 424.143 354.243 424.887C352.435 426.673 352.435 429.798 354.243 431.584C356.052 433.37 359.152 433.37 360.961 431.584C362.769 429.798 362.769 426.673 360.961 424.887C360.185 424.143 359.41 423.696 358.635 423.547L358.635 393.782L358.635 393.633L249.347 284.543L256.064 277.846L250.897 272.637L276.992 246.592L313.163 246.592L334.607 268.023L334.607 301.658L334.607 301.807L371.554 338.716C370.262 340.502 370.262 343.181 372.07 344.818C373.879 346.604 376.979 346.604 378.788 344.818C380.596 343.032 380.596 339.907 378.788 338.121C377.238 336.483 374.396 336.335 372.587 337.674L336.158 301.36L336.158 269.809L399.457 332.912C397.907 334.698 398.165 337.376 399.715 339.162C401.524 340.948 404.624 340.948 406.433 339.162C408.241 337.376 408.241 334.251 406.433 332.465C404.883 330.828 402.299 330.679 400.491 331.87L321.431 253.14L339 253.14L386.022 300.021L419.093 300.021L457.331 338.121C456.039 339.907 456.039 342.585 457.848 344.222C459.656 346.008 462.756 346.008 464.565 344.222C466.374 342.437 466.374 339.311 464.565 337.525C463.015 335.888 460.173 335.739 458.364 337.079L420.126 298.979L387.055 298.979L340.033 252.099L320.397 252.099L313.938 245.55L275.442 245.55L249.347 271.595L232.295 254.48L286.035 201.051L347.009 201.051L383.438 237.365C381.888 239.151 382.147 241.829 383.697 243.615C385.505 245.401 388.606 245.401 390.414 243.615C392.223 241.829 392.223 238.704 390.414 236.918C388.864 235.281 386.28 235.132 384.472 236.323L349.076 201.051L398.424 201.051L426.327 228.882L475.002 228.882L475.002 227.84L427.36 227.84L400.491 201.051L475.002 201.051L475.002 200.009L285.001 200.009L231.261 253.438L212.142 234.239L282.159 164.291L449.063 164.291L475.002 138.315L475.002 136.238L448.03 163.249L281.126 163.249L211.109 233.198L196.899 218.91L291.46 124.554L433.82 124.554L475.002 83.3332L475.002 81.2512L432.786 123.512L290.427 123.512L195.865 217.868L172.871 194.8L330.215 37.7876L401.007 37.7876L438.881 2.5263e-05L436.765 2.50344e-05L399.974 36.597L329.182 36.597L240.562 124.851L240.562 55.0516L295.745 9.8019e-06L293.678 9.57864e-06L238.496 55.0516L238.496 126.935L171.579 193.758L144.709 166.969L202.324 109.522L202.325 17.2495L219.647 1.58202e-06L217.696 1.37123e-06L200.774 16.9518L200.774 109.225L184.756 125.298L184.756 86.0076L184.756 85.8588L165.12 66.2136L165.12 -4.30783e-06L163.311 -4.50319e-06L163.311 64.2789L141.092 42.1036C142.384 40.3177 142.384 37.6388 140.575 36.0018C138.767 34.2158 135.666 34.2158 133.858 36.0018C132.049 37.7877 132.049 40.9131 133.858 42.699C135.408 44.3361 138.25 44.4849 140.059 43.1454L183.206 86.1564L183.205 126.935L144.451 165.779L129.982 151.492L120.681 160.719L120.681 133.93L155.819 98.9556C157.627 100.295 160.211 100.146 162.02 98.5091C163.828 96.7232 163.828 93.5978 162.02 91.8119C160.211 90.026 157.111 90.026 155.302 91.8119C153.752 93.449 153.493 96.1279 154.785 97.9138L118.873 133.781L118.873 162.654L99.2368 182.299L87.0936 170.244L87.0936 148.813L68.233 130.06L68.233 116.071L100.012 84.3705C101.82 85.8588 104.404 85.7099 106.213 83.924C108.021 82.1381 108.021 79.0127 106.213 77.2268C104.404 75.4409 101.304 75.4409 99.4952 77.2268C97.945 78.8639 97.6866 81.3939 98.9785 83.1799L66.4244 115.624L66.4244 130.209L85.2851 148.961L85.2851 168.309L46.5303 129.763L46.5303 108.927L89.9357 65.4695L89.9357 -1.2429e-05L88.1271 -1.26244e-05L88.1271 65.1718L44.7218 108.629L44.7218 130.06L44.7218 130.209L97.945 183.34L83.9932 197.33L23.7942 137.353L23.7942 95.086L58.6735 60.1116L58.6735 -1.58058e-05L56.865 -1.60012e-05L56.865 59.8141L23.7942 92.8536L23.7942 -1.95734e-05L21.469 -1.98246e-05L21.4689 137.502L21.4689 137.651L82.4431 198.372L66.6828 214.148L-0.860205 146.868L-0.860205 149.048L65.391 215.189L50.1475 230.519L-0.860207 179.648ZM-0.860251 490.304L44.205 535.316C42.9132 537.102 42.9132 539.781 44.7217 541.418C46.5303 543.204 49.6307 543.204 51.4392 541.418C53.2477 539.632 53.2477 536.507 51.4392 534.721C49.889 533.084 47.047 532.935 45.2384 534.275L-0.860251 488.3L-0.860251 490.304ZM253.481 277.697L129.207 153.724L4.93355 277.697L129.207 401.67L253.481 277.697Z" fill="url(#paint0_radial)"/>
<path opacity="0.3" fill-rule="evenodd" clip-rule="evenodd" d="M-0.860207 179.648L-0.860207 181.572L49.1139 231.412L35.679 244.806L-0.860208 208.339L-0.860208 210.427L18.3685 229.626L-0.860209 229.626L-0.860209 230.667L19.402 230.667L34.6456 245.848L16.56 263.856L-0.860211 263.856L-0.860211 265.046L15.2681 265.046L2.60823 277.697L23.5358 298.533L4.67516 317.434L-0.860213 317.434L-0.860213 318.475L3.64171 318.475L-0.860213 322.962L-0.860213 325.344L24.8277 299.723L45.2385 319.964L-0.860245 365.917L-0.860246 367.87L46.2719 320.857L65.6493 340.204L-0.860247 406.611L-0.860247 408.764L40.8463 367.142L40.8463 396.014L-0.860249 437.614L-0.860249 439.458L42.3964 396.312L42.3964 365.356L66.4244 341.395L118.097 392.889L103.371 407.623L64.8742 407.623L27.6696 444.83C25.8611 443.49 23.2774 443.639 21.4689 445.276C19.6603 447.062 19.6603 450.187 21.4689 451.973C23.2774 453.759 26.3778 453.759 28.1864 451.973C29.7366 450.336 29.9949 447.657 28.7031 445.871L65.9077 408.665L102.337 408.665L62.8073 448.401L62.8073 467.154L62.8073 467.302L85.285 489.775C83.9932 491.561 83.9932 494.24 85.8018 495.877C87.6103 497.663 90.7107 497.663 92.5192 495.877C94.3278 494.091 94.3278 490.966 92.5192 489.18C90.9691 487.543 88.1271 487.394 86.3185 488.733L64.6158 467.005L64.6158 448.699L119.389 394.079L129.465 404.051L161.244 372.351L176.23 387.233L176.23 409.706L160.211 425.78C158.402 424.44 155.819 424.738 154.269 426.375C152.46 428.161 152.46 431.286 154.269 433.072C156.077 434.858 159.177 434.858 160.986 433.072C162.795 431.435 162.795 428.756 161.503 426.97L178.296 410.153L178.296 389.317L216.276 427.119L127.14 516.118L127.14 580.113L127.14 580.262L163.311 616.278C162.019 618.064 162.019 620.743 163.828 622.38C165.637 624.166 168.737 624.166 170.545 622.38C172.354 620.594 172.354 617.469 170.545 615.683C168.995 614.046 166.153 613.897 164.345 615.236L128.949 579.816L128.949 516.267L197.674 447.657L197.674 476.976L168.995 505.7C167.187 504.36 164.603 504.509 162.795 506.146C160.986 507.932 160.986 511.058 162.795 512.843C164.603 514.629 167.703 514.629 169.512 512.843C171.062 511.206 171.321 508.527 170.029 506.742L199.482 477.274L199.482 445.722L217.31 428.012L262.523 473.256L262.523 617.767L149.618 729.684C147.809 728.345 145.226 728.494 143.417 730.131C141.609 731.917 141.609 735.042 143.417 736.828C145.226 738.614 148.326 738.614 150.135 736.828C151.685 735.191 151.943 732.512 150.651 730.726L263.815 617.767L263.815 474.893L281.901 492.752L281.901 599.758L281.901 599.907L334.866 652.592C333.574 654.378 333.574 657.057 335.382 658.694C337.191 660.48 340.291 660.48 342.1 658.694C343.908 656.908 343.908 653.783 342.1 651.997C340.55 650.36 337.708 650.211 335.899 651.55L283.709 599.461L283.709 492.454L283.709 492.305L162.278 371.16L175.713 357.766L303.345 485.162L303.345 578.327L303.345 578.476L416.251 690.989L416.251 846.96L386.022 877.023L388.089 877.023L418.059 847.109L418.059 690.692L418.059 690.543L347.267 619.85L389.122 619.85L435.886 666.433C434.595 668.219 434.595 670.898 436.403 672.535C438.212 674.321 441.312 674.321 443.121 672.535C444.929 670.749 444.929 667.624 443.121 665.838C441.57 664.201 438.728 664.052 436.92 665.391L390.156 618.808L346.492 618.808L346.492 619.106L305.412 578.03L305.412 484.864L305.412 484.715L177.005 356.724L192.248 341.395L441.312 589.936L475.002 589.936L475.002 588.894L442.346 588.894L193.282 340.353L212.142 321.452L340.55 449.592L363.544 449.592L386.28 472.363L438.987 472.363L475.002 508.274L475.002 506.201L440.02 471.321L387.314 471.321L365.611 449.592L450.097 449.592L463.015 436.793L475.002 448.818L475.002 446.737L464.048 435.751L475.002 424.765L475.002 422.637L449.063 448.55L341.583 448.55L213.176 320.41L230.486 303.146L321.172 393.931C319.881 395.717 319.881 398.396 321.689 400.033C323.498 401.819 326.598 401.819 328.407 400.033C330.215 398.247 330.215 395.121 328.407 393.335C326.856 391.698 324.273 391.549 322.206 392.889L231.261 302.253L247.797 285.585L356.568 394.08L356.568 423.547C355.793 423.696 354.76 424.143 354.243 424.887C352.435 426.673 352.435 429.798 354.243 431.584C356.052 433.37 359.152 433.37 360.961 431.584C362.769 429.798 362.769 426.673 360.961 424.887C360.185 424.143 359.41 423.696 358.635 423.547L358.635 393.782L358.635 393.633L249.347 284.543L256.064 277.846L250.897 272.637L276.992 246.592L313.163 246.592L334.607 268.023L334.607 301.658L334.607 301.807L371.554 338.716C370.262 340.502 370.262 343.181 372.07 344.818C373.879 346.604 376.979 346.604 378.788 344.818C380.596 343.032 380.596 339.907 378.788 338.121C377.238 336.483 374.396 336.335 372.587 337.674L336.158 301.36L336.158 269.809L399.457 332.912C397.907 334.698 398.165 337.376 399.715 339.162C401.524 340.948 404.624 340.948 406.433 339.162C408.241 337.376 408.241 334.251 406.433 332.465C404.883 330.828 402.299 330.679 400.491 331.87L321.431 253.14L339 253.14L386.022 300.021L419.093 300.021L457.331 338.121C456.039 339.907 456.039 342.585 457.848 344.222C459.656 346.008 462.756 346.008 464.565 344.222C466.374 342.437 466.374 339.311 464.565 337.525C463.015 335.888 460.173 335.739 458.364 337.079L420.126 298.979L387.055 298.979L340.033 252.099L320.397 252.099L313.938 245.55L275.442 245.55L249.347 271.595L232.295 254.48L286.035 201.051L347.009 201.051L383.438 237.365C381.888 239.151 382.147 241.829 383.697 243.615C385.505 245.401 388.606 245.401 390.414 243.615C392.223 241.829 392.223 238.704 390.414 236.918C388.864 235.281 386.28 235.132 384.472 236.323L349.076 201.051L398.424 201.051L426.327 228.882L475.002 228.882L475.002 227.84L427.36 227.84L400.491 201.051L475.002 201.051L475.002 200.009L285.001 200.009L231.261 253.438L212.142 234.239L282.159 164.291L449.063 164.291L475.002 138.315L475.002 136.238L448.03 163.249L281.126 163.249L211.109 233.198L196.899 218.91L291.46 124.554L433.82 124.554L475.002 83.3332L475.002 81.2512L432.786 123.512L290.427 123.512L195.865 217.868L172.871 194.8L330.215 37.7876L401.007 37.7876L438.881 2.5263e-05L436.765 2.50344e-05L399.974 36.597L329.182 36.597L240.562 124.851L240.562 55.0516L295.745 9.8019e-06L293.678 9.57864e-06L238.496 55.0516L238.496 126.935L171.579 193.758L144.709 166.969L202.324 109.522L202.325 17.2495L219.647 1.58202e-06L217.696 1.37123e-06L200.774 16.9518L200.774 109.225L184.756 125.298L184.756 86.0076L184.756 85.8588L165.12 66.2136L165.12 -4.30783e-06L163.311 -4.50319e-06L163.311 64.2789L141.092 42.1036C142.384 40.3177 142.384 37.6388 140.575 36.0018C138.767 34.2158 135.666 34.2158 133.858 36.0018C132.049 37.7877 132.049 40.9131 133.858 42.699C135.408 44.3361 138.25 44.4849 140.059 43.1454L183.206 86.1564L183.205 126.935L144.451 165.779L129.982 151.492L120.681 160.719L120.681 133.93L155.819 98.9556C157.627 100.295 160.211 100.146 162.02 98.5091C163.828 96.7232 163.828 93.5978 162.02 91.8119C160.211 90.026 157.111 90.026 155.302 91.8119C153.752 93.449 153.493 96.1279 154.785 97.9138L118.873 133.781L118.873 162.654L99.2368 182.299L87.0936 170.244L87.0936 148.813L68.233 130.06L68.233 116.071L100.012 84.3705C101.82 85.8588 104.404 85.7099 106.213 83.924C108.021 82.1381 108.021 79.0127 106.213 77.2268C104.404 75.4409 101.304 75.4409 99.4952 77.2268C97.945 78.8639 97.6866 81.3939 98.9785 83.1799L66.4244 115.624L66.4244 130.209L85.2851 148.961L85.2851 168.309L46.5303 129.763L46.5303 108.927L89.9357 65.4695L89.9357 -1.2429e-05L88.1271 -1.26244e-05L88.1271 65.1718L44.7218 108.629L44.7218 130.06L44.7218 130.209L97.945 183.34L83.9932 197.33L23.7942 137.353L23.7942 95.086L58.6735 60.1116L58.6735 -1.58058e-05L56.865 -1.60012e-05L56.865 59.8141L23.7942 92.8536L23.7942 -1.95734e-05L21.469 -1.98246e-05L21.4689 137.502L21.4689 137.651L82.4431 198.372L66.6828 214.148L-0.860205 146.868L-0.860205 149.048L65.391 215.189L50.1475 230.519L-0.860207 179.648ZM-0.860251 490.304L44.205 535.316C42.9132 537.102 42.9132 539.781 44.7217 541.418C46.5303 543.204 49.6307 543.204 51.4392 541.418C53.2477 539.632 53.2477 536.507 51.4392 534.721C49.889 533.084 47.047 532.935 45.2384 534.275L-0.860251 488.3L-0.860251 490.304ZM253.481 277.697L129.207 153.724L4.93355 277.697L129.207 401.67L253.481 277.697Z" fill="url(#paint1_radial)"/>
<defs>
<radialGradient id="paint0_radial" cx="0" cy="0" r="1" gradientUnits="userSpaceOnUse" gradientTransform="translate(403.238 895.876) rotate(-90) scale(642.081 579.251)">
<stop stop-color="#FF2C9C"/>
<stop offset="0.0300632" stop-color="#F62F9F"/>
<stop offset="0.2023" stop-color="#C63EB0"/>
<stop offset="0.3737" stop-color="#9E4BBE"/>
<stop offset="0.5413" stop-color="#7F54C9"/>
<stop offset="0.7039" stop-color="#695BD1"/>
<stop offset="0.8594" stop-color="#5C60D5"/>
<stop offset="1" stop-color="#5761D7"/>
</radialGradient>
<radialGradient id="paint1_radial" cx="0" cy="0" r="1" gradientUnits="userSpaceOnUse" gradientTransform="translate(403.238 895.876) rotate(-90) scale(642.081 579.251)">
<stop stop-color="#FF2C9C"/>
<stop offset="0.0300632" stop-color="#F62F9F"/>
<stop offset="0.2023" stop-color="#C63EB0"/>
<stop offset="0.3737" stop-color="#9E4BBE"/>
<stop offset="0.5413" stop-color="#7F54C9"/>
<stop offset="0.7039" stop-color="#695BD1"/>
<stop offset="0.8594" stop-color="#5C60D5"/>
<stop offset="1" stop-color="#5761D7"/>
</radialGradient>
</defs>
</svg>
