<svg width="371" height="343" id="banner-animi2"  viewBox="0 0 371 343" fill="none" xmlns="http://www.w3.org/2000/svg">
<path id="dash-animi2" opacity="0.8" d="M10.3244 0.498926C11.0663 -0.166309 12.3646 -0.166309 13.1064 0.498926C13.6628 0.974094 13.8483 1.73436 13.5392 2.3996L56.5062 40.5081V88.6901L66.9543 98.0034V150.367L102.812 182.203L108.376 177.261L80.7408 152.743V124.043L80.8645 123.948L112.332 96.0077V86.2192L94.5274 70.4437C93.7855 70.9188 92.6727 70.9188 91.9926 70.2536C91.2508 69.5884 91.2508 68.448 91.9926 67.7827C92.7345 67.1175 94.0328 67.1175 94.7747 67.7827C95.4547 68.3529 95.5166 69.3033 94.9601 70.0635L112.765 85.8391V96.3878L112.642 96.4829L81.1736 124.423V152.363L102.07 170.894V158.92L92.4872 150.462C91.7454 150.937 90.6325 150.937 89.9525 150.272C89.2106 149.607 89.2106 148.466 89.9525 147.801C90.6944 147.136 91.9926 147.136 92.7345 147.801C93.4146 148.371 93.4764 149.322 92.92 150.082L102.503 158.54V171.274L108.809 176.881L116.289 170.229V149.417L102.193 136.872V122.427L102.317 122.332L131.992 96.0077C131.436 95.3425 131.498 94.3921 132.178 93.7269C132.92 93.0617 134.218 93.0617 134.96 93.7269C135.702 94.3921 135.702 95.5325 134.96 96.1978C134.28 96.768 133.167 96.863 132.425 96.3878L102.626 122.807V136.397L116.289 148.561V134.211L116.413 134.116L134.589 117.96C134.032 117.295 134.094 116.345 134.774 115.68C135.516 115.014 136.814 115.014 137.556 115.68C138.298 116.345 138.298 117.485 137.556 118.151C136.876 118.721 135.763 118.816 135.021 118.341L116.784 134.591V169.754L122.039 165.097L130.694 172.795L138.545 165.857V148.941L138.669 148.846L159.38 130.505V114.539C158.947 114.539 158.514 114.349 158.205 114.064C157.463 113.399 157.463 112.258 158.205 111.593C158.947 110.928 160.245 110.928 160.987 111.593C161.729 112.258 161.729 113.399 160.987 114.064C160.678 114.349 160.245 114.539 159.813 114.539V130.885L159.689 130.98L138.978 149.322V165.477L172.672 135.542V103.8L154.372 87.5497H137.618H137.556L108.747 61.9857C108.005 62.4608 106.892 62.4608 106.212 61.7956C105.47 61.1304 105.47 59.99 106.212 59.3247C106.954 58.6595 108.252 58.6595 108.994 59.3247C109.674 59.8949 109.736 60.9403 109.179 61.6055L137.68 86.8845H153.568L100.71 39.9379C99.9678 40.413 98.855 40.413 98.175 39.7478C97.4331 39.0826 97.4331 37.9422 98.175 37.2769C98.9168 36.6117 100.215 36.6117 100.957 37.2769C101.637 37.8471 101.699 38.8925 101.142 39.5577L173.166 103.515V136.017L173.043 136.112L131.188 173.27L139.596 180.778L211.064 117.295V79.4718L211.187 79.3768L235.484 57.8042C234.928 57.139 234.989 56.1886 235.669 55.5234C236.411 54.8581 237.71 54.8581 238.451 55.5234C239.193 56.1886 239.193 57.329 238.451 57.9943C237.771 58.5645 236.659 58.6595 235.917 58.1843L211.497 79.852V117.675L211.373 117.77L139.967 181.158L148.004 188.285L218.73 125.563H260.893L287.23 102.185V66.2622C286.982 66.1671 286.673 66.0721 286.488 65.882C285.746 65.2168 285.746 64.0764 286.488 63.4112C287.23 62.7459 288.528 62.7459 289.27 63.4112C290.012 64.0764 290.012 65.2168 289.27 65.882C288.837 66.2622 288.281 66.4522 287.724 66.3572V102.565L287.601 102.66L261.017 126.228H218.854L159.194 179.162H171.188L191.528 161.106H207.231H207.293L229.054 180.398C229.796 179.922 230.909 179.922 231.589 180.588C232.331 181.253 232.331 182.393 231.589 183.058C230.847 183.724 229.549 183.724 228.807 183.058C228.127 182.488 228.065 181.443 228.622 180.778L207.107 161.676H191.651L171.312 179.732H158.452L148.499 188.57L169.89 207.577L176.01 202.16V188L191.466 174.315C190.91 173.65 190.971 172.7 191.651 172.035C192.393 171.369 193.692 171.369 194.433 172.035C195.175 172.7 195.175 173.84 194.433 174.505C193.753 175.076 192.641 175.171 191.899 174.696L176.443 188.38V201.78L192.95 187.24H200.739H200.801L210.136 195.508C210.878 195.033 211.991 195.033 212.671 195.698C213.413 196.363 213.413 197.504 212.671 198.169C211.929 198.834 210.631 198.834 209.889 198.169C209.209 197.599 209.147 196.553 209.704 195.888L200.678 187.905H193.073L170.384 208.052L174.526 211.759L161.358 223.448L167.54 228.96H176.876L183.553 223.068C182.996 222.402 183.12 221.452 183.8 220.882C184.542 220.217 185.84 220.217 186.582 220.882C187.324 221.547 187.324 222.687 186.582 223.353C185.902 224.018 184.789 224.018 184.047 223.543L177.061 229.72H168.406L184.109 243.69L221.079 210.903H247.663H247.725L262.686 224.208C263.428 223.733 264.541 223.733 265.221 224.398C265.963 225.063 265.963 226.204 265.221 226.869C264.479 227.534 263.181 227.534 262.439 226.869C261.759 226.299 261.697 225.253 262.253 224.588L247.539 211.569H221.141L192.641 236.847H204.82L216.752 226.299C216.195 225.634 216.257 224.683 216.937 224.018C217.679 223.353 218.977 223.353 219.719 224.018C220.461 224.683 220.461 225.824 219.719 226.489C219.039 227.059 217.926 227.154 217.184 226.679L204.943 237.513H191.837L184.48 244.07L203.274 260.701H263.304L309.795 219.171C309.239 218.506 309.301 217.556 309.981 216.89C310.723 216.225 312.021 216.225 312.763 216.89C313.505 217.556 313.505 218.696 312.763 219.361C312.083 219.932 310.97 220.027 310.228 219.551L263.304 261.176H203.954L211.373 267.828H255.824H255.886L277.771 287.31C278.513 286.835 279.626 286.835 280.306 287.5C281.047 288.166 281.047 289.306 280.306 289.971C279.564 290.637 278.265 290.637 277.524 289.971C276.844 289.401 276.782 288.356 277.338 287.69L255.7 268.494H211.249H211.187L160.864 223.828L155.299 228.77L208.22 275.716H246.921H246.983L293.721 317.246H358.512L371 306.127V306.887L358.574 317.911H293.598H293.536L264.17 291.872V307.267L283.52 324.468C284.262 323.993 285.375 323.993 286.055 324.659C286.797 325.324 286.797 326.464 286.055 327.129C285.313 327.795 284.015 327.795 283.273 327.129C282.593 326.559 282.531 325.514 283.088 324.849L263.737 307.648V291.587H263.861L246.798 276.476H208.096H208.034L154.867 229.245L148.499 234.852L251.743 326.464V343H251.311V326.844L148.066 235.232L140.215 242.169L193.444 289.401V297.859L202.903 306.222V325.609L221.203 341.86C221.945 341.384 223.057 341.384 223.738 342.05C224.047 342.335 224.17 342.62 224.294 342.905H220.461C220.523 342.715 220.646 342.43 220.77 342.24L202.47 325.989V306.602L193.444 298.619V329.695L188.127 334.447L197.71 342.905H196.844L187.695 334.827L178.545 342.905H177.679L193.011 329.315V289.781L139.782 242.549L132.61 248.917L170.322 282.274C171.064 281.798 172.177 281.798 172.857 282.464C173.599 283.129 173.599 284.269 172.857 284.934C172.115 285.6 170.817 285.6 170.075 284.934C169.395 284.364 169.333 283.414 169.89 282.654L132.239 249.202L125.315 255.284L170.384 295.293H182.625C182.687 295.008 182.873 294.628 183.182 294.438C183.924 293.773 185.222 293.773 185.964 294.438C186.706 295.103 186.706 296.243 185.964 296.909C185.222 297.574 183.924 297.574 183.182 296.909C182.873 296.624 182.687 296.339 182.625 296.053H170.261H170.199L124.882 255.854L122.1 258.325L119.937 256.424L109.118 266.023V279.327L118.02 287.215H131.992H132.054L147.386 300.805C148.128 300.33 149.241 300.33 149.921 300.995C150.663 301.66 150.663 302.801 149.921 303.466C149.179 304.131 147.881 304.131 147.139 303.466C146.459 302.896 146.397 301.85 146.953 301.185L131.869 287.785H118.762L144.975 311.069C145.717 310.499 146.83 310.594 147.572 311.164C148.313 311.829 148.313 312.969 147.572 313.635C146.83 314.3 145.531 314.3 144.79 313.635C144.109 313.064 144.048 312.114 144.542 311.449L111.838 282.369V288.831L131.312 306.127V318.291L147.139 332.356C147.881 331.881 148.993 331.881 149.674 332.546C150.415 333.212 150.415 334.352 149.674 335.017C148.932 335.682 147.633 335.682 146.891 335.017C146.211 334.447 146.15 333.402 146.706 332.736L130.879 318.671V306.507L111.405 289.211V281.988L108.685 279.613V265.453L119.504 255.854L112.394 249.582L90.1998 269.349V291.777L105.285 305.177C106.026 304.606 107.139 304.701 107.881 305.272C108.623 305.937 108.623 307.077 107.881 307.743C107.139 308.408 105.841 308.408 105.099 307.743C104.419 307.172 104.357 306.222 104.852 305.557L90.1998 292.537V310.689L101.761 320.952V342.905H101.328V321.332L90.1998 311.449V342.905H89.767V268.969L111.961 249.202L103.986 242.169L74.9295 267.923V329.315L60.9575 341.67V342.905H60.5247V341.289L74.4967 328.935V267.543L103.554 241.789L97.6185 236.562L58.4227 271.345V323.708L36.7228 342.905H35.8574L57.99 323.328V270.965L97.1858 236.182L87.6032 227.724L22.3799 285.6V311.639L0 331.501V330.741L21.8853 311.259V285.22L58.5464 252.623H29.5514L0 278.852V278.092L29.5514 251.863H59.4119L87.1704 227.249L76.0423 217.366L52.1786 238.558H13.8483L0.0617981 250.817V250.057L3.09113 247.396H0.0617981V246.731H3.83298L13.7247 237.988H52.055L58.7318 232.096H42.4106H42.3488L34.1881 224.873H0.123596L0 224.968V224.208H33.3844L24.1728 216.035C23.4309 216.51 22.3181 216.51 21.6381 215.845C20.8962 215.18 20.8962 214.039 21.6381 213.374C22.3799 212.709 23.6782 212.709 24.4201 213.374C25.1001 213.944 25.162 214.99 24.6056 215.655L42.4724 231.526H59.4119L75.5477 217.271L69.6127 211.949L73.4457 208.527H62.3176L47.7892 221.452C48.3456 222.117 48.2838 223.068 47.6037 223.733C46.8618 224.398 45.5636 224.398 44.8217 223.733C44.0798 223.068 44.0798 221.927 44.8217 221.262C45.5017 220.692 46.6145 220.597 47.3564 221.072L62.2558 207.862H74.2495L82.4101 200.64L77.4024 196.173H68.4999L60.7102 189.236H54.8988L41.7305 200.925C42.3488 201.59 42.2869 202.54 41.545 203.206C40.8032 203.871 39.5049 203.871 38.763 203.206C38.0211 202.54 38.0211 201.4 38.763 200.735C39.4431 200.165 40.494 200.069 41.2359 200.545L54.7133 188.57H60.772L68.5617 195.508H76.5987L60.5865 181.253H51.9313L33.879 197.218H0V196.553H33.7553L51.8077 180.588H60.7102H60.772L82.8428 200.165L88.6542 195.033L63.7395 172.89H46.1818L31.6534 185.719H0.0617981V185.054H31.5297L45.2544 172.89H0.0617981V172.035H63.8014H63.8632L89.087 194.462L95.6402 188.665L60.8957 157.78H0.0617981V157.114H44.3889L0.0617981 117.77V117.01L45.2544 157.114H60.5865L27.6349 127.844V121.382L11.87 107.412C11.1281 107.887 10.0153 107.887 9.33524 107.222C8.59338 106.556 8.59338 105.416 9.33524 104.751C10.0771 104.086 11.3754 104.086 12.1173 104.751C12.7973 105.321 12.8592 106.271 12.3027 107.032L20.8962 114.634V96.958L0.0617981 78.5215V77.7612L21.3289 96.5779V115.014L28.0676 121.002V127.464L61.2666 156.924L61.1429 157.209L96.073 188.19L102.441 182.583L66.5834 150.747V98.3835L0.0617981 39.3677V38.6074L56.0735 88.31V40.9832L13.1683 2.9698L13.1064 3.06483C12.3646 3.73007 11.0663 3.73007 10.3244 3.06483C9.58252 2.30456 9.58252 1.2592 10.3244 0.498926ZM70.54 211.664L122.039 257.375L173.537 211.664L122.039 165.952L70.54 211.664Z" fill="url(#paint0_radial)"/>
<defs>
<radialGradient id="paint0_radial" cx="0" cy="0" r="1" gradientUnits="userSpaceOnUse" gradientTransform="translate(-7.9753 51.7274) scale(271.614 417.522)">
<stop stop-color="#FF2C9C"/>
<stop offset="0.0300632" stop-color="#F62F9F"/>
<stop offset="0.2023" stop-color="#C63EB0"/>
<stop offset="0.3737" stop-color="#9E4BBE"/>
<stop offset="0.5413" stop-color="#7F54C9"/>
<stop offset="0.7039" stop-color="#695BD1"/>
<stop offset="0.8594" stop-color="#5C60D5"/>
<stop offset="1" stop-color="#5761D7"/>
</radialGradient>
</defs>
</svg>
