<svg id="banner-animi" width="821" height="590" viewBox="0 0 821 590" fill="none" xmlns="http://www.w3.org/2000/svg">
<path id="dash-animi" opacity="0.8" d="M798.153 0.858212C796.511 -0.286071 793.638 -0.286071 791.996 0.858212C790.765 1.67556 790.354 2.98331 791.039 4.12759L695.955 69.6786V152.557L672.834 168.577V258.649L593.484 313.411L581.171 304.91L642.326 262.735V213.368L642.052 213.204L572.415 165.144V148.307L611.817 121.171C613.458 121.989 615.921 121.989 617.426 120.844C619.068 119.7 619.068 117.738 617.426 116.594C615.784 115.45 612.911 115.45 611.269 116.594C609.765 117.575 609.628 119.21 610.859 120.517L571.458 147.653V165.798L571.731 165.962L641.368 214.022V262.081L595.126 293.958V273.361L616.331 258.812C617.973 259.629 620.436 259.629 621.941 258.485C623.582 257.341 623.582 255.379 621.941 254.235C620.299 253.091 617.426 253.091 615.784 254.235C614.279 255.216 614.142 256.85 615.374 258.158L594.168 272.707V294.612L580.214 304.256L563.659 292.814V257.014L594.852 235.436V210.589L594.579 210.425L528.91 165.144C530.141 164 530.004 162.365 528.499 161.221C526.857 160.077 523.984 160.077 522.343 161.221C520.701 162.365 520.701 164.327 522.343 165.471C523.848 166.452 526.31 166.616 527.952 165.798L593.895 211.243V234.619L563.659 255.543V230.859L563.386 230.695L523.164 202.906C524.395 201.761 524.258 200.127 522.753 198.982C521.111 197.838 518.238 197.838 516.597 198.982C514.955 200.127 514.955 202.088 516.597 203.233C518.102 204.214 520.564 204.377 522.206 203.56L562.565 231.513V291.996L550.936 283.986L531.783 297.227L514.408 285.294V256.197L514.134 256.033L468.302 224.484V197.021C469.26 197.021 470.218 196.694 470.902 196.204C472.544 195.059 472.544 193.098 470.902 191.953C469.26 190.809 466.387 190.809 464.745 191.953C463.104 193.098 463.104 195.059 464.745 196.204C465.429 196.694 466.387 197.021 467.345 197.021V225.137L467.618 225.301L513.45 256.85V284.64L438.888 233.147V178.549L479.384 150.596H516.46H516.597L580.35 106.623C581.992 107.44 584.455 107.44 585.96 106.296C587.601 105.151 587.601 103.19 585.96 102.045C584.318 100.901 581.445 100.901 579.803 102.045C578.298 103.026 578.161 104.824 579.393 105.969L516.323 149.451H481.163L598.136 68.6978C599.777 69.5151 602.24 69.5151 603.745 68.3709C605.387 67.2266 605.387 65.2649 603.745 64.1207C602.103 62.9764 599.23 62.9764 597.588 64.1207C596.083 65.1015 595.947 66.8996 597.178 68.0439L437.794 178.058V233.965L438.067 234.128L530.688 298.045L512.082 310.959L353.929 201.761V136.701L353.655 136.537L299.889 99.4299C301.12 98.2857 300.983 96.651 299.478 95.5067C297.837 94.3624 294.964 94.3624 293.322 95.5067C291.68 96.651 291.68 98.6126 293.322 99.7569C294.827 100.738 297.289 100.901 298.931 100.084L352.971 137.355V202.415L353.245 202.579L511.261 311.613L493.476 323.873L336.964 215.983H243.66L185.378 175.77V113.979C185.926 113.815 186.61 113.652 187.02 113.325C188.662 112.181 188.662 110.219 187.02 109.075C185.378 107.93 182.505 107.93 180.864 109.075C179.222 110.219 179.222 112.181 180.864 113.325C181.821 113.979 183.053 114.306 184.284 114.142V176.424L184.557 176.587L243.386 217.128H336.691L468.713 308.18H442.172L397.161 277.121H362.411H362.274L314.117 310.305C312.475 309.487 310.013 309.487 308.508 310.632C306.866 311.776 306.866 313.738 308.508 314.882C310.15 316.026 313.023 316.026 314.664 314.882C316.169 313.901 316.306 312.103 315.075 310.959L362.685 278.101H396.887L441.898 309.16H470.355L492.381 324.363L445.045 357.057L431.5 347.739V323.382L397.298 299.843C398.529 298.698 398.392 297.064 396.887 295.92C395.246 294.775 392.373 294.775 390.731 295.92C389.089 297.064 389.089 299.025 390.731 300.17C392.236 301.151 394.698 301.314 396.34 300.497L430.543 324.036V347.085L394.014 322.075H376.776H376.639L355.981 336.296C354.339 335.479 351.877 335.479 350.372 336.623C348.73 337.768 348.73 339.729 350.372 340.873C352.014 342.018 354.887 342.018 356.528 340.873C358.033 339.893 358.17 338.095 356.939 336.95L376.913 323.219H393.741L443.95 357.874L434.784 364.25L463.925 384.356L450.243 393.837H429.585L414.81 383.702C416.041 382.558 415.767 380.923 414.262 379.943C412.621 378.798 409.748 378.798 408.106 379.943C406.464 381.087 406.464 383.048 408.106 384.193C409.611 385.337 412.073 385.337 413.715 384.52L429.175 395.145H448.328L413.578 419.175L331.766 362.778H272.937H272.8L239.692 385.664C238.05 384.847 235.588 384.847 234.083 385.991C232.441 387.135 232.441 389.097 234.083 390.241C235.725 391.385 238.598 391.385 240.239 390.241C241.744 389.26 241.881 387.462 240.65 386.318L273.211 363.923H331.629L394.698 407.405H367.747L341.342 389.26C342.574 388.116 342.437 386.481 340.932 385.337C339.29 384.193 336.417 384.193 334.775 385.337C333.134 386.481 333.134 388.443 334.775 389.587C336.28 390.568 338.743 390.731 340.385 389.914L367.473 408.55H396.477L412.757 419.829L371.167 448.436H238.324L135.442 377C136.674 375.856 136.537 374.221 135.032 373.077C133.39 371.933 130.517 371.933 128.876 373.077C127.234 374.221 127.234 376.183 128.876 377.327C130.38 378.308 132.843 378.471 134.485 377.654L238.324 449.253H369.662L353.245 460.696H254.878H254.741L206.31 494.207C204.669 493.39 202.206 493.39 200.701 494.534C199.059 495.678 199.059 497.64 200.701 498.784C202.343 499.929 205.216 499.929 206.858 498.784C208.362 497.804 208.499 496.005 207.268 494.861L255.152 461.84H353.518H353.655L465.019 385.01L477.332 393.51L360.222 474.264H274.579H274.442L171.013 545.7H27.6357L0 526.574V527.882L27.4989 546.844H171.287H171.424L236.409 502.054V528.536L193.587 558.124C191.945 557.306 189.483 557.306 187.978 558.451C186.336 559.595 186.336 561.556 187.978 562.701C189.619 563.845 192.492 563.845 194.134 562.701C195.639 561.72 195.776 559.922 194.545 558.777L237.366 529.19V501.563H237.093L274.852 475.572H360.496H360.633L478.29 394.328L492.381 403.972L263.908 561.556V590H264.865V562.21L493.339 404.626L510.714 416.56L392.92 497.804V512.352L371.988 526.738V560.085L331.492 588.038C329.85 587.221 327.388 587.221 325.883 588.365C325.199 588.856 324.925 589.346 324.651 589.837H333.134C332.997 589.51 332.723 589.019 332.45 588.692L372.946 560.739V527.391L392.92 513.66V567.114L404.686 575.288L383.48 589.837H385.395L405.643 575.942L425.891 589.837H427.807L393.878 566.461V498.457L511.671 417.213L527.541 428.166L444.087 485.543C442.445 484.726 439.983 484.726 438.478 485.87C436.836 487.015 436.836 488.976 438.478 490.121C440.12 491.265 442.993 491.265 444.634 490.121C446.139 489.14 446.276 487.505 445.045 486.197L528.362 428.656L543.685 439.118L443.95 507.939H416.862C416.725 507.448 416.314 506.794 415.63 506.467C413.989 505.323 411.116 505.323 409.474 506.467C407.832 507.612 407.832 509.573 409.474 510.718C411.116 511.862 413.989 511.862 415.63 510.718C416.314 510.227 416.725 509.737 416.862 509.246H444.224H444.361L544.643 440.099L550.799 444.349L555.588 441.08L579.529 457.59V480.476L559.829 494.044H528.91H528.773L494.844 517.42C493.202 516.603 490.739 516.603 489.234 517.747C487.593 518.891 487.593 520.853 489.234 521.997C490.876 523.141 493.749 523.141 495.391 521.997C496.896 521.016 497.033 519.218 495.801 518.074L529.183 495.025H558.187L500.179 535.074C498.538 534.094 496.075 534.257 494.433 535.238C492.792 536.382 492.792 538.344 494.433 539.488C496.075 540.632 498.948 540.632 500.59 539.488C502.095 538.507 502.231 536.873 501.137 535.728L573.51 485.707V496.823L530.414 526.574V547.498L495.391 571.692C493.749 570.874 491.287 570.874 489.782 572.018C488.14 573.163 488.14 575.124 489.782 576.269C491.423 577.413 494.296 577.413 495.938 576.269C497.443 575.288 497.58 573.49 496.349 572.345L531.372 548.152V527.228L574.467 497.477V485.053L580.487 480.966V456.609L556.545 440.099L572.279 429.31L621.393 463.312V501.89L588.012 524.939C586.37 523.959 583.907 524.122 582.266 525.103C580.624 526.247 580.624 528.209 582.266 529.353C583.907 530.497 586.78 530.497 588.422 529.353C589.927 528.372 590.064 526.738 588.969 525.593L621.393 503.198V534.421L595.81 552.075V589.837H596.768V552.729L621.393 535.728V589.837H622.351V462.658L573.236 428.656L590.885 416.56L655.186 460.86V566.461L686.105 587.711V589.837H687.063V587.058L656.143 565.807V460.206L591.842 415.906L604.976 406.915L691.714 466.744V556.816L739.735 589.837H741.65L692.672 556.162V466.091L605.934 406.261L627.14 391.712L771.475 491.265V536.055L821 570.22V568.913L772.569 535.401V490.611L691.44 434.541H755.605L821 479.659V478.351L755.605 433.233H689.525L628.097 390.895L652.723 373.894L705.532 410.348H790.354L820.863 431.435V430.127L814.159 425.55H820.863V424.406H812.518L790.628 409.367H705.806L691.03 399.232H727.148H727.285L745.344 386.808H820.726L821 386.972V385.664H747.122L767.507 371.606C769.149 372.423 771.611 372.423 773.116 371.279C774.758 370.134 774.758 368.173 773.116 367.028C771.475 365.884 768.602 365.884 766.96 367.028C765.455 368.009 765.318 369.807 766.549 370.952L727.011 398.251H689.525L653.818 373.731L666.951 364.576L658.469 358.692H683.095L715.245 380.923C714.014 382.068 714.151 383.702 715.656 384.847C717.298 385.991 720.171 385.991 721.812 384.847C723.454 383.702 723.454 381.741 721.812 380.596C720.307 379.616 717.845 379.452 716.203 380.269L683.232 357.547H656.691L638.632 345.124L649.713 337.441H669.414L686.652 325.507H699.512L728.653 345.614C727.285 346.758 727.422 348.393 729.063 349.537C730.705 350.682 733.578 350.682 735.22 349.537C736.862 348.393 736.862 346.431 735.22 345.287C733.715 344.306 731.389 344.143 729.747 344.96L699.923 324.363H686.515L669.277 336.296H651.492L686.926 311.776H706.079L746.028 339.239H821V338.094H746.302L706.353 310.632H686.652H686.515L637.674 344.306L624.814 335.479L679.948 297.391H718.803L750.953 319.459H820.863V318.315H751.227L720.855 297.391H820.863V295.92H679.812H679.675L623.856 334.498L609.354 324.527L686.242 271.399H820.863V270.255H722.77L820.863 202.579V201.271L720.855 270.255H686.926L759.846 219.906V208.791L794.732 184.761C796.374 185.578 798.837 185.578 800.342 184.434C801.983 183.289 801.983 181.328 800.342 180.184C798.7 179.039 795.827 179.039 794.185 180.184C792.68 181.164 792.543 182.799 793.775 184.107L774.758 197.184V166.779L820.863 135.066V133.758L773.8 166.125V197.838L758.888 208.137V219.253L685.421 269.928L685.694 270.418L608.396 323.709L594.305 314.065L673.655 259.302V169.231L820.863 67.717V66.4092L696.913 151.903V70.4959L791.859 5.1084L791.996 5.27187C793.638 6.41615 796.511 6.41615 798.153 5.27187C799.794 3.96412 799.794 2.16596 798.153 0.858212ZM664.899 364.086L550.936 442.715L436.973 364.086L550.936 285.458L664.899 364.086Z" fill="url(#paint0_radial)"/>
<defs>
    <radialGradient id="paint0_radial" cx="0" cy="0" r="1" gradientUnits="userSpaceOnUse" gradientTransform="translate(838.649 88.9772) rotate(180) scale(601.066 718.187)">
    <stop stop-color="#FF2C9C"/>
    <stop offset="0.0300632" stop-color="#F62F9F"/>
    <stop offset="0.2023" stop-color="#C63EB0"/>
    <stop offset="0.3737" stop-color="#9E4BBE"/>
    <stop offset="0.5413" stop-color="#7F54C9"/>
    <stop offset="0.7039" stop-color="#695BD1"/>
    <stop offset="0.8594" stop-color="#5C60D5"/>
    <stop offset="1" stop-color="#5761D7"/>
    </radialGradient>
</defs>
</svg>
