<svg id="cripto-works" width="568" viewBox="0 0 568 773" fill="none" xmlns="http://www.w3.org/2000/svg">
<path opacity="0.5792" d="M422.581 773L422.581 724.982L422.732 724.831L426.658 722.566L489.172 686.174L492.494 684.211L492.947 684.06L493.249 683.758L493.551 684.06L494.004 684.211L497.326 686.174L559.841 722.566L563.163 724.529L563.465 724.68L563.918 724.982L563.918 759.752L563.163 759.752L563.163 725.435L559.388 723.321L496.873 686.778L493.551 684.966L493.249 684.664L492.947 684.966L489.625 686.778L427.111 723.321L423.336 725.435L423.336 773L422.581 773Z" fill="url(#paint0_linear)"/>
<path opacity="0.9861" d="M563.477 724.679L563.93 724.83L563.93 642.534L563.175 643.138L563.175 724.528L563.477 724.679ZM563.93 725.887L567.252 727.699C567.403 727.548 567.554 727.246 567.705 727.095L564.383 725.132L563.93 724.981L563.93 642.685L563.175 643.138L563.175 725.434L563.93 725.887Z" fill="url(#paint1_linear)"/>
<path opacity="0.9699" d="M422.581 773L422.581 724.982L422.732 724.831L426.658 722.566L489.172 686.174L492.494 684.211L492.947 684.06L493.249 683.758L493.551 684.06L494.004 684.211L497.326 686.174L559.841 722.566L563.163 724.529L563.465 724.68L563.918 724.982L563.918 759.752L563.163 759.752L563.163 725.435L559.388 723.321L496.873 686.778L493.551 684.966L493.249 684.664L492.947 684.966L489.625 686.778L427.111 723.321L423.336 725.435L423.336 773L422.581 773Z" fill="url(#paint2_linear)"/>
<path opacity="0.9051" d="M563.918 398.365L563.918 397.46L563.164 397.007L563.164 397.913L563.918 398.365Z" fill="url(#paint3_linear)"/>
<path opacity="0.9574" d="M480.727 773L489.183 768.017L492.807 765.903L493.109 765.752L493.562 765.903L497.186 768.017L505.793 773L504.283 773L496.884 768.772L493.26 766.658L489.636 768.772L482.237 773L480.727 773Z" fill="url(#paint4_linear)"/>
<path opacity="0.9474" d="M493.557 684.06L494.01 684.211L497.332 682.399L563.168 644.045L563.168 643.139L497.03 681.644L493.708 683.607L493.255 683.758L493.557 684.06ZM387.1 622.904L387.855 623.357L422.284 643.29L422.586 643.441L423.039 643.743L489.177 682.399L492.5 684.211L492.953 684.362L493.104 684.513L493.255 684.664L493.708 684.362L494.01 684.211L497.332 682.399L563.168 644.045L563.923 643.592L563.923 642.686L563.168 643.139L497.03 681.644L493.708 683.607L493.255 683.758L492.953 683.607L489.63 681.644L423.794 643.29L423.341 643.139L422.888 642.837L422.435 642.686L388.308 622.602L387.553 622.149L353.125 602.066L353.125 438.834L422.586 398.365L423.039 398.214L423.492 397.912L423.794 397.761L458.222 377.678L458.977 377.225L493.406 357.142L527.834 377.225L528.589 377.678L563.319 397.912L564.074 398.365L564.074 397.459L563.319 397.006L528.74 377.074L527.985 376.621L493.406 356.538L493.255 356.387L458.524 376.621L457.769 377.074L423.039 397.308L422.737 397.459L422.435 397.61L352.672 438.23L352.521 438.381L352.521 602.67L387.1 622.904Z" fill="url(#paint5_linear)"/>
<path opacity="0.8086" d="M321.272 625.472L352.68 643.743L387.863 623.207L388.316 623.056L388.316 581.682L353.133 561.296L352.68 560.994L352.227 561.296L321.121 579.417L317.044 581.833L317.044 623.056L321.272 625.472ZM317.95 582.135L321.574 580.021L352.227 562.202L352.68 561.9L353.133 562.202L387.561 582.286L387.561 622.603L387.259 622.754L352.831 642.837L321.725 624.717L318.101 622.603L318.101 582.135L317.95 582.135Z" fill="url(#paint6_linear)"/>
<path opacity="0.5531" d="M458.073 377.678L493.257 398.063L528.44 377.678L528.742 377.527L528.742 336.153L493.257 315.466L457.771 336.153L457.771 377.527L458.073 377.678ZM458.527 336.606L493.257 316.372L527.987 336.606L527.987 377.074L527.534 377.225L493.106 397.308L458.677 377.225L458.376 377.074L458.376 336.606L458.527 336.606Z" fill="url(#paint7_linear)"/>
<path opacity="0.9538" d="M340.148 773L352.681 765.752L365.365 773L363.855 773L352.681 766.507L341.658 773L340.148 773Z" fill="url(#paint8_linear)"/>
<path opacity="0.8754" d="M141.575 773L141.575 724.982L141.877 724.68L145.652 722.566L176.758 704.445L177.513 704.143L211.79 684.06L212.243 683.758L212.545 684.06L246.974 704.143L247.729 704.445L282.912 724.982L282.912 773L282.157 773L282.157 725.435L247.276 705.2L246.672 704.747L212.545 684.966L212.243 684.664L211.79 684.966L177.815 704.747L177.06 705.2L145.954 723.321L142.33 725.435L142.33 773L141.575 773Z" fill="url(#paint9_linear)"/>
<path opacity="0.5051" d="M422.581 773L422.581 724.982L422.732 724.831L426.658 722.566L489.172 686.174L492.494 684.211L492.947 684.06L493.249 683.758L493.551 684.06L494.004 684.211L497.326 686.174L559.841 722.566L563.163 724.529L563.465 724.68L563.918 724.982L563.918 733.257L563.163 733.257L563.163 725.435L559.388 723.321L496.873 686.778L493.551 684.966L493.249 684.664L492.947 684.966L489.625 686.778L427.111 723.321L423.336 725.435L423.336 773L422.581 773Z" fill="url(#paint10_linear)"/>
<path opacity="0.8517" d="M211.782 766.356L211.782 602.217L212.084 602.066L212.537 601.764L225.674 594.063L228.996 592.1L229.751 591.798L233.526 589.533L278.374 563.41L282.149 561.296L282.3 561.145L286.075 558.88L348.74 522.489L352.062 520.526L352.364 520.375L352.666 520.073L353.119 520.375L353.421 520.526L356.743 522.489L373.052 532.002L419.258 558.88L423.033 560.994L423.335 561.296L423.788 561.447L427.11 563.41L489.625 599.801L492.947 601.764L493.551 602.217L493.551 766.356L493.4 766.507L493.249 766.507L489.625 768.772L482.226 773L480.716 773L489.172 768.017L492.947 765.903L492.947 602.67L492.494 602.368L489.172 600.405L426.657 564.014L423.335 562.051L422.58 561.598L418.956 559.484L362.784 526.868L356.441 523.093L353.119 521.13L352.666 520.979L352.364 521.13L349.042 523.093L340.284 528.227L286.528 559.484L282.904 561.749L282.149 562.051L278.827 564.014L233.828 590.288L230.204 592.402L229.449 592.855L226.127 594.818L212.99 602.368L212.537 602.67L212.537 765.903L224.768 773L223.258 773L212.235 766.507L211.782 766.356Z" fill="url(#paint11_linear)"/>
<path opacity="0.61" d="M198.346 615.204L208.161 620.942L211.785 623.056L212.238 623.207L212.691 623.056L216.315 620.942L229.905 613.09L230.207 612.939L230.207 592.101L229.754 591.799L226.13 589.685L212.691 581.833L212.238 581.682L211.785 581.833L194.269 592.101L194.269 612.939L198.346 615.204ZM195.024 592.403L211.785 582.588L212.238 582.286L212.691 582.588L225.828 590.289L229.15 592.252L229.603 592.403L229.603 612.486L229.301 612.637L216.164 620.338L212.842 622.301L212.389 622.603L211.936 622.301L208.614 620.338L198.799 614.6L195.175 612.486L195.175 592.403L195.024 592.403Z" fill="url(#paint12_linear)"/>
<path opacity="0.6181" d="M493.551 684.06L494.004 684.211L497.326 682.399L563.163 644.045L563.163 643.139L497.024 681.644L493.702 683.607L493.249 683.758L493.551 684.06ZM423.336 561.296L423.336 561.749L423.789 561.598L427.111 559.635L489.625 523.244L492.947 521.28L493.249 521.129L492.947 520.978L492.494 520.676L489.172 522.639L426.658 559.031L423.034 561.145L423.336 561.296ZM493.551 684.06L494.004 684.211L497.326 682.399L563.163 644.045L563.163 643.139L497.024 681.644L493.702 683.607L493.249 683.758L493.551 684.06ZM423.336 561.296L423.336 561.749L423.789 561.598L427.111 559.635L489.625 523.244L492.947 521.28L493.249 521.129L492.947 520.978L492.494 520.676L489.172 522.639L426.658 559.031L423.034 561.145L423.336 561.296ZM493.551 684.06L494.004 684.211L497.326 682.399L563.163 644.045L563.163 643.139L497.024 681.644L493.702 683.607L493.249 683.758L493.551 684.06ZM423.034 643.743L489.172 682.399L492.494 684.211L492.947 684.362L493.098 684.513L493.249 684.664L493.702 684.362L494.004 684.211L497.326 682.399L563.163 644.045L563.918 643.592L563.918 561.296L497.326 522.489L494.004 520.525L493.702 520.374L493.249 520.072L492.947 520.223L492.494 520.374L489.172 522.337L426.658 558.729L423.034 560.843L422.883 560.994L422.732 561.145L422.732 643.592L423.034 643.743ZM423.336 561.749L423.789 561.598L427.111 559.635L489.625 523.244L492.947 521.28L493.249 521.129L493.702 521.28L497.024 523.244L563.163 561.749L563.163 643.139L497.024 681.644L493.702 683.607L493.249 683.758L492.947 683.607L489.625 681.644L423.789 643.29L423.336 643.139L423.336 561.749ZM493.551 684.06L494.004 684.211L497.326 682.399L563.163 644.045L563.163 643.139L497.024 681.644L493.702 683.607L493.249 683.758L493.551 684.06ZM423.336 561.296L423.336 561.749L423.789 561.598L427.111 559.635L489.625 523.244L492.947 521.28L493.249 521.129L492.947 520.978L492.494 520.676L489.172 522.639L426.658 559.031L423.034 561.145L423.336 561.296ZM493.551 684.06L494.004 684.211L497.326 682.399L563.163 644.045L563.163 643.139L497.024 681.644L493.702 683.607L493.249 683.758L493.551 684.06ZM423.336 562.051L423.336 561.598L423.789 561.447L427.111 559.484L489.625 523.093L492.947 521.129L493.249 520.978L492.947 520.827L492.494 520.525L489.172 522.489L426.658 558.88L423.034 560.994L422.883 561.145L422.732 561.296L422.732 561.598L423.336 562.051Z" fill="url(#paint13_linear)"/>
<path opacity="0.876" d="M212.542 603.124L229.001 612.637L229.756 613.09L282.003 643.592L352.521 684.664L352.672 684.815L423.038 643.743L423.34 643.592L423.793 643.29L489.63 604.936L492.952 602.973L493.556 602.671L493.707 602.52L493.707 438.381L423.793 397.611L423.491 397.46L423.038 397.309L388.308 377.074L387.553 376.621L356.9 358.803L352.974 356.538L352.823 356.387L348.746 358.803L318.092 376.621L317.337 377.074L282.456 397.46L282.305 397.611L212.24 438.381L212.089 438.532L212.089 602.671L212.542 603.124ZM212.542 438.834L282.003 398.366L282.758 397.913L317.488 377.678L318.243 377.225L349.048 359.407L352.672 357.293L356.296 359.407L386.949 377.225L387.704 377.678L422.132 397.762L422.434 397.913L422.887 398.215L423.34 398.366L492.801 438.834L492.801 602.218L492.499 602.369L489.177 604.332L423.34 642.686L422.887 642.837L422.434 643.139L422.132 643.29L352.672 683.758L282.758 642.988L282.003 642.535L230.058 612.335L229.303 611.882L212.844 602.369L212.391 602.218L212.391 438.834L212.542 438.834Z" fill="url(#paint14_linear)"/>
<path opacity="0.5845" d="M317.648 377.678L352.831 398.063L388.014 377.678L388.316 377.527L388.316 336.153L356.908 317.882L352.831 315.466L348.754 317.882L317.346 336.153L317.346 377.527L317.648 377.678ZM317.95 336.606L349.056 318.486L352.68 316.372L356.304 318.486L387.41 336.606L387.41 377.074L386.957 377.225L352.529 397.308L318.101 377.225L317.648 377.074L317.648 336.606L317.95 336.606Z" fill="url(#paint15_linear)"/>
<path opacity="0.5432" d="M426.658 482.171L489.172 518.562L492.494 520.526L492.947 520.374L493.249 520.224L492.947 520.072L489.625 518.109L426.96 481.567L423.336 479.453L423.336 479.906L423.034 480.057L426.658 482.171ZM423.034 480.057L426.658 482.171L489.172 518.562C489.323 518.26 489.323 518.109 489.474 517.958L426.96 481.567L423.336 479.453L423.336 398.063L422.883 398.365L422.43 398.516L422.43 479.906L423.034 480.057ZM423.034 480.057L426.658 482.171L489.172 518.562C489.323 518.26 489.323 518.109 489.474 517.958L426.96 481.567L423.336 479.453L423.336 398.063L422.883 398.365L422.43 398.516L422.43 479.906L423.034 480.057ZM423.034 480.057L426.658 482.171L489.172 518.562L492.494 520.526L492.947 520.827L493.249 520.979L493.702 520.676L494.004 520.526L497.326 518.562L563.918 479.906L563.918 397.61L563.163 397.157L528.735 377.074L527.98 376.621L493.4 356.538L493.249 356.387L458.519 376.621L457.764 377.074L423.034 397.308L422.732 397.459L422.732 479.755L423.034 480.057ZM458.821 377.225L493.249 357.142L527.678 377.225L528.433 377.678L563.163 397.912L563.163 479.302L497.024 517.807L493.702 519.77L493.249 520.072L492.947 519.921L489.625 517.958L426.96 481.567L423.336 479.453L423.336 398.063L423.638 397.912L458.066 377.829L458.821 377.225ZM423.034 480.057L426.658 482.171L489.172 518.562C489.323 518.26 489.323 518.109 489.474 517.958L426.96 481.567L423.336 479.453L423.336 398.063L422.883 398.365L422.43 398.516L422.43 479.906L423.034 480.057ZM423.034 480.057L426.658 482.171L489.172 518.562C489.323 518.26 489.323 518.109 489.474 517.958L426.96 481.567L423.336 479.453L423.336 398.063L422.883 398.365L422.43 398.516L422.43 479.906L423.034 480.057Z" fill="url(#paint16_linear)"/>
<path opacity="0.8471" d="M0.998566 773L0.99857 724.982L67.5902 686.174L71.6672 683.758L75.7443 686.174L138.259 722.566L141.883 724.68L142.336 724.982L142.336 773L141.581 773L141.581 725.435L137.957 723.321L75.2913 686.778L71.6672 684.664L68.0432 686.778L1.75357 725.435L1.75357 773L0.998566 773Z" fill="url(#paint17_linear)"/>
<path opacity="0.7774" d="M177.059 705.2L211.79 725.434L212.243 725.585L212.696 725.434L247.426 705.2L247.879 705.049L247.879 663.674L216.471 645.403L212.847 643.289L212.394 642.987L211.941 643.289L208.317 645.403L176.908 663.674L176.908 704.898L177.059 705.2ZM177.512 663.976L208.619 645.856L211.941 643.893L212.394 643.742L212.847 643.893L216.169 645.856L247.275 663.976L247.275 704.445L246.822 704.596L212.847 724.377L212.394 724.679L211.941 724.377L177.965 704.596L177.512 704.445L177.512 663.976Z" fill="url(#paint18_linear)"/>
<path opacity="0.6187" d="M199.552 773L211.783 765.903L212.236 765.752L212.538 765.903L224.77 773L223.26 773L212.236 766.507L201.062 773L199.552 773Z" fill="url(#paint19_linear)"/>
<path opacity="0.6525" d="M36.1699 773L36.1699 745.367L40.247 743.102L71.6553 724.68L103.215 743.102L107.141 745.367L107.141 773L106.386 773L106.386 745.82L102.762 743.706L71.6553 725.586L40.549 743.706L36.9249 745.82L36.9249 773L36.1699 773Z" fill="url(#paint20_linear)"/>
<path opacity="0.6134" d="M0.998566 773L0.99857 724.982L67.5902 686.174L71.6672 683.758L75.7443 686.174L138.259 722.566L141.883 724.68L142.336 724.982L142.336 773L141.581 773L141.581 725.435L137.957 723.321L75.2913 686.778L71.6672 684.664L68.0432 686.778L1.75357 725.435L1.75357 773L0.998566 773Z" fill="url(#paint21_linear)"/>
<path opacity="0.951" d="M362.792 526.868L418.965 559.635L422.589 561.749L422.589 561.296L422.74 561.145L422.891 560.994L419.267 558.88L373.06 532.002L356.752 522.489C356.601 522.791 356.601 522.942 356.45 523.093L362.792 526.868ZM353.128 521.129L356.45 523.093L362.792 526.717L418.965 559.484L422.589 561.598L422.589 561.145L422.74 560.994L422.891 560.843L419.267 558.729L373.06 531.851L356.752 522.337L353.43 520.374L353.128 520.525L352.675 520.827L353.128 521.129ZM353.128 521.129L356.45 523.093L362.792 526.717L418.965 559.484L422.589 561.598L422.589 561.145L422.74 560.994L422.891 560.843L419.267 558.729L373.06 531.851L356.752 522.337L353.43 520.374L353.128 520.525L352.675 520.827L353.128 521.129ZM352.524 684.513L352.675 684.664L423.042 643.743L423.344 643.592L423.344 561.296L422.891 560.994L419.267 558.88L373.06 532.002L356.752 522.489L353.43 520.525L353.128 520.374L352.675 520.072L352.222 520.374L351.92 520.525L348.598 522.489L286.083 558.88L282.157 561.145L282.006 561.296L282.006 643.592L352.524 684.513ZM282.912 561.749L286.536 559.635L340.293 528.227L349.051 523.093L352.373 521.129L352.826 520.978L353.279 521.129L356.601 523.093L362.943 526.717L419.116 559.484L422.74 561.598L422.74 643.139L422.438 643.29L352.977 683.758L283.063 642.988L283.063 561.749L282.912 561.749ZM353.128 521.129L356.45 523.093L362.792 526.717L418.965 559.484L422.589 561.598L422.589 561.145L422.74 560.994L422.891 560.843L419.267 558.729L373.06 531.851L356.752 522.337L353.43 520.374L353.128 520.525L352.675 520.827L353.128 521.129ZM418.965 559.484L422.589 561.598L418.965 559.484L362.792 526.717L418.965 559.484Z" fill="url(#paint22_linear)"/>
<path opacity="0.6699" d="M353.124 520.374L353.426 520.526L356.748 518.562L419.262 482.171C419.111 482.02 418.96 481.718 418.96 481.567L356.446 517.958L353.124 519.921L352.671 520.224L353.124 520.374ZM353.124 520.374L353.426 520.526L356.748 518.562L419.262 482.171L423.037 480.057L422.584 479.906L422.584 479.453L418.96 481.567L356.446 517.958L353.124 519.921L352.671 520.224L353.124 520.374ZM353.124 520.374L353.426 520.526L356.748 518.562L419.262 482.171L423.037 480.057L422.584 479.906L422.584 479.453L418.96 481.567L356.446 517.958L353.124 519.921L352.671 520.224L353.124 520.374ZM348.745 518.562L352.067 520.526L352.369 520.676L352.52 520.827L352.671 520.979L353.124 520.676L353.426 520.526L356.748 518.562L419.262 482.171L423.037 480.057L423.49 479.906L423.49 397.61L423.037 397.459L388.307 377.225L387.552 376.772L356.899 358.954L352.973 356.689L352.822 356.538L348.745 358.954L318.091 376.772L317.336 377.225L282.455 397.61L282.304 397.761L282.304 480.057L348.745 518.562ZM317.638 377.678L318.393 377.225L349.047 359.407L352.671 357.293L356.295 359.407L386.948 377.225L387.703 377.678L422.131 397.761L422.433 397.912L422.433 479.302L418.809 481.416L356.295 517.807L352.973 519.77L352.52 520.072L352.067 519.77L348.745 517.807L282.606 479.302L282.606 397.912L317.638 377.678ZM353.124 520.374L353.426 520.526L356.748 518.562L419.262 482.171L423.037 480.057L422.584 479.906L422.584 479.453L418.96 481.567L356.446 517.958L353.124 519.921L352.671 520.224L353.124 520.374ZM353.124 520.374L353.124 519.921L352.671 520.224L353.124 520.374Z" fill="url(#paint23_linear)"/>
<path opacity="0.9074" d="M418.5 725.132C418.5 722.565 420.463 720.602 423.031 720.602C425.447 720.602 427.561 722.565 427.561 725.132C427.561 727.699 425.598 729.662 423.031 729.662C420.463 729.662 418.5 727.699 418.5 725.132Z" fill="url(#paint24_linear)"/>
<path opacity="0.6002" d="M488.729 684.211C488.729 681.644 490.692 679.681 493.259 679.681C495.675 679.681 497.789 681.644 497.789 684.211C497.789 686.778 495.826 688.741 493.259 688.741C490.843 688.741 488.729 686.778 488.729 684.211Z" fill="url(#paint25_linear)"/>
<path opacity="0.8428" d="M559.091 725.132C559.091 724.377 559.242 723.773 559.544 723.169C559.695 723.018 559.846 722.716 559.997 722.565C560.752 721.508 561.96 720.753 563.319 720.602C563.47 720.602 563.621 720.602 563.772 720.602C563.923 720.602 564.074 720.602 564.225 720.602C565.584 720.753 566.792 721.508 567.547 722.565C567.698 722.716 567.849 723.018 568 723.169C567.849 723.773 568 724.528 568 725.132C568 725.736 567.849 726.491 567.547 727.095C567.396 727.397 567.396 727.548 567.094 727.699C566.339 728.756 565.131 729.511 563.772 729.662C563.621 729.662 563.47 729.662 563.319 729.662C563.168 729.662 563.017 729.662 562.866 729.662C560.903 729.511 559.091 727.548 559.091 725.132Z" fill="url(#paint26_linear)"/>
<path opacity="0.9917" d="M313.11 581.983C313.11 579.416 315.073 577.453 317.64 577.453C320.056 577.453 322.17 579.416 322.17 581.983C322.17 584.55 320.207 586.513 317.64 586.513C315.073 586.513 313.11 584.399 313.11 581.983Z" fill="url(#paint27_linear)"/>
<path opacity="0.9612" d="M313.11 622.905C313.11 620.338 315.073 618.374 317.64 618.374C320.056 618.374 322.17 620.338 322.17 622.905C322.17 625.472 320.207 627.435 317.64 627.435C315.073 627.435 313.11 625.321 313.11 622.905Z" fill="url(#paint28_linear)"/>
<path opacity="0.6836" d="M137.495 725.132C137.495 722.565 139.458 720.602 142.025 720.602C144.441 720.602 146.555 722.565 146.555 725.132C146.555 727.699 144.592 729.662 142.025 729.662C139.458 729.662 137.495 727.699 137.495 725.132Z" fill="url(#paint29_linear)"/>
<path opacity="0.9087" d="M559.091 725.132C559.091 724.377 559.242 723.773 559.544 723.169C559.695 723.018 559.846 722.716 559.997 722.565C560.752 721.508 561.96 720.753 563.319 720.602C563.47 720.602 563.621 720.602 563.772 720.602C563.923 720.602 564.074 720.602 564.225 720.602C565.584 720.753 566.792 721.508 567.547 722.565C567.698 722.716 567.849 723.018 568 723.169C567.849 723.773 568 724.528 568 725.132C568 725.736 567.849 726.491 567.547 727.095C567.396 727.397 567.396 727.548 567.094 727.699C566.339 728.756 565.131 729.511 563.772 729.662C563.621 729.662 563.47 729.662 563.319 729.662C563.168 729.662 563.017 729.662 562.866 729.662C560.903 729.511 559.091 727.548 559.091 725.132Z" fill="url(#paint30_linear)"/>
<path opacity="0.7254" d="M418.5 725.132C418.5 722.565 420.463 720.602 423.031 720.602C425.447 720.602 427.561 722.565 427.561 725.132C427.561 727.699 425.598 729.662 423.031 729.662C420.463 729.662 418.5 727.699 418.5 725.132Z" fill="url(#paint31_linear)"/>
<path opacity="0.5217" d="M488.729 602.368C488.729 599.801 490.692 597.838 493.259 597.838C495.675 597.838 497.789 599.801 497.789 602.368C497.789 604.935 495.826 606.898 493.259 606.898C490.843 606.898 488.729 604.935 488.729 602.368Z" fill="url(#paint32_linear)"/>
<path opacity="0.758" d="M488.729 766.054C488.729 763.487 490.692 761.524 493.259 761.524C495.675 761.524 497.789 763.487 497.789 766.054C497.789 768.621 495.826 770.584 493.259 770.584C490.843 770.584 488.729 768.621 488.729 766.054Z" fill="url(#paint33_linear)"/>
<path opacity="0.5672" d="M225.223 592.1C225.223 589.533 227.186 587.57 229.753 587.57C232.169 587.57 234.283 589.533 234.283 592.1C234.283 594.667 232.32 596.63 229.753 596.63C227.337 596.63 225.223 594.667 225.223 592.1Z" fill="url(#paint34_linear)"/>
<path opacity="0.6639" d="M190.194 612.636C190.194 610.069 192.157 608.106 194.724 608.106C197.14 608.106 199.254 610.069 199.254 612.636C199.254 615.203 197.291 617.166 194.724 617.166C192.157 617.166 190.194 615.052 190.194 612.636Z" fill="url(#paint35_linear)"/>
<path opacity="0.7845" d="M207.706 622.905C207.706 620.338 209.669 618.374 212.236 618.374C214.652 618.374 216.766 620.338 216.766 622.905C216.766 625.472 214.803 627.435 212.236 627.435C209.669 627.435 207.706 625.321 207.706 622.905Z" fill="url(#paint36_linear)"/>
<path opacity="0.8686" d="M348.29 315.918C348.29 313.351 350.253 311.388 352.82 311.388C355.236 311.388 357.35 313.351 357.35 315.918C357.35 318.485 355.387 320.448 352.82 320.448C350.253 320.448 348.29 318.334 348.29 315.918Z" fill="url(#paint37_linear)"/>
<path opacity="0.9438" d="M418.506 479.604C418.506 477.037 420.469 475.074 423.036 475.074C425.452 475.074 427.566 477.037 427.566 479.604C427.566 482.171 425.603 484.134 423.036 484.134C420.469 484.134 418.506 482.171 418.506 479.604Z" fill="url(#paint38_linear)"/>
<path opacity="0.8488" d="M488.729 520.526C488.729 517.959 490.692 515.996 493.259 515.996C495.675 515.996 497.789 517.959 497.789 520.526C497.789 523.093 495.826 525.056 493.259 525.056C490.843 525.056 488.729 523.093 488.729 520.526Z" fill="url(#paint39_linear)"/>
<path opacity="0.5604" d="M137.495 725.132C137.495 722.565 139.458 720.602 142.025 720.602C144.441 720.602 146.555 722.565 146.555 725.132C146.555 727.699 144.592 729.662 142.025 729.662C139.458 729.662 137.495 727.699 137.495 725.132Z" fill="url(#paint40_linear)"/>
<path opacity="0.8646" d="M67.2778 684.211C67.2778 681.644 69.2408 679.681 71.8078 679.681C74.2239 679.681 76.3379 681.644 76.3379 684.211C76.3379 686.778 74.3749 688.741 71.8078 688.741C69.2408 688.741 67.2778 686.778 67.2778 684.211Z" fill="url(#paint41_linear)"/>
<path opacity="0.5312" d="M207.706 643.289C207.706 640.722 209.669 638.759 212.236 638.759C214.652 638.759 216.766 640.722 216.766 643.289C216.766 645.856 214.803 647.819 212.236 647.819C209.669 647.819 207.706 645.856 207.706 643.289Z" fill="url(#paint42_linear)"/>
<path opacity="0.7235" d="M102.313 745.669C102.313 743.102 104.276 741.139 106.843 741.139C109.259 741.139 111.373 743.102 111.373 745.669C111.373 748.236 109.41 750.199 106.843 750.199C104.276 750.199 102.313 748.085 102.313 745.669Z" fill="url(#paint43_linear)"/>
<path opacity="0.5885" d="M32.0962 745.669C32.0962 743.102 34.0592 741.139 36.6262 741.139C39.0422 741.139 41.1563 743.102 41.1563 745.669C41.1563 748.236 39.1932 750.199 36.6262 750.199C34.0592 750.199 32.0962 748.085 32.0962 745.669Z" fill="url(#paint44_linear)"/>
<path opacity="0.8858" d="M418.506 561.447C418.506 558.879 420.469 556.916 423.036 556.916C425.452 556.916 427.566 558.879 427.566 561.447C427.566 564.014 425.603 565.977 423.036 565.977C420.469 565.977 418.506 564.014 418.506 561.447Z" fill="url(#paint45_linear)"/>
<path opacity="0.5875" d="M277.928 561.447C277.928 558.879 279.891 556.916 282.458 556.916C285.025 556.916 286.988 558.879 286.988 561.447C286.988 564.014 285.025 565.977 282.458 565.977C279.891 565.977 277.928 564.014 277.928 561.447Z" fill="url(#paint46_linear)"/>
<path opacity="0.6677" d="M348.29 356.84C348.29 354.273 350.253 352.31 352.82 352.31C355.236 352.31 357.35 354.273 357.35 356.84C357.35 359.407 355.387 361.37 352.82 361.37C350.253 361.37 348.29 359.256 348.29 356.84Z" fill="url(#paint47_linear)"/>
<path opacity="0.779" d="M348.29 520.526C348.29 517.959 350.253 515.996 352.82 515.996C355.236 515.996 357.35 517.959 357.35 520.526C357.35 523.093 355.387 525.056 352.82 525.056C350.253 525.056 348.29 523.093 348.29 520.526Z" fill="url(#paint48_linear)"/>
<path opacity="0.5792" d="M488.896 6.72138e-06L488.896 26.2139L488.978 26.2964L491.113 27.5329L525.12 47.3994L526.927 48.471L527.173 48.5535L527.337 48.7183L527.502 48.5535L527.748 48.471L529.555 47.3994L563.562 27.5329L565.369 26.4612L565.533 26.3788L565.779 26.2139L565.779 7.23217L565.369 7.23217L565.369 25.9666L563.315 27.1207L529.309 47.0697L527.502 48.0589L527.337 48.2237L527.173 48.0589L525.366 47.0697L491.36 27.1207L489.306 25.9666L489.306 6.68548e-06L488.896 6.72138e-06Z" fill="url(#paint49_linear)"/>
<path opacity="0.9861" d="M565.538 26.3791L565.784 26.2967L565.784 71.2231L565.374 70.8934L565.374 26.4616L565.538 26.3791ZM565.784 25.7197L567.591 24.7305C567.674 24.8129 567.756 24.9778 567.838 25.0602L566.031 26.1318L565.784 26.2143L565.784 71.1407L565.374 70.8934L565.374 25.967L565.784 25.7197Z" fill="url(#paint50_linear)"/>
<path opacity="0.9699" d="M488.896 6.72138e-06L488.896 26.2139L488.978 26.2964L491.113 27.5329L525.12 47.3994L526.927 48.471L527.173 48.5535L527.337 48.7183L527.502 48.5535L527.748 48.471L529.555 47.3994L563.562 27.5329L565.369 26.4612L565.533 26.3788L565.779 26.2139L565.779 7.23217L565.369 7.23217L565.369 25.9666L563.315 27.1207L529.309 47.0697L527.502 48.0589L527.337 48.2237L527.173 48.0589L525.366 47.0697L491.36 27.1207L489.306 25.9666L489.306 6.68548e-06L488.896 6.72138e-06Z" fill="url(#paint51_linear)"/>
<path opacity="0.9051" d="M565.779 204.518L565.779 205.012L565.369 205.259L565.369 204.765L565.779 204.518Z" fill="url(#paint52_linear)"/>
<path opacity="0.9574" d="M520.531 1.19204e-06L525.131 2.72031L527.102 3.87439L527.266 3.95682L527.513 3.87439L529.484 2.72031L534.166 0L533.345 7.18096e-08L529.32 2.30815L527.348 3.46222L525.377 2.30815L521.352 1.12023e-06L520.531 1.19204e-06Z" fill="url(#paint53_linear)"/>
<path opacity="0.9474" d="M527.507 48.5534L527.754 48.4709L529.561 49.4601L565.374 70.3983L565.374 70.8929L529.397 49.8723L527.59 48.8007L527.343 48.7182L527.507 48.5534ZM469.598 81.939L470.009 81.6917L488.737 70.8105L488.901 70.7281L489.148 70.5632L525.125 49.4601L526.933 48.4709L527.179 48.3885L527.261 48.3061L527.343 48.2236L527.59 48.3885L527.754 48.4709L529.561 49.4601L565.374 70.3983L565.785 70.6456L565.785 71.1402L565.374 70.8929L529.397 49.8723L527.59 48.8007L527.343 48.7182L527.179 48.8007L525.372 49.8723L489.559 70.8105L489.312 70.8929L489.066 71.0578L488.819 71.1402L470.255 82.1039L469.845 82.3512L451.117 93.3149L451.117 182.426L488.901 204.518L489.148 204.6L489.394 204.765L489.559 204.848L508.287 215.811L508.697 216.059L527.425 227.022L546.153 216.059L546.564 215.811L565.456 204.765L565.867 204.518L565.867 205.013L565.456 205.26L546.646 216.141L546.236 216.388L527.425 227.352L527.343 227.435L508.451 216.388L508.04 216.141L489.148 205.095L488.984 205.013L488.819 204.93L450.87 182.756L450.788 182.673L450.788 92.9852L469.598 81.939Z" fill="url(#paint54_linear)"/>
<path opacity="0.8086" d="M433.793 80.538L450.878 70.5635L470.017 81.7745L470.264 81.8569L470.264 104.444L451.125 115.572L450.878 115.737L450.632 115.572L433.711 105.68L431.493 104.361L431.493 81.8569L433.793 80.538ZM431.986 104.196L433.958 105.351L450.632 115.078L450.878 115.243L451.125 115.078L469.853 104.114L469.853 82.1042L469.689 82.0218L450.961 71.0581L434.04 80.9501L432.068 82.1042L432.068 104.196L431.986 104.196Z" fill="url(#paint55_linear)"/>
<path opacity="0.5531" d="M508.207 215.811L527.345 204.683L546.484 215.811L546.648 215.894L546.648 238.48L527.345 249.774L508.042 238.48L508.042 215.894L508.207 215.811ZM508.453 238.233L527.345 249.279L546.238 238.233L546.238 216.141L545.991 216.058L527.263 205.095L508.535 216.058L508.371 216.141L508.371 238.233L508.453 238.233Z" fill="url(#paint56_linear)"/>
<path opacity="0.9538" d="M444.05 1.19922e-06L450.868 3.95682L457.768 0L456.946 7.18096e-08L450.868 3.54465L444.872 1.12741e-06L444.05 1.19922e-06Z" fill="url(#paint57_linear)"/>
<path opacity="0.8754" d="M336.038 6.72138e-06L336.038 26.2139L336.202 26.3788L338.256 27.5329L355.177 37.4249L355.588 37.5898L374.234 48.5535L374.48 48.7183L374.644 48.5535L393.372 37.5898L393.783 37.4249L412.922 26.2139L412.922 0L412.511 3.59048e-08L412.511 25.9666L393.537 37.0128L393.208 37.2601L374.644 48.0589L374.48 48.2237L374.234 48.0589L355.752 37.2601L355.341 37.0128L338.42 27.1207L336.449 25.9666L336.449 6.68548e-06L336.038 6.72138e-06Z" fill="url(#paint58_linear)"/>
<path opacity="0.5051" d="M488.896 6.72138e-06L488.896 26.2139L488.978 26.2964L491.113 27.5329L525.12 47.3994L526.927 48.471L527.173 48.5535L527.337 48.7183L527.502 48.5535L527.748 48.471L529.555 47.3994L563.562 27.5329L565.369 26.4612L565.533 26.3788L565.779 26.2139L565.779 21.6965L565.369 21.6965L565.369 25.9666L563.315 27.1207L529.309 47.0697L527.502 48.0589L527.337 48.2237L527.173 48.0589L525.366 47.0697L491.36 27.1207L489.306 25.9666L489.306 6.68548e-06L488.896 6.72138e-06Z" fill="url(#paint59_linear)"/>
<path opacity="0.8517" d="M374.226 3.6271L374.226 93.2326L374.39 93.315L374.636 93.4799L381.782 97.684L383.59 98.7556L384 98.9205L386.054 100.157L410.45 114.418L412.503 115.572L412.585 115.655L414.639 116.891L448.727 136.758L450.534 137.829L450.698 137.912L450.863 138.077L451.109 137.912L451.273 137.829L453.081 136.758L461.952 131.564L487.087 116.891L489.14 115.737L489.305 115.572L489.551 115.49L491.358 114.418L525.364 94.5515L527.171 93.4799L527.5 93.2326L527.5 3.62708L527.418 3.54465L527.336 3.54465L525.364 2.30814L521.339 5.38572e-07L520.518 6.10382e-07L525.118 2.72031L527.171 3.87439L527.171 92.9853L526.925 93.1501L525.118 94.2218L491.112 114.088L489.305 115.16L488.894 115.407L486.923 116.561L456.366 134.367L452.916 136.428L451.109 137.499L450.863 137.582L450.698 137.499L448.891 136.428L444.127 133.625L414.885 116.561L412.914 115.325L412.503 115.16L410.696 114.088L386.218 99.7448L384.247 98.5908L383.836 98.3435L382.029 97.2718L374.883 93.1501L374.636 92.9853L374.636 3.8744L381.29 1.27821e-05L380.468 1.28539e-05L374.472 3.54466L374.226 3.6271Z" fill="url(#paint60_linear)"/>
<path opacity="0.61" d="M366.92 86.1434L372.259 83.0109L374.231 81.8569L374.477 81.7744L374.724 81.8569L376.695 83.0109L384.088 87.2975L384.252 87.3799L384.252 98.7558L384.006 98.9206L382.034 100.075L374.724 104.361L374.477 104.444L374.231 104.361L364.702 98.7558L364.702 87.3799L366.92 86.1434ZM365.113 98.5909L374.231 103.949L374.477 104.114L374.724 103.949L381.87 99.745L383.677 98.6733L383.923 98.5909L383.923 87.6272L383.759 87.5448L376.613 83.3407L374.806 82.269L374.559 82.1042L374.313 82.269L372.506 83.3407L367.167 86.4731L365.195 87.6272L365.195 98.5909L365.113 98.5909Z" fill="url(#paint61_linear)"/>
<path opacity="0.6181" d="M527.502 48.5534L527.748 48.4709L529.555 49.4601L565.369 70.3983L565.369 70.8929L529.391 49.8723L527.584 48.8007L527.337 48.7182L527.502 48.5534ZM489.306 115.572L489.306 115.325L489.553 115.407L491.36 116.479L525.366 136.345L527.173 137.417L527.337 137.499L527.173 137.582L526.927 137.747L525.12 136.675L491.113 116.809L489.142 115.654L489.306 115.572ZM527.502 48.5534L527.748 48.4709L529.555 49.4601L565.369 70.3983L565.369 70.8929L529.391 49.8723L527.584 48.8007L527.337 48.7182L527.502 48.5534ZM489.306 115.572L489.306 115.325L489.553 115.407L491.36 116.479L525.366 136.345L527.173 137.417L527.337 137.499L527.173 137.582L526.927 137.747L525.12 136.675L491.113 116.809L489.142 115.654L489.306 115.572ZM527.502 48.5534L527.748 48.4709L529.555 49.4601L565.369 70.3983L565.369 70.8929L529.391 49.8723L527.584 48.8007L527.337 48.7182L527.502 48.5534ZM489.142 70.5632L525.12 49.4601L526.927 48.4709L527.173 48.3885L527.255 48.3061L527.337 48.2236L527.584 48.3885L527.748 48.4709L529.555 49.4601L565.369 70.3983L565.779 70.6456L565.779 115.572L529.555 136.757L527.748 137.829L527.584 137.912L527.337 138.076L527.173 137.994L526.927 137.912L525.12 136.84L491.113 116.973L489.142 115.819L489.06 115.737L488.978 115.654L488.978 70.6456L489.142 70.5632ZM489.306 115.325L489.553 115.407L491.36 116.479L525.366 136.345L527.173 137.417L527.337 137.499L527.584 137.417L529.391 136.345L565.369 115.325L565.369 70.8929L529.391 49.8723L527.584 48.8007L527.337 48.7182L527.173 48.8007L525.366 49.8723L489.553 70.8105L489.306 70.8929L489.306 115.325ZM527.502 48.5534L527.748 48.4709L529.555 49.4601L565.369 70.3983L565.369 70.8929L529.391 49.8723L527.584 48.8007L527.337 48.7182L527.502 48.5534ZM489.306 115.572L489.306 115.325L489.553 115.407L491.36 116.479L525.366 136.345L527.173 137.417L527.337 137.499L527.173 137.582L526.927 137.747L525.12 136.675L491.113 116.809L489.142 115.654L489.306 115.572ZM527.502 48.5534L527.748 48.4709L529.555 49.4601L565.369 70.3983L565.369 70.8929L529.391 49.8723L527.584 48.8007L527.337 48.7182L527.502 48.5534ZM489.306 115.16L489.306 115.407L489.553 115.49L491.36 116.561L525.366 136.428L527.173 137.499L527.337 137.582L527.173 137.664L526.927 137.829L525.12 136.757L491.113 116.891L489.142 115.737L489.06 115.654L488.978 115.572L488.978 115.407L489.306 115.16Z" fill="url(#paint62_linear)"/>
<path opacity="0.876" d="M374.644 92.7383L383.597 87.5449L384.008 87.2976L412.429 70.646L450.788 48.224L450.87 48.1416L489.148 70.5636L489.312 70.646L489.559 70.8109L525.372 91.7491L527.179 92.8207L527.508 92.9856L527.59 93.068L527.59 182.673L489.559 204.931L489.394 205.013L489.148 205.095L470.256 216.142L469.845 216.389L453.17 226.116L451.035 227.353L450.953 227.435L448.735 226.116L432.06 216.389L431.65 216.142L412.675 205.013L412.593 204.931L374.48 182.673L374.398 182.591L374.398 92.9856L374.644 92.7383ZM374.644 182.426L412.429 204.518L412.839 204.766L431.732 215.812L432.142 216.059L448.899 225.786L450.87 226.94L452.842 225.786L469.516 216.059L469.927 215.812L488.655 204.848L488.819 204.766L489.066 204.601L489.312 204.518L527.097 182.426L527.097 93.2329L526.933 93.1504L525.126 92.0788L489.312 71.1406L489.066 71.0582L488.819 70.8933L488.655 70.8109L450.87 48.7186L412.839 70.9758L412.429 71.2231L384.172 87.7098L383.762 87.9571L374.808 93.1504L374.562 93.2329L374.562 182.426L374.644 182.426Z" fill="url(#paint63_linear)"/>
<path opacity="0.5845" d="M431.822 215.811L450.961 204.683L470.099 215.811L470.264 215.894L470.264 238.48L453.178 248.455L450.961 249.774L448.743 248.455L431.658 238.48L431.658 215.894L431.822 215.811ZM431.986 238.233L448.907 248.125L450.878 249.279L452.85 248.125L469.771 238.233L469.771 216.141L469.524 216.058L450.796 205.095L432.068 216.058L431.822 216.141L431.822 238.233L431.986 238.233Z" fill="url(#paint64_linear)"/>
<path opacity="0.5432" d="M491.113 158.768L525.12 138.901L526.927 137.829L527.173 137.912L527.337 137.994L527.173 138.077L525.366 139.148L491.278 159.097L489.306 160.251L489.306 160.004L489.142 159.922L491.113 158.768ZM489.142 159.922L491.113 158.768L525.12 138.901C525.202 139.066 525.202 139.148 525.284 139.231L491.278 159.097L489.306 160.251L489.306 204.683L489.06 204.518L488.814 204.436L488.814 160.004L489.142 159.922ZM489.142 159.922L491.113 158.768L525.12 138.901C525.202 139.066 525.202 139.148 525.284 139.231L491.278 159.097L489.306 160.251L489.306 204.683L489.06 204.518L488.814 204.436L488.814 160.004L489.142 159.922ZM489.142 159.922L491.113 158.768L525.12 138.901L526.927 137.829L527.173 137.664L527.337 137.582L527.584 137.747L527.748 137.829L529.555 138.901L565.779 160.004L565.779 204.93L565.369 205.178L546.641 216.141L546.23 216.389L527.42 227.352L527.337 227.435L508.445 216.389L508.034 216.141L489.142 205.095L488.978 205.013L488.978 160.086L489.142 159.922ZM508.609 216.059L527.337 227.023L546.066 216.059L546.476 215.812L565.369 204.766L565.369 160.334L529.391 139.313L527.584 138.242L527.337 138.077L527.173 138.159L525.366 139.231L491.278 159.097L489.306 160.251L489.306 204.683L489.471 204.766L508.199 215.729L508.609 216.059ZM489.142 159.922L491.113 158.768L525.12 138.901C525.202 139.066 525.202 139.148 525.284 139.231L491.278 159.097L489.306 160.251L489.306 204.683L489.06 204.518L488.814 204.436L488.814 160.004L489.142 159.922ZM489.142 159.922L491.113 158.768L525.12 138.901C525.202 139.066 525.202 139.148 525.284 139.231L491.278 159.097L489.306 160.251L489.306 204.683L489.06 204.518L488.814 204.436L488.814 160.004L489.142 159.922Z" fill="url(#paint65_linear)"/>
<path opacity="0.8471" d="M259.571 6.72138e-06L259.571 26.2139L295.795 47.3994L298.013 48.7183L300.231 47.3994L334.237 27.5329L336.209 26.3788L336.455 26.2139L336.455 0L336.044 3.59048e-08L336.044 25.9666L334.073 27.1207L299.985 47.0697L298.013 48.2237L296.042 47.0697L259.982 25.9666L259.982 6.68548e-06L259.571 6.72138e-06Z" fill="url(#paint66_linear)"/>
<path opacity="0.7774" d="M355.339 37.0133L374.232 25.9672L374.478 25.8848L374.725 25.9672L393.617 37.0133L393.863 37.0958L393.863 59.6826L376.778 69.6571L374.807 70.8112L374.56 70.976L374.314 70.8112L372.342 69.6571L355.257 59.6826L355.257 37.1782L355.339 37.0133ZM355.586 59.5177L372.507 69.4098L374.314 70.4814L374.56 70.5639L374.807 70.4814L376.614 69.4098L393.535 59.5177L393.535 37.4255L393.288 37.3431L374.807 26.5442L374.56 26.3794L374.314 26.5442L355.832 37.3431L355.586 37.4255L355.586 59.5177Z" fill="url(#paint67_linear)"/>
<path opacity="0.6187" d="M367.581 1.19922e-06L374.235 3.87439L374.481 3.95682L374.645 3.87439L381.299 0L380.477 7.18096e-08L374.481 3.54465L368.403 1.12741e-06L367.581 1.19922e-06Z" fill="url(#paint68_linear)"/>
<path opacity="0.6525" d="M278.708 3.37505e-06L278.708 15.0854L280.926 16.3219L298.011 26.3788L315.179 16.3219L317.314 15.0854L317.314 0L316.904 3.59048e-08L316.904 14.8381L314.932 15.9921L298.011 25.8842L281.09 15.9922L279.119 14.8381L279.119 3.33915e-06L278.708 3.37505e-06Z" fill="url(#paint69_linear)"/>
<path opacity="0.6134" d="M259.571 6.72138e-06L259.571 26.2139L295.795 47.3994L298.013 48.7183L300.231 47.3994L334.237 27.5329L336.209 26.3788L336.455 26.2139L336.455 0L336.044 3.59048e-08L336.044 25.9666L334.073 27.1207L299.985 47.0697L298.013 48.2237L296.042 47.0697L259.982 25.9666L259.982 6.68548e-06L259.571 6.72138e-06Z" fill="url(#paint70_linear)"/>
<path opacity="0.951" d="M456.382 134.367L486.938 116.479L488.91 115.325L488.91 115.572L488.992 115.654L489.074 115.737L487.103 116.891L461.967 131.564L453.096 136.757C453.014 136.593 453.014 136.51 452.932 136.428L456.382 134.367ZM451.125 137.499L452.932 136.428L456.382 134.449L486.938 116.561L488.91 115.407L488.91 115.654L488.992 115.737L489.074 115.819L487.103 116.973L461.967 131.647L453.096 136.84L451.289 137.912L451.125 137.829L450.878 137.664L451.125 137.499ZM451.125 137.499L452.932 136.428L456.382 134.449L486.938 116.561L488.91 115.407L488.91 115.654L488.992 115.737L489.074 115.819L487.103 116.973L461.967 131.647L453.096 136.84L451.289 137.912L451.125 137.829L450.878 137.664L451.125 137.499ZM450.796 48.3061L450.878 48.2236L489.156 70.5632L489.32 70.6456L489.32 115.572L489.074 115.737L487.103 116.891L461.967 131.564L453.096 136.757L451.289 137.829L451.125 137.912L450.878 138.076L450.632 137.912L450.468 137.829L448.661 136.757L414.654 116.891L412.519 115.654L412.437 115.572L412.437 70.6456L450.796 48.3061ZM412.93 115.325L414.901 116.479L444.143 133.625L448.907 136.428L450.714 137.499L450.961 137.582L451.207 137.499L453.014 136.428L456.464 134.449L487.02 116.561L488.992 115.407L488.992 70.8929L488.827 70.8105L451.043 48.7182L413.012 70.9754L413.012 115.325L412.93 115.325ZM451.125 137.499L452.932 136.428L456.382 134.449L486.938 116.561L488.91 115.407L488.91 115.654L488.992 115.737L489.074 115.819L487.103 116.973L461.967 131.647L453.096 136.84L451.289 137.912L451.125 137.829L450.878 137.664L451.125 137.499ZM486.938 116.561L488.91 115.407L486.938 116.561L456.382 134.449L486.938 116.561Z" fill="url(#paint71_linear)"/>
<path opacity="0.6699" d="M451.123 137.912L451.287 137.829L453.094 138.901L487.1 158.768C487.018 158.85 486.936 159.015 486.936 159.097L452.93 139.231L451.123 138.159L450.876 137.994L451.123 137.912ZM451.123 137.912L451.287 137.829L453.094 138.901L487.1 158.768L489.154 159.922L488.908 160.004L488.908 160.251L486.936 159.097L452.93 139.231L451.123 138.159L450.876 137.994L451.123 137.912ZM451.123 137.912L451.287 137.829L453.094 138.901L487.1 158.768L489.154 159.922L488.908 160.004L488.908 160.251L486.936 159.097L452.93 139.231L451.123 138.159L450.876 137.994L451.123 137.912ZM448.741 138.901L450.548 137.829L450.712 137.747L450.794 137.664L450.876 137.582L451.123 137.747L451.287 137.829L453.094 138.901L487.1 158.768L489.154 159.922L489.4 160.004L489.4 204.93L489.154 205.013L470.262 216.059L469.851 216.306L453.176 226.033L451.041 227.27L450.959 227.352L448.741 226.033L432.066 216.306L431.656 216.059L412.681 204.93L412.599 204.848L412.599 159.922L448.741 138.901ZM431.82 215.812L432.23 216.059L448.905 225.786L450.876 226.94L452.848 225.786L469.522 216.059L469.933 215.812L488.661 204.848L488.825 204.766L488.825 160.334L486.854 159.18L452.848 139.313L451.041 138.242L450.794 138.077L450.548 138.242L448.741 139.313L412.763 160.334L412.763 204.766L431.82 215.812ZM451.123 137.912L451.287 137.829L453.094 138.901L487.1 158.768L489.154 159.922L488.908 160.004L488.908 160.251L486.936 159.097L452.93 139.231L451.123 138.159L450.876 137.994L451.123 137.912ZM451.123 137.912L451.123 138.159L450.876 137.994L451.123 137.912Z" fill="url(#paint72_linear)"/>
<path opacity="0.9074" d="M486.679 26.1312C486.679 27.5326 487.747 28.6042 489.143 28.6042C490.457 28.6042 491.607 27.5326 491.607 26.1312C491.607 24.7298 490.54 23.6582 489.143 23.6582C487.747 23.6582 486.679 24.7298 486.679 26.1312Z" fill="url(#paint73_linear)"/>
<path opacity="0.6002" d="M524.88 48.4711C524.88 49.8724 525.948 50.9441 527.344 50.9441C528.659 50.9441 529.809 49.8724 529.809 48.4711C529.809 47.0697 528.741 45.998 527.344 45.998C526.03 45.998 524.88 47.0697 524.88 48.4711Z" fill="url(#paint74_linear)"/>
<path opacity="0.8428" d="M563.154 26.1312C563.154 26.5434 563.236 26.8731 563.4 27.2029C563.482 27.2853 563.564 27.4502 563.647 27.5326C564.057 28.1096 564.714 28.5218 565.454 28.6042C565.536 28.6042 565.618 28.6042 565.7 28.6042C565.782 28.6042 565.864 28.6042 565.946 28.6042C566.686 28.5218 567.343 28.1096 567.754 27.5326C567.836 27.4502 567.918 27.2853 568 27.2029C567.918 26.8731 568 26.461 568 26.1312C568 25.8015 567.918 25.3893 567.754 25.0596C567.671 24.8947 567.671 24.8123 567.507 24.7298C567.096 24.1528 566.439 23.7406 565.7 23.6582C565.618 23.6582 565.536 23.6582 565.454 23.6582C565.371 23.6582 565.289 23.6582 565.207 23.6582C564.139 23.7406 563.154 24.8123 563.154 26.1312Z" fill="url(#paint75_linear)"/>
<path opacity="0.9917" d="M429.347 104.279C429.347 105.68 430.415 106.752 431.811 106.752C433.125 106.752 434.275 105.68 434.275 104.279C434.275 102.877 433.208 101.806 431.811 101.806C430.415 101.806 429.347 102.96 429.347 104.279Z" fill="url(#paint76_linear)"/>
<path opacity="0.9612" d="M429.347 81.9388C429.347 83.3402 430.415 84.4118 431.811 84.4118C433.125 84.4118 434.275 83.3402 434.275 81.9388C434.275 80.5375 433.208 79.4658 431.811 79.4658C430.415 79.4658 429.347 80.6199 429.347 81.9388Z" fill="url(#paint77_linear)"/>
<path opacity="0.6836" d="M333.818 26.1312C333.818 27.5326 334.885 28.6042 336.282 28.6042C337.596 28.6042 338.746 27.5326 338.746 26.1312C338.746 24.7298 337.678 23.6582 336.282 23.6582C334.885 23.6582 333.818 24.7298 333.818 26.1312Z" fill="url(#paint78_linear)"/>
<path opacity="0.9087" d="M563.154 26.1312C563.154 26.5434 563.236 26.8731 563.4 27.2029C563.482 27.2853 563.564 27.4502 563.647 27.5326C564.057 28.1096 564.714 28.5218 565.454 28.6042C565.536 28.6042 565.618 28.6042 565.7 28.6042C565.782 28.6042 565.864 28.6042 565.946 28.6042C566.686 28.5218 567.343 28.1096 567.754 27.5326C567.836 27.4502 567.918 27.2853 568 27.2029C567.918 26.8731 568 26.461 568 26.1312C568 25.8015 567.918 25.3893 567.754 25.0596C567.671 24.8947 567.671 24.8123 567.507 24.7298C567.096 24.1528 566.439 23.7406 565.7 23.6582C565.618 23.6582 565.536 23.6582 565.454 23.6582C565.371 23.6582 565.289 23.6582 565.207 23.6582C564.139 23.7406 563.154 24.8123 563.154 26.1312Z" fill="url(#paint79_linear)"/>
<path opacity="0.7254" d="M486.679 26.1312C486.679 27.5326 487.747 28.6042 489.143 28.6042C490.457 28.6042 491.607 27.5326 491.607 26.1312C491.607 24.7298 490.54 23.6582 489.143 23.6582C487.747 23.6582 486.679 24.7298 486.679 26.1312Z" fill="url(#paint80_linear)"/>
<path opacity="0.5217" d="M524.88 93.1498C524.88 94.5511 525.948 95.6228 527.344 95.6228C528.659 95.6228 529.809 94.5511 529.809 93.1498C529.809 91.7484 528.741 90.6768 527.344 90.6768C526.03 90.6768 524.88 91.7484 524.88 93.1498Z" fill="url(#paint81_linear)"/>
<path opacity="0.758" d="M524.88 3.79235C524.88 5.19372 525.948 6.26536 527.344 6.26536C528.659 6.26536 529.809 5.19372 529.809 3.79235C529.809 2.39097 528.741 1.31934 527.344 1.31934C526.03 1.31934 524.88 2.39097 524.88 3.79235Z" fill="url(#paint82_linear)"/>
<path opacity="0.5672" d="M381.54 98.7552C381.54 100.157 382.608 101.228 384.005 101.228C385.319 101.228 386.469 100.157 386.469 98.7552C386.469 97.3539 385.401 96.2822 384.005 96.2822C382.69 96.2822 381.54 97.3539 381.54 98.7552Z" fill="url(#paint83_linear)"/>
<path opacity="0.6639" d="M362.486 87.5443C362.486 88.9457 363.553 90.0173 364.95 90.0173C366.264 90.0173 367.414 88.9457 367.414 87.5443C367.414 86.1429 366.346 85.0713 364.95 85.0713C363.553 85.0713 362.486 86.2254 362.486 87.5443Z" fill="url(#paint84_linear)"/>
<path opacity="0.7845" d="M372.009 81.9388C372.009 83.3402 373.077 84.4118 374.473 84.4118C375.788 84.4118 376.938 83.3402 376.938 81.9388C376.938 80.5375 375.87 79.4658 374.473 79.4658C373.077 79.4658 372.009 80.6199 372.009 81.9388Z" fill="url(#paint85_linear)"/>
<path opacity="0.8686" d="M448.482 249.527C448.482 250.928 449.55 252 450.946 252C452.26 252 453.41 250.928 453.41 249.527C453.41 248.125 452.342 247.054 450.946 247.054C449.55 247.054 448.482 248.208 448.482 249.527Z" fill="url(#paint86_linear)"/>
<path opacity="0.9438" d="M486.679 160.168C486.679 161.57 487.747 162.641 489.143 162.641C490.457 162.641 491.607 161.57 491.607 160.168C491.607 158.767 490.54 157.695 489.143 157.695C487.747 157.695 486.679 158.767 486.679 160.168Z" fill="url(#paint87_linear)"/>
<path opacity="0.8488" d="M524.88 137.829C524.88 139.231 525.948 140.302 527.344 140.302C528.659 140.302 529.809 139.231 529.809 137.829C529.809 136.428 528.741 135.356 527.344 135.356C526.03 135.356 524.88 136.428 524.88 137.829Z" fill="url(#paint88_linear)"/>
<path opacity="0.5604" d="M333.818 26.1312C333.818 27.5326 334.885 28.6042 336.282 28.6042C337.596 28.6042 338.746 27.5326 338.746 26.1312C338.746 24.7298 337.678 23.6582 336.282 23.6582C334.885 23.6582 333.818 24.7298 333.818 26.1312Z" fill="url(#paint89_linear)"/>
<path opacity="0.8646" d="M295.62 48.4711C295.62 49.8724 296.688 50.9441 298.085 50.9441C299.399 50.9441 300.549 49.8724 300.549 48.4711C300.549 47.0697 299.481 45.998 298.085 45.998C296.688 45.998 295.62 47.0697 295.62 48.4711Z" fill="url(#paint90_linear)"/>
<path opacity="0.5312" d="M372.009 70.8109C372.009 72.2123 373.077 73.2839 374.473 73.2839C375.788 73.2839 376.938 72.2123 376.938 70.8109C376.938 69.4095 375.87 68.3379 374.473 68.3379C373.077 68.3379 372.009 69.4095 372.009 70.8109Z" fill="url(#paint91_linear)"/>
<path opacity="0.7235" d="M314.677 14.9203C314.677 16.3217 315.745 17.3933 317.141 17.3933C318.456 17.3933 319.605 16.3217 319.605 14.9203C319.605 13.5189 318.538 12.4473 317.141 12.4473C315.745 12.4473 314.677 13.6013 314.677 14.9203Z" fill="url(#paint92_linear)"/>
<path opacity="0.5885" d="M276.482 14.9203C276.482 16.3217 277.55 17.3933 278.946 17.3933C280.26 17.3933 281.41 16.3217 281.41 14.9203C281.41 13.5189 280.342 12.4473 278.946 12.4473C277.55 12.4473 276.482 13.6013 276.482 14.9203Z" fill="url(#paint93_linear)"/>
<path opacity="0.8858" d="M486.679 115.49C486.679 116.891 487.747 117.963 489.143 117.963C490.457 117.963 491.607 116.891 491.607 115.49C491.607 114.088 490.54 113.017 489.143 113.017C487.747 113.017 486.679 114.088 486.679 115.49Z" fill="url(#paint94_linear)"/>
<path opacity="0.5875" d="M410.208 115.49C410.208 116.891 411.276 117.963 412.672 117.963C414.069 117.963 415.137 116.891 415.137 115.49C415.137 114.088 414.069 113.017 412.672 113.017C411.276 113.017 410.208 114.088 410.208 115.49Z" fill="url(#paint95_linear)"/>
<path opacity="0.6677" d="M448.482 227.188C448.482 228.589 449.55 229.661 450.946 229.661C452.26 229.661 453.41 228.589 453.41 227.188C453.41 225.786 452.342 224.715 450.946 224.715C449.55 224.715 448.482 225.869 448.482 227.188Z" fill="url(#paint96_linear)"/>
<path opacity="0.779" d="M448.482 137.829C448.482 139.231 449.55 140.302 450.946 140.302C452.26 140.302 453.41 139.231 453.41 137.829C453.41 136.428 452.342 135.356 450.946 135.356C449.55 135.356 448.482 136.428 448.482 137.829Z" fill="url(#paint97_linear)"/>
<defs>
<linearGradient id="paint0_linear" x1="563.918" y1="727.751" x2="422.581" y2="727.751" gradientUnits="userSpaceOnUse">
<stop stop-color="#00B2FF"/>
<stop offset="1" stop-color="#00FFC2"/>
</linearGradient>
<linearGradient id="paint1_linear" x1="567.705" y1="684.517" x2="563.175" y2="684.517" gradientUnits="userSpaceOnUse">
<stop stop-color="#00B2FF"/>
<stop offset="1" stop-color="#00FFC2"/>
</linearGradient>
<linearGradient id="paint2_linear" x1="563.918" y1="727.751" x2="422.581" y2="727.751" gradientUnits="userSpaceOnUse">
<stop stop-color="#00B2FF"/>
<stop offset="1" stop-color="#00FFC2"/>
</linearGradient>
<linearGradient id="paint3_linear" x1="563.918" y1="397.677" x2="563.164" y2="397.677" gradientUnits="userSpaceOnUse">
<stop stop-color="#00B2FF"/>
<stop offset="1" stop-color="#00FFC2"/>
</linearGradient>
<linearGradient id="paint4_linear" x1="505.793" y1="769.325" x2="480.727" y2="769.325" gradientUnits="userSpaceOnUse">
<stop stop-color="#00B2FF"/>
<stop offset="1" stop-color="#00FFC2"/>
</linearGradient>
<linearGradient id="paint5_linear" x1="564.074" y1="518.214" x2="352.521" y2="518.214" gradientUnits="userSpaceOnUse">
<stop stop-color="#00B2FF"/>
<stop offset="1" stop-color="#00FFC2"/>
</linearGradient>
<linearGradient id="paint6_linear" x1="388.316" y1="601.786" x2="317.044" y2="601.786" gradientUnits="userSpaceOnUse">
<stop stop-color="#00B2FF"/>
<stop offset="1" stop-color="#00FFC2"/>
</linearGradient>
<linearGradient id="paint7_linear" x1="528.742" y1="356.183" x2="457.771" y2="356.183" gradientUnits="userSpaceOnUse">
<stop stop-color="#00B2FF"/>
<stop offset="1" stop-color="#00FFC2"/>
</linearGradient>
<linearGradient id="paint8_linear" x1="365.365" y1="769.325" x2="340.148" y2="769.325" gradientUnits="userSpaceOnUse">
<stop stop-color="#00B2FF"/>
<stop offset="1" stop-color="#00FFC2"/>
</linearGradient>
<linearGradient id="paint9_linear" x1="282.912" y1="727.751" x2="141.575" y2="727.751" gradientUnits="userSpaceOnUse">
<stop stop-color="#00B2FF"/>
<stop offset="1" stop-color="#00FFC2"/>
</linearGradient>
<linearGradient id="paint10_linear" x1="563.918" y1="727.751" x2="422.581" y2="727.751" gradientUnits="userSpaceOnUse">
<stop stop-color="#00B2FF"/>
<stop offset="1" stop-color="#00FFC2"/>
</linearGradient>
<linearGradient id="paint11_linear" x1="493.551" y1="644.755" x2="211.782" y2="644.755" gradientUnits="userSpaceOnUse">
<stop stop-color="#00B2FF"/>
<stop offset="1" stop-color="#00FFC2"/>
</linearGradient>
<linearGradient id="paint12_linear" x1="230.207" y1="602.152" x2="194.269" y2="602.152" gradientUnits="userSpaceOnUse">
<stop stop-color="#00B2FF"/>
<stop offset="1" stop-color="#00FFC2"/>
</linearGradient>
<linearGradient id="paint13_linear" x1="563.918" y1="601.209" x2="422.732" y2="601.209" gradientUnits="userSpaceOnUse">
<stop stop-color="#00B2FF"/>
<stop offset="1" stop-color="#00FFC2"/>
</linearGradient>
<linearGradient id="paint14_linear" x1="493.707" y1="518.288" x2="212.089" y2="518.288" gradientUnits="userSpaceOnUse">
<stop stop-color="#00B2FF"/>
<stop offset="1" stop-color="#00FFC2"/>
</linearGradient>
<linearGradient id="paint15_linear" x1="388.316" y1="356.183" x2="317.346" y2="356.183" gradientUnits="userSpaceOnUse">
<stop stop-color="#00B2FF"/>
<stop offset="1" stop-color="#00FFC2"/>
</linearGradient>
<linearGradient id="paint16_linear" x1="563.918" y1="437.524" x2="422.43" y2="437.524" gradientUnits="userSpaceOnUse">
<stop stop-color="#00B2FF"/>
<stop offset="1" stop-color="#00FFC2"/>
</linearGradient>
<linearGradient id="paint17_linear" x1="142.336" y1="727.751" x2="0.998569" y2="727.751" gradientUnits="userSpaceOnUse">
<stop stop-color="#00B2FF"/>
<stop offset="1" stop-color="#00FFC2"/>
</linearGradient>
<linearGradient id="paint18_linear" x1="247.879" y1="683.704" x2="176.908" y2="683.704" gradientUnits="userSpaceOnUse">
<stop stop-color="#00B2FF"/>
<stop offset="1" stop-color="#00FFC2"/>
</linearGradient>
<linearGradient id="paint19_linear" x1="224.77" y1="769.325" x2="199.552" y2="769.325" gradientUnits="userSpaceOnUse">
<stop stop-color="#00B2FF"/>
<stop offset="1" stop-color="#00FFC2"/>
</linearGradient>
<linearGradient id="paint20_linear" x1="107.141" y1="748.499" x2="36.1699" y2="748.499" gradientUnits="userSpaceOnUse">
<stop stop-color="#00B2FF"/>
<stop offset="1" stop-color="#00FFC2"/>
</linearGradient>
<linearGradient id="paint21_linear" x1="142.336" y1="727.751" x2="0.998569" y2="727.751" gradientUnits="userSpaceOnUse">
<stop stop-color="#00B2FF"/>
<stop offset="1" stop-color="#00FFC2"/>
</linearGradient>
<linearGradient id="paint22_linear" x1="423.344" y1="601.209" x2="282.006" y2="601.209" gradientUnits="userSpaceOnUse">
<stop stop-color="#00B2FF"/>
<stop offset="1" stop-color="#00FFC2"/>
</linearGradient>
<linearGradient id="paint23_linear" x1="423.49" y1="437.6" x2="282.304" y2="437.6" gradientUnits="userSpaceOnUse">
<stop stop-color="#00B2FF"/>
<stop offset="1" stop-color="#00FFC2"/>
</linearGradient>
<linearGradient id="paint24_linear" x1="427.561" y1="725.068" x2="418.5" y2="725.068" gradientUnits="userSpaceOnUse">
<stop stop-color="#00B2FF"/>
<stop offset="1" stop-color="#00FFC2"/>
</linearGradient>
<linearGradient id="paint25_linear" x1="497.789" y1="684.147" x2="488.729" y2="684.147" gradientUnits="userSpaceOnUse">
<stop stop-color="#00B2FF"/>
<stop offset="1" stop-color="#00FFC2"/>
</linearGradient>
<linearGradient id="paint26_linear" x1="568" y1="725.068" x2="559.091" y2="725.068" gradientUnits="userSpaceOnUse">
<stop stop-color="#00B2FF"/>
<stop offset="1" stop-color="#00FFC2"/>
</linearGradient>
<linearGradient id="paint27_linear" x1="322.17" y1="581.919" x2="313.11" y2="581.919" gradientUnits="userSpaceOnUse">
<stop stop-color="#00B2FF"/>
<stop offset="1" stop-color="#00FFC2"/>
</linearGradient>
<linearGradient id="paint28_linear" x1="322.17" y1="622.841" x2="313.11" y2="622.841" gradientUnits="userSpaceOnUse">
<stop stop-color="#00B2FF"/>
<stop offset="1" stop-color="#00FFC2"/>
</linearGradient>
<linearGradient id="paint29_linear" x1="146.555" y1="725.068" x2="137.495" y2="725.068" gradientUnits="userSpaceOnUse">
<stop stop-color="#00B2FF"/>
<stop offset="1" stop-color="#00FFC2"/>
</linearGradient>
<linearGradient id="paint30_linear" x1="568" y1="725.068" x2="559.091" y2="725.068" gradientUnits="userSpaceOnUse">
<stop stop-color="#00B2FF"/>
<stop offset="1" stop-color="#00FFC2"/>
</linearGradient>
<linearGradient id="paint31_linear" x1="427.561" y1="725.068" x2="418.5" y2="725.068" gradientUnits="userSpaceOnUse">
<stop stop-color="#00B2FF"/>
<stop offset="1" stop-color="#00FFC2"/>
</linearGradient>
<linearGradient id="paint32_linear" x1="497.789" y1="602.305" x2="488.729" y2="602.305" gradientUnits="userSpaceOnUse">
<stop stop-color="#00B2FF"/>
<stop offset="1" stop-color="#00FFC2"/>
</linearGradient>
<linearGradient id="paint33_linear" x1="497.789" y1="765.99" x2="488.729" y2="765.99" gradientUnits="userSpaceOnUse">
<stop stop-color="#00B2FF"/>
<stop offset="1" stop-color="#00FFC2"/>
</linearGradient>
<linearGradient id="paint34_linear" x1="234.283" y1="592.036" x2="225.223" y2="592.036" gradientUnits="userSpaceOnUse">
<stop stop-color="#00B2FF"/>
<stop offset="1" stop-color="#00FFC2"/>
</linearGradient>
<linearGradient id="paint35_linear" x1="199.254" y1="612.572" x2="190.194" y2="612.572" gradientUnits="userSpaceOnUse">
<stop stop-color="#00B2FF"/>
<stop offset="1" stop-color="#00FFC2"/>
</linearGradient>
<linearGradient id="paint36_linear" x1="216.766" y1="622.841" x2="207.706" y2="622.841" gradientUnits="userSpaceOnUse">
<stop stop-color="#00B2FF"/>
<stop offset="1" stop-color="#00FFC2"/>
</linearGradient>
<linearGradient id="paint37_linear" x1="357.35" y1="315.854" x2="348.29" y2="315.854" gradientUnits="userSpaceOnUse">
<stop stop-color="#00B2FF"/>
<stop offset="1" stop-color="#00FFC2"/>
</linearGradient>
<linearGradient id="paint38_linear" x1="427.566" y1="479.54" x2="418.506" y2="479.54" gradientUnits="userSpaceOnUse">
<stop stop-color="#00B2FF"/>
<stop offset="1" stop-color="#00FFC2"/>
</linearGradient>
<linearGradient id="paint39_linear" x1="497.789" y1="520.462" x2="488.729" y2="520.462" gradientUnits="userSpaceOnUse">
<stop stop-color="#00B2FF"/>
<stop offset="1" stop-color="#00FFC2"/>
</linearGradient>
<linearGradient id="paint40_linear" x1="146.555" y1="725.068" x2="137.495" y2="725.068" gradientUnits="userSpaceOnUse">
<stop stop-color="#00B2FF"/>
<stop offset="1" stop-color="#00FFC2"/>
</linearGradient>
<linearGradient id="paint41_linear" x1="76.3379" y1="684.147" x2="67.2778" y2="684.147" gradientUnits="userSpaceOnUse">
<stop stop-color="#00B2FF"/>
<stop offset="1" stop-color="#00FFC2"/>
</linearGradient>
<linearGradient id="paint42_linear" x1="216.766" y1="643.225" x2="207.706" y2="643.225" gradientUnits="userSpaceOnUse">
<stop stop-color="#00B2FF"/>
<stop offset="1" stop-color="#00FFC2"/>
</linearGradient>
<linearGradient id="paint43_linear" x1="111.373" y1="745.605" x2="102.313" y2="745.605" gradientUnits="userSpaceOnUse">
<stop stop-color="#00B2FF"/>
<stop offset="1" stop-color="#00FFC2"/>
</linearGradient>
<linearGradient id="paint44_linear" x1="41.1563" y1="745.605" x2="32.0962" y2="745.605" gradientUnits="userSpaceOnUse">
<stop stop-color="#00B2FF"/>
<stop offset="1" stop-color="#00FFC2"/>
</linearGradient>
<linearGradient id="paint45_linear" x1="427.566" y1="561.383" x2="418.506" y2="561.383" gradientUnits="userSpaceOnUse">
<stop stop-color="#00B2FF"/>
<stop offset="1" stop-color="#00FFC2"/>
</linearGradient>
<linearGradient id="paint46_linear" x1="286.988" y1="561.383" x2="277.928" y2="561.383" gradientUnits="userSpaceOnUse">
<stop stop-color="#00B2FF"/>
<stop offset="1" stop-color="#00FFC2"/>
</linearGradient>
<linearGradient id="paint47_linear" x1="357.35" y1="356.776" x2="348.29" y2="356.776" gradientUnits="userSpaceOnUse">
<stop stop-color="#00B2FF"/>
<stop offset="1" stop-color="#00FFC2"/>
</linearGradient>
<linearGradient id="paint48_linear" x1="357.35" y1="520.462" x2="348.29" y2="520.462" gradientUnits="userSpaceOnUse">
<stop stop-color="#00B2FF"/>
<stop offset="1" stop-color="#00FFC2"/>
</linearGradient>
<linearGradient id="paint49_linear" x1="565.779" y1="24.7023" x2="488.896" y2="24.7023" gradientUnits="userSpaceOnUse">
<stop stop-color="#00B2FF"/>
<stop offset="1" stop-color="#00FFC2"/>
</linearGradient>
<linearGradient id="paint50_linear" x1="567.838" y1="48.3042" x2="565.374" y2="48.3042" gradientUnits="userSpaceOnUse">
<stop stop-color="#00B2FF"/>
<stop offset="1" stop-color="#00FFC2"/>
</linearGradient>
<linearGradient id="paint51_linear" x1="565.779" y1="24.7023" x2="488.896" y2="24.7023" gradientUnits="userSpaceOnUse">
<stop stop-color="#00B2FF"/>
<stop offset="1" stop-color="#00FFC2"/>
</linearGradient>
<linearGradient id="paint52_linear" x1="565.779" y1="204.893" x2="565.369" y2="204.893" gradientUnits="userSpaceOnUse">
<stop stop-color="#00B2FF"/>
<stop offset="1" stop-color="#00FFC2"/>
</linearGradient>
<linearGradient id="paint53_linear" x1="534.166" y1="2.00627" x2="520.531" y2="2.00628" gradientUnits="userSpaceOnUse">
<stop stop-color="#00B2FF"/>
<stop offset="1" stop-color="#00FFC2"/>
</linearGradient>
<linearGradient id="paint54_linear" x1="565.867" y1="139.091" x2="450.788" y2="139.091" gradientUnits="userSpaceOnUse">
<stop stop-color="#00B2FF"/>
<stop offset="1" stop-color="#00FFC2"/>
</linearGradient>
<linearGradient id="paint55_linear" x1="470.264" y1="93.4684" x2="431.493" y2="93.4685" gradientUnits="userSpaceOnUse">
<stop stop-color="#00B2FF"/>
<stop offset="1" stop-color="#00FFC2"/>
</linearGradient>
<linearGradient id="paint56_linear" x1="546.648" y1="227.546" x2="508.042" y2="227.546" gradientUnits="userSpaceOnUse">
<stop stop-color="#00B2FF"/>
<stop offset="1" stop-color="#00FFC2"/>
</linearGradient>
<linearGradient id="paint57_linear" x1="457.768" y1="2.00627" x2="444.05" y2="2.00628" gradientUnits="userSpaceOnUse">
<stop stop-color="#00B2FF"/>
<stop offset="1" stop-color="#00FFC2"/>
</linearGradient>
<linearGradient id="paint58_linear" x1="412.922" y1="24.7023" x2="336.038" y2="24.7023" gradientUnits="userSpaceOnUse">
<stop stop-color="#00B2FF"/>
<stop offset="1" stop-color="#00FFC2"/>
</linearGradient>
<linearGradient id="paint59_linear" x1="565.779" y1="24.7023" x2="488.896" y2="24.7023" gradientUnits="userSpaceOnUse">
<stop stop-color="#00B2FF"/>
<stop offset="1" stop-color="#00FFC2"/>
</linearGradient>
<linearGradient id="paint60_linear" x1="527.5" y1="70.0106" x2="374.226" y2="70.0106" gradientUnits="userSpaceOnUse">
<stop stop-color="#00B2FF"/>
<stop offset="1" stop-color="#00FFC2"/>
</linearGradient>
<linearGradient id="paint61_linear" x1="384.252" y1="93.2687" x2="364.702" y2="93.2687" gradientUnits="userSpaceOnUse">
<stop stop-color="#00B2FF"/>
<stop offset="1" stop-color="#00FFC2"/>
</linearGradient>
<linearGradient id="paint62_linear" x1="565.779" y1="93.7828" x2="488.978" y2="93.7828" gradientUnits="userSpaceOnUse">
<stop stop-color="#00B2FF"/>
<stop offset="1" stop-color="#00FFC2"/>
</linearGradient>
<linearGradient id="paint63_linear" x1="527.59" y1="139.051" x2="374.398" y2="139.051" gradientUnits="userSpaceOnUse">
<stop stop-color="#00B2FF"/>
<stop offset="1" stop-color="#00FFC2"/>
</linearGradient>
<linearGradient id="paint64_linear" x1="470.264" y1="227.546" x2="431.658" y2="227.546" gradientUnits="userSpaceOnUse">
<stop stop-color="#00B2FF"/>
<stop offset="1" stop-color="#00FFC2"/>
</linearGradient>
<linearGradient id="paint65_linear" x1="565.779" y1="183.141" x2="488.814" y2="183.141" gradientUnits="userSpaceOnUse">
<stop stop-color="#00B2FF"/>
<stop offset="1" stop-color="#00FFC2"/>
</linearGradient>
<linearGradient id="paint66_linear" x1="336.455" y1="24.7023" x2="259.571" y2="24.7023" gradientUnits="userSpaceOnUse">
<stop stop-color="#00B2FF"/>
<stop offset="1" stop-color="#00FFC2"/>
</linearGradient>
<linearGradient id="paint67_linear" x1="393.863" y1="48.7479" x2="355.257" y2="48.7479" gradientUnits="userSpaceOnUse">
<stop stop-color="#00B2FF"/>
<stop offset="1" stop-color="#00FFC2"/>
</linearGradient>
<linearGradient id="paint68_linear" x1="381.299" y1="2.00627" x2="367.581" y2="2.00628" gradientUnits="userSpaceOnUse">
<stop stop-color="#00B2FF"/>
<stop offset="1" stop-color="#00FFC2"/>
</linearGradient>
<linearGradient id="paint69_linear" x1="317.314" y1="13.3752" x2="278.708" y2="13.3752" gradientUnits="userSpaceOnUse">
<stop stop-color="#00B2FF"/>
<stop offset="1" stop-color="#00FFC2"/>
</linearGradient>
<linearGradient id="paint70_linear" x1="336.455" y1="24.7023" x2="259.571" y2="24.7023" gradientUnits="userSpaceOnUse">
<stop stop-color="#00B2FF"/>
<stop offset="1" stop-color="#00FFC2"/>
</linearGradient>
<linearGradient id="paint71_linear" x1="489.32" y1="93.7828" x2="412.437" y2="93.7828" gradientUnits="userSpaceOnUse">
<stop stop-color="#00B2FF"/>
<stop offset="1" stop-color="#00FFC2"/>
</linearGradient>
<linearGradient id="paint72_linear" x1="489.4" y1="183.099" x2="412.599" y2="183.099" gradientUnits="userSpaceOnUse">
<stop stop-color="#00B2FF"/>
<stop offset="1" stop-color="#00FFC2"/>
</linearGradient>
<linearGradient id="paint73_linear" x1="491.607" y1="26.166" x2="486.679" y2="26.166" gradientUnits="userSpaceOnUse">
<stop stop-color="#00B2FF"/>
<stop offset="1" stop-color="#00FFC2"/>
</linearGradient>
<linearGradient id="paint74_linear" x1="529.809" y1="48.5059" x2="524.88" y2="48.5059" gradientUnits="userSpaceOnUse">
<stop stop-color="#00B2FF"/>
<stop offset="1" stop-color="#00FFC2"/>
</linearGradient>
<linearGradient id="paint75_linear" x1="568" y1="26.166" x2="563.154" y2="26.166" gradientUnits="userSpaceOnUse">
<stop stop-color="#00B2FF"/>
<stop offset="1" stop-color="#00FFC2"/>
</linearGradient>
<linearGradient id="paint76_linear" x1="434.275" y1="104.314" x2="429.347" y2="104.314" gradientUnits="userSpaceOnUse">
<stop stop-color="#00B2FF"/>
<stop offset="1" stop-color="#00FFC2"/>
</linearGradient>
<linearGradient id="paint77_linear" x1="434.275" y1="81.9737" x2="429.347" y2="81.9737" gradientUnits="userSpaceOnUse">
<stop stop-color="#00B2FF"/>
<stop offset="1" stop-color="#00FFC2"/>
</linearGradient>
<linearGradient id="paint78_linear" x1="338.746" y1="26.166" x2="333.818" y2="26.166" gradientUnits="userSpaceOnUse">
<stop stop-color="#00B2FF"/>
<stop offset="1" stop-color="#00FFC2"/>
</linearGradient>
<linearGradient id="paint79_linear" x1="568" y1="26.166" x2="563.154" y2="26.166" gradientUnits="userSpaceOnUse">
<stop stop-color="#00B2FF"/>
<stop offset="1" stop-color="#00FFC2"/>
</linearGradient>
<linearGradient id="paint80_linear" x1="491.607" y1="26.166" x2="486.679" y2="26.166" gradientUnits="userSpaceOnUse">
<stop stop-color="#00B2FF"/>
<stop offset="1" stop-color="#00FFC2"/>
</linearGradient>
<linearGradient id="paint81_linear" x1="529.809" y1="93.1846" x2="524.88" y2="93.1846" gradientUnits="userSpaceOnUse">
<stop stop-color="#00B2FF"/>
<stop offset="1" stop-color="#00FFC2"/>
</linearGradient>
<linearGradient id="paint82_linear" x1="529.809" y1="3.82718" x2="524.88" y2="3.82718" gradientUnits="userSpaceOnUse">
<stop stop-color="#00B2FF"/>
<stop offset="1" stop-color="#00FFC2"/>
</linearGradient>
<linearGradient id="paint83_linear" x1="386.469" y1="98.7901" x2="381.54" y2="98.7901" gradientUnits="userSpaceOnUse">
<stop stop-color="#00B2FF"/>
<stop offset="1" stop-color="#00FFC2"/>
</linearGradient>
<linearGradient id="paint84_linear" x1="367.414" y1="87.5791" x2="362.486" y2="87.5791" gradientUnits="userSpaceOnUse">
<stop stop-color="#00B2FF"/>
<stop offset="1" stop-color="#00FFC2"/>
</linearGradient>
<linearGradient id="paint85_linear" x1="376.938" y1="81.9737" x2="372.009" y2="81.9737" gradientUnits="userSpaceOnUse">
<stop stop-color="#00B2FF"/>
<stop offset="1" stop-color="#00FFC2"/>
</linearGradient>
<linearGradient id="paint86_linear" x1="453.41" y1="249.562" x2="448.482" y2="249.562" gradientUnits="userSpaceOnUse">
<stop stop-color="#00B2FF"/>
<stop offset="1" stop-color="#00FFC2"/>
</linearGradient>
<linearGradient id="paint87_linear" x1="491.607" y1="160.203" x2="486.679" y2="160.203" gradientUnits="userSpaceOnUse">
<stop stop-color="#00B2FF"/>
<stop offset="1" stop-color="#00FFC2"/>
</linearGradient>
<linearGradient id="paint88_linear" x1="529.809" y1="137.864" x2="524.88" y2="137.864" gradientUnits="userSpaceOnUse">
<stop stop-color="#00B2FF"/>
<stop offset="1" stop-color="#00FFC2"/>
</linearGradient>
<linearGradient id="paint89_linear" x1="338.746" y1="26.166" x2="333.818" y2="26.166" gradientUnits="userSpaceOnUse">
<stop stop-color="#00B2FF"/>
<stop offset="1" stop-color="#00FFC2"/>
</linearGradient>
<linearGradient id="paint90_linear" x1="300.549" y1="48.5059" x2="295.62" y2="48.5059" gradientUnits="userSpaceOnUse">
<stop stop-color="#00B2FF"/>
<stop offset="1" stop-color="#00FFC2"/>
</linearGradient>
<linearGradient id="paint91_linear" x1="376.938" y1="70.8457" x2="372.009" y2="70.8457" gradientUnits="userSpaceOnUse">
<stop stop-color="#00B2FF"/>
<stop offset="1" stop-color="#00FFC2"/>
</linearGradient>
<linearGradient id="paint92_linear" x1="319.605" y1="14.9551" x2="314.677" y2="14.9551" gradientUnits="userSpaceOnUse">
<stop stop-color="#00B2FF"/>
<stop offset="1" stop-color="#00FFC2"/>
</linearGradient>
<linearGradient id="paint93_linear" x1="281.41" y1="14.9551" x2="276.482" y2="14.9551" gradientUnits="userSpaceOnUse">
<stop stop-color="#00B2FF"/>
<stop offset="1" stop-color="#00FFC2"/>
</linearGradient>
<linearGradient id="paint94_linear" x1="491.607" y1="115.524" x2="486.679" y2="115.524" gradientUnits="userSpaceOnUse">
<stop stop-color="#00B2FF"/>
<stop offset="1" stop-color="#00FFC2"/>
</linearGradient>
<linearGradient id="paint95_linear" x1="415.137" y1="115.524" x2="410.208" y2="115.524" gradientUnits="userSpaceOnUse">
<stop stop-color="#00B2FF"/>
<stop offset="1" stop-color="#00FFC2"/>
</linearGradient>
<linearGradient id="paint96_linear" x1="453.41" y1="227.223" x2="448.482" y2="227.223" gradientUnits="userSpaceOnUse">
<stop stop-color="#00B2FF"/>
<stop offset="1" stop-color="#00FFC2"/>
</linearGradient>
<linearGradient id="paint97_linear" x1="453.41" y1="137.864" x2="448.482" y2="137.864" gradientUnits="userSpaceOnUse">
<stop stop-color="#00B2FF"/>
<stop offset="1" stop-color="#00FFC2"/>
</linearGradient>
</defs>
</svg>
