<svg width="25" height="25" viewBox="0 0 25 25" fill="none" xmlns="http://www.w3.org/2000/svg">
<path d="M17.3763 15.42H16.2854L15.908 15.0427C17.2528 13.4852 18.0624 11.4612 18.0624 9.24507C18.0624 4.31882 14.0693 0.325684 9.14302 0.325684C4.21677 0.325684 0.223633 4.31882 0.223633 9.24507C0.223633 14.1713 4.21677 18.1644 9.14302 18.1644C11.3591 18.1644 13.3832 17.3548 14.9406 16.0169L15.318 16.3943V17.4783L22.179 24.3257L24.2236 22.2811L17.3763 15.42ZM9.14302 15.42C5.73307 15.42 2.96806 12.655 2.96806 9.24507C2.96806 5.83512 5.73307 3.07011 9.14302 3.07011C12.553 3.07011 15.318 5.83512 15.318 9.24507C15.318 12.655 12.553 15.42 9.14302 15.42Z" fill="#F73859"/>
</svg>
