<svg width="242" height="61" viewBox="0 0 242 61" fill="none" xmlns="http://www.w3.org/2000/svg">
<path d="M65.54 39.5813C66.552 39.5813 67.41 39.4933 68.114 39.3173C68.818 39.1413 69.423 38.8993 69.929 38.5913L70.853 41.8913C70.325 42.1993 69.577 42.4743 68.609 42.7163C67.641 42.9583 66.464 43.0793 65.078 43.0793C63.516 43.0793 62.075 42.8373 60.755 42.3533C59.435 41.8473 58.291 41.1323 57.323 40.2083C56.377 39.2623 55.64 38.1293 55.112 36.8093C54.584 35.4673 54.32 33.9603 54.32 32.2883C54.32 30.6603 54.573 29.1863 55.079 27.8663C55.607 26.5463 56.333 25.4243 57.257 24.5003C58.203 23.5543 59.347 22.8283 60.689 22.3223C62.031 21.8163 63.527 21.5633 65.177 21.5633C66.585 21.5633 67.74 21.6953 68.642 21.9593C69.566 22.2233 70.314 22.5093 70.886 22.8173L69.863 26.1503C69.291 25.8423 68.653 25.5893 67.949 25.3913C67.267 25.1713 66.497 25.0613 65.639 25.0613C64.737 25.0613 63.89 25.1933 63.098 25.4573C62.306 25.7213 61.613 26.1503 61.019 26.7443C60.425 27.3163 59.952 28.0643 59.6 28.9883C59.27 29.8903 59.105 30.9903 59.105 32.2883C59.105 33.5423 59.27 34.6313 59.6 35.5553C59.93 36.4573 60.381 37.2053 60.953 37.7993C61.547 38.3933 62.229 38.8443 62.999 39.1523C63.791 39.4383 64.638 39.5813 65.54 39.5813ZM73.8003 42.7163V26.9753H77.1993L77.6943 29.8133C78.0683 28.9773 78.6623 28.2403 79.4763 27.6023C80.2903 26.9643 81.3133 26.6453 82.5453 26.6453C83.0513 26.6453 83.5023 26.7003 83.8983 26.8103C84.2943 26.9203 84.6243 27.0523 84.8883 27.2063L84.1623 30.6713C83.9203 30.5393 83.6123 30.4293 83.2383 30.3413C82.8643 30.2313 82.4243 30.1763 81.9183 30.1763C80.8403 30.1763 79.9383 30.5393 79.2123 31.2653C78.5083 31.9693 78.1563 33.1353 78.1563 34.7633V42.7163H73.8003ZM85.5542 26.9753H90.3392L93.1442 34.4663L94.2002 38.2943H94.3322L95.3552 34.4333L97.7972 26.9753H102.285L96.5102 43.2773C96.1802 44.1793 95.8062 45.0373 95.3882 45.8513C94.9922 46.6873 94.4972 47.4573 93.9032 48.1613C93.3312 48.8653 92.6492 49.4923 91.8572 50.0423C91.0652 50.5923 90.1302 51.0433 89.0522 51.3953L87.2372 47.9963C88.4692 47.5563 89.5032 46.9183 90.3392 46.0823C91.1752 45.2463 91.7472 44.2453 92.0552 43.0793L92.1872 42.6503L85.5542 26.9753ZM111.873 43.0793C111.301 43.0793 110.729 43.0023 110.157 42.8483C109.607 42.7163 109.145 42.5403 108.771 42.3203V50.3063H104.415V26.9093H107.748L108.21 28.6583C108.848 28.0423 109.574 27.5583 110.388 27.2063C111.202 26.8323 112.115 26.6453 113.127 26.6453C115.195 26.6453 116.823 27.3493 118.011 28.7573C119.221 30.1433 119.826 32.0683 119.826 34.5323C119.826 35.9183 119.617 37.1503 119.199 38.2283C118.781 39.2843 118.209 40.1753 117.483 40.9013C116.757 41.6273 115.91 42.1773 114.942 42.5513C113.974 42.9033 112.951 43.0793 111.873 43.0793ZM111.939 29.9453C111.213 29.9453 110.575 30.1213 110.025 30.4733C109.475 30.8033 109.057 31.1443 108.771 31.4963V39.0203C109.453 39.5703 110.3 39.8453 111.312 39.8453C111.796 39.8453 112.269 39.7573 112.731 39.5813C113.215 39.3833 113.644 39.0863 114.018 38.6903C114.414 38.2723 114.722 37.7333 114.942 37.0733C115.184 36.4133 115.305 35.6103 115.305 34.6643C115.305 33.9823 115.228 33.3553 115.074 32.7833C114.942 32.2113 114.733 31.7163 114.447 31.2983C114.161 30.8803 113.809 30.5503 113.391 30.3083C112.973 30.0663 112.489 29.9453 111.939 29.9453ZM132.319 30.1433H128.128V37.4033C128.128 38.1513 128.293 38.6683 128.623 38.9543C128.975 39.2183 129.437 39.3503 130.009 39.3503C130.449 39.3503 130.9 39.3063 131.362 39.2183C131.824 39.1303 132.198 39.0093 132.484 38.8553L133.144 41.9243C132.77 42.1003 132.209 42.2763 131.461 42.4523C130.713 42.6283 129.921 42.7163 129.085 42.7163C127.171 42.7163 125.807 42.3423 124.993 41.5943C124.179 40.8243 123.772 39.6803 123.772 38.1623V30.1433H121.33V26.9753H123.772V22.1243H128.128V26.9753H132.319V30.1433ZM150.826 34.7303C150.826 36.0283 150.617 37.1943 150.199 38.2283C149.781 39.2623 149.198 40.1423 148.45 40.8683C147.724 41.5723 146.866 42.1223 145.876 42.5183C144.886 42.8923 143.819 43.0793 142.675 43.0793C141.531 43.0793 140.464 42.9033 139.474 42.5513C138.506 42.1993 137.659 41.6823 136.933 41.0003C136.229 40.3183 135.668 39.4823 135.25 38.4923C134.854 37.4803 134.656 36.3363 134.656 35.0603C134.656 33.7183 134.865 32.5303 135.283 31.4963C135.701 30.4403 136.273 29.5603 136.999 28.8563C137.747 28.1303 138.616 27.5803 139.606 27.2063C140.596 26.8323 141.663 26.6453 142.807 26.6453C143.951 26.6453 145.007 26.8213 145.975 27.1733C146.965 27.5253 147.812 28.0423 148.516 28.7243C149.242 29.3843 149.803 30.2203 150.199 31.2323C150.617 32.2443 150.826 33.4103 150.826 34.7303ZM146.305 34.8953C146.305 33.9933 146.206 33.2233 146.008 32.5853C145.81 31.9473 145.546 31.4303 145.216 31.0343C144.886 30.6383 144.501 30.3523 144.061 30.1763C143.621 29.9783 143.17 29.8793 142.708 29.8793C142.246 29.8793 141.806 29.9673 141.388 30.1433C140.97 30.2973 140.596 30.5723 140.266 30.9683C139.936 31.3423 139.672 31.8483 139.474 32.4863C139.276 33.1243 139.177 33.9273 139.177 34.8953C139.177 35.7533 139.276 36.5013 139.474 37.1393C139.672 37.7553 139.936 38.2613 140.266 38.6573C140.618 39.0533 141.003 39.3503 141.421 39.5483C141.861 39.7463 142.312 39.8453 142.774 39.8453C143.236 39.8453 143.676 39.7683 144.094 39.6143C144.512 39.4383 144.886 39.1523 145.216 38.7563C145.546 38.3603 145.81 37.8543 146.008 37.2383C146.206 36.6003 146.305 35.8193 146.305 34.8953ZM154.245 42.7163V21.9263H158.766V30.1763H166.653V21.9263H171.174V42.7163H166.653V33.7403H158.766V42.7163H154.245ZM190.787 34.7303C190.787 36.0283 190.578 37.1943 190.16 38.2283C189.742 39.2623 189.159 40.1423 188.411 40.8683C187.685 41.5723 186.827 42.1223 185.837 42.5183C184.847 42.8923 183.78 43.0793 182.636 43.0793C181.492 43.0793 180.425 42.9033 179.435 42.5513C178.467 42.1993 177.62 41.6823 176.894 41.0003C176.19 40.3183 175.629 39.4823 175.211 38.4923C174.815 37.4803 174.617 36.3363 174.617 35.0603C174.617 33.7183 174.826 32.5303 175.244 31.4963C175.662 30.4403 176.234 29.5603 176.96 28.8563C177.708 28.1303 178.577 27.5803 179.567 27.2063C180.557 26.8323 181.624 26.6453 182.768 26.6453C183.912 26.6453 184.968 26.8213 185.936 27.1733C186.926 27.5253 187.773 28.0423 188.477 28.7243C189.203 29.3843 189.764 30.2203 190.16 31.2323C190.578 32.2443 190.787 33.4103 190.787 34.7303ZM186.266 34.8953C186.266 33.9933 186.167 33.2233 185.969 32.5853C185.771 31.9473 185.507 31.4303 185.177 31.0343C184.847 30.6383 184.462 30.3523 184.022 30.1763C183.582 29.9783 183.131 29.8793 182.669 29.8793C182.207 29.8793 181.767 29.9673 181.349 30.1433C180.931 30.2973 180.557 30.5723 180.227 30.9683C179.897 31.3423 179.633 31.8483 179.435 32.4863C179.237 33.1243 179.138 33.9273 179.138 34.8953C179.138 35.7533 179.237 36.5013 179.435 37.1393C179.633 37.7553 179.897 38.2613 180.227 38.6573C180.579 39.0533 180.964 39.3503 181.382 39.5483C181.822 39.7463 182.273 39.8453 182.735 39.8453C183.197 39.8453 183.637 39.7683 184.055 39.6143C184.473 39.4383 184.847 39.1523 185.177 38.7563C185.507 38.3603 185.771 37.8543 185.969 37.2383C186.167 36.6003 186.266 35.8193 186.266 34.8953ZM204.073 26.9753H208.462V42.7163H205.195L204.733 40.9343H204.601C204.359 41.1763 204.073 41.4293 203.743 41.6933C203.435 41.9353 203.061 42.1663 202.621 42.3863C202.203 42.5843 201.719 42.7493 201.169 42.8813C200.641 43.0133 200.047 43.0793 199.387 43.0793C197.693 43.0793 196.351 42.6063 195.361 41.6603C194.393 40.7143 193.909 39.3173 193.909 37.4693V26.9753H198.298V37.1063C198.298 38.0523 198.518 38.7343 198.958 39.1523C199.42 39.5703 200.003 39.7793 200.707 39.7793C201.499 39.7793 202.17 39.6143 202.72 39.2843C203.292 38.9543 203.743 38.5693 204.073 38.1293V26.9753ZM221.911 30.7373C220.613 30.1213 219.359 29.8133 218.149 29.8133C217.445 29.8133 216.895 29.9343 216.499 30.1763C216.125 30.4183 215.938 30.7483 215.938 31.1663C215.938 31.5843 216.103 31.9253 216.433 32.1893C216.785 32.4533 217.478 32.7393 218.512 33.0473L219.502 33.3443C220.866 33.7403 221.9 34.3123 222.604 35.0603C223.308 35.8083 223.66 36.7763 223.66 37.9643C223.66 39.5263 223.055 40.7693 221.845 41.6933C220.657 42.6173 219.04 43.0793 216.994 43.0793C214.904 43.0793 213.111 42.7053 211.615 41.9573L212.605 38.7233C213.243 39.0533 213.914 39.3283 214.618 39.5483C215.322 39.7463 216.037 39.8453 216.763 39.8453C217.643 39.8453 218.281 39.7133 218.677 39.4493C219.095 39.1633 219.304 38.8003 219.304 38.3603C219.304 37.8983 219.106 37.5463 218.71 37.3043C218.314 37.0403 217.566 36.7543 216.466 36.4463L215.443 36.1493C214.123 35.7093 213.155 35.1263 212.539 34.4003C211.923 33.6743 211.615 32.7063 211.615 31.4963C211.615 30.0663 212.154 28.9003 213.232 27.9983C214.31 27.0963 215.817 26.6453 217.753 26.6453C219.667 26.6453 221.361 26.9863 222.835 27.6683L221.911 30.7373ZM240.611 35.9843H230.15V36.1163C230.15 37.3703 230.59 38.3053 231.47 38.9213C232.35 39.5373 233.483 39.8453 234.869 39.8453C235.749 39.8453 236.519 39.7573 237.179 39.5813C237.861 39.4053 238.477 39.1963 239.027 38.9543L239.819 42.0233C239.225 42.3093 238.477 42.5513 237.575 42.7493C236.673 42.9693 235.606 43.0793 234.374 43.0793C233.186 43.0793 232.064 42.9253 231.008 42.6173C229.974 42.2873 229.061 41.7923 228.269 41.1323C227.499 40.4723 226.883 39.6363 226.421 38.6243C225.959 37.6123 225.728 36.4023 225.728 34.9943C225.728 33.7403 225.915 32.6073 226.289 31.5953C226.663 30.5613 227.191 29.6813 227.873 28.9553C228.577 28.2293 229.413 27.6683 230.381 27.2723C231.349 26.8543 232.427 26.6453 233.615 26.6453C235.749 26.6453 237.443 27.2943 238.697 28.5923C239.973 29.8903 240.611 31.7053 240.611 34.0373V35.9843ZM236.123 32.9813C236.123 32.5633 236.068 32.1563 235.958 31.7603C235.87 31.3643 235.716 31.0233 235.496 30.7373C235.276 30.4293 235.001 30.1873 234.671 30.0113C234.341 29.8353 233.934 29.7473 233.45 29.7473C232.57 29.7473 231.844 30.0443 231.272 30.6383C230.7 31.2323 230.359 32.0353 230.249 33.0473L236.123 32.9813Z" fill="#131920"/>
<path d="M3.43945 23.3158L24.5966 7.36656C25.3093 6.82929 26.2917 6.82929 27.0044 7.36656L48.1616 23.3158" stroke="#F73859" stroke-width="4" stroke-linecap="round"/>
<path d="M5.49756 53.0222C5.34119 53.0222 5.18491 52.9626 5.06561 52.8433C4.82709 52.6048 4.82709 52.218 5.06561 51.9795L10.0742 46.9709C10.3129 46.7323 10.6996 46.7324 10.9381 46.9709C11.1766 47.2094 11.1766 47.5962 10.9381 47.8347L5.92951 52.8433C5.81013 52.9626 5.65376 53.0222 5.49756 53.0222Z" fill="#F73859"/>
<path d="M10.1577 53.6832C10.0014 53.6832 9.84506 53.6236 9.72576 53.5043C9.48725 53.2658 9.48725 52.879 9.72576 52.6405L15.059 47.3073C15.2976 47.0688 15.6843 47.0688 15.9229 47.3073C16.1614 47.5458 16.1614 47.9326 15.9229 48.1711L10.5897 53.5043C10.4704 53.6236 10.314 53.6832 10.1577 53.6832Z" fill="#F73859"/>
<path d="M4.73975 48.449C4.58346 48.449 4.4271 48.3894 4.3078 48.2701C4.06928 48.0315 4.06928 47.6448 4.3078 47.4062L9.31631 42.3976C9.5549 42.1591 9.94161 42.1591 10.1802 42.3976C10.4187 42.6362 10.4187 43.0229 10.1802 43.2615L5.1717 48.2701C5.0524 48.3893 4.89603 48.449 4.73975 48.449Z" fill="#F73859"/>
<path d="M25.7585 46.8133C33.8835 46.8133 40.4701 40.2267 40.4701 32.1017C40.4701 23.9767 33.8835 17.3901 25.7585 17.3901C17.6335 17.3901 11.0469 23.9767 11.0469 32.1017C11.0469 40.2267 17.6335 46.8133 25.7585 46.8133Z" fill="#F73859"/>
<path d="M34.0136 19.9229C35.6119 22.2766 36.5461 25.1177 36.5461 28.1772C36.5461 36.3022 29.9595 42.8888 21.8345 42.8888C18.775 42.8888 15.9338 41.9546 13.5801 40.3563C16.2264 44.2532 20.6936 46.8135 25.7591 46.8135C33.8841 46.8135 40.4707 40.2269 40.4707 32.1019C40.4708 27.0363 37.9105 22.5691 34.0136 19.9229Z" fill="#F73859"/>
<path d="M25.758 47.4241C17.3091 47.4241 10.4355 40.5505 10.4355 32.1017C10.4355 23.6528 17.3091 16.7793 25.758 16.7793C34.2068 16.7793 41.0804 23.6529 41.0804 32.1018C41.0804 40.5506 34.2068 47.4241 25.758 47.4241ZM25.758 18.0009C17.9827 18.0009 11.6571 24.3265 11.6571 32.1017C11.6571 39.8769 17.9827 46.2025 25.758 46.2025C33.5333 46.2025 39.8588 39.8769 39.8588 32.1017C39.8588 24.3265 33.5332 18.0009 25.758 18.0009Z" fill="#FFECCF"/>
<path d="M16.4093 56.6337L14.6166 54.8411C14.2866 54.5111 14.2866 53.976 14.6166 53.6461L23.5339 44.7288C24.0554 44.2075 24.7484 43.9204 25.4856 43.9204C26.223 43.9204 26.9162 44.2076 27.4376 44.7291L30.8583 48.1501L41 38.0083L43.9877 40.9959L32.8102 52.1733C31.7339 53.2495 29.9829 53.2492 28.9068 52.1733L25.4857 48.7522L17.6043 56.6337C17.2743 56.9637 16.7392 56.9637 16.4093 56.6337Z" fill="#00B2FF"/>
<path d="M32.8101 50.3116C31.7338 51.3878 29.9828 51.3875 28.9067 50.3116L25.4856 46.8905L17.6042 54.772C17.2742 55.1019 16.7392 55.1019 16.4092 54.772L14.9499 53.3127L14.6166 53.646C14.2866 53.9759 14.2866 54.511 14.6166 54.841L16.4093 56.6336C16.7392 56.9636 17.2743 56.9636 17.6043 56.6336L25.4857 48.7521L28.9068 52.1732C29.9829 53.2491 31.7339 53.2494 32.8102 52.1732L43.9877 40.9958L43.0568 40.0649L32.8101 50.3116Z" fill="#585EF9"/>
<path d="M44.3613 48.1842H41.8263C41.3596 48.1842 40.9813 47.8059 40.9813 47.3392V41.8155C40.9813 41.3488 40.6031 40.9705 40.1364 40.9705H34.6125C34.1459 40.9705 33.7676 40.5922 33.7676 40.1256V37.5906C33.7676 37.1239 34.1459 36.7456 34.6125 36.7456H44.3613C44.828 36.7456 45.2063 37.1239 45.2063 37.5906V47.3392C45.2063 47.8059 44.8279 48.1842 44.3613 48.1842Z" fill="#00B2FF"/>
<path d="M44.3604 36.7456H44.0266V46.1604C44.0266 46.6271 43.6483 47.0054 43.1816 47.0054H40.9805V47.3392C40.9805 47.8059 41.3588 48.1842 41.8254 48.1842H44.3604C44.8271 48.1842 45.2055 47.8059 45.2055 47.3392V37.5906C45.2055 37.1239 44.8271 36.7456 44.3604 36.7456Z" fill="#585EF9"/>
<path fill-rule="evenodd" clip-rule="evenodd" d="M23.5215 26.5181H24.0944V28.2367H23.5215V26.5181ZM25.9406 28.4757C27.103 28.4757 28.0212 28.7233 28.6954 29.2186C29.3696 29.7139 29.7067 30.4107 29.7067 31.3092C29.7067 31.6432 29.6428 31.9427 29.5149 32.2076C29.3987 32.4725 29.2417 32.7029 29.0441 32.8987C28.8581 33.083 28.6431 33.2385 28.399 33.3652C28.1665 33.4919 27.9282 33.584 27.6842 33.6416C28.0096 33.6992 28.3118 33.7971 28.5908 33.9353C28.8814 34.062 29.1313 34.2348 29.3405 34.4537C29.5614 34.6725 29.7299 34.9374 29.8462 35.2484C29.974 35.5479 30.038 35.8935 30.038 36.2851C30.038 36.7343 29.9392 37.149 29.7416 37.5291C29.5439 37.8976 29.2592 38.2202 28.8872 38.4966C28.5269 38.773 28.0852 38.9861 27.5621 39.1359C27.0507 39.2856 26.4811 39.3605 25.8534 39.3605H25.8131V40.8402H25.2403V39.3605H24.0944V40.8402H23.5215V39.3605H22.0176V28.4757H25.9406ZM24.4063 32.8296H25.5396C26.0626 32.8296 26.4753 32.7202 26.7775 32.5013C27.0913 32.2709 27.2483 31.9312 27.2483 31.4819C27.2483 31.0788 27.103 30.7793 26.8124 30.5835C26.5334 30.3762 26.1266 30.2725 25.5919 30.2725H24.4063V32.8296ZM24.4063 37.5636H25.5396C26.1324 37.5636 26.6206 37.4542 27.0042 37.2353C27.3877 37.005 27.5795 36.6134 27.5795 36.0605C27.5795 35.5421 27.3761 35.1736 26.9693 34.9547C26.5625 34.7243 26.0626 34.6092 25.4698 34.6092H24.4063V37.5636ZM25.2403 26.5181H25.8131V28.2367H25.2403V26.5181Z" fill="white"/>
<path d="M43.8047 12.1924C43.8047 12.1924 43.8047 6.22943 49.7677 6.22943C49.7677 6.22943 43.8047 6.22943 43.8047 0.266487C43.8047 0.266487 43.8047 6.22943 37.8418 6.22943C37.8418 6.22943 43.8047 6.22943 43.8047 12.1924Z" fill="#F73859"/>
<path d="M3.78418 14.0273C3.78418 14.0273 3.78418 10.2432 7.56836 10.2432C7.56836 10.2432 3.78418 10.2432 3.78418 6.45899C3.78418 6.45899 3.78418 10.2432 0 10.2432C0 10.2432 3.78418 10.2432 3.78418 14.0273Z" fill="#F73859"/>
</svg>
